<?xml version="1.0" encoding="UTF-8"?>
<svg width="531px" height="491px" viewBox="0 0 531 491" version="1.1" xmlns="http://www.w3.org/2000/svg" xmlns:xlink="http://www.w3.org/1999/xlink">
    <!-- Generator: Sketch 46 (44423) - http://www.bohemiancoding.com/sketch -->
    <title>Page 1</title>
    <desc>Created with Sketch.</desc>
    <defs>
        <polygon id="path-1" points="0 491 530.209 491 530.209 0.151 0 0.151"></polygon>
    </defs>
    <g id="Main" stroke="none" stroke-width="1" fill="none" fill-rule="evenodd">
        <g id="Bison" transform="translate(-335.000000, -4802.000000)">
            <g id="Page-1" transform="translate(335.000000, 4801.000000)">
                <polygon id="Stroke-1" stroke="#A1B3CE" stroke-width="3.12" stroke-linecap="round" stroke-linejoin="round" points="252.1203 138.8933 252.1203 90.5983 280.6433 48.7133 200.8573 48.7133 227.6093 90.5043 227.6093 138.8933"></polygon>
                <g id="Group-135" transform="translate(0.000000, 0.849000)">
                    <path d="M33.3226,170.1196 L33.3226,136.8316 L17.1026,108.8636 L65.5436,108.8636 L50.1836,136.8966 L50.1836,170.1196 C50.1836,177.6846 56.3166,183.8186 63.8826,183.8186 L66.2276,183.8186 L118.2646,183.8186 L123.0526,183.8186 C130.0686,183.8186 135.7566,189.5056 135.7566,196.5216 L135.7566,208.2486 L118.7536,208.2486 L118.7536,200.3876 L63.0706,200.0986 C46.5866,200.0136 33.2806,186.6036 33.3226,170.1196 Z" id="Stroke-2" stroke="#A1B3CE" stroke-width="3.12" stroke-linecap="round" stroke-linejoin="round"></path>
                    <path d="M265.1145,455.7969 C265.2525,457.4839 265.3445,458.7329 265.4585,459.9799 C266.0355,466.2969 266.6345,472.6119 267.1845,478.9309 C267.3135,480.4179 267.8365,481.5579 269.0875,482.4699 C270.6375,483.5999 272.0545,484.9129 273.5445,486.1599 C273.1595,488.5569 271.4885,488.9539 269.7105,489.0169 C264.3715,489.2079 259.0295,489.4599 253.6905,489.4389 C241.8045,489.3919 229.9185,489.2069 218.0335,489.0499 C215.2065,489.0119 214.2845,488.4009 213.6665,486.1819 C215.1885,484.9029 216.8715,483.6079 218.4005,482.1529 C219.0725,481.5129 219.7855,480.5839 219.8775,479.7219 C220.6785,472.2199 221.3455,464.7039 222.0375,457.1899 C222.0665,456.8719 221.9545,456.5409 221.8735,455.9759 C220.8995,455.9159 219.9315,455.8049 218.9635,455.8049 C196.1165,455.7949 173.2685,455.7989 150.4215,455.7949 C143.9955,455.7939 140.8425,452.6529 140.8415,446.1799 C140.8315,406.7639 140.8315,367.3489 140.8405,327.9339 C140.8415,321.3999 144.0335,318.2289 150.5885,318.2279 C212.1825,318.2229 273.7775,318.2229 335.3715,318.2279 C341.9315,318.2289 345.1305,321.3979 345.1325,327.9219 C345.1415,367.3369 345.1415,406.7519 345.1315,446.1669 C345.1295,452.7179 341.9825,455.7949 335.3635,455.7959 C312.9835,455.7979 290.6035,455.7969 268.2235,455.7969 C267.3085,455.7969 266.3925,455.7969 265.1145,455.7969 Z" id="Stroke-4" stroke="#A1B3CE" stroke-width="3.12"></path>
                    <path d="M148.325,424.7151 C151.655,425.5911 336.463,425.2341 337.74,424.4491 L337.74,327.2051 L148.325,327.2051 L148.325,424.7151 Z" id="Stroke-6" stroke="#A1B3CE" stroke-width="1.04"></path>
                    <path d="M151.0225,313.1083 L150.2625,313.1083 C145.5225,313.1083 141.6665,309.2523 141.6665,304.5123 L141.6665,292.2113 C141.6665,291.3553 140.9705,290.6593 140.1145,290.6593 C139.0975,290.6593 138.2695,291.4873 138.2695,292.5033 L138.2695,301.7633 C138.2695,306.2043 134.6565,309.8173 130.2155,309.8173 C125.8475,309.8173 122.2935,306.2633 122.2935,301.8943 L122.2935,279.2313 C122.2935,277.5073 123.6905,276.1103 125.4135,276.1103 C127.1375,276.1103 128.5345,277.5073 128.5345,279.2313 L128.5345,301.8943 C128.5345,302.8213 129.2885,303.5763 130.2155,303.5763 C131.2155,303.5763 132.0285,302.7633 132.0285,301.7633 L132.0285,292.5033 C132.0285,288.0453 135.6565,284.4183 140.1145,284.4183 C144.4115,284.4183 147.9075,287.9143 147.9075,292.2113 L147.9075,304.5123 C147.9075,305.8113 148.9645,306.8673 150.2625,306.8673 L151.0225,306.8673 C152.2145,306.8673 153.1845,305.8973 153.1845,304.7053 L153.1845,278.0473 C153.1845,273.5893 156.8115,269.9623 161.2705,269.9623 L171.4675,269.9623 C173.1905,269.9623 174.5875,271.3583 174.5875,273.0823 C174.5875,274.8063 173.1905,276.2033 171.4675,276.2033 L161.2705,276.2033 C160.2535,276.2033 159.4255,277.0303 159.4255,278.0473 L159.4255,304.7053 C159.4255,309.3393 155.6555,313.1083 151.0225,313.1083" id="Fill-8" fill="#39BDE4"></path>
                    <path d="M153.5611,212.6976 L103.4571,212.6976 C102.4261,212.6976 101.5911,211.8626 101.5911,210.8326 L101.5911,210.1136 C101.5911,209.0836 102.4261,208.2486 103.4571,208.2486 L153.5611,208.2486 C154.5911,208.2486 155.4261,209.0836 155.4261,210.1136 L155.4261,210.8326 C155.4261,211.8626 154.5911,212.6976 153.5611,212.6976" id="Fill-10" fill="#2B3039"></path>
                    <path d="M153.5611,212.6976 L103.4571,212.6976 C102.4261,212.6976 101.5911,211.8626 101.5911,210.8326 L101.5911,210.1136 C101.5911,209.0836 102.4261,208.2486 103.4571,208.2486 L153.5611,208.2486 C154.5911,208.2486 155.4261,209.0836 155.4261,210.1136 L155.4261,210.8326 C155.4261,211.8626 154.5911,212.6976 153.5611,212.6976 Z" id="Stroke-12" stroke="#A1B3CE" stroke-width="1.04" stroke-linecap="round" stroke-linejoin="round"></path>
                    <path d="M265.9042,312.0137 L254.9762,312.0137 C256.2042,312.0137 257.3712,310.2957 257.3712,309.0677 C257.3712,307.8387 256.3752,306.8427 255.1472,306.8427 L227.1432,306.8427 C225.9142,306.8427 224.9182,307.8387 224.9182,309.0677 C224.9182,310.2957 225.7782,312.0137 227.0072,312.0137 L216.5182,312.0137 C215.2902,312.0137 214.2942,313.0097 214.2942,314.2387 C214.2942,315.4667 215.2902,316.4627 216.5182,316.4627 L265.9042,316.4627 C267.1332,316.4627 268.1292,315.4667 268.1292,314.2387 C268.1292,313.0097 267.1332,312.0137 265.9042,312.0137" id="Fill-14" fill="#2B3039"></path>
                    <path d="M265.9042,312.0137 L254.9762,312.0137 C256.2042,312.0137 257.3712,310.2957 257.3712,309.0677 C257.3712,307.8387 256.3752,306.8427 255.1472,306.8427 L227.1432,306.8427 C225.9142,306.8427 224.9182,307.8387 224.9182,309.0677 C224.9182,310.2957 225.7782,312.0137 227.0072,312.0137 L216.5182,312.0137 C215.2902,312.0137 214.2942,313.0097 214.2942,314.2387 C214.2942,315.4667 215.2902,316.4627 216.5182,316.4627 L265.9042,316.4627 C267.1332,316.4627 268.1292,315.4667 268.1292,314.2387 C268.1292,313.0097 267.1332,312.0137 265.9042,312.0137 Z" id="Stroke-16" stroke="#A1B3CE" stroke-width="3.12" stroke-linecap="round" stroke-linejoin="round"></path>
                    <mask id="mask-2" fill="white">
                        <use xlink:href="#path-1"></use>
                    </mask>
                    <g id="Clip-19"></g>
                    <polygon id="Stroke-18" stroke="#A1B3CE" stroke-width="3.12" stroke-linecap="round" stroke-linejoin="round" mask="url(#mask-2)" points="107.34 277.15 149.945 277.15 149.945 213.737 107.34 213.737"></polygon>
                    <path d="M60.5644,180.8074 L48.3344,199.8514 C47.7794,200.7144 46.6194,200.9674 45.7554,200.4124 L45.1504,200.0244 C44.2864,199.4694 44.0334,198.3094 44.5884,197.4454 L56.8184,178.4014 C57.3734,177.5384 58.5334,177.2854 59.3974,177.8404 L60.0024,178.2284 C60.8664,178.7834 61.1194,179.9434 60.5644,180.8074" id="Fill-20" fill="#2B3039" mask="url(#mask-2)"></path>
                    <path d="M60.5644,180.8074 L48.3344,199.8514 C47.7794,200.7144 46.6194,200.9674 45.7554,200.4124 L45.1504,200.0244 C44.2864,199.4694 44.0334,198.3094 44.5884,197.4454 L56.8184,178.4014 C57.3734,177.5384 58.5334,177.2854 59.3974,177.8404 L60.0024,178.2284 C60.8664,178.7834 61.1194,179.9434 60.5644,180.8074 Z" id="Stroke-21" stroke="#A1B3CE" stroke-width="1.04" stroke-linecap="round" stroke-linejoin="round" mask="url(#mask-2)"></path>
                    <path d="M342.5648,216.9952 L337.7768,216.9952 C330.7608,216.9952 325.0728,222.6832 325.0728,229.6992 L325.0728,241.4262 L342.0758,241.4262 L342.0758,233.5652 L370.1198,233.4192 L369.6128,216.9952 L342.5648,216.9952 Z" id="Stroke-22" stroke="#A1B3CE" stroke-width="3.12" stroke-linecap="round" stroke-linejoin="round" mask="url(#mask-2)"></path>
                    <path d="M430.2517,139.0971 L448.0837,170.0731 L448.0837,203.2971 L448.0837,203.2971 C448.0837,210.8621 441.9507,216.9951 434.3847,216.9951 L432.0397,216.9951 L407.0507,216.9951 L407.5577,233.4191 L435.1967,233.2761 C451.6807,233.1911 464.9867,219.7811 464.9447,203.2971 L464.9447,203.2971 L464.9447,170.0091 L482.2147,139.0971 L430.2517,139.0971 Z" id="Stroke-23" stroke="#A1B3CE" stroke-width="3.12" stroke-linecap="round" stroke-linejoin="round" mask="url(#mask-2)"></path>
                    <path d="M437.703,213.9846 L449.933,233.0276 C450.488,233.8916 451.648,234.1446 452.512,233.5896 L453.117,233.2016 C453.981,232.6466 454.234,231.4866 453.679,230.6226 L441.449,211.5786 C440.894,210.7156 439.734,210.4626 438.87,211.0176 L438.265,211.4056 C437.401,211.9606 437.148,213.1206 437.703,213.9846" id="Fill-24" fill="#2B3039" mask="url(#mask-2)"></path>
                    <path d="M437.703,213.9846 L449.933,233.0276 C450.488,233.8916 451.648,234.1446 452.512,233.5896 L453.117,233.2016 C453.981,232.6466 454.234,231.4866 453.679,230.6226 L441.449,211.5786 C440.894,210.7156 439.734,210.4626 438.87,211.0176 L438.265,211.4056 C437.401,211.9606 437.148,213.1206 437.703,213.9846 Z" id="Stroke-25" stroke="#A1B3CE" stroke-width="1.04" stroke-linecap="round" stroke-linejoin="round" mask="url(#mask-2)"></path>
                    <path d="M413.6832,224.4418 C413.6832,210.3028 402.2212,198.8408 388.0822,198.8408 C373.9432,198.8408 362.4812,210.3028 362.4812,224.4418 C362.4812,238.5808 373.9432,250.0428 388.0822,250.0428 C402.2212,250.0428 413.6832,238.5808 413.6832,224.4418" id="Fill-26" fill="#2B3039" mask="url(#mask-2)"></path>
                    <path d="M413.6832,224.4418 C413.6832,210.3028 402.2212,198.8408 388.0822,198.8408 C373.9432,198.8408 362.4812,210.3028 362.4812,224.4418 C362.4812,238.5808 373.9432,250.0428 388.0822,250.0428 C402.2212,250.0428 413.6832,238.5808 413.6832,224.4418 Z" id="Stroke-27" stroke="#A1B3CE" stroke-width="3.12" stroke-linecap="round" stroke-linejoin="round" mask="url(#mask-2)"></path>
                    <path d="M388.0821,206.2556 C378.0381,206.2556 369.8961,214.3976 369.8961,224.4416 L406.2681,224.4416 C406.2681,214.3976 398.1261,206.2556 388.0821,206.2556" id="Fill-28" fill="#2B3039" mask="url(#mask-2)"></path>
                    <path d="M388.0821,206.2556 C378.0381,206.2556 369.8961,214.3976 369.8961,224.4416 L406.2681,224.4416 C406.2681,214.3976 398.1261,206.2556 388.0821,206.2556 Z" id="Stroke-29" stroke="#A1B3CE" stroke-width="1.04" stroke-linecap="round" stroke-linejoin="round" mask="url(#mask-2)"></path>
                    <path d="M391.566,224.4418 C391.566,222.5178 390.006,220.9578 388.082,220.9578 C386.158,220.9578 384.598,222.5178 384.598,224.4418 C384.598,226.3658 386.158,227.9258 388.082,227.9258 C390.006,227.9258 391.566,226.3658 391.566,224.4418" id="Fill-30" fill="#39BDE4" mask="url(#mask-2)"></path>
                    <path d="M379.6593,234.7338 C379.6593,233.3778 378.5603,232.2788 377.2043,232.2788 C375.8473,232.2788 374.7483,233.3778 374.7483,234.7338 C374.7483,236.0898 375.8473,237.1888 377.2043,237.1888 C378.5603,237.1888 379.6593,236.0898 379.6593,234.7338" id="Fill-31" fill="#39BDE4" mask="url(#mask-2)"></path>
                    <path d="M390.5191,234.7338 C390.5191,233.3778 389.4201,232.2788 388.0641,232.2788 C386.7071,232.2788 385.6081,233.3778 385.6081,234.7338 C385.6081,236.0898 386.7071,237.1888 388.0641,237.1888 C389.4201,237.1888 390.5191,236.0898 390.5191,234.7338" id="Fill-32" fill="#39BDE4" mask="url(#mask-2)"></path>
                    <path d="M401.4157,234.7338 C401.4157,233.3778 400.3167,232.2788 398.9607,232.2788 C397.6037,232.2788 396.5047,233.3778 396.5047,234.7338 C396.5047,236.0898 397.6037,237.1888 398.9607,237.1888 C400.3167,237.1888 401.4157,236.0898 401.4157,234.7338" id="Fill-33" fill="#39BDE4" mask="url(#mask-2)"></path>
                    <path d="M380.6128,214.0703 L392.0898,230.1383" id="Stroke-34" stroke="#39BDE4" stroke-width="1.04" stroke-linecap="round" stroke-linejoin="round" mask="url(#mask-2)"></path>
                    <polygon id="Fill-35" fill="#F05635" mask="url(#mask-2)" points="261.1906 365.7953 257.7886 359.7243 225.0226 369.1613 223.0646 370.6123 223.0646 374.3993 222.7366 375.1153 223.9316 380.2453 226.2386 376.0233 224.8816 374.4803 224.9216 371.3723 225.0516 370.9433 225.7606 370.0003 227.5506 379.9503 225.0646 381.2893 225.0646 391.5923 225.0646 391.7763 225.0646 392.7953 228.3996 392.7953 227.0646 391.5923 227.0646 385.2783 227.9976 384.3603 233.1296 391.7893 234.0936 392.0743 233.5306 392.7953 236.2926 392.7953 231.5066 385.5763 233.3986 378.6733 237.0156 380.8573 245.9826 379.8213 247.8986 387.7953 249.8406 387.7953 250.3816 391.4783 251.3976 391.9983 251.1106 392.7953 253.9906 392.7953 253.0196 391.9963 253.0096 388.6703 253.2606 385.5533 262.7416 380.2723 263.6296 384.2693 267.8696 380.7953 268.0646 380.7953 268.0646 365.7953"></polygon>
                    <path d="M228.4945,480.9497 L257.8445,480.9497" id="Stroke-36" stroke="#A1B3CE" stroke-width="1.04" stroke-linecap="round" stroke-linejoin="round" mask="url(#mask-2)"></path>
                    <path d="M221.8736,455.9757 L265.1146,455.7967" id="Stroke-37" stroke="#A1B3CE" stroke-width="3.12" stroke-linecap="round" stroke-linejoin="round" mask="url(#mask-2)"></path>
                    <polyline id="Stroke-38" stroke="#A1B3CE" stroke-width="3.12" stroke-linecap="round" stroke-linejoin="round" mask="url(#mask-2)" points="227.6097 138.0443 227.6097 155.3063 252.1207 155.3063 252.1207 138.0443"></polyline>
                    <path d="M144.021,230.4032 L144.021,271.3692" id="Stroke-39" stroke="#A1B3CE" stroke-width="1.04" stroke-linecap="round" stroke-linejoin="round" mask="url(#mask-2)"></path>
                    <path d="M246.7131,91.6481 L246.7131,132.6141" id="Stroke-40" stroke="#A1B3CE" stroke-width="1.04" stroke-linecap="round" stroke-linejoin="round" mask="url(#mask-2)"></path>
                    <path d="M336.7424,222.6417 C336.7424,222.6417 332.1474,222.7267 332.1474,227.4507" id="Stroke-41" stroke="#A1B3CE" stroke-width="1.04" stroke-linecap="round" stroke-linejoin="round" mask="url(#mask-2)"></path>
                    <path d="M125.1712,189.7613 C125.1712,189.7613 129.7662,189.8463 129.7662,194.5703" id="Stroke-42" stroke="#A1B3CE" stroke-width="1.04" stroke-linecap="round" stroke-linejoin="round" mask="url(#mask-2)"></path>
                    <path d="M473.1271,143.6363 L461.4011,165.2753" id="Stroke-43" stroke="#A1B3CE" stroke-width="1.04" stroke-linecap="round" stroke-linejoin="round" mask="url(#mask-2)"></path>
                    <path d="M270.0297,54.0555 L249.4627,83.4195" id="Stroke-44" stroke="#A1B3CE" stroke-width="1.04" stroke-linecap="round" stroke-linejoin="round" mask="url(#mask-2)"></path>
                    <path d="M57.6792,113.066 L47.3312,132.327" id="Stroke-45" stroke="#A1B3CE" stroke-width="1.04" stroke-linecap="round" stroke-linejoin="round" mask="url(#mask-2)"></path>
                    <polygon id="Stroke-46" stroke="#A1B3CE" stroke-width="3.12" stroke-linecap="round" stroke-linejoin="round" mask="url(#mask-2)" points="259.7596 164.5277 252.7156 156.1817 226.8896 156.1817 219.8456 164.5277 226.8276 172.8007 253.0106 172.8007"></polygon>
                    <path d="M219.8456,164.4915 L259.7596,164.4915" id="Stroke-47" stroke="#A1B3CE" stroke-width="1.04" stroke-linecap="round" stroke-linejoin="round" mask="url(#mask-2)"></path>
                    <polygon id="Stroke-48" stroke="#A1B3CE" stroke-width="3.12" stroke-linecap="round" stroke-linejoin="round" mask="url(#mask-2)" points="259.7596 181.5939 252.7156 173.2479 226.8896 173.2479 219.8456 181.5939 226.8276 189.8669 253.0106 189.8669"></polygon>
                    <path d="M219.8456,181.5577 L259.7596,181.5577" id="Stroke-49" stroke="#A1B3CE" stroke-width="1.04" stroke-linecap="round" stroke-linejoin="round" mask="url(#mask-2)"></path>
                    <path d="M250.7016,169.8462 L253.6966,166.1032" id="Stroke-50" stroke="#A1B3CE" stroke-width="1.04" stroke-linecap="round" stroke-linejoin="round" mask="url(#mask-2)"></path>
                    <path d="M250.623,187.0034 L253.618,183.2604" id="Stroke-51" stroke="#A1B3CE" stroke-width="1.04" stroke-linecap="round" stroke-linejoin="round" mask="url(#mask-2)"></path>
                    <polygon id="Stroke-52" stroke="#A1B3CE" stroke-width="3.12" stroke-linecap="round" stroke-linejoin="round" mask="url(#mask-2)" points="259.7596 198.2126 252.7156 189.8666 226.8896 189.8666 219.8456 198.2126 226.8276 206.4856 253.0106 206.4856"></polygon>
                    <path d="M219.8456,198.1764 L259.7596,198.1764" id="Stroke-53" stroke="#A1B3CE" stroke-width="1.04" stroke-linecap="round" stroke-linejoin="round" mask="url(#mask-2)"></path>
                    <polygon id="Stroke-54" stroke="#A1B3CE" stroke-width="3.12" stroke-linecap="round" stroke-linejoin="round" mask="url(#mask-2)" points="259.7596 215.2788 252.7156 206.9328 226.8896 206.9328 219.8456 215.2788 226.8276 223.5518 253.0106 223.5518"></polygon>
                    <path d="M219.8456,215.2426 L259.7596,215.2426" id="Stroke-55" stroke="#A1B3CE" stroke-width="1.04" stroke-linecap="round" stroke-linejoin="round" mask="url(#mask-2)"></path>
                    <path d="M250.7016,203.5311 L253.6966,199.7881" id="Stroke-56" stroke="#A1B3CE" stroke-width="1.04" stroke-linecap="round" stroke-linejoin="round" mask="url(#mask-2)"></path>
                    <path d="M250.623,220.6883 L253.618,216.9453" id="Stroke-57" stroke="#A1B3CE" stroke-width="1.04" stroke-linecap="round" stroke-linejoin="round" mask="url(#mask-2)"></path>
                    <polygon id="Stroke-58" stroke="#A1B3CE" stroke-width="3.12" stroke-linecap="round" stroke-linejoin="round" mask="url(#mask-2)" points="259.7596 232.3273 252.7156 223.9813 226.8896 223.9813 219.8456 232.3273 226.8276 240.6003 253.0106 240.6003"></polygon>
                    <path d="M219.8456,232.2911 L259.7596,232.2911" id="Stroke-59" stroke="#A1B3CE" stroke-width="1.04" stroke-linecap="round" stroke-linejoin="round" mask="url(#mask-2)"></path>
                    <path d="M250.623,237.7368 L253.618,233.9938" id="Stroke-60" stroke="#A1B3CE" stroke-width="1.04" stroke-linecap="round" stroke-linejoin="round" mask="url(#mask-2)"></path>
                    <polygon id="Stroke-61" stroke="#A1B3CE" stroke-width="3.12" stroke-linecap="round" stroke-linejoin="round" mask="url(#mask-2)" points="259.7596 248.9636 252.7156 240.6176 226.8896 240.6176 219.8456 248.9636 226.8276 257.2366 253.0106 257.2366"></polygon>
                    <path d="M219.8456,248.9274 L259.7596,248.9274" id="Stroke-62" stroke="#A1B3CE" stroke-width="1.04" stroke-linecap="round" stroke-linejoin="round" mask="url(#mask-2)"></path>
                    <path d="M250.623,254.3732 L253.618,250.6302" id="Stroke-63" stroke="#A1B3CE" stroke-width="1.04" stroke-linecap="round" stroke-linejoin="round" mask="url(#mask-2)"></path>
                    <path d="M228.225,142.0922 L233.961,142.0922" id="Stroke-64" stroke="#A1B3CE" stroke-width="1.04" stroke-linecap="round" stroke-linejoin="round" mask="url(#mask-2)"></path>
                    <path d="M228.225,144.6103 L233.961,144.6103" id="Stroke-65" stroke="#A1B3CE" stroke-width="1.04" stroke-linecap="round" stroke-linejoin="round" mask="url(#mask-2)"></path>
                    <path d="M228.225,147.2682 L233.961,147.2682" id="Stroke-66" stroke="#A1B3CE" stroke-width="1.04" stroke-linecap="round" stroke-linejoin="round" mask="url(#mask-2)"></path>
                    <path d="M194.1739,272.8998 L203.5419,272.8998 C205.7959,272.8998 207.6229,271.0728 207.6229,268.8178 L207.6229,265.4478 L193.8789,265.4478 C191.9119,265.4478 190.3139,267.0368 190.3019,269.0038 C190.2889,271.1518 192.0259,272.8998 194.1739,272.8998 L194.1739,272.8998 Z M246.7129,305.8028 L229.0299,305.8028 L229.0299,267.7548 C229.0299,266.4808 227.9979,265.4478 226.7229,265.4478 L225.3059,265.4478 L225.3059,270.8488 C225.3059,281.7468 216.4709,290.5818 205.5719,290.5818 L193.6219,290.5818 C181.9699,290.5818 172.5439,281.0978 172.6159,269.4458 L172.6159,269.4458 C172.6899,257.4508 182.4349,247.7658 194.4309,247.7658 L207.6229,247.7658 L207.6229,243.5768 L149.9449,243.5768 L149.9449,225.8938 L215.7689,225.8938 C221.0359,225.8938 225.3059,230.1638 225.3059,235.4308 L225.3059,247.7658 L230.8859,247.7658 C239.6269,247.7658 246.7129,254.8518 246.7129,263.5928 L246.7129,305.8028 Z" id="Fill-67" fill="#2B3039" mask="url(#mask-2)"></path>
                    <path d="M194.1739,272.8998 L203.5419,272.8998 C205.7959,272.8998 207.6229,271.0728 207.6229,268.8178 L207.6229,265.4478 L193.8789,265.4478 C191.9119,265.4478 190.3139,267.0368 190.3019,269.0038 C190.2889,271.1518 192.0259,272.8998 194.1739,272.8998 Z M246.7129,305.8028 L229.0299,305.8028 L229.0299,267.7548 C229.0299,266.4808 227.9979,265.4478 226.7229,265.4478 L225.3059,265.4478 L225.3059,270.8488 C225.3059,281.7468 216.4709,290.5818 205.5719,290.5818 L193.6219,290.5818 C181.9699,290.5818 172.5439,281.0978 172.6159,269.4458 L172.6159,269.4458 C172.6899,257.4508 182.4349,247.7658 194.4309,247.7658 L207.6229,247.7658 L207.6229,243.5768 L149.9449,243.5768 L149.9449,225.8938 L215.7689,225.8938 C221.0359,225.8938 225.3059,230.1638 225.3059,235.4308 L225.3059,247.7658 L230.8859,247.7658 C239.6269,247.7658 246.7129,254.8518 246.7129,263.5928 L246.7129,305.8028 Z" id="Stroke-68" stroke="#A1B3CE" stroke-width="3.12" stroke-linecap="round" stroke-linejoin="round" mask="url(#mask-2)"></path>
                    <path d="M207.6234,247.766 L207.6234,265.448" id="Stroke-69" stroke="#A1B3CE" stroke-width="3.12" stroke-linecap="round" stroke-linejoin="round" mask="url(#mask-2)"></path>
                    <path d="M225.3056,247.766 L225.3056,265.448" id="Stroke-70" stroke="#A1B3CE" stroke-width="3.12" stroke-linecap="round" stroke-linejoin="round" mask="url(#mask-2)"></path>
                    <path d="M215.2893,230.5006 C215.2893,230.5006 219.8843,230.5856 219.8843,235.3096" id="Stroke-71" stroke="#A1B3CE" stroke-width="1.04" stroke-linecap="round" stroke-linejoin="round" mask="url(#mask-2)"></path>
                    <path d="M235.0922,254.3518 C235.0922,254.3518 240.6022,255.1268 240.4132,260.5838" id="Stroke-72" stroke="#A1B3CE" stroke-width="1.04" stroke-linecap="round" stroke-linejoin="round" mask="url(#mask-2)"></path>
                    <path d="M253.0109,257.2366 L253.0109,306.4646" id="Stroke-73" stroke="#A1B3CE" stroke-width="3.12" stroke-linejoin="round" mask="url(#mask-2)"></path>
                    <path d="M252.1203,281.2673 L275.1683,232.7493 C283.2673,217.4393 300.1903,208.9563 317.3033,211.6303 L317.3033,211.6303 C334.0423,214.2453 346.2733,228.8273 345.9363,245.7653 L345.8863,248.2543 C345.5443,265.4513 334.4963,277.5773 318.7693,284.5453 L275.2573,304.8733 L275.2573,304.8733 C260.4593,311.8703 245.0183,296.5203 251.9273,281.6813 L252.1203,281.2673 Z" id="Fill-74" fill="#2B3039" mask="url(#mask-2)"></path>
                    <path d="M252.1203,281.2673 L275.1683,232.7493 C283.2673,217.4393 300.1903,208.9563 317.3033,211.6303 L317.3033,211.6303 C334.0423,214.2453 346.2733,228.8273 345.9363,245.7653 L345.8863,248.2543 C345.5443,265.4513 334.4963,277.5773 318.7693,284.5453 L275.2573,304.8733 L275.2573,304.8733 C260.4593,311.8703 245.0183,296.5203 251.9273,281.6813 L252.1203,281.2673 Z" id="Stroke-75" stroke="#A1B3CE" stroke-width="3.12" stroke-linejoin="round" mask="url(#mask-2)"></path>
                    <path d="M309.4224,244.7423 C307.7614,244.6983 306.5654,245.9803 306.5174,247.8563 C306.4804,249.3553 307.8434,250.6513 309.4904,250.6813 C311.0294,250.7103 312.3694,249.3723 312.3994,247.7783 C312.4324,245.9953 311.2514,244.7903 309.4224,244.7423 M323.8084,244.6093 C323.8094,244.5863 323.8114,244.5633 323.8124,244.5393 C324.5474,244.5393 325.2814,244.5403 326.0164,244.5393 C329.0174,244.5383 331.2334,240.9913 329.9624,238.2773 C328.5894,235.3443 326.6884,232.8133 324.2904,230.6553 C323.9674,230.3643 323.5214,230.1473 323.0964,230.0423 C321.2934,229.5963 319.7574,230.1953 318.4244,231.3933 C318.1324,231.6543 317.8394,231.9973 317.7244,232.3583 C317.0884,234.3583 316.4084,236.3513 315.9304,238.3913 C315.2934,241.1083 317.4044,244.0223 320.1804,244.3753 C321.3804,244.5273 322.5984,244.5353 323.8084,244.6093 M323.9044,250.8663 C323.9034,250.8433 323.9014,250.8213 323.9004,250.7983 C322.6654,250.8723 321.4214,250.8773 320.1974,251.0333 C317.3414,251.3973 315.2924,254.3223 315.9524,257.1433 C316.3374,258.7903 316.9804,260.3763 317.3584,262.0243 C317.7754,263.8373 318.9844,264.7783 320.6104,265.2813 C322.2174,265.7783 323.6114,265.4983 324.8974,264.2213 C327.0284,262.1043 328.7394,259.7413 330.0284,257.0353 C330.4494,256.1503 330.5344,255.3283 330.2644,254.4103 C329.6114,252.1893 327.8834,250.8683 325.5764,250.8663 C325.0184,250.8663 324.4614,250.8663 323.9044,250.8663 M286.7844,247.7463 C286.9684,249.2343 287.0984,250.6923 287.3374,252.1323 C287.6684,254.1183 289.2004,255.5063 291.2254,255.6243 C292.0124,255.6703 292.9814,255.7243 293.5774,255.3333 C295.4314,254.1163 297.2494,252.8013 298.8894,251.3123 C301.0254,249.3743 300.9964,246.0423 298.8784,244.0713 C297.5524,242.8373 295.9874,241.8663 294.5934,240.7003 C293.6464,239.9073 292.6144,239.6853 291.4274,239.7473 C289.4404,239.8513 287.7014,241.2463 287.3764,243.1793 C287.1214,244.6933 286.9774,246.2263 286.7844,247.7463 M296.1794,231.8493 C296.2524,233.1173 296.4374,234.3613 297.5234,235.1873 C298.9744,236.2893 300.4574,237.3543 301.9674,238.3743 C305.1124,240.5013 308.8614,238.9253 309.8874,236.0783 C310.4444,234.5323 310.9794,232.9773 311.5004,231.4183 C311.6834,230.8693 311.9584,230.2803 311.9064,229.7373 C311.7744,228.3673 311.1914,227.1523 310.1314,226.2273 C309.2174,225.4293 308.2214,225.1023 306.9324,225.2633 C303.8694,225.6453 301.0354,226.6003 298.3144,228.0273 C296.7124,228.8673 296.2804,230.2313 296.1794,231.8493 M296.2004,263.0193 C296.2024,265.2033 296.8464,266.4883 297.9244,267.1283 C300.4164,268.6083 303.1084,269.4983 305.9424,270.0613 C307.8304,270.4363 309.4844,270.2293 310.6964,268.6073 C311.4754,267.5653 312.1664,266.4003 311.8114,265.0403 C311.3784,263.3773 310.8274,261.7393 310.2344,260.1243 C309.7334,258.7603 309.0584,257.4993 307.6714,256.7603 C305.6174,255.6653 303.6684,255.8723 301.7994,257.1413 C300.5634,257.9803 299.4104,258.9433 298.1524,259.7453 C296.7334,260.6523 296.2304,261.9553 296.2004,263.0193 M280.2534,255.2813 C280.2024,255.2813 280.1514,255.2793 280.1014,255.2813 C278.2194,255.3573 277.7514,254.7703 277.4354,252.8233 C277.2744,251.8323 277.7174,251.1093 278.6224,250.6633 C278.9844,250.4853 279.3644,250.3373 279.7474,250.2113 C280.9494,249.8173 281.6074,248.9373 281.6334,247.6553 C281.6584,246.4773 280.9904,245.4813 279.8914,245.0553 C279.6794,244.9723 279.4674,244.8893 279.2564,244.8043 C277.4974,244.0983 276.9174,242.3313 278.0264,240.7753 C278.3054,240.3833 278.9054,240.1643 279.4014,239.9993 C279.7674,239.8783 280.2064,239.9593 280.6114,239.9783 C282.5714,240.0723 283.8664,238.1503 283.3954,236.1803 C283.2714,235.6603 282.7384,235.1463 282.2634,234.8173 C280.4384,233.5543 280.9014,232.0823 281.7744,230.9093 C282.3534,230.1323 283.0934,229.9243 283.9844,230.1583 C284.4974,230.2933 284.9984,230.4753 285.4994,230.6523 C286.8194,231.1173 287.5664,230.4003 288.3894,229.3983 C289.0964,228.5373 289.1314,227.6053 288.5754,226.6343 C288.5124,226.5243 288.4454,226.4153 288.3674,226.3163 C286.8314,224.3563 288.2674,222.7173 289.9464,222.1483 C290.7974,221.8603 291.4394,222.4073 292.0614,222.9013 C292.4554,223.2143 292.8254,223.5913 293.2704,223.8003 C294.3674,224.3153 295.2904,223.7923 296.1444,223.1503 C296.8674,222.6063 297.1874,221.8813 297.0444,220.9573 C296.9554,220.3843 296.8974,219.8013 296.8854,219.2223 C296.8644,218.1613 297.3784,217.5763 298.6194,217.1693 C299.7734,216.7913 300.6054,216.9863 301.2044,217.8143 C301.4404,218.1403 301.6204,218.5073 301.8194,218.8603 C302.4714,220.0163 303.5084,220.5023 304.7324,220.2193 C306.2364,219.8713 306.9914,219.0403 307.0704,217.6433 C307.1534,216.1833 307.8694,215.3913 309.1654,215.3253 C311.0864,215.2263 311.7824,215.7373 312.0354,217.4393 C312.3204,219.3603 313.0414,220.2443 315.1704,220.3353 C316.1354,220.3773 316.7604,219.7743 317.2684,219.0353 C317.3824,218.8693 317.4494,218.6723 317.5494,218.4963 C318.5744,216.6933 320.7084,216.5113 321.9784,218.1753 C322.2504,218.5323 322.2774,219.1123 322.3224,219.5973 C322.3534,219.9393 322.2284,220.2963 322.1634,220.6453 C321.8394,222.3853 323.1924,224.1733 324.9464,224.0873 C325.6314,224.0543 326.3924,223.5983 326.9394,223.1263 C328.5244,221.7633 330.3004,222.0423 331.2014,223.9503 C331.5874,224.7683 331.3714,225.5693 330.8474,226.3053 C330.3204,227.0463 329.9264,227.8433 330.2994,228.7853 C330.8714,230.2293 332.3804,231.5463 334.2144,230.6233 C336.3164,229.5653 337.4494,230.7163 337.9894,232.4833 C338.2024,233.1813 338.0324,233.8453 337.4874,234.3683 C337.2324,234.6123 336.9534,234.8323 336.6784,235.0543 C335.0684,236.3543 335.1024,238.5373 336.7884,239.7493 C337.0974,239.9713 337.5334,240.0393 337.9234,240.1143 C338.2164,240.1713 338.5334,240.1563 338.8334,240.1233 C341.1614,239.8683 341.6534,241.6813 341.4684,243.3143 C341.4104,243.8233 340.7994,244.3263 340.3434,244.7153 C340.0354,244.9783 339.5554,245.0393 339.1514,245.1863 C337.9814,245.6113 337.3744,246.4513 337.3204,247.7233 C337.2724,248.8623 337.9454,249.9133 339.0204,250.3673 C339.2064,250.4463 339.4014,250.5053 339.5924,250.5713 C341.3724,251.1863 341.8384,252.0853 341.3174,253.9003 C340.9934,255.0263 340.4624,255.4293 339.2844,255.4323 C338.1944,255.4353 337.0904,255.3513 336.2604,256.2973 C335.3324,257.3543 334.8734,259.4023 336.5814,260.5483 C336.6234,260.5763 336.6654,260.6043 336.7074,260.6333 C338.9654,262.1723 337.9494,264.0783 336.4984,265.0643 C336.0024,265.4003 334.9954,265.2853 334.3484,265.0413 C332.4144,264.3133 331.0974,264.7713 330.2064,266.6413 C329.8474,267.3923 330.0074,268.0673 330.3554,268.7453 C330.4124,268.8563 330.5054,268.9483 330.5794,269.0523 C331.8584,270.8533 331.4224,272.0293 329.4334,273.1643 C328.8424,273.5013 328.2084,273.4763 327.6414,273.0503 C327.2784,272.7763 326.9244,272.4893 326.5824,272.1893 C325.5884,271.3153 324.5484,271.2103 323.3754,271.8783 C322.1034,272.6023 321.6864,273.4843 321.9554,274.8343 C322.0444,275.2803 322.1384,275.7313 322.1584,276.1833 C322.1874,276.8173 322.0044,277.3703 321.4194,277.7463 C319.9274,278.7043 318.1754,278.9653 317.2034,276.7083 C316.2684,274.5383 313.5794,274.7383 312.4484,276.2043 C312.1304,276.6153 311.9674,277.2063 311.8974,277.7363 C311.7764,278.6603 311.5714,279.5233 310.6534,279.9273 C309.6754,280.3593 308.6174,280.3263 307.7514,279.7183 C307.3384,279.4283 307.1684,278.7583 306.9504,278.2343 C306.8274,277.9383 306.8394,277.5883 306.7764,277.2653 C306.5414,276.0663 305.7244,275.3093 304.4404,275.0913 C303.2874,274.8963 302.2864,275.3683 301.6774,276.3993 C301.6004,276.5303 301.5354,276.6683 301.4674,276.8043 C300.4484,278.8573 299.0494,278.7603 297.3434,277.6343 C296.6754,277.1933 296.4434,276.4973 296.6284,275.6923 C296.6854,275.4453 296.7104,275.1903 296.7784,274.9473 C297.3624,272.8433 295.7684,271.6453 294.3404,271.3423 C293.8764,271.2433 293.3064,271.4703 292.8324,271.6633 C292.4714,271.8093 292.1634,272.1143 291.8674,272.3883 C290.7154,273.4573 289.8634,273.5103 288.6374,272.5623 C287.3404,271.5583 287.0954,270.4543 288.1004,269.1513 C289.6474,267.1473 288.3334,265.1943 286.5354,264.5863 C286.0144,264.4093 285.2654,264.5693 284.7344,264.8173 C282.6314,265.8003 281.4864,264.7033 280.9604,262.9123 C280.6604,261.8923 281.2304,261.1913 281.9684,260.5543 C282.4754,260.1153 283.0574,259.6453 283.3154,259.0603 C284.0194,257.4673 282.5304,255.0233 280.7094,255.2783 C280.5604,255.2993 280.4054,255.2813 280.2534,255.2813" id="Fill-76" fill="#39BDE4" mask="url(#mask-2)"></path>
                    <path d="M270.1737,284.5459 C269.3647,284.5249 268.7827,285.1489 268.7597,286.0619 C268.7417,286.7919 269.4047,287.4219 270.2067,287.4369 C270.9557,287.4509 271.6077,286.7999 271.6227,286.0239 C271.6387,285.1559 271.0637,284.5699 270.1737,284.5459 M277.1757,284.4809 C277.1767,284.4699 277.1777,284.4589 277.1777,284.4469 C277.5357,284.4469 277.8927,284.4469 278.2507,284.4469 C279.7117,284.4469 280.7907,282.7199 280.1717,281.3989 C279.5037,279.9719 278.5777,278.7399 277.4107,277.6889 C277.2537,277.5479 277.0367,277.4419 276.8297,277.3909 C275.9517,277.1739 275.2037,277.4649 274.5557,278.0479 C274.4137,278.1759 274.2707,278.3419 274.2147,278.5179 C273.9047,279.4909 273.5737,280.4619 273.3417,281.4549 C273.0317,282.7769 274.0587,284.1949 275.4097,284.3669 C275.9937,284.4419 276.5867,284.4449 277.1757,284.4809 M277.2227,287.5269 C277.2227,287.5159 277.2217,287.5049 277.2207,287.4939 C276.6197,287.5299 276.0147,287.5319 275.4187,287.6079 C274.0277,287.7849 273.0307,289.2089 273.3527,290.5819 C273.5397,291.3839 273.8527,292.1559 274.0367,292.9579 C274.2397,293.8409 274.8277,294.2979 275.6197,294.5429 C276.4017,294.7849 277.0797,294.6489 277.7067,294.0269 C278.7437,292.9969 279.5767,291.8469 280.2037,290.5299 C280.4087,290.0989 280.4497,289.6989 280.3187,289.2519 C280.0007,288.1709 279.1597,287.5279 278.0367,287.5269 C277.7657,287.5269 277.4937,287.5269 277.2227,287.5269 M259.1547,286.0079 C259.2437,286.7319 259.3077,287.4419 259.4237,288.1429 C259.5847,289.1099 260.3307,289.7849 261.3167,289.8429 C261.6997,289.8649 262.1707,289.8919 262.4607,289.7009 C263.3637,289.1089 264.2487,288.4689 265.0467,287.7439 C266.0867,286.8009 266.0727,285.1789 265.0417,284.2189 C264.3957,283.6189 263.6337,283.1459 262.9557,282.5779 C262.4947,282.1929 261.9927,282.0839 261.4147,282.1149 C260.4477,282.1649 259.6007,282.8439 259.4427,283.7849 C259.3187,284.5219 259.2487,285.2679 259.1547,286.0079 M263.7277,278.2699 C263.7637,278.8869 263.8537,279.4929 264.3817,279.8949 C265.0877,280.4319 265.8097,280.9499 266.5447,281.4459 C268.0757,282.4809 269.9007,281.7149 270.3997,280.3289 C270.6707,279.5759 270.9317,278.8189 271.1857,278.0599 C271.2747,277.7929 271.4077,277.5069 271.3827,277.2429 C271.3187,276.5749 271.0347,275.9839 270.5187,275.5339 C270.0737,275.1459 269.5897,274.9859 268.9617,275.0649 C267.4707,275.2499 266.0917,275.7149 264.7667,276.4099 C263.9877,276.8189 263.7767,277.4829 263.7277,278.2699 M263.7377,293.4419 C263.7387,294.5049 264.0527,295.1309 264.5767,295.4419 C265.7897,296.1629 267.1007,296.5959 268.4797,296.8699 C269.3987,297.0529 270.2037,296.9519 270.7937,296.1619 C271.1727,295.6549 271.5097,295.0879 271.3367,294.4259 C271.1257,293.6169 270.8577,292.8189 270.5687,292.0329 C270.3247,291.3689 269.9967,290.7549 269.3217,290.3959 C268.3217,289.8629 267.3727,289.9639 266.4627,290.5809 C265.8617,290.9899 265.2997,291.4579 264.6887,291.8489 C263.9977,292.2899 263.7527,292.9239 263.7377,293.4419 M255.9757,289.6759 C255.9507,289.6759 255.9257,289.6749 255.9017,289.6759 C254.9857,289.7129 254.7577,289.4269 254.6037,288.4799 C254.5257,287.9969 254.7417,287.6449 255.1817,287.4279 C255.3577,287.3409 255.5427,287.2689 255.7297,287.2079 C256.3147,287.0159 256.6347,286.5879 256.6477,285.9639 C256.6597,285.3899 256.3347,284.9059 255.7997,284.6979 C255.6957,284.6579 255.5927,284.6169 255.4897,284.5759 C254.6337,284.2319 254.3517,283.3719 254.8917,282.6149 C255.0277,282.4239 255.3197,282.3179 255.5607,282.2369 C255.7387,282.1779 255.9527,282.2179 256.1497,282.2269 C257.1037,282.2729 257.7347,281.3369 257.5047,280.3779 C257.4447,280.1249 257.1857,279.8749 256.9537,279.7149 C256.0657,279.0999 256.2907,278.3839 256.7157,277.8129 C256.9977,277.4339 257.3577,277.3329 257.7917,277.4469 C258.0417,277.5129 258.2857,277.6019 258.5287,277.6879 C259.1717,277.9139 259.5357,277.5649 259.9357,277.0769 C260.2797,276.6579 260.2967,276.2049 260.0267,275.7319 C259.9957,275.6789 259.9627,275.6249 259.9247,275.5769 C259.1777,274.6229 259.8767,273.8249 260.6937,273.5489 C261.1077,273.4079 261.4207,273.6749 261.7237,273.9149 C261.9147,274.0669 262.0947,274.2509 262.3117,274.3519 C262.8457,274.6029 263.2947,274.3489 263.7107,274.0359 C264.0627,273.7709 264.2187,273.4179 264.1487,272.9679 C264.1057,272.6899 264.0767,272.4059 264.0717,272.1239 C264.0617,271.6079 264.3117,271.3229 264.9157,271.1249 C265.4767,270.9409 265.8817,271.0359 266.1737,271.4389 C266.2887,271.5969 266.3757,271.7759 266.4727,271.9479 C266.7907,272.5109 267.2947,272.7469 267.8907,272.6089 C268.6227,272.4399 268.9897,272.0349 269.0287,271.3549 C269.0697,270.6449 269.4177,270.2589 270.0487,270.2269 C270.9837,270.1789 271.3227,270.4279 271.4457,271.2559 C271.5847,272.1909 271.9357,272.6219 272.9717,272.6659 C273.4417,272.6859 273.7457,272.3929 273.9927,272.0329 C274.0487,271.9519 274.0807,271.8559 274.1297,271.7709 C274.6287,270.8929 275.6667,270.8049 276.2847,271.6139 C276.4177,271.7879 276.4307,272.0699 276.4527,272.3069 C276.4677,272.4729 276.4077,272.6469 276.3757,272.8169 C276.2177,273.6629 276.8767,274.5339 277.7297,274.4919 C278.0637,274.4759 278.4337,274.2539 278.7007,274.0249 C279.4717,273.3609 280.3357,273.4969 280.7747,274.4249 C280.9627,274.8239 280.8577,275.2139 280.6027,275.5719 C280.3457,275.9319 280.1537,276.3199 280.3357,276.7789 C280.6137,277.4819 281.3487,278.1229 282.2417,277.6729 C283.2647,277.1579 283.8157,277.7189 284.0787,278.5789 C284.1827,278.9179 284.0997,279.2419 283.8347,279.4959 C283.7107,279.6149 283.5747,279.7219 283.4407,279.8299 C282.6567,280.4629 282.6737,281.5259 283.4947,282.1159 C283.6447,282.2239 283.8567,282.2569 284.0467,282.2929 C284.1897,282.3209 284.3437,282.3139 284.4897,282.2979 C285.6227,282.1739 285.8627,283.0559 285.7717,283.8509 C285.7437,284.0989 285.4467,284.3429 285.2247,284.5329 C285.0747,284.6609 284.8407,284.6909 284.6437,284.7619 C284.0747,284.9689 283.7797,285.3779 283.7527,285.9969 C283.7297,286.5509 284.0577,287.0629 284.5807,287.2839 C284.6707,287.3219 284.7657,287.3509 284.8587,287.3829 C285.7257,287.6829 285.9517,288.1199 285.6987,289.0029 C285.5407,289.5519 285.2827,289.7479 284.7087,289.7489 C284.1787,289.7509 283.6407,289.7099 283.2367,290.1699 C282.7857,290.6849 282.5617,291.6819 283.3937,292.2399 C283.4137,292.2529 283.4347,292.2669 283.4547,292.2809 C284.5537,293.0299 284.0597,293.9579 283.3527,294.4379 C283.1117,294.6009 282.6217,294.5449 282.3067,294.4269 C281.3657,294.0719 280.7237,294.2949 280.2897,295.2049 C280.1157,295.5709 280.1937,295.8989 280.3627,296.2299 C280.3907,296.2839 280.4357,296.3279 280.4717,296.3789 C281.0947,297.2559 280.8827,297.8279 279.9147,298.3799 C279.6267,298.5439 279.3177,298.5319 279.0417,298.3249 C278.8647,298.1919 278.6927,298.0519 278.5267,297.9059 C278.0427,297.4809 277.5357,297.4289 276.9647,297.7539 C276.3467,298.1069 276.1427,298.5359 276.2747,299.1929 C276.3177,299.4099 276.3637,299.6299 276.3727,299.8499 C276.3867,300.1589 276.2977,300.4279 276.0127,300.6109 C275.2877,301.0769 274.4347,301.2039 273.9607,300.1049 C273.5057,299.0489 272.1967,299.1469 271.6467,299.8599 C271.4917,300.0599 271.4127,300.3479 271.3787,300.6059 C271.3197,301.0549 271.2197,301.4749 270.7727,301.6729 C270.2967,301.8829 269.7817,301.8669 269.3607,301.5709 C269.1597,301.4289 269.0767,301.1029 268.9707,300.8479 C268.9107,300.7039 268.9167,300.5339 268.8857,300.3769 C268.7707,299.7929 268.3737,299.4249 267.7487,299.3189 C267.1877,299.2229 266.6997,299.4529 266.4037,299.9549 C266.3667,300.0189 266.3347,300.0859 266.3017,300.1519 C265.8057,301.1519 265.1247,301.1039 264.2947,300.5559 C263.9687,300.3409 263.8557,300.0029 263.9467,299.6109 C263.9737,299.4909 263.9867,299.3669 264.0187,299.2479 C264.3037,298.2239 263.5277,297.6409 262.8327,297.4929 C262.6067,297.4459 262.3297,297.5559 262.0987,297.6499 C261.9227,297.7209 261.7727,297.8689 261.6287,298.0029 C261.0677,298.5229 260.6537,298.5489 260.0567,298.0869 C259.4257,297.5989 259.3057,297.0609 259.7957,296.4269 C260.5477,295.4519 259.9087,294.5009 259.0337,294.2049 C258.7797,294.1189 258.4157,294.1969 258.1567,294.3179 C257.1327,294.7959 256.5757,294.2619 256.3197,293.3899 C256.1737,292.8939 256.4507,292.5529 256.8107,292.2419 C257.0577,292.0289 257.3407,291.7999 257.4657,291.5149 C257.8087,290.7399 257.0837,289.5499 256.1977,289.6739 C256.1247,289.6849 256.0497,289.6759 255.9757,289.6759" id="Fill-77" fill="#39BDE4" mask="url(#mask-2)"></path>
                    <g id="Group-80" mask="url(#mask-2)">
                        <g transform="translate(260.000000, 262.000000)">
                            <path d="M0.9055,0.6643 L4.0745,2.0903" id="Fill-78" stroke="none" fill="#2B3039" fill-rule="evenodd"></path>
                            <path d="M0.9055,0.6643 L4.0745,2.0903" id="Stroke-79" stroke="#A1B3CE" stroke-width="3.12" fill="none" stroke-linecap="round" stroke-linejoin="round"></path>
                        </g>
                    </g>
                    <g id="Group-83" mask="url(#mask-2)">
                        <g transform="translate(258.000000, 268.000000)">
                            <path d="M0.1145,0.7958 L3.2835,2.2218" id="Fill-81" stroke="none" fill="#2B3039" fill-rule="evenodd"></path>
                            <path d="M0.1145,0.7958 L3.2835,2.2218" id="Stroke-82" stroke="#A1B3CE" stroke-width="3.12" fill="none" stroke-linecap="round" stroke-linejoin="round"></path>
                        </g>
                    </g>
                    <g id="Group-86" mask="url(#mask-2)">
                        <g transform="translate(263.000000, 256.000000)">
                            <path d="M0.9196,0.3106 L4.0886,1.7366" id="Fill-84" stroke="none" fill="#2B3039" fill-rule="evenodd"></path>
                            <path d="M0.9196,0.3106 L4.0886,1.7366" id="Stroke-85" stroke="#A1B3CE" stroke-width="3.12" fill="none" stroke-linecap="round" stroke-linejoin="round"></path>
                        </g>
                    </g>
                    <g id="Group-89" mask="url(#mask-2)">
                        <g transform="translate(267.000000, 250.000000)">
                            <path d="M0.0886,0.077 L3.2576,1.503" id="Fill-87" stroke="none" fill="#2B3039" fill-rule="evenodd"></path>
                            <path d="M0.0886,0.077 L3.2576,1.503" id="Stroke-88" stroke="#A1B3CE" stroke-width="3.12" fill="none" stroke-linecap="round" stroke-linejoin="round"></path>
                        </g>
                    </g>
                    <g id="Group-92" mask="url(#mask-2)">
                        <g transform="translate(270.000000, 242.000000)">
                            <path d="M0.5878,0.8871 L3.7568,2.3131" id="Fill-90" stroke="none" fill="#2B3039" fill-rule="evenodd"></path>
                            <path d="M0.5878,0.8871 L3.7568,2.3131" id="Stroke-91" stroke="#A1B3CE" stroke-width="3.12" fill="none" stroke-linecap="round" stroke-linejoin="round"></path>
                        </g>
                    </g>
                    <g id="Group-95" mask="url(#mask-2)">
                        <g transform="translate(294.000000, 291.000000)">
                            <path d="M0.225,0.6311 L1.894,3.6791" id="Fill-93" stroke="none" fill="#2B3039" fill-rule="evenodd"></path>
                            <path d="M0.225,0.6311 L1.894,3.6791" id="Stroke-94" stroke="#A1B3CE" stroke-width="3.12" fill="none" stroke-linecap="round" stroke-linejoin="round"></path>
                        </g>
                    </g>
                    <g id="Group-98" mask="url(#mask-2)">
                        <g transform="translate(301.000000, 288.000000)">
                            <path d="M0.1392,0.4771 L1.8082,3.5251" id="Fill-96" stroke="none" fill="#2B3039" fill-rule="evenodd"></path>
                            <path d="M0.1392,0.4771 L1.8082,3.5251" id="Stroke-97" stroke="#A1B3CE" stroke-width="3.12" fill="none" stroke-linecap="round" stroke-linejoin="round"></path>
                        </g>
                    </g>
                    <g id="Group-101" mask="url(#mask-2)">
                        <g transform="translate(308.000000, 285.000000)">
                            <path d="M0.1581,0.4292 L1.8271,3.4772" id="Fill-99" stroke="none" fill="#2B3039" fill-rule="evenodd"></path>
                            <path d="M0.1581,0.4292 L1.8271,3.4772" id="Stroke-100" stroke="#A1B3CE" stroke-width="3.12" fill="none" stroke-linecap="round" stroke-linejoin="round"></path>
                        </g>
                    </g>
                    <g id="Group-104" mask="url(#mask-2)">
                        <g transform="translate(315.000000, 282.000000)">
                            <path d="M0.113,0.3813 L1.782,3.4293" id="Fill-102" stroke="none" fill="#2B3039" fill-rule="evenodd"></path>
                            <path d="M0.113,0.3813 L1.782,3.4293" id="Stroke-103" stroke="#A1B3CE" stroke-width="3.12" fill="none" stroke-linecap="round" stroke-linejoin="round"></path>
                        </g>
                    </g>
                    <g id="Group-107" mask="url(#mask-2)">
                        <g transform="translate(287.000000, 295.000000)">
                            <path d="M0.2534,0.2123 L1.9224,3.2603" id="Fill-105" stroke="none" fill="#2B3039" fill-rule="evenodd"></path>
                            <path d="M0.2534,0.2123 L1.9224,3.2603" id="Stroke-106" stroke="#A1B3CE" stroke-width="3.12" fill="none" stroke-linecap="round" stroke-linejoin="round"></path>
                        </g>
                    </g>
                    <g id="Group-110" mask="url(#mask-2)">
                        <g transform="translate(274.000000, 233.000000)">
                            <path d="M0.7595,0.9936 L3.9285,2.4196" id="Fill-108" stroke="none" fill="#2B3039" fill-rule="evenodd"></path>
                            <path d="M0.7595,0.9936 L3.9285,2.4196" id="Stroke-109" stroke="#A1B3CE" stroke-width="3.12" fill="none" stroke-linecap="round" stroke-linejoin="round"></path>
                        </g>
                    </g>
                    <path d="M183.599,9.1847 L183.599,13.2457 C183.599,13.8367 183.12,14.3167 182.528,14.3167 L182.073,14.3167 C181.481,14.3167 181.002,13.8367 181.002,13.2457 L181.002,9.1847 C181.002,8.9917 180.95,8.8027 180.852,8.6377 L176.858,1.9237 C176.434,1.2097 176.948,0.3057 177.778,0.3057 L178.192,0.3057 C178.418,0.3057 178.598,0.3607 178.73,0.4697 C178.862,0.5797 178.974,0.7187 179.064,0.8867 L181.622,5.5667 C181.771,5.8447 181.902,6.1067 182.015,6.3517 C182.128,6.5977 182.229,6.8427 182.32,7.0877 C182.404,6.8427 182.501,6.5977 182.611,6.3517 C182.72,6.1067 182.846,5.8447 182.989,5.5667 L185.537,0.8867 C185.608,0.7447 185.714,0.6127 185.857,0.4897 C185.999,0.3667 186.18,0.3057 186.399,0.3057 L186.823,0.3057 C187.653,0.3057 188.167,1.2097 187.743,1.9237 L183.749,8.6377 C183.651,8.8027 183.599,8.9917 183.599,9.1847" id="Fill-111" fill="#A1B3CE" mask="url(#mask-2)"></path>
                    <path d="M201.4761,7.3109 C201.4761,6.5419 201.3731,5.8529 201.1661,5.2419 C200.9591,4.6319 200.6651,4.1129 200.2841,3.6869 C199.9031,3.2609 199.4401,2.9349 198.8941,2.7089 C198.3481,2.4829 197.7331,2.3689 197.0481,2.3689 C196.3631,2.3689 195.7481,2.4829 195.2021,2.7089 C194.6561,2.9349 194.1911,3.2609 193.8071,3.6869 C193.4221,4.1129 193.1271,4.6319 192.9201,5.2419 C192.7131,5.8529 192.6101,6.5419 192.6101,7.3109 C192.6101,8.0799 192.7131,8.7689 192.9201,9.3799 C193.1271,9.9899 193.4221,10.5069 193.8071,10.9299 C194.1911,11.3529 194.6561,11.6779 195.2021,11.9039 C195.7481,12.1299 196.3631,12.2429 197.0481,12.2429 C197.7331,12.2429 198.3481,12.1299 198.8941,11.9039 C199.4401,11.6779 199.9031,11.3529 200.2841,10.9299 C200.6651,10.5069 200.9591,9.9899 201.1661,9.3799 C201.3731,8.7689 201.4761,8.0799 201.4761,7.3109 M204.1411,7.3109 C204.1411,8.3379 203.9711,9.2889 203.6321,10.1649 C203.2931,11.0399 202.8131,11.7969 202.1931,12.4369 C201.5731,13.0759 200.8271,13.5749 199.9551,13.9339 C199.0831,14.2919 198.1141,14.4719 197.0481,14.4719 C195.9891,14.4719 195.0231,14.2919 194.1511,13.9339 C193.2791,13.5749 192.5311,13.0759 191.9081,12.4369 C191.2841,11.7969 190.8011,11.0399 190.4591,10.1649 C190.1171,9.2889 189.9451,8.3379 189.9451,7.3109 C189.9451,6.2839 190.1171,5.3329 190.4591,4.4569 C190.8011,3.5819 191.2841,2.8249 191.9081,2.1849 C192.5311,1.5459 193.2791,1.0469 194.1511,0.6879 C195.0231,0.3299 195.9891,0.1509 197.0481,0.1509 C197.7591,0.1509 198.4271,0.2329 199.0541,0.3979 C199.6801,0.5619 200.2551,0.7949 200.7781,1.0949 C201.3021,1.3959 201.7721,1.7609 202.1881,2.1899 C202.6051,2.6199 202.9581,3.0999 203.2491,3.6289 C203.5401,4.1589 203.7611,4.7339 203.9131,5.3539 C204.0651,5.9739 204.1411,6.6269 204.1411,7.3109" id="Fill-112" fill="#A1B3CE" mask="url(#mask-2)"></path>
                    <path d="M213.5298,12.2139 C214.0338,12.2139 214.4838,12.1299 214.8818,11.9619 C215.2788,11.7939 215.6128,11.5579 215.8848,11.2549 C216.1558,10.9509 216.3638,10.5829 216.5098,10.1499 C216.6548,9.7169 216.7278,9.2329 216.7278,8.6969 L216.7278,1.3759 C216.7278,0.7849 217.2068,0.3059 217.7978,0.3059 L218.2628,0.3059 C218.8548,0.3059 219.3338,0.7849 219.3338,1.3759 L219.3338,8.6969 C219.3338,9.5299 219.1998,10.2999 218.9318,11.0079 C218.6638,11.7149 218.2788,12.3249 217.7788,12.8389 C217.2778,13.3519 216.6698,13.7529 215.9518,14.0409 C215.2348,14.3279 214.4278,14.4719 213.5298,14.4719 C212.6258,14.4719 211.8148,14.3279 211.0978,14.0409 C210.3808,13.7529 209.7718,13.3519 209.2718,12.8389 C208.7708,12.3249 208.3868,11.7149 208.1178,11.0079 C207.8498,10.2999 207.7158,9.5299 207.7158,8.6969 L207.7158,1.3759 C207.7158,0.7849 208.1958,0.3059 208.7868,0.3059 L209.2518,0.3059 C209.8438,0.3059 210.3228,0.7849 210.3228,1.3759 L210.3228,8.6869 C210.3228,9.2229 210.3958,9.7079 210.5408,10.1409 C210.6858,10.5729 210.8958,10.9429 211.1708,11.2499 C211.4448,11.5569 211.7808,11.7939 212.1778,11.9619 C212.5758,12.1299 213.0258,12.2139 213.5298,12.2139" id="Fill-113" fill="#A1B3CE" mask="url(#mask-2)"></path>
                    <path d="M227.9672,6.972 C228.4582,6.972 228.8862,6.911 229.2512,6.788 C229.6162,6.665 229.9162,6.495 230.1522,6.279 C230.3882,6.063 230.5642,5.806 230.6802,5.509 C230.7962,5.212 230.8542,4.885 230.8542,4.53 C230.8542,3.82 230.6202,3.274 230.1522,2.893 C229.6842,2.512 228.9682,2.321 228.0062,2.321 L226.3392,2.321 L226.3392,6.972 L227.9672,6.972 Z M233.5392,12.645 C234.0212,13.356 233.5122,14.317 232.6532,14.317 L232.3182,14.317 C231.8722,14.317 231.5492,14.142 231.3482,13.793 L228.4032,9.307 C228.2932,9.139 228.1722,9.02 228.0402,8.948 C227.9072,8.878 227.7122,8.842 227.4532,8.842 L226.3392,8.842 L226.3392,13.246 C226.3392,13.837 225.8602,14.317 225.2682,14.317 L224.8032,14.317 C224.2122,14.317 223.7332,13.837 223.7332,13.246 L223.7332,1.376 C223.7332,0.785 224.2122,0.306 224.8032,0.306 L228.0062,0.306 C228.9552,0.306 229.7712,0.404 230.4522,0.601 C231.1342,0.798 231.6932,1.074 232.1292,1.429 C232.5652,1.785 232.8862,2.21 233.0932,2.704 C233.2992,3.198 233.4032,3.742 233.4032,4.336 C233.4032,4.808 233.3332,5.254 233.1942,5.673 C233.0552,6.093 232.8552,6.475 232.5942,6.817 C232.3322,7.159 232.0092,7.46 231.6252,7.718 C231.2402,7.976 230.8032,8.18 230.3122,8.329 C230.4802,8.425 230.6352,8.54 230.7772,8.672 C230.9192,8.805 231.0482,8.962 231.1652,9.142 L233.5392,12.645 Z" id="Fill-114" fill="#A1B3CE" mask="url(#mask-2)"></path>
                    <path d="M253.5763,7.3109 C253.5763,6.5419 253.4743,5.8529 253.2713,5.2419 C253.0673,4.6319 252.7733,4.1149 252.3893,3.6919 C252.0053,3.2689 251.5393,2.9439 250.9933,2.7179 C250.4483,2.4919 249.8323,2.3789 249.1483,2.3789 L246.4253,2.3789 L246.4253,12.2429 L249.1483,12.2429 C249.8323,12.2429 250.4483,12.1299 250.9933,11.9039 C251.5393,11.6779 252.0053,11.3529 252.3893,10.9299 C252.7733,10.5069 253.0673,9.9899 253.2713,9.3799 C253.4743,8.7689 253.5763,8.0799 253.5763,7.3109 M256.2503,7.3109 C256.2503,8.3379 256.0793,9.2809 255.7373,10.1399 C255.3943,10.9999 254.9133,11.7389 254.2933,12.3589 C253.6733,12.9789 252.9273,13.4609 252.0553,13.8029 C251.1833,14.1459 250.2143,14.3169 249.1483,14.3169 L244.8793,14.3169 C244.2883,14.3169 243.8093,13.8369 243.8093,13.2459 L243.8093,1.3759 C243.8093,0.7849 244.2883,0.3059 244.8793,0.3059 L249.1483,0.3059 C250.2143,0.3059 251.1833,0.4779 252.0553,0.8239 C252.9273,1.1699 253.6733,1.6509 254.2933,2.2679 C254.9133,2.8849 255.3943,3.6229 255.7373,4.4819 C256.0793,5.3409 256.2503,6.2839 256.2503,7.3109" id="Fill-115" fill="#A1B3CE" mask="url(#mask-2)"></path>
                    <path d="M266.9673,9.026 L265.2613,4.365 C265.1773,4.159 265.0903,3.913 265.0003,3.629 C264.9103,3.345 264.8193,3.038 264.7293,2.709 C264.6453,3.038 264.5573,3.346 264.4673,3.634 C264.3763,3.921 264.2893,4.172 264.2053,4.385 L262.5093,9.026 L266.9673,9.026 Z M270.9953,12.854 C271.2713,13.557 270.7533,14.316 269.9983,14.316 L269.5543,14.316 C269.3283,14.316 269.1443,14.26 269.0023,14.147 C268.8593,14.034 268.7533,13.894 268.6823,13.725 L267.6353,10.867 L261.8323,10.867 L260.7853,13.725 C260.7333,13.874 260.6333,14.01 260.4853,14.132 C260.3363,14.255 260.1523,14.316 259.9323,14.316 L259.4693,14.316 C258.7153,14.316 258.1973,13.556 258.4733,12.854 L263.1443,0.984 C263.3053,0.575 263.7003,0.306 264.1403,0.306 L265.3363,0.306 C265.7763,0.306 266.1723,0.575 266.3333,0.985 L270.9953,12.854 Z" id="Fill-116" fill="#A1B3CE" mask="url(#mask-2)"></path>
                    <path d="M281.826,2.4467 L278.671,2.4467 L278.671,13.2457 C278.671,13.8367 278.192,14.3167 277.601,14.3167 L277.136,14.3167 C276.545,14.3167 276.065,13.8367 276.065,13.2457 L276.065,2.4467 L272.911,2.4467 C272.32,2.4467 271.841,1.9677 271.841,1.3757 C271.841,0.7847 272.32,0.3057 272.911,0.3057 L281.826,0.3057 C282.417,0.3057 282.897,0.7847 282.897,1.3757 C282.897,1.9677 282.417,2.4467 281.826,2.4467" id="Fill-117" fill="#A1B3CE" mask="url(#mask-2)"></path>
                    <path d="M292.227,9.026 L290.522,4.365 C290.438,4.159 290.351,3.913 290.26,3.629 C290.17,3.345 290.079,3.038 289.989,2.709 C289.905,3.038 289.818,3.346 289.727,3.634 C289.637,3.921 289.549,4.172 289.466,4.385 L287.77,9.026 L292.227,9.026 Z M296.255,12.854 C296.531,13.557 296.013,14.316 295.259,14.316 L294.814,14.316 C294.588,14.316 294.404,14.26 294.262,14.147 C294.12,14.034 294.013,13.894 293.942,13.725 L292.896,10.867 L287.092,10.867 L286.045,13.725 C285.993,13.874 285.894,14.01 285.745,14.132 C285.596,14.255 285.412,14.316 285.193,14.316 L284.729,14.316 C283.975,14.316 283.457,13.556 283.733,12.854 L288.404,0.984 C288.565,0.575 288.96,0.306 289.4,0.306 L290.596,0.306 C291.036,0.306 291.432,0.575 291.593,0.985 L296.255,12.854 Z" id="Fill-118" fill="#A1B3CE" mask="url(#mask-2)"></path>
                    <path d="M398.1873,107.1726 L398.1873,119.5366 C398.1873,119.9916 397.8183,120.3596 397.3643,120.3596 L396.7143,120.3596 C396.2593,120.3596 395.8913,119.9916 395.8913,119.5366 L395.8913,111.3106 C395.8913,110.9486 395.9103,110.5576 395.9493,110.1376 L391.7143,118.0926 C391.5143,118.4736 391.2073,118.6646 390.7943,118.6646 L390.4263,118.6646 C390.0123,118.6646 389.7053,118.4736 389.5053,118.0926 L385.2233,110.1086 C385.2423,110.3216 385.2583,110.5316 385.2713,110.7386 C385.2843,110.9456 385.2903,111.1356 385.2903,111.3106 L385.2903,119.5366 C385.2903,119.9916 384.9223,120.3596 384.4673,120.3596 L383.8173,120.3596 C383.3623,120.3596 382.9943,119.9916 382.9943,119.5366 L382.9943,107.1726 C382.9943,106.7176 383.3623,106.3496 383.8173,106.3496 L384.9613,106.3496 C385.0773,106.3496 385.1773,106.3526 385.2613,106.3586 C385.3453,106.3656 385.4213,106.3816 385.4893,106.4076 C385.5573,106.4326 385.6183,106.4746 385.6733,106.5326 C385.7283,106.5916 385.7813,106.6686 385.8333,106.7656 L390.0283,114.5466 C390.1383,114.7536 390.2403,114.9666 390.3343,115.1856 C390.4273,115.4056 390.5193,115.6316 390.6103,115.8646 C390.7003,115.6256 390.7943,115.3946 390.8913,115.1716 C390.9883,114.9486 391.0913,114.7336 391.2013,114.5266 L395.3383,106.7656 C395.3903,106.6686 395.4453,106.5916 395.5033,106.5326 C395.5613,106.4746 395.6243,106.4326 395.6923,106.4076 C395.7603,106.3816 395.8353,106.3656 395.9193,106.3586 C396.0033,106.3526 396.1043,106.3496 396.2203,106.3496 L397.3643,106.3496 C397.8183,106.3496 398.1873,106.7176 398.1873,107.1726" id="Fill-119" fill="#A1B3CE" mask="url(#mask-2)"></path>
                    <path d="M410.1633,115.0696 L408.4583,110.4086 C408.3743,110.2026 408.2873,109.9566 408.1963,109.6726 C408.1063,109.3886 408.0153,109.0816 407.9253,108.7526 C407.8413,109.0816 407.7543,109.3896 407.6633,109.6776 C407.5733,109.9646 407.4853,110.2156 407.4013,110.4286 L405.7063,115.0696 L410.1633,115.0696 Z M414.3243,119.2356 C414.5363,119.7756 414.1383,120.3596 413.5573,120.3596 L412.7503,120.3596 C412.5243,120.3596 412.3403,120.3036 412.1983,120.1906 C412.0553,120.0776 411.9493,119.9376 411.8783,119.7686 L410.8323,116.9106 L405.0283,116.9106 L403.9813,119.7686 C403.9293,119.9176 403.8303,120.0536 403.6813,120.1756 C403.5323,120.2986 403.3483,120.3596 403.1283,120.3596 L402.3033,120.3596 C401.7223,120.3596 401.3243,119.7756 401.5363,119.2346 L406.4023,106.8716 C406.5263,106.5566 406.8303,106.3496 407.1683,106.3496 L408.7013,106.3496 C409.0393,106.3496 409.3433,106.5566 409.4673,106.8716 L414.3243,119.2356 Z" id="Fill-120" fill="#A1B3CE" mask="url(#mask-2)"></path>
                    <path d="M421.9069,113.0156 C422.3979,113.0156 422.8259,112.9546 423.1899,112.8316 C423.5549,112.7086 423.8559,112.5386 424.0919,112.3226 C424.3269,112.1066 424.5039,111.8496 424.6199,111.5526 C424.7359,111.2556 424.7939,110.9286 424.7939,110.5736 C424.7939,109.8636 424.5599,109.3176 424.0919,108.9366 C423.6229,108.5556 422.9079,108.3646 421.9449,108.3646 L420.2789,108.3646 L420.2789,113.0156 L421.9069,113.0156 Z M427.7399,119.0746 C428.1109,119.6216 427.7189,120.3606 427.0589,120.3606 L426.2569,120.3606 C425.8119,120.3606 425.4889,120.1856 425.2879,119.8366 L422.3429,115.3506 C422.2329,115.1826 422.1119,115.0636 421.9789,114.9916 C421.8469,114.9216 421.6519,114.8856 421.3929,114.8856 L420.2789,114.8856 L420.2789,119.5366 C420.2789,119.9916 419.9099,120.3606 419.4559,120.3606 L418.4959,120.3606 C418.0409,120.3606 417.6729,119.9916 417.6729,119.5366 L417.6729,107.1726 C417.6729,106.7176 418.0409,106.3496 418.4959,106.3496 L421.9449,106.3496 C422.8949,106.3496 423.7109,106.4476 424.3919,106.6446 C425.0739,106.8416 425.6319,107.1176 426.0679,107.4726 C426.5039,107.8286 426.8249,108.2526 427.0329,108.7476 C427.2389,109.2416 427.3429,109.7856 427.3429,110.3796 C427.3429,110.8516 427.2729,111.2976 427.1339,111.7166 C426.9949,112.1366 426.7949,112.5186 426.5329,112.8606 C426.2719,113.2026 425.9489,113.5036 425.5649,113.7616 C425.1799,114.0196 424.7419,114.2236 424.2519,114.3726 C424.4199,114.4686 424.5739,114.5836 424.7169,114.7156 C424.8589,114.8486 424.9879,115.0056 425.1039,115.1856 L427.7399,119.0746 Z" id="Fill-121" fill="#A1B3CE" mask="url(#mask-2)"></path>
                    <path d="M434.1929,112.2209 L434.8029,112.2209 C435.0489,112.2209 435.2519,112.1869 435.4139,112.1189 C435.5759,112.0509 435.7139,111.9429 435.8309,111.7949 L439.6969,106.9009 C439.8579,106.6949 440.0279,106.5509 440.2049,106.4699 C440.3829,106.3899 440.6079,106.3489 440.8789,106.3489 L441.3989,106.3489 C442.0919,106.3489 442.4749,107.1529 442.0389,107.6909 L438.4079,112.1719 C438.1299,112.5279 437.8429,112.7799 437.5459,112.9279 C437.7589,113.0059 437.9509,113.1139 438.1219,113.2529 C438.2929,113.3919 438.4559,113.5739 438.6109,113.7999 L442.5009,119.0459 C442.9039,119.5899 442.5159,120.3599 441.8399,120.3599 L441.1789,120.3599 C440.8689,120.3599 440.6379,120.3159 440.4859,120.2289 C440.3339,120.1419 440.2069,120.0149 440.1029,119.8459 L436.1409,114.6729 C436.0179,114.4979 435.8759,114.3749 435.7139,114.3039 C435.5529,114.2329 435.3199,114.1979 435.0159,114.1979 L434.1929,114.1979 L434.1929,119.5369 C434.1929,119.9909 433.8239,120.3599 433.3699,120.3599 L432.4099,120.3599 C431.9549,120.3599 431.5869,119.9909 431.5869,119.5369 L431.5869,107.1729 C431.5869,106.7179 431.9549,106.3489 432.4099,106.3489 L433.3699,106.3489 C433.8239,106.3489 434.1929,106.7179 434.1929,107.1729 L434.1929,112.2209 Z" id="Fill-122" fill="#A1B3CE" mask="url(#mask-2)"></path>
                    <path d="M448.9397,108.4227 L448.9397,112.3077 L453.0197,112.3077 C453.4737,112.3077 453.8427,112.6767 453.8427,113.1317 L453.8427,113.4907 C453.8427,113.9447 453.4737,114.3137 453.0197,114.3137 L448.9397,114.3137 L448.9397,118.2767 L454.3367,118.2767 C454.7917,118.2767 455.1607,118.6457 455.1607,119.1007 L455.1607,119.5367 C455.1607,119.9917 454.7917,120.3597 454.3367,120.3597 L447.1467,120.3597 C446.6927,120.3597 446.3237,119.9917 446.3237,119.5367 L446.3237,107.1727 C446.3237,106.7177 446.6927,106.3497 447.1467,106.3497 L454.3367,106.3497 C454.7917,106.3497 455.1607,106.7177 455.1607,107.1727 L455.1607,107.5997 C455.1607,108.0537 454.7917,108.4227 454.3367,108.4227 L448.9397,108.4227 Z" id="Fill-123" fill="#A1B3CE" mask="url(#mask-2)"></path>
                    <path d="M467.8829,108.4904 L464.4819,108.4904 L464.4819,119.5364 C464.4819,119.9914 464.1129,120.3604 463.6579,120.3604 L462.6989,120.3604 C462.2439,120.3604 461.8759,119.9914 461.8759,119.5364 L461.8759,108.4904 L458.4739,108.4904 C458.0199,108.4904 457.6509,108.1214 457.6509,107.6674 L457.6509,107.1724 C457.6509,106.7184 458.0199,106.3494 458.4739,106.3494 L467.8829,106.3494 C468.3379,106.3494 468.7059,106.7184 468.7059,107.1724 L468.7059,107.6674 C468.7059,108.1214 468.3379,108.4904 467.8829,108.4904" id="Fill-124" fill="#A1B3CE" mask="url(#mask-2)"></path>
                    <path d="M487.3395,113.3545 C487.3395,112.5855 487.2375,111.8965 487.0345,111.2855 C486.8305,110.6755 486.5365,110.1585 486.1525,109.7355 C485.7685,109.3125 485.3025,108.9875 484.7565,108.7615 C484.2115,108.5355 483.5955,108.4225 482.9115,108.4225 L480.1885,108.4225 L480.1885,118.2865 L482.9115,118.2865 C483.5955,118.2865 484.2115,118.1735 484.7565,117.9475 C485.3025,117.7215 485.7685,117.3965 486.1525,116.9735 C486.5365,116.5505 486.8305,116.0335 487.0345,115.4235 C487.2375,114.8125 487.3395,114.1235 487.3395,113.3545 M490.0135,113.3545 C490.0135,114.3815 489.8425,115.3245 489.5005,116.1835 C489.1575,117.0435 488.6765,117.7825 488.0565,118.4025 C487.4365,119.0225 486.6905,119.5045 485.8185,119.8465 C484.9465,120.1895 483.9775,120.3605 482.9115,120.3605 L478.3955,120.3605 C477.9415,120.3605 477.5725,119.9915 477.5725,119.5365 L477.5725,107.1725 C477.5725,106.7175 477.9415,106.3495 478.3955,106.3495 L482.9115,106.3495 C483.9775,106.3495 484.9465,106.5215 485.8185,106.8675 C486.6905,107.2135 487.4365,107.6945 488.0565,108.3115 C488.6765,108.9285 489.1575,109.6665 489.5005,110.5255 C489.8425,111.3845 490.0135,112.3275 490.0135,113.3545" id="Fill-125" fill="#A1B3CE" mask="url(#mask-2)"></path>
                    <path d="M500.7305,115.0696 L499.0255,110.4086 C498.9415,110.2026 498.8545,109.9566 498.7635,109.6726 C498.6735,109.3886 498.5825,109.0816 498.4925,108.7526 C498.4085,109.0816 498.3215,109.3896 498.2305,109.6776 C498.1405,109.9646 498.0525,110.2156 497.9695,110.4286 L496.2735,115.0696 L500.7305,115.0696 Z M504.8915,119.2356 C505.1035,119.7756 504.7055,120.3596 504.1245,120.3596 L503.3175,120.3596 C503.0915,120.3596 502.9075,120.3036 502.7655,120.1906 C502.6235,120.0776 502.5165,119.9376 502.4455,119.7686 L501.3995,116.9106 L495.5955,116.9106 L494.5485,119.7686 C494.4965,119.9176 494.3975,120.0536 494.2485,120.1756 C494.0995,120.2986 493.9155,120.3596 493.6965,120.3596 L492.8705,120.3596 C492.2905,120.3596 491.8915,119.7756 492.1045,119.2346 L496.9695,106.8716 C497.0935,106.5566 497.3975,106.3496 497.7355,106.3496 L499.2685,106.3496 C499.6065,106.3496 499.9105,106.5566 500.0345,106.8716 L504.8915,119.2356 Z" id="Fill-126" fill="#A1B3CE" mask="url(#mask-2)"></path>
                    <path d="M515.8369,108.4904 L512.4349,108.4904 L512.4349,119.5364 C512.4349,119.9914 512.0669,120.3604 511.6119,120.3604 L510.6529,120.3604 C510.1979,120.3604 509.8289,119.9914 509.8289,119.5364 L509.8289,108.4904 L506.4279,108.4904 C505.9729,108.4904 505.6049,108.1214 505.6049,107.6674 L505.6049,107.1724 C505.6049,106.7184 505.9729,106.3494 506.4279,106.3494 L515.8369,106.3494 C516.2919,106.3494 516.6599,106.7184 516.6599,107.1724 L516.6599,107.6674 C516.6599,108.1214 516.2919,108.4904 515.8369,108.4904" id="Fill-127" fill="#A1B3CE" mask="url(#mask-2)"></path>
                    <path d="M525.9907,115.0696 L524.2857,110.4086 C524.2017,110.2026 524.1147,109.9566 524.0237,109.6726 C523.9337,109.3886 523.8427,109.0816 523.7527,108.7526 C523.6687,109.0816 523.5817,109.3896 523.4907,109.6776 C523.4007,109.9646 523.3127,110.2156 523.2297,110.4286 L521.5337,115.0696 L525.9907,115.0696 Z M530.1517,119.2356 C530.3637,119.7756 529.9657,120.3596 529.3847,120.3596 L528.5777,120.3596 C528.3517,120.3596 528.1677,120.3036 528.0257,120.1906 C527.8837,120.0776 527.7767,119.9376 527.7057,119.7686 L526.6597,116.9106 L520.8557,116.9106 L519.8087,119.7686 C519.7567,119.9176 519.6577,120.0536 519.5087,120.1756 C519.3597,120.2986 519.1757,120.3596 518.9567,120.3596 L518.1307,120.3596 C517.5497,120.3596 517.1517,119.7756 517.3637,119.2346 L522.2297,106.8716 C522.3537,106.5566 522.6577,106.3496 522.9957,106.3496 L524.5287,106.3496 C524.8667,106.3496 525.1707,106.5566 525.2947,106.8716 L530.1517,119.2356 Z" id="Fill-128" fill="#A1B3CE" mask="url(#mask-2)"></path>
                    <path d="M8.2068,88.083 L8.2068,88.093 C8.2068,88.684 7.7278,89.164 7.1358,89.164 L1.0708,89.164 C0.4798,89.164 -0.0002,88.684 -0.0002,88.093 L-0.0002,76.223 C-0.0002,75.632 0.4798,75.153 1.0708,75.153 L1.5358,75.153 C2.1268,75.153 2.6058,75.632 2.6058,76.223 L2.6058,87.012 L7.1358,87.012 C7.7278,87.012 8.2068,87.492 8.2068,88.083" id="Fill-129" fill="#A1B3CE" mask="url(#mask-2)"></path>
                    <path d="M16.0747,82.1968 C16.5527,82.1968 16.9697,82.1368 17.3247,82.0178 C17.6797,81.8978 17.9747,81.7268 18.2117,81.5038 C18.4467,81.2808 18.6227,81.0098 18.7397,80.6898 C18.8557,80.3708 18.9137,80.0138 18.9137,79.6198 C18.9137,79.2448 18.8557,78.9058 18.7397,78.6018 C18.6227,78.2988 18.4487,78.0398 18.2157,77.8268 C17.9837,77.6138 17.6897,77.4508 17.3337,77.3378 C16.9787,77.2248 16.5587,77.1678 16.0747,77.1678 L14.1267,77.1678 L14.1267,82.1968 L16.0747,82.1968 Z M16.0747,75.1528 C17.0117,75.1528 17.8217,75.2628 18.5067,75.4818 C19.1917,75.7018 19.7567,76.0088 20.2027,76.4028 C20.6477,76.7968 20.9787,77.2678 21.1957,77.8168 C21.4117,78.3658 21.5197,78.9668 21.5197,79.6198 C21.5197,80.2978 21.4067,80.9198 21.1807,81.4848 C20.9547,82.0498 20.6157,82.5358 20.1637,82.9428 C19.7117,83.3498 19.1447,83.6668 18.4627,83.8928 C17.7817,84.1188 16.9857,84.2318 16.0747,84.2318 L14.1267,84.2318 L14.1267,88.0928 C14.1267,88.6838 13.6477,89.1638 13.0567,89.1638 L12.5907,89.1638 C11.9997,89.1638 11.5207,88.6838 11.5207,88.0928 L11.5207,76.2228 C11.5207,75.6318 11.9997,75.1528 12.5907,75.1528 L16.0747,75.1528 Z" id="Fill-130" fill="#A1B3CE" mask="url(#mask-2)"></path>
                    <path d="M40.3561,82.158 C40.3561,81.389 40.2541,80.7 40.0511,80.089 C39.8471,79.479 39.5531,78.962 39.1691,78.539 C38.7851,78.116 38.3201,77.791 37.7741,77.565 C37.2281,77.339 36.6131,77.226 35.9281,77.226 L33.2051,77.226 L33.2051,87.09 L35.9281,87.09 C36.6131,87.09 37.2281,86.977 37.7741,86.751 C38.3201,86.525 38.7851,86.2 39.1691,85.777 C39.5531,85.354 39.8471,84.837 40.0511,84.227 C40.2541,83.616 40.3561,82.927 40.3561,82.158 M43.0301,82.158 C43.0301,83.185 42.8591,84.128 42.5171,84.987 C42.1741,85.847 41.6931,86.586 41.0731,87.206 C40.4531,87.826 39.7071,88.308 38.8351,88.65 C37.9631,88.993 36.9941,89.164 35.9281,89.164 L31.6601,89.164 C31.0681,89.164 30.5891,88.684 30.5891,88.093 L30.5891,76.223 C30.5891,75.632 31.0681,75.153 31.6601,75.153 L35.9281,75.153 C36.9941,75.153 37.9631,75.325 38.8351,75.671 C39.7071,76.017 40.4531,76.498 41.0731,77.115 C41.6931,77.732 42.1741,78.47 42.5171,79.329 C42.8591,80.188 43.0301,81.131 43.0301,82.158" id="Fill-131" fill="#A1B3CE" mask="url(#mask-2)"></path>
                    <path d="M53.7471,83.8731 L52.0421,79.2121 C51.9581,79.0061 51.8701,78.7601 51.7801,78.4761 C51.6901,78.1921 51.5991,77.8851 51.5091,77.5561 C51.4251,77.8851 51.3371,78.1931 51.2471,78.4811 C51.1561,78.7681 51.0691,79.0191 50.9851,79.2321 L49.2901,83.8731 L53.7471,83.8731 Z M57.7751,87.7011 C58.0511,88.4041 57.5331,89.1631 56.7791,89.1631 L56.3341,89.1631 C56.1081,89.1631 55.9241,89.1071 55.7821,88.9941 C55.6391,88.8811 55.5331,88.7411 55.4621,88.5721 L54.4151,85.7141 L48.6121,85.7141 L47.5651,88.5721 C47.5131,88.7211 47.4131,88.8571 47.2651,88.9791 C47.1161,89.1021 46.9321,89.1631 46.7121,89.1631 L46.2491,89.1631 C45.4951,89.1631 44.9771,88.4031 45.2531,87.7011 L49.9241,75.8311 C50.0851,75.4221 50.4801,75.1531 50.9201,75.1531 L52.1161,75.1531 C52.5561,75.1531 52.9521,75.4221 53.1131,75.8321 L57.7751,87.7011 Z" id="Fill-132" fill="#A1B3CE" mask="url(#mask-2)"></path>
                    <path d="M68.6058,77.2939 L65.4518,77.2939 L65.4518,88.0929 C65.4518,88.6839 64.9728,89.1639 64.3808,89.1639 L63.9158,89.1639 C63.3248,89.1639 62.8448,88.6839 62.8448,88.0929 L62.8448,77.2939 L59.6908,77.2939 C59.0998,77.2939 58.6208,76.8149 58.6208,76.2229 C58.6208,75.6319 59.0998,75.1529 59.6908,75.1529 L68.6058,75.1529 C69.1968,75.1529 69.6768,75.6319 69.6768,76.2229 C69.6768,76.8149 69.1968,77.2939 68.6058,77.2939" id="Fill-133" fill="#A1B3CE" mask="url(#mask-2)"></path>
                    <path d="M79.0068,83.8731 L77.3018,79.2121 C77.2178,79.0061 77.1308,78.7601 77.0408,78.4761 C76.9498,78.1921 76.8588,77.8851 76.7688,77.5561 C76.6848,77.8851 76.5978,78.1931 76.5068,78.4811 C76.4168,78.7681 76.3298,79.0191 76.2458,79.2321 L74.5498,83.8731 L79.0068,83.8731 Z M83.0358,87.7011 C83.3118,88.4041 82.7938,89.1631 82.0388,89.1631 L81.5938,89.1631 C81.3678,89.1631 81.1838,89.1071 81.0418,88.9941 C80.8998,88.8811 80.7938,88.7411 80.7228,88.5721 L79.6758,85.7141 L73.8718,85.7141 L72.8258,88.5721 C72.7738,88.7211 72.6738,88.8571 72.5248,88.9791 C72.3768,89.1021 72.1918,89.1631 71.9728,89.1631 L71.5098,89.1631 C70.7548,89.1631 70.2368,88.4031 70.5138,87.7011 L75.1838,75.8311 C75.3448,75.4221 75.7408,75.1531 76.1808,75.1531 L77.3768,75.1531 C77.8168,75.1531 78.2118,75.4221 78.3728,75.8321 L83.0358,87.7011 Z" id="Fill-134" fill="#A1B3CE" mask="url(#mask-2)"></path>
                </g>
                <g id="Group-152" transform="translate(63.000000, 107.849000)" stroke="#39BDE4" stroke-width="1.04" stroke-linecap="round" stroke-linejoin="round">
                    <path d="M214.9258,29.6873 C239.6888,36.3983 261.8508,49.4253 279.5878,66.9263" id="Stroke-136"></path>
                    <path d="M308.7953,54.9376 C286.2803,29.3876 256.4863,10.4046 222.6543,1.2356" id="Stroke-138"></path>
                    <path d="M132.0216,0.7325 C94.5656,10.4415 61.9476,32.1545 38.5036,61.5135" id="Stroke-140"></path>
                    <path d="M308.0674,288.8518 C335.8824,257.6718 352.7964,216.5568 352.7964,171.4848 C352.7964,166.2818 352.5694,161.1308 352.1274,156.0418" id="Stroke-142"></path>
                    <path d="M323.1176,163.7429 C323.2506,166.3069 323.3186,168.8879 323.3186,171.4849 C323.3186,199.2249 315.6266,225.1659 302.2656,247.2999" id="Stroke-144"></path>
                    <path d="M51.9247,249.52 C38.7057,228.477 30.6767,203.847 29.6267,177.419" id="Stroke-146"></path>
                    <path d="M9.934,113.0414 C3.513,131.3314 0.02,151.0004 0.02,171.4854 C0.02,216.3344 16.768,257.2664 44.339,288.3904" id="Stroke-148"></path>
                    <path d="M76.7466,63.5642 C94.2406,47.3992 115.6686,35.4292 139.4396,29.2682 C115.6686,35.4292 94.2406,47.3992 76.7466,63.5642" id="Stroke-150"></path>
                </g>
            </g>
        </g>
    </g>
</svg>