<?xml version="1.0" encoding="UTF-8"?>
<svg width="507px" height="218px" viewBox="0 0 507 218" version="1.1" xmlns="http://www.w3.org/2000/svg" xmlns:xlink="http://www.w3.org/1999/xlink">
    <!-- Generator: Sketch 46 (44423) - http://www.bohemiancoding.com/sketch -->
    <title>Page 1</title>
    <desc>Created with Sketch.</desc>
    <defs>
        <polygon id="path-1" points="0 217.76 506.052 217.76 506.052 0 0 0"></polygon>
    </defs>
    <g id="Main" stroke="none" stroke-width="1" fill="none" fill-rule="evenodd">
        <g id="Bison" transform="translate(-613.000000, -4499.000000)">
            <g id="Page-1" transform="translate(613.000000, 4499.000000)">
                <path d="M157.0556,170.86 C157.1556,172.56 157.2556,173.76 157.3556,175.06 C157.9556,181.36 158.5556,187.66 159.0556,194.06 C159.1556,195.56 159.7556,196.66 160.9556,197.56 C162.5556,198.66 163.9556,199.96 165.4556,201.26 C165.0556,203.66 163.3556,204.06 161.6556,204.16 C156.3556,204.36 121.8556,204.36 109.9556,204.16 C107.1556,204.16 106.2556,203.56 105.5556,201.26 C107.0556,199.96 108.7556,198.66 110.2556,197.26 C110.9556,196.66 111.6556,195.66 111.7556,194.86 C112.5556,187.36 113.2556,179.86 113.9556,172.36 C113.9556,172.06 113.8556,171.76 113.7556,171.16 C112.7556,171.06 111.8556,170.96 110.8556,170.96 L42.3556,170.96 C35.9556,170.96 32.7556,167.86 32.7556,161.36 L32.7556,43.16 C32.7556,36.66 35.9556,33.46 42.4556,33.46 L227.2556,33.46 C233.8556,33.46 237.0556,36.66 237.0556,43.16 L237.0556,161.36 C237.0556,167.96 233.9556,170.96 227.2556,170.96 L160.1556,170.96 C159.2556,170.86 158.2556,170.86 157.0556,170.86 Z" id="Stroke-1" stroke="#A1B3CE" stroke-width="3.12"></path>
                <path d="M40.2556,139.76 C43.5556,140.66 228.3556,140.26 229.6556,139.46 L229.6556,42.26 L40.2556,42.26 C40.2556,74.96 40.2556,107.36 40.2556,139.76 Z" id="Stroke-3" stroke="#A1B3CE" stroke-width="1.04"></path>
                <polygon id="Fill-5" fill="#F05635" points="153.0556 80.36 149.6556 74.56 117.1556 84.16 115.4556 85.66 115.4556 89.46 114.8556 90.16 115.9556 95.36 118.2556 91.16 116.8556 89.56 116.8556 86.46 116.9556 86.06 117.6556 85.06 119.7556 95.06 117.4556 96.36 117.4556 106.66 117.4556 106.86 117.4556 107.36 120.3556 107.36 119.4556 106.66 119.4556 100.36 120.1556 99.46 125.1556 106.86 126.0556 106.96 125.4556 107.36 128.1556 107.36 123.4556 100.46 125.2556 93.66 128.9556 95.86 137.8556 94.66 139.7556 102.36 141.7556 102.36 142.2556 106.36 143.2556 106.76 143.0556 107.36 145.8556 107.36 144.9556 106.86 144.9556 103.66 145.1556 100.56 154.6556 95.36 155.5556 99.06 159.7556 95.36 160.4556 95.36 160.4556 80.36"></polygon>
                <path d="M120.3556,196.06 L149.7556,196.06" id="Stroke-7" stroke="#A1B3CE" stroke-width="1.04" stroke-linecap="round" stroke-linejoin="round"></path>
                <path d="M113.7556,171.06 L157.0556,170.86" id="Stroke-9" stroke="#A1B3CE" stroke-width="3.12" stroke-linecap="round" stroke-linejoin="round"></path>
                <polygon id="Stroke-11" stroke="#A1B3CE" stroke-width="3.12" stroke-linecap="round" stroke-linejoin="round" points="362.4555 84.86 354.0555 77.86 354.0555 52.06 362.4555 44.96 370.6555 51.96 370.6555 78.16"></polygon>
                <path d="M362.3555,44.96 L362.3555,84.86" id="Stroke-13" stroke="#A1B3CE" stroke-width="1.04" stroke-linecap="round" stroke-linejoin="round"></path>
                <polygon id="Stroke-15" stroke="#A1B3CE" stroke-width="3.12" stroke-linecap="round" stroke-linejoin="round" points="379.4555 84.86 371.1555 77.86 371.1555 52.06 379.4555 44.96 387.7555 51.96 387.7555 78.16"></polygon>
                <path d="M379.4555,44.96 L379.4555,84.86" id="Stroke-17" stroke="#A1B3CE" stroke-width="1.04" stroke-linecap="round" stroke-linejoin="round"></path>
                <path d="M367.7556,75.86 L363.9556,78.86" id="Stroke-19" stroke="#A1B3CE" stroke-width="1.04" stroke-linecap="round" stroke-linejoin="round"></path>
                <path d="M384.8555,75.76 L381.1555,78.76" id="Stroke-21" stroke="#A1B3CE" stroke-width="1.04" stroke-linecap="round" stroke-linejoin="round"></path>
                <polygon id="Stroke-23" stroke="#A1B3CE" stroke-width="3.12" stroke-linecap="round" stroke-linejoin="round" points="396.1555 84.86 387.7555 77.86 387.7555 52.06 396.1555 44.96 404.3555 51.96 404.3555 78.16"></polygon>
                <path d="M396.0555,44.96 L396.0555,84.86" id="Stroke-25" stroke="#A1B3CE" stroke-width="1.04" stroke-linecap="round" stroke-linejoin="round"></path>
                <path d="M401.4555,75.86 L397.6555,78.86" id="Stroke-27" stroke="#A1B3CE" stroke-width="1.04" stroke-linecap="round" stroke-linejoin="round"></path>
                <path d="M409.9555,82.16 L409.9555,47.66 C409.9555,46.16 408.7555,44.96 407.2555,44.96 C405.7555,44.96 404.5555,46.16 404.5555,47.66 L404.5555,82.16 C404.5555,83.66 405.7555,84.86 407.2555,84.86 C408.7555,84.86 409.9555,83.66 409.9555,82.16 Z" id="Stroke-29" stroke="#A1B3CE" stroke-width="3.12" stroke-linecap="round" stroke-linejoin="round"></path>
                <path d="M348.6555,47.56 L348.6555,82.06 C348.6555,83.56 349.8555,84.76 351.3555,84.76 C352.8555,84.76 354.0555,83.56 354.0555,82.06 L354.0555,47.56 C354.0555,46.06 352.8555,44.86 351.3555,44.86 C349.8555,44.86 348.6555,46.06 348.6555,47.56" id="Fill-31" fill="#2C3039"></path>
                <path d="M348.6555,47.56 L348.6555,82.06 C348.6555,83.56 349.8555,84.76 351.3555,84.76 C352.8555,84.76 354.0555,83.56 354.0555,82.06 L354.0555,47.56 C354.0555,46.06 352.8555,44.86 351.3555,44.86 C349.8555,44.86 348.6555,46.06 348.6555,47.56 Z" id="Stroke-33" stroke="#A1B3CE" stroke-width="3.12" stroke-linecap="round" stroke-linejoin="round"></path>
                <polyline id="Stroke-35" stroke="#A1B3CE" stroke-width="3.12" stroke-linecap="round" stroke-linejoin="round" points="312.7556 74.56 322.4556 74.56 348.6556 74.46 348.6556 54.86 312.7556 54.86"></polyline>
                <path d="M242.4556,47.56 L242.4556,82.06 C242.4556,83.56 241.2556,84.76 239.7556,84.76 C238.2556,84.76 237.0556,83.56 237.0556,82.06 L237.0556,47.56 C237.0556,46.06 238.2556,44.86 239.7556,44.86 C241.1556,44.86 242.4556,46.06 242.4556,47.56" id="Fill-37" fill="#2C3039"></path>
                <path d="M242.4556,47.56 L242.4556,82.06 C242.4556,83.56 241.2556,84.76 239.7556,84.76 C238.2556,84.76 237.0556,83.56 237.0556,82.06 L237.0556,47.56 C237.0556,46.06 238.2556,44.86 239.7556,44.86 C241.1556,44.86 242.4556,46.06 242.4556,47.56 Z" id="Stroke-39" stroke="#A1B3CE" stroke-width="3.12" stroke-linecap="round" stroke-linejoin="round"></path>
                <polyline id="Stroke-41" stroke="#A1B3CE" stroke-width="3.12" stroke-linecap="round" stroke-linejoin="round" points="278.3555 74.56 268.6555 74.56 242.4555 74.46 242.4555 54.86 278.3555 54.86"></polyline>
                <path d="M333.2556,82.36 L313.4556,40.66 C306.4556,27.46 291.9556,20.16 277.2556,22.46 C262.8556,24.66 252.3556,37.26 252.6556,51.76 L252.6556,53.96 C252.9556,68.76 262.4556,79.16 275.9556,85.16 L313.2556,102.66 C325.9556,108.66 339.2556,95.46 333.2556,82.66 L333.2556,82.36 Z" id="Fill-43" fill="#2C3039"></path>
                <path d="M333.2556,82.36 L313.4556,40.66 C306.4556,27.46 291.9556,20.16 277.2556,22.46 C262.8556,24.66 252.3556,37.26 252.6556,51.76 L252.6556,53.96 C252.9556,68.76 262.4556,79.16 275.9556,85.16 L313.2556,102.66 C325.9556,108.66 339.2556,95.46 333.2556,82.66 L333.2556,82.36 Z" id="Stroke-45" stroke="#A1B3CE" stroke-width="3.12" stroke-linecap="round" stroke-linejoin="round"></path>
                <path d="M281.3555,53.46 C281.3555,54.86 282.5555,55.96 283.8555,55.96 C285.3555,55.96 286.4555,54.86 286.4555,53.56 C286.4555,51.96 285.4555,50.86 283.9555,50.86 C282.3555,50.96 281.3555,51.96 281.3555,53.46 M274.7555,50.66 C277.1555,50.36 278.9555,47.86 278.4555,45.46 C278.0555,43.76 277.4555,42.06 276.9555,40.26 C276.8555,39.96 276.6555,39.66 276.3555,39.36 C275.1555,38.36 273.8555,37.86 272.3555,38.16 C272.0555,38.26 271.5555,38.46 271.3555,38.66 C269.2555,40.46 267.6555,42.66 266.4555,45.16 C265.3555,47.56 267.2555,50.56 269.8555,50.56 C270.4555,50.56 271.1555,50.56 271.7555,50.66 C272.5555,50.76 273.5555,50.76 274.7555,50.66 M269.9555,56.26 C267.9555,56.26 266.5555,57.36 265.9555,59.26 C265.6555,60.06 265.7555,60.76 266.1555,61.46 C267.2555,63.76 268.7555,65.86 270.5555,67.66 C271.6555,68.76 272.8555,69.06 274.2555,68.56 C275.7555,68.16 276.7555,67.26 277.0555,65.76 C277.3555,64.26 277.9555,62.96 278.2555,61.56 C278.8555,59.16 277.1555,56.66 274.6555,56.36 C273.6555,56.16 272.4555,56.16 271.4555,56.16 C271.4555,56.06 271.4555,56.06 271.4555,56.16 C270.9555,56.26 270.4555,56.26 269.9555,56.26 M302.8555,49.56 C302.5555,47.96 301.0555,46.76 299.3555,46.66 C298.3555,46.66 297.3555,46.86 296.5555,47.56 C295.3555,48.56 293.9555,49.46 292.8555,50.46 C291.0555,52.06 291.0555,55.06 292.8555,56.66 C294.2555,57.96 295.7555,59.06 297.4555,60.06 C297.9555,60.36 298.8555,60.36 299.5555,60.36 C301.2555,60.26 302.6555,59.06 302.9555,57.36 C303.2555,56.06 303.2555,54.86 303.4555,53.56 C303.1555,52.16 303.0555,50.86 302.8555,49.56 M293.5555,36.46 C291.2555,35.16 288.8555,34.36 286.1555,34.06 C285.0555,33.96 284.1555,34.26 283.3555,34.96 C282.4555,35.76 281.8555,36.76 281.8555,37.96 C281.7555,38.46 282.0555,38.96 282.1555,39.46 C282.5555,40.86 283.0555,42.26 283.5555,43.46 C284.4555,45.96 287.6555,47.26 290.3555,45.46 C291.6555,44.56 292.8555,43.66 294.1555,42.66 C295.0555,41.96 295.1555,40.96 295.2555,39.86 C295.1555,38.46 294.8555,37.26 293.5555,36.46 M293.6555,63.66 C292.6555,62.96 291.5555,62.16 290.5555,61.46 C288.9555,60.36 287.2555,60.16 285.4555,61.16 C284.2555,61.86 283.6555,62.86 283.2555,64.06 C282.7555,65.46 282.2555,66.86 281.8555,68.26 C281.5555,69.46 282.1555,70.46 282.7555,71.36 C283.8555,72.86 285.2555,72.96 286.8555,72.66 C289.2555,72.26 291.5555,71.46 293.7555,70.16 C294.6555,69.66 295.2555,68.56 295.2555,66.66 C295.2555,65.76 294.8555,64.66 293.6555,63.66 M308.5555,59.46 C307.0555,59.26 305.7555,61.36 306.3555,62.76 C306.5555,63.26 307.0555,63.66 307.4555,64.06 C308.0555,64.66 308.5555,65.26 308.3555,66.16 C307.8555,67.66 306.8555,68.66 305.0555,67.76 C304.6555,67.56 303.9555,67.46 303.5555,67.56 C302.0555,68.06 300.8555,69.76 302.1555,71.56 C303.0555,72.66 302.8555,73.66 301.7555,74.46 C300.7555,75.26 300.0555,75.26 298.9555,74.26 C298.6555,74.06 298.4555,73.76 298.0555,73.66 C297.6555,73.46 297.1555,73.36 296.7555,73.36 C295.5555,73.66 294.1555,74.66 294.6555,76.46 C294.6555,76.66 294.6555,76.86 294.7555,77.06 C294.9555,77.76 294.7555,78.36 294.1555,78.66 C292.6555,79.66 291.4555,79.76 290.6555,77.96 C290.5555,77.86 290.5555,77.66 290.4555,77.66 C289.9555,76.76 289.0555,76.36 288.0555,76.56 C287.0555,76.76 286.2555,77.46 286.0555,78.46 C285.9555,78.76 285.9555,79.06 285.8555,79.36 C285.6555,79.76 285.5555,80.36 285.1555,80.66 C284.3555,81.16 283.5555,81.16 282.6555,80.86 C281.8555,80.56 281.7555,79.76 281.6555,78.96 C281.5555,78.56 281.3555,78.06 281.1555,77.66 C280.1555,76.36 277.7555,76.16 277.0555,78.06 C276.1555,79.96 274.7555,79.76 273.4555,78.96 C273.0555,78.66 272.8555,78.06 272.8555,77.56 C272.8555,77.26 272.9555,76.76 273.0555,76.46 C273.3555,75.26 272.9555,74.46 271.8555,73.86 C270.8555,73.26 269.9555,73.36 269.0555,74.16 C268.7555,74.46 268.4555,74.66 268.1555,74.96 C267.6555,75.26 267.1555,75.26 266.6555,75.06 C265.0555,74.16 264.5555,73.06 265.7555,71.56 C265.7555,71.46 265.8555,71.36 265.9555,71.26 C266.2555,70.66 266.3555,70.16 266.0555,69.46 C265.3555,67.86 264.1555,67.46 262.5555,68.06 C262.0555,68.26 261.1555,68.36 260.7555,68.06 C259.5555,67.16 258.5555,65.56 260.5555,64.26 L260.6555,64.16 C262.1555,63.16 261.6555,61.36 260.9555,60.46 C260.2555,59.56 259.3555,59.66 258.3555,59.66 C257.4555,59.66 256.8555,59.36 256.6555,58.36 C256.2555,56.86 256.5555,56.06 258.1555,55.56 C258.3555,55.46 258.4555,55.46 258.6555,55.36 C259.5555,55.06 260.1555,54.06 260.1555,53.16 C260.1555,52.16 259.6555,51.36 258.6555,50.96 C258.3555,50.76 257.8555,50.76 257.6555,50.56 C257.3555,50.26 256.7555,49.76 256.7555,49.36 C256.5555,47.96 257.0555,46.36 258.9555,46.56 C259.2555,46.56 259.4555,46.66 259.7555,46.56 C260.0555,46.46 260.4555,46.36 260.6555,46.26 C262.1555,45.26 262.1555,43.36 260.7555,42.26 C260.4555,42.06 260.3555,41.86 260.0555,41.66 C259.6555,41.26 259.4555,40.66 259.6555,40.06 C260.1555,38.56 261.1555,37.46 262.9555,38.46 C264.4555,39.36 265.7555,38.16 266.3555,36.96 C266.6555,36.06 266.3555,35.46 265.9555,34.76 C265.4555,34.06 265.2555,33.36 265.6555,32.66 C266.4555,31.06 267.9555,30.76 269.3555,31.96 C269.8555,32.36 270.4555,32.86 271.0555,32.86 C272.5555,32.96 273.7555,31.36 273.4555,29.96 C273.3555,29.66 273.2555,29.36 273.2555,29.06 C273.2555,28.66 273.2555,28.16 273.5555,27.86 C274.5555,26.36 276.4555,26.56 277.3555,28.16 C277.4555,28.26 277.5555,28.46 277.6555,28.56 C278.0555,29.16 278.5555,29.66 279.4555,29.66 C281.2555,29.56 281.8555,28.76 282.1555,27.16 C282.4555,25.66 283.0555,25.26 284.6555,25.36 C285.7555,25.36 286.3555,26.06 286.4555,27.36 C286.4555,28.56 287.1555,29.36 288.4555,29.56 C289.4555,29.76 290.3555,29.36 290.9555,28.36 C291.1555,28.06 291.2555,27.76 291.4555,27.46 C291.9555,26.76 292.6555,26.56 293.6555,26.96 C294.6555,27.36 295.1555,27.86 295.1555,28.76 C295.0555,29.16 295.0555,29.66 294.9555,30.26 C294.8555,31.06 295.1555,31.76 295.7555,32.16 C296.5555,32.76 297.2555,33.16 298.2555,32.76 C298.5555,32.56 298.9555,32.26 299.2555,31.96 C299.7555,31.56 300.2555,31.06 301.0555,31.26 C302.5555,31.76 303.7555,33.16 302.4555,34.86 C302.3555,34.96 302.3555,35.06 302.2555,35.16 C301.8555,36.06 301.8555,36.76 302.4555,37.56 C303.1555,38.46 303.8555,39.06 304.9555,38.66 C305.3555,38.46 305.8555,38.36 306.2555,38.26 C307.0555,38.06 307.6555,38.26 308.1555,38.96 C308.9555,39.96 309.2555,41.16 307.7555,42.36 C307.4555,42.66 306.8555,43.16 306.8555,43.56 C306.4555,45.26 307.5555,46.96 309.2555,46.86 C309.5555,46.86 309.9555,46.76 310.2555,46.86 C310.6555,47.06 311.1555,47.16 311.4555,47.56 C312.3555,48.86 311.9555,50.36 310.4555,50.96 C310.2555,51.06 310.1555,51.16 309.9555,51.26 C309.0555,51.56 308.4555,52.46 308.4555,53.46 C308.4555,54.56 309.0555,55.36 310.0555,55.66 C310.3555,55.86 310.6555,55.96 310.9555,56.06 C311.7555,56.46 312.1555,57.06 311.9555,57.96 C311.6555,59.66 311.2555,60.16 309.6555,60.16 L309.4555,60.16 C309.3555,60.16 308.6555,59.96 308.5555,59.46" id="Fill-47" fill="#3ABDE5"></path>
                <path d="M316.4555,86.46 C316.4555,87.16 317.0555,87.66 317.6555,87.66 C318.3555,87.66 318.8555,87.06 318.8555,86.46 C318.8555,85.66 318.3555,85.16 317.6555,85.16 C316.8555,85.16 316.4555,85.76 316.4555,86.46 M313.1555,85.16 C314.3555,84.96 315.2555,83.76 314.9555,82.66 C314.6555,81.76 314.4555,81.06 314.1555,80.16 C314.1555,79.96 313.9555,79.86 313.8555,79.76 C313.2555,79.26 312.6555,78.96 311.8555,79.16 C311.6555,79.26 311.5555,79.36 311.3555,79.46 C310.3555,80.36 309.5555,81.46 308.9555,82.66 C308.4555,83.76 309.2555,85.26 310.5555,85.26 L311.4555,85.26 C312.1555,85.06 312.6555,85.06 313.1555,85.16 M310.9555,87.76 C310.0555,87.76 309.2555,88.26 308.9555,89.26 C308.8555,89.66 308.8555,90.06 309.0555,90.36 C309.5555,91.46 310.3555,92.56 311.2555,93.36 C311.7555,93.86 312.3555,93.96 313.0555,93.76 C313.7555,93.46 314.2555,93.16 314.4555,92.36 C314.6555,91.66 314.8555,90.96 315.0555,90.26 C315.3555,89.06 314.4555,87.86 313.2555,87.66 C312.7555,87.56 312.2555,87.56 311.7555,87.56 C311.3555,87.66 311.0555,87.66 310.9555,87.76 M326.8555,84.56 C326.6555,83.66 325.9555,83.16 325.1555,83.06 C324.7555,83.06 324.2555,83.16 323.8555,83.46 C323.2555,83.86 322.5555,84.36 322.0555,84.86 C321.1555,85.66 321.1555,87.06 322.0555,87.86 C322.7555,88.56 323.5555,89.06 324.2555,89.56 C324.4555,89.66 324.8555,89.66 325.1555,89.66 C326.0555,89.56 326.6555,89.06 326.7555,88.16 C326.8555,87.56 326.9555,86.96 327.0555,86.36 C327.0555,85.86 327.0555,85.16 326.8555,84.56 M322.2555,78.16 C321.1555,77.66 319.9555,77.26 318.6555,77.06 C318.0555,77.06 317.6555,77.16 317.2555,77.46 C316.7555,77.76 316.5555,78.36 316.4555,78.96 C316.4555,79.16 316.5555,79.36 316.6555,79.66 C316.9555,80.36 317.0555,80.96 317.3555,81.66 C317.7555,82.86 319.4555,83.46 320.7555,82.56 C321.4555,82.16 322.0555,81.66 322.6555,81.16 C323.1555,80.86 323.2555,80.26 323.2555,79.76 C323.1555,79.06 322.9555,78.46 322.2555,78.16 M322.5555,91.46 C322.0555,91.16 321.5555,90.66 321.0555,90.36 C320.1555,89.86 319.4555,89.76 318.5555,90.16 C318.0555,90.46 317.6555,90.96 317.5555,91.56 C317.2555,92.26 317.0555,92.96 316.8555,93.66 C316.6555,94.16 316.9555,94.66 317.2555,95.16 C317.7555,95.86 318.4555,95.96 319.2555,95.76 C320.4555,95.56 321.5555,95.16 322.6555,94.56 C323.0555,94.26 323.3555,93.76 323.3555,92.86 C323.1555,92.36 322.9555,91.86 322.5555,91.46 M329.6555,89.46 C328.8555,89.26 328.2555,90.36 328.5555,90.96 C328.7555,91.26 328.9555,91.36 329.1555,91.56 C329.4555,91.86 329.6555,92.06 329.5555,92.46 C329.3555,93.16 328.8555,93.66 328.0555,93.26 C327.7555,93.16 327.5555,93.06 327.2555,93.16 C326.4555,93.46 325.8555,94.16 326.5555,95.06 C326.9555,95.66 326.8555,96.06 326.2555,96.56 C325.7555,96.86 325.3555,96.86 324.8555,96.46 C324.6555,96.26 324.5555,96.16 324.4555,96.16 C324.3555,96.16 324.0555,95.96 323.8555,95.96 C323.2555,96.16 322.5555,96.66 322.8555,97.46 C322.9555,97.66 322.9555,97.76 322.9555,97.76 C323.0555,98.06 322.9555,98.36 322.6555,98.56 C321.9555,99.06 321.3555,99.06 320.9555,98.26 C320.9555,98.16 320.8555,98.16 320.8555,98.06 C320.5555,97.66 320.2555,97.46 319.7555,97.56 C319.2555,97.66 318.8555,97.96 318.8555,98.46 C318.8555,98.66 318.8555,98.76 318.7555,98.86 C318.6555,99.06 318.5555,99.36 318.4555,99.46 C318.1555,99.76 317.6555,99.76 317.2555,99.56 C316.9555,99.36 316.8555,98.96 316.7555,98.66 C316.6555,98.46 316.6555,98.26 316.4555,98.06 C316.0555,97.36 314.9555,97.26 314.4555,98.26 C314.0555,99.16 313.2555,99.16 312.6555,98.66 C312.3555,98.46 312.3555,98.26 312.3555,97.96 C312.3555,97.66 312.4555,97.56 312.4555,97.36 C312.5555,96.86 312.3555,96.46 311.8555,96.16 C311.3555,95.86 310.9555,95.96 310.4555,96.36 C310.2555,96.46 310.1555,96.66 310.0555,96.66 C309.7555,96.96 309.5555,96.96 309.2555,96.76 C308.3555,96.26 308.2555,95.86 308.7555,95.06 C308.7555,95.06 308.8555,95.06 308.8555,94.96 C309.0555,94.66 309.1555,94.46 308.9555,94.06 C308.6555,93.26 308.0555,93.06 307.2555,93.36 C306.9555,93.46 306.5555,93.56 306.3555,93.36 C305.7555,92.96 305.3555,92.06 306.2555,91.46 L306.3555,91.46 C307.1555,90.96 306.9555,90.06 306.5555,89.66 C306.2555,89.36 305.6555,89.36 305.2555,89.36 C304.7555,89.36 304.5555,89.16 304.3555,88.76 C304.0555,87.96 304.2555,87.66 305.0555,87.36 C305.1555,87.36 305.2555,87.26 305.3555,87.26 C305.7555,87.06 306.0555,86.66 306.0555,86.16 C306.0555,85.66 305.7555,85.26 305.2555,85.16 C305.0555,85.16 304.8555,85.06 304.7555,84.96 C304.5555,84.76 304.3555,84.56 304.3555,84.36 C304.2555,83.66 304.5555,82.86 305.4555,82.96 L305.7555,82.96 C305.9555,82.86 306.0555,82.86 306.2555,82.76 C307.0555,82.26 307.0555,81.26 306.3555,80.76 C306.2555,80.66 306.0555,80.56 306.0555,80.46 C305.8555,80.26 305.7555,79.96 305.8555,79.66 C306.0555,78.86 306.5555,78.46 307.3555,78.86 C308.1555,79.16 308.7555,78.66 308.9555,78.06 C309.0555,77.66 308.9555,77.36 308.6555,77.06 C308.3555,76.76 308.3555,76.46 308.4555,76.16 C308.8555,75.36 309.5555,75.26 310.2555,75.86 C310.5555,76.16 310.8555,76.26 311.1555,76.26 C311.9555,76.26 312.5555,75.46 312.3555,74.76 C312.2555,74.56 312.2555,74.46 312.2555,74.36 C312.3555,74.16 312.3555,73.96 312.4555,73.76 C313.0555,73.06 313.9555,73.16 314.3555,73.96 C314.3555,74.06 314.3555,74.16 314.4555,74.26 C314.6555,74.56 314.8555,74.76 315.3555,74.76 C316.2555,74.76 316.5555,74.36 316.6555,73.56 C316.7555,72.86 317.0555,72.66 317.8555,72.66 C318.3555,72.66 318.7555,72.96 318.7555,73.56 C318.7555,74.16 319.0555,74.46 319.6555,74.66 C320.1555,74.76 320.5555,74.56 320.8555,74.06 C320.9555,73.86 321.0555,73.76 321.1555,73.66 C321.4555,73.36 321.7555,73.26 322.2555,73.36 C322.7555,73.56 322.9555,73.76 322.9555,74.26 C322.9555,74.46 322.8555,74.66 322.8555,74.96 C322.7555,75.36 322.8555,75.66 323.1555,75.86 C323.4555,76.16 323.9555,76.36 324.3555,76.16 C324.5555,76.06 324.6555,75.96 324.8555,75.86 C325.1555,75.56 325.3555,75.46 325.7555,75.56 C326.4555,75.76 327.0555,76.46 326.4555,77.26 C326.4555,77.36 326.3555,77.36 326.3555,77.46 C326.0555,77.76 326.1555,78.26 326.4555,78.56 C326.7555,78.96 327.1555,79.26 327.6555,79.06 C327.8555,79.06 328.0555,78.96 328.2555,78.86 C328.6555,78.76 328.9555,78.86 329.1555,79.16 C329.5555,79.66 329.7555,80.26 328.9555,80.76 C328.6555,80.96 328.5555,81.06 328.4555,81.36 C328.2555,82.16 328.7555,82.86 329.6555,82.86 C329.8555,82.86 329.9555,82.76 330.1555,82.86 C330.4555,82.96 330.6555,83.06 330.7555,83.16 C331.1555,83.86 331.0555,84.66 330.2555,84.86 C330.1555,84.86 330.0555,84.96 329.9555,84.96 C329.5555,85.16 329.2555,85.56 329.2555,86.06 C329.2555,86.56 329.5555,86.96 330.0555,87.06 C330.1555,87.06 330.3555,87.16 330.4555,87.26 C330.8555,87.56 331.0555,87.76 330.9555,88.16 C330.7555,89.06 330.6555,89.16 329.7555,89.16 C329.8555,89.16 329.8555,89.16 329.7555,89.16 C329.8555,89.56 329.7555,89.56 329.6555,89.46" id="Fill-49" fill="#3ABDE5"></path>
                <path d="M325.6555,66.36 L322.8555,67.56" id="Stroke-51" stroke="#A8BAD1" stroke-width="3.118" stroke-linecap="round" stroke-linejoin="round"></path>
                <path d="M328.0555,71.66 L325.2555,72.86" id="Stroke-53" stroke="#A8BAD1" stroke-width="3.118" stroke-linecap="round" stroke-linejoin="round"></path>
                <path d="M323.0555,60.86 L320.2555,62.06" id="Stroke-55" stroke="#A8BAD1" stroke-width="3.118" stroke-linecap="round" stroke-linejoin="round"></path>
                <path d="M320.2556,55.56 L317.5556,56.76" id="Stroke-57" stroke="#A8BAD1" stroke-width="3.118" stroke-linecap="round" stroke-linejoin="round"></path>
                <path d="M317.2556,49.36 L314.5556,50.56" id="Stroke-59" stroke="#A8BAD1" stroke-width="3.118" stroke-linecap="round" stroke-linejoin="round"></path>
                <path d="M296.9555,91.26 L295.5555,93.86" id="Stroke-61" stroke="#A8BAD1" stroke-width="3.118" stroke-linecap="round" stroke-linejoin="round"></path>
                <path d="M291.0555,88.56 L289.5555,91.16" id="Stroke-63" stroke="#A8BAD1" stroke-width="3.118" stroke-linecap="round" stroke-linejoin="round"></path>
                <path d="M284.9555,85.86 L283.5555,88.56" id="Stroke-65" stroke="#A8BAD1" stroke-width="3.118" stroke-linecap="round" stroke-linejoin="round"></path>
                <path d="M279.0555,83.36 L277.5555,85.86" id="Stroke-67" stroke="#A8BAD1" stroke-width="3.118" stroke-linecap="round" stroke-linejoin="round"></path>
                <path d="M302.9555,94.36 L301.5555,96.96" id="Stroke-69" stroke="#A8BAD1" stroke-width="3.118" stroke-linecap="round" stroke-linejoin="round"></path>
                <path d="M313.6555,41.66 L311.0555,42.86" id="Stroke-71" stroke="#A8BAD1" stroke-width="3.118" stroke-linecap="round" stroke-linejoin="round"></path>
                <path d="M474.3555,153.16 L491.0555,153.16 L488.8555,135.76 C488.8555,135.76 477.4555,116.56 473.5555,134.96 C469.6555,153.36 474.3555,153.16 474.3555,153.16" id="Fill-73" fill="#2C3039"></path>
                <path d="M472.1555,152.66 L496.9555,152.66" id="Stroke-75" stroke="#A1B3CE" stroke-width="3.12"></path>
                <path d="M458.5555,88.46 L424.0555,88.46 C422.5555,88.46 421.3555,87.26 421.3555,85.76 C421.3555,84.26 422.5555,83.06 424.0555,83.06 L458.5555,83.06 C460.0555,83.06 461.2555,84.26 461.2555,85.76 C461.2555,87.26 460.0555,88.46 458.5555,88.46 Z" id="Stroke-77" stroke="#A1B3CE" stroke-width="3.12" stroke-linecap="round" stroke-linejoin="round"></path>
                <path d="M424.8555,88.46 C402.8555,88.46 395.4555,105.46 395.4555,105.46 L487.1555,105.46 C487.1555,105.46 479.6555,88.46 457.7555,88.46" id="Stroke-79" stroke="#A1B3CE" stroke-width="3.12" stroke-linecap="round" stroke-linejoin="round"></path>
                <path d="M430.3555,81.66 L430.3555,75.26 L420.6555,75.26 L410.5555,75.26 L410.5555,55.66 C421.1555,55.66 423.5555,55.76 428.5555,55.76 C452.6555,55.96 451.0555,74.06 451.0555,74.06 L451.0555,81.76" id="Stroke-81" stroke="#A1B3CE" stroke-width="3.12" stroke-linecap="round" stroke-linejoin="round"></path>
                <path d="M437.9555,61.06 C437.9555,61.06 442.8555,61.36 444.9555,66.86" id="Stroke-83" stroke="#A1B3CE" stroke-width="1.04" stroke-linecap="round" stroke-linejoin="round"></path>
                <mask id="mask-2" fill="white">
                    <use xlink:href="#path-1"></use>
                </mask>
                <g id="Clip-86"></g>
                <polygon id="Stroke-85" stroke="#3ABDE5" stroke-width="1.04" stroke-linecap="round" stroke-linejoin="round" mask="url(#mask-2)" points="403.056 191.36 429.756 191.36 429.756 148.56 403.056 148.56"></polygon>
                <polygon id="Stroke-87" stroke="#3ABDE5" stroke-width="1.04" stroke-linecap="round" stroke-linejoin="round" mask="url(#mask-2)" points="437.156 191.36 463.856 191.36 463.856 148.56 437.156 148.56"></polygon>
                <path d="M436.5555,127.06 C428.8555,127.06 429.7555,140.16 429.7555,140.16 L403.0555,140.16 C403.0555,140.16 402.0555,127.06 410.4555,127.06" id="Stroke-88" stroke="#3ABDE5" stroke-width="1.04" stroke-linecap="round" stroke-linejoin="round" mask="url(#mask-2)"></path>
                <path d="M471.0555,127.06 C463.3555,127.06 464.2555,140.16 464.2555,140.16 L437.5555,140.16 C437.5555,140.16 436.5555,127.06 444.9555,127.06" id="Stroke-89" stroke="#3ABDE5" stroke-width="1.04" stroke-linecap="round" stroke-linejoin="round" mask="url(#mask-2)"></path>
                <path d="M15.5556,18.06 C15.5556,18.06 -0.0444,25.56 1.0556,42.16 C2.1556,58.76 12.2556,63.96 15.5556,65.16 C18.8556,66.36 30.9556,68.26 35.5556,58.76 C40.1556,49.26 42.2556,39.96 56.7556,42.16 C71.2556,44.36 88.4556,39.26 96.8556,40.16 C105.2556,41.06 132.6556,52.96 149.7556,51.36 C166.9556,49.76 191.8556,42.96 206.0556,41.16 C220.8556,39.26 233.4556,36.06 239.7556,44.86 C246.0556,53.66 261.2556,53.16 265.8556,44.86 C268.9556,39.16 267.8556,30.76 276.9556,29.96 C285.9556,29.16 302.6556,40.96 312.4556,40.06 C322.2556,39.26 317.3556,27.16 317.3556,27.16 C317.3556,27.16 308.6556,2.56 281.3556,4.76 C254.1556,6.96 243.8556,13.46 229.6556,9.46 C219.8556,6.66 182.5556,-0.44 155.4556,1.26 C129.7556,2.86 73.8556,6.36 73.8556,6.36 C73.8556,6.36 36.7556,7.56 15.5556,18.06" id="Fill-90" fill="#2C3039" mask="url(#mask-2)"></path>
                <path d="M15.5556,18.06 C15.5556,18.06 -0.0444,25.56 1.0556,42.16 C2.1556,58.76 12.2556,63.96 15.5556,65.16 C18.8556,66.36 30.9556,68.26 35.5556,58.76 C40.1556,49.26 42.2556,39.96 56.7556,42.16 C71.2556,44.36 88.4556,39.26 96.8556,40.16 C105.2556,41.06 132.6556,52.96 149.7556,51.36 C166.9556,49.76 191.8556,42.96 206.0556,41.16 C220.8556,39.26 233.4556,36.06 239.7556,44.86 C246.0556,53.66 261.2556,53.16 265.8556,44.86 C268.9556,39.16 267.8556,30.76 276.9556,29.96 C285.9556,29.16 302.6556,40.96 312.4556,40.06 C322.2556,39.26 317.3556,27.16 317.3556,27.16 C317.3556,27.16 308.6556,2.56 281.3556,4.76 C254.1556,6.96 243.8556,13.46 229.6556,9.46 C219.8556,6.66 182.5556,-0.44 155.4556,1.26 C129.7556,2.86 73.8556,6.36 73.8556,6.36 C73.8556,6.36 36.7556,7.56 15.5556,18.06 Z" id="Stroke-91" stroke="#3ABDE5" stroke-width="2" stroke-linecap="round" stroke-linejoin="round" mask="url(#mask-2)"></path>
                <path d="M39.2556,172.16 L118.5556,172.16 C118.5556,172.16 120.6556,173.66 118.9556,174.86 C117.2556,176.06 113.0556,175.46 113.0556,175.46 L105.2556,176.86 L103.5556,176.96 L101.2556,195.06 L97.4556,176.86 C97.4556,176.86 94.8556,177.46 94.0556,177.56 C93.3556,177.66 92.2556,176.46 92.2556,176.46 L88.8556,188.26 L85.2556,176.36 L80.4556,177.06 L76.0556,208.76 L70.7556,176.96 C70.7556,176.96 65.4556,174.06 63.3556,175.56 C61.2556,177.06 59.9556,178.96 58.4556,178.36 C57.0556,177.76 55.7556,176.46 55.7556,176.46 L52.9556,189.66 L50.1556,176.46 C50.1556,176.46 40.2556,177.46 39.2556,175.56 C38.2556,173.66 39.2556,172.16 39.2556,172.16" id="Fill-92" fill="#2C3039" mask="url(#mask-2)"></path>
                <path d="M39.2556,172.16 L118.5556,172.16 C118.5556,172.16 120.6556,173.66 118.9556,174.86 C117.2556,176.06 113.0556,175.46 113.0556,175.46 L105.2556,176.86 L103.5556,176.96 L101.2556,195.06 L97.4556,176.86 C97.4556,176.86 94.8556,177.46 94.0556,177.56 C93.3556,177.66 92.2556,176.46 92.2556,176.46 L88.8556,188.26 L85.2556,176.36 L80.4556,177.06 L76.0556,208.76 L70.7556,176.96 C70.7556,176.96 65.4556,174.06 63.3556,175.56 C61.2556,177.06 59.9556,178.96 58.4556,178.36 C57.0556,177.76 55.7556,176.46 55.7556,176.46 L52.9556,189.66 L50.1556,176.46 C50.1556,176.46 40.2556,177.46 39.2556,175.56 C38.2556,173.66 39.2556,172.16 39.2556,172.16 Z" id="Stroke-93" stroke="#3ABDE5" stroke-width="2" stroke-linecap="round" stroke-linejoin="round" mask="url(#mask-2)"></path>
                <path d="M332.1555,99.76 C332.1555,99.76 326.3555,106.46 317.6555,105.46 C317.6555,105.46 316.0555,106.56 292.1555,94.36 L274.0555,85.96 C274.0555,85.96 262.7555,80.56 260.3555,76.26 L244.2555,76.26 L244.2555,80.56 C244.2555,80.56 244.1555,83.76 245.9555,83.46 C247.8555,83.16 249.3555,81.16 250.0555,81.16 C250.7555,81.16 252.9555,95.16 252.9555,95.16 L255.3555,79.66 C255.3555,79.66 256.0555,81.16 257.5555,81.46 C259.4555,81.76 261.2555,82.66 261.4555,83.26 C261.5555,83.86 265.8555,113.36 265.8555,113.36 L267.9555,89.26 C267.9555,89.26 270.9555,92.36 272.6555,92.76 C276.3555,93.86 277.6555,93.46 279.6555,93.76 C281.4555,93.96 281.8555,94.56 281.8555,94.56 L285.0555,105.66 L287.0555,97.26 C287.0555,97.26 288.9555,99.06 290.7555,99.66 C292.5555,100.26 294.1555,100.06 294.1555,100.06 C294.2555,100.56 296.0555,118.06 296.0555,118.06 L297.1555,100.66 C297.1555,100.66 298.3555,103.06 299.3555,103.76 C302.0555,105.46 304.9555,106.96 306.2555,107.36 C307.5555,107.76 308.4555,107.16 309.0555,107.56 C309.5555,107.96 309.3555,110.16 311.1555,110.96 C312.3555,111.56 312.8555,111.26 312.8555,111.26 L317.6555,143.36 L320.9555,111.26 C320.9555,111.26 322.3555,111.96 323.4555,111.86 C325.0555,111.66 325.3555,110.46 325.3555,110.46 L327.1555,120.36 L328.8555,108.66 C328.8555,108.66 330.0555,108.46 332.1555,107.66 C334.2555,106.86 337.4555,104.46 337.0555,101.46 C336.6555,98.46 333.5555,98.46 332.1555,99.76 Z" id="Stroke-94" stroke="#3ABDE5" stroke-width="2" stroke-linecap="round" stroke-linejoin="round" mask="url(#mask-2)"></path>
                <path d="M479.7556,127.06 C479.7556,127.06 472.2556,127.66 472.2556,140.76 L472.2556,206.26 L395.0556,206.26 L395.0556,143.86 C395.0556,143.86 392.7556,127.06 405.8556,127.06 C418.9556,127.06 479.7556,127.06 479.7556,127.06 C479.7556,127.06 488.6556,126.16 488.6556,140.36 C488.6556,140.36 488.4556,152.86 496.9556,152.66 C505.4556,152.46 504.4556,140.16 504.4556,140.16 L504.4556,134.96 L488.0556,134.96" id="Stroke-95" stroke="#A1B3CE" stroke-width="3.12" mask="url(#mask-2)"></path>
                <path d="M210.6556,172.16 L226.5556,172.16 C226.5556,172.16 236.8556,173.36 237.9556,165.36 C239.0556,157.36 244.1556,162.56 243.7556,165.36 C243.4556,166.96 243.0556,167.96 242.3556,170.86 C242.0556,172.26 238.2556,190.46 238.2556,190.46 L235.7556,174.76 C235.7556,174.76 233.7556,176.66 231.3556,176.96 C229.0556,177.26 229.2556,175.66 227.1556,175.86 L223.8556,185.86 L220.7556,175.86 C220.7556,175.86 218.0556,177.56 216.3556,177.56 C214.6556,177.56 212.1556,175.56 210.5556,175.86 C209.1556,176.16 206.4556,173.36 210.6556,172.16 Z" id="Stroke-96" stroke="#3ABDE5" stroke-width="2" stroke-linecap="round" stroke-linejoin="round" mask="url(#mask-2)"></path>
                <path d="M286.4555,8.96 C286.4555,8.96 297.1555,8.26 304.2555,16.76" id="Stroke-97" stroke="#3ABDE5" stroke-width="1.04" stroke-linecap="round" stroke-linejoin="round" mask="url(#mask-2)"></path>
                <path d="M24.0556,62.06 C24.0556,62.06 31.1556,61.86 34.2556,50.86" id="Stroke-98" stroke="#3ABDE5" stroke-width="1.04" stroke-linecap="round" stroke-linejoin="round" mask="url(#mask-2)"></path>
                <path d="M77.8556,178.56 L76.7556,187.16" id="Stroke-99" stroke="#3ABDE5" stroke-width="1.04" stroke-linecap="round" stroke-linejoin="round" mask="url(#mask-2)"></path>
                <path d="M318.3555,111.66 L317.9555,116.56" id="Stroke-100" stroke="#3ABDE5" stroke-width="1.04" stroke-linecap="round" stroke-linejoin="round" mask="url(#mask-2)"></path>
                <path d="M475.0555,170.16 C488.1995,170.16 498.8555,180.816 498.8555,193.96 C498.8555,207.104 488.1995,217.76 475.0555,217.76 C461.9115,217.76 451.2555,207.104 451.2555,193.96 C451.2555,180.816 461.9115,170.16 475.0555,170.16" id="Fill-101" fill="#3AC376" mask="url(#mask-2)"></path>
                <path d="M472.1555,195.36 L485.5555,184.76 C485.6555,184.66 485.8555,184.66 485.9555,184.66 C486.0555,184.66 486.2555,184.76 486.2555,184.86 L489.5555,188.96 C489.6555,189.06 489.6555,189.16 489.6555,189.36 C489.6555,189.46 489.5555,189.66 489.4555,189.76 L471.1555,204.36 C471.0555,204.46 470.9555,204.46 470.7555,204.46 C470.6555,204.46 470.4555,204.36 470.4555,204.26 L463.2555,195.26 C463.1555,195.16 463.1555,194.96 463.1555,194.86 C463.1555,194.76 463.2555,194.56 463.3555,194.56 L467.4555,191.26 C467.5555,191.16 467.6555,191.16 467.8555,191.16 C467.9555,191.16 468.1555,191.26 468.2555,191.36 L471.4555,195.36 C471.5555,195.46 471.6555,195.56 471.8555,195.56 C471.8555,195.46 472.0555,195.46 472.1555,195.36" id="Fill-102" fill="#FFFFFF" mask="url(#mask-2)"></path>
            </g>
        </g>
    </g>
</svg>