<?xml version="1.0" encoding="UTF-8"?>
<svg width="827px" height="357px" viewBox="0 0 827 357" version="1.1" xmlns="http://www.w3.org/2000/svg" xmlns:xlink="http://www.w3.org/1999/xlink">
    <!-- Generator: Sketch 46 (44423) - http://www.bohemiancoding.com/sketch -->
    <title>Page 1</title>
    <desc>Created with Sketch.</desc>
    <defs>
        <polygon id="path-1" points="0 357 826.344 357 826.344 0.628 0 0.628"></polygon>
    </defs>
    <g id="Main" stroke="none" stroke-width="1" fill="none" fill-rule="evenodd">
        <g id="Bison" transform="translate(-187.000000, -5576.000000)">
            <g id="Page-1" transform="translate(187.000000, 5575.000000)">
                <g id="Group-119" transform="translate(0.000000, 0.372000)">
                    <path d="M21.1042,142.3727 C10.0782,140.0427 1.8022,130.2587 1.8022,118.5387 C1.8022,105.0837 12.7102,94.1747 26.1662,94.1747 C31.3742,94.1747 36.1972,95.8147 40.1572,98.5987 C39.2352,94.6047 38.7322,90.4497 38.7322,86.1747 C38.7322,55.7777 63.3742,31.1357 93.7712,31.1357 C119.7642,31.1357 141.5332,49.1587 147.3012,73.3857 C152.9522,69.6647 159.7152,67.4917 166.9892,67.4917 C185.3672,67.4917 200.5062,81.3237 202.5872,99.1437 C206.6802,96.0277 211.7862,94.1747 217.3272,94.1747 C230.7832,94.1747 241.6912,105.0837 241.6912,118.5387 C241.6912,130.2587 233.4152,140.0427 222.3892,142.3727 C221.2652,142.6277 220.1062,142.7807 218.9222,142.8447 C218.6982,142.8597 218.4732,142.8707 218.2472,142.8797 C218.0942,142.8827 217.9452,142.9027 217.7912,142.9027 L25.7022,142.9027 C25.5482,142.9027 25.3992,142.8827 25.2462,142.8797 C25.0202,142.8707 24.7952,142.8597 24.5712,142.8447 C23.3872,142.7807 22.2282,142.6277 21.1042,142.3727 Z" id="Stroke-1" stroke="#A1B3CE" stroke-width="3.604" stroke-linecap="round" stroke-linejoin="round"></path>
                    <path d="M584.7147,178.8138 C584.7147,276.3168 505.2727,355.3588 407.2757,355.3588 C309.2787,355.3588 229.8367,276.3168 229.8367,178.8138 C229.8367,81.3108 309.2787,2.2688 407.2757,2.2688 C505.2727,2.2688 584.7147,81.3108 584.7147,178.8138 Z" id="Stroke-3" stroke="#A1B3CE" stroke-width="3.282" stroke-linecap="round" stroke-linejoin="round"></path>
                    <path d="M554.7163,179.2336 C554.7163,261.3456 488.9463,327.9106 407.8153,327.9106 C326.6843,327.9106 260.9143,261.3456 260.9143,179.2336 C260.9143,97.1216 326.6843,30.5566 407.8153,30.5566 C488.9463,30.5566 554.7163,97.1216 554.7163,179.2336 Z" id="Stroke-5" stroke="#A1B3CE" stroke-width="1.04" stroke-linecap="round" stroke-linejoin="round"></path>
                    <path d="M541.0427,177.8486 C541.0427,252.9076 478.7167,313.7546 401.8347,313.7546 C324.9517,313.7546 262.6267,252.9076 262.6267,177.8486 C262.6267,102.7896 324.9517,41.9426 401.8347,41.9426 C478.7167,41.9426 541.0427,102.7896 541.0427,177.8486" id="Fill-7" fill="#A1B3CE"></path>
                    <g id="Group-12" transform="translate(346.000000, 19.000000)">
                        <path d="M4.0301,0.6586 L33.8331,0.6586 L84.7321,15.3086 C126.2681,40.5646 155.0841,95.7706 155.0841,159.8206 C155.0841,227.2366 123.1641,284.8616 78.0841,308.0696 L36.5701,318.4396 L0.5431,318.9606" id="Fill-9" fill="#2B3039"></path>
                        <path d="M4.0301,0.6586 L33.8331,0.6586 L84.7321,15.3086 C126.2681,40.5646 155.0841,95.7706 155.0841,159.8206 C155.0841,227.2366 123.1641,284.8616 78.0841,308.0696 L36.5701,318.4396 L0.5431,318.9606" id="Stroke-11" stroke="#A1B3CE" stroke-width="3.12" stroke-linecap="round" stroke-linejoin="round"></path>
                    </g>
                    <mask id="mask-2" fill="white">
                        <use xlink:href="#path-1"></use>
                    </mask>
                    <g id="Clip-14"></g>
                    <polygon id="Fill-13" fill="#2B3039" mask="url(#mask-2)" points="194.862 76.074 259.626 76.074 259.626 36.613 194.862 36.613"></polygon>
                    <polygon id="Stroke-15" stroke="#A1B3CE" stroke-width="3.351" stroke-linecap="round" stroke-linejoin="round" mask="url(#mask-2)" points="194.862 76.074 259.626 76.074 259.626 36.613 194.862 36.613"></polygon>
                    <polygon id="Fill-16" fill="#2B3039" mask="url(#mask-2)" points="97.859 261.231 162.623 261.231 162.623 202.955 97.859 202.955"></polygon>
                    <polygon id="Stroke-17" stroke="#39BDE4" stroke-width="4.072" stroke-linecap="round" stroke-linejoin="round" mask="url(#mask-2)" points="97.859 261.231 162.623 261.231 162.623 202.955 97.859 202.955"></polygon>
                    <polygon id="Fill-18" fill="#2B3039" mask="url(#mask-2)" points="194.862 321.483 259.626 321.483 259.626 282.022 194.862 282.022"></polygon>
                    <polygon id="Stroke-19" stroke="#A1B3CE" stroke-width="3.351" stroke-linecap="round" stroke-linejoin="round" mask="url(#mask-2)" points="194.862 321.483 259.626 321.483 259.626 282.022 194.862 282.022"></polygon>
                    <path d="M408.7681,322.5168 L408.7681,322.5168 C449.5511,296.8798 477.7201,242.1918 477.7201,178.8628 C477.7201,114.8968 448.9791,59.7528 407.5321,34.4508" id="Stroke-20" stroke="#A1B3CE" stroke-width="1.04" stroke-linecap="round" stroke-linejoin="round" mask="url(#mask-2)"></path>
                    <path d="M471.2722,178.8423 C471.2722,266.7573 416.9902,338.0263 350.0302,338.0263 C283.0702,338.0263 228.7882,266.7573 228.7882,178.8423 C228.7882,90.9273 283.0702,19.6583 350.0302,19.6583 C416.9902,19.6583 471.2722,90.9273 471.2722,178.8423" id="Fill-21" fill="#2B3039" mask="url(#mask-2)"></path>
                    <path d="M471.2722,178.8423 C471.2722,266.7573 416.9902,338.0263 350.0302,338.0263 C283.0702,338.0263 228.7882,266.7573 228.7882,178.8423 C228.7882,90.9273 283.0702,19.6583 350.0302,19.6583 C416.9902,19.6583 471.2722,90.9273 471.2722,178.8423 Z" id="Stroke-22" stroke="#A1B3CE" stroke-width="3.12" stroke-linecap="round" stroke-linejoin="round" mask="url(#mask-2)"></path>
                    <path d="M443.5411,144.4091 C440.5321,144.8951 439.1501,143.5731 439.1501,141.9001 C439.1501,140.2271 440.6141,138.7471 445.0051,138.6511 C449.3951,138.5551 452.1981,138.2731 453.7861,139.6001 C456.4851,141.8561 456.0861,146.7091 456.0861,149.4271 L456.0861,209.1891 C456.0861,209.5301 456.0501,209.8641 455.9751,210.1971 C455.5671,212.0081 453.9211,217.6551 449.1861,218.0051 C443.5411,218.4241 442.4961,218.0051 442.4961,218.0051 C442.4961,218.0051 439.1271,217.7261 439.1501,214.8691 C439.1741,211.9961 442.4961,212.1511 444.3771,212.3601 C446.2591,212.5691 448.7681,211.7331 448.7681,206.5061 C448.7681,201.6211 448.5851,154.7431 448.5621,148.6211 C448.5601,148.1861 448.4401,143.6181 443.5411,144.4091" id="Fill-23" fill="#A1B3CE" mask="url(#mask-2)"></path>
                    <path d="M231.9461,77.3024 L223.5821,77.3024 C220.8901,77.3024 218.6871,75.0994 218.6871,72.4074 L218.6871,39.3464 C218.6871,36.6544 220.8901,34.4514 223.5821,34.4514 L231.9461,34.4514 C234.6381,34.4514 236.8411,36.6544 236.8411,39.3464 L236.8411,72.4074 C236.8411,75.0994 234.6381,77.3024 231.9461,77.3024" id="Fill-24" fill="#2B3039" mask="url(#mask-2)"></path>
                    <path d="M231.9461,77.3024 L223.5821,77.3024 C220.8901,77.3024 218.6871,75.0994 218.6871,72.4074 L218.6871,39.3464 C218.6871,36.6544 220.8901,34.4514 223.5821,34.4514 L231.9461,34.4514 C234.6381,34.4514 236.8411,36.6544 236.8411,39.3464 L236.8411,72.4074 C236.8411,75.0994 234.6381,77.3024 231.9461,77.3024 Z" id="Stroke-25" stroke="#A1B3CE" stroke-width="3.351" stroke-linecap="round" stroke-linejoin="round" mask="url(#mask-2)"></path>
                    <path d="M231.9461,120.1537 L223.5821,120.1537 C220.8901,120.1537 218.6871,117.9507 218.6871,115.2587 L218.6871,82.1977 C218.6871,79.5057 220.8901,77.3027 223.5821,77.3027 L231.9461,77.3027 C234.6381,77.3027 236.8411,79.5057 236.8411,82.1977 L236.8411,115.2587 C236.8411,117.9507 234.6381,120.1537 231.9461,120.1537" id="Fill-26" fill="#2B3039" mask="url(#mask-2)"></path>
                    <path d="M231.9461,120.1537 L223.5821,120.1537 C220.8901,120.1537 218.6871,117.9507 218.6871,115.2587 L218.6871,82.1977 C218.6871,79.5057 220.8901,77.3027 223.5821,77.3027 L231.9461,77.3027 C234.6381,77.3027 236.8411,79.5057 236.8411,82.1977 L236.8411,115.2587 C236.8411,117.9507 234.6381,120.1537 231.9461,120.1537 Z" id="Stroke-27" stroke="#A1B3CE" stroke-width="3.351" stroke-linecap="round" stroke-linejoin="round" mask="url(#mask-2)"></path>
                    <polygon id="Fill-28" fill="#2B3039" mask="url(#mask-2)" points="236.8414 79.3798 249.6544 79.3798 268.8744 49.4828 329.2034 42.5418 329.2034 77.2438 296.1024 79.3798 291.2974 85.7868 290.7634 268.3748 295.5684 275.3148 329.2034 277.9848 329.2034 313.7548 270.4764 308.4158 248.5864 277.9848 236.8414 277.9848 236.8414 236.9478 245.3834 236.8758 250.2054 232.0448 250.7904 124.2638 246.6974 117.6368 236.9684 117.8108"></polygon>
                    <polygon id="Stroke-29" stroke="#A1B3CE" stroke-width="3.12" stroke-linecap="round" stroke-linejoin="round" mask="url(#mask-2)" points="236.8414 79.3798 249.6544 79.3798 268.8744 49.4828 329.2034 42.5418 329.2034 77.2438 296.1024 79.3798 291.2974 85.7868 290.7634 268.3748 295.5684 275.3148 329.2034 277.9848 329.2034 313.7548 270.4764 308.4158 248.5864 277.9848 236.8414 277.9848 236.8414 236.9478 245.3834 236.8758 250.2054 232.0448 250.7904 124.2638 246.6974 117.6368 236.9684 117.8108"></polygon>
                    <path d="M230.3402,279.8204 L221.9762,279.8204 C219.2842,279.8204 217.0812,277.6174 217.0812,274.9254 L217.0812,238.8504 C217.0812,236.1584 219.2842,233.9554 221.9762,233.9554 L230.3402,233.9554 C233.0322,233.9554 235.2352,236.1584 235.2352,238.8504 L235.2352,274.9254 C235.2352,277.6174 233.0322,279.8204 230.3402,279.8204" id="Fill-30" fill="#2B3039" mask="url(#mask-2)"></path>
                    <path d="M230.3402,279.8204 L221.9762,279.8204 C219.2842,279.8204 217.0812,277.6174 217.0812,274.9254 L217.0812,238.8504 C217.0812,236.1584 219.2842,233.9554 221.9762,233.9554 L230.3402,233.9554 C233.0322,233.9554 235.2352,236.1584 235.2352,238.8504 L235.2352,274.9254 C235.2352,277.6174 233.0322,279.8204 230.3402,279.8204 Z" id="Stroke-31" stroke="#A1B3CE" stroke-width="3.467" stroke-linecap="round" stroke-linejoin="round" mask="url(#mask-2)"></path>
                    <path d="M230.3402,325.6854 L221.9762,325.6854 C219.2842,325.6854 217.0812,323.4824 217.0812,320.7904 L217.0812,284.7154 C217.0812,282.0234 219.2842,279.8204 221.9762,279.8204 L230.3402,279.8204 C233.0322,279.8204 235.2352,282.0234 235.2352,284.7154 L235.2352,320.7904 C235.2352,323.4824 233.0322,325.6854 230.3402,325.6854" id="Fill-32" fill="#2B3039" mask="url(#mask-2)"></path>
                    <path d="M230.3402,325.6854 L221.9762,325.6854 C219.2842,325.6854 217.0812,323.4824 217.0812,320.7904 L217.0812,284.7154 C217.0812,282.0234 219.2842,279.8204 221.9762,279.8204 L230.3402,279.8204 C233.0322,279.8204 235.2352,282.0234 235.2352,284.7154 L235.2352,320.7904 C235.2352,323.4824 233.0322,325.6854 230.3402,325.6854 Z" id="Stroke-33" stroke="#A1B3CE" stroke-width="3.467" stroke-linecap="round" stroke-linejoin="round" mask="url(#mask-2)"></path>
                    <polygon id="Stroke-34" stroke="#A1B3CE" stroke-width="3.351" stroke-linecap="round" stroke-linejoin="round" mask="url(#mask-2)" points="312.9494 83.0533 366.3684 79.7003 366.3684 115.8993 312.9494 118.0643"></polygon>
                    <polygon id="Stroke-35" stroke="#A1B3CE" stroke-width="3.351" stroke-linecap="round" stroke-linejoin="round" mask="url(#mask-2)" points="312.9494 237.8971 366.3684 240.7851 366.3684 277.3551 312.9494 272.5471"></polygon>
                    <path d="M342.4622,79.7 L334.0982,79.7 C331.4062,79.7 329.2032,77.497 329.2032,74.805 L329.2032,43.472 C329.2032,40.779 331.4062,38.577 334.0982,38.577 L342.4622,38.577 C345.1542,38.577 347.3572,40.779 347.3572,43.472 L347.3572,74.805 C347.3572,77.497 345.1542,79.7 342.4622,79.7" id="Fill-36" fill="#2B3039" mask="url(#mask-2)"></path>
                    <path d="M342.4622,79.7 L334.0982,79.7 C331.4062,79.7 329.2032,77.497 329.2032,74.805 L329.2032,43.472 C329.2032,40.779 331.4062,38.577 334.0982,38.577 L342.4622,38.577 C345.1542,38.577 347.3572,40.779 347.3572,43.472 L347.3572,74.805 C347.3572,77.497 345.1542,79.7 342.4622,79.7 Z" id="Stroke-37" stroke="#A1B3CE" stroke-width="3.283" stroke-linecap="round" stroke-linejoin="round" mask="url(#mask-2)"></path>
                    <path d="M342.4622,120.8234 L334.0982,120.8234 C331.4062,120.8234 329.2032,118.6204 329.2032,115.9284 L329.2032,84.5954 C329.2032,81.9024 331.4062,79.7004 334.0982,79.7004 L342.4622,79.7004 C345.1542,79.7004 347.3572,81.9024 347.3572,84.5954 L347.3572,115.9284 C347.3572,118.6204 345.1542,120.8234 342.4622,120.8234" id="Fill-38" fill="#2B3039" mask="url(#mask-2)"></path>
                    <path d="M342.4622,120.8234 L334.0982,120.8234 C331.4062,120.8234 329.2032,118.6204 329.2032,115.9284 L329.2032,84.5954 C329.2032,81.9024 331.4062,79.7004 334.0982,79.7004 L342.4622,79.7004 C345.1542,79.7004 347.3572,81.9024 347.3572,84.5954 L347.3572,115.9284 C347.3572,118.6204 345.1542,120.8234 342.4622,120.8234 Z" id="Stroke-39" stroke="#A1B3CE" stroke-width="3.283" stroke-linecap="round" stroke-linejoin="round" mask="url(#mask-2)"></path>
                    <path d="M342.4622,277.3546 L334.0982,277.3546 C331.4062,277.3546 329.2032,275.1516 329.2032,272.4596 L329.2032,241.1266 C329.2032,238.4336 331.4062,236.2316 334.0982,236.2316 L342.4622,236.2316 C345.1542,236.2316 347.3572,238.4336 347.3572,241.1266 L347.3572,272.4596 C347.3572,275.1516 345.1542,277.3546 342.4622,277.3546" id="Fill-40" fill="#2B3039" mask="url(#mask-2)"></path>
                    <path d="M342.4622,277.3546 L334.0982,277.3546 C331.4062,277.3546 329.2032,275.1516 329.2032,272.4596 L329.2032,241.1266 C329.2032,238.4336 331.4062,236.2316 334.0982,236.2316 L342.4622,236.2316 C345.1542,236.2316 347.3572,238.4336 347.3572,241.1266 L347.3572,272.4596 C347.3572,275.1516 345.1542,277.3546 342.4622,277.3546 Z" id="Stroke-41" stroke="#A1B3CE" stroke-width="3.283" stroke-linecap="round" stroke-linejoin="round" mask="url(#mask-2)"></path>
                    <path d="M342.4622,318.4781 L334.0982,318.4781 C331.4062,318.4781 329.2032,316.2751 329.2032,313.5831 L329.2032,282.2501 C329.2032,279.5571 331.4062,277.3551 334.0982,277.3551 L342.4622,277.3551 C345.1542,277.3551 347.3572,279.5571 347.3572,282.2501 L347.3572,313.5831 C347.3572,316.2751 345.1542,318.4781 342.4622,318.4781" id="Fill-42" fill="#2B3039" mask="url(#mask-2)"></path>
                    <path d="M342.4622,318.4781 L334.0982,318.4781 C331.4062,318.4781 329.2032,316.2751 329.2032,313.5831 L329.2032,282.2501 C329.2032,279.5571 331.4062,277.3551 334.0982,277.3551 L342.4622,277.3551 C345.1542,277.3551 347.3572,279.5571 347.3572,282.2501 L347.3572,313.5831 C347.3572,316.2751 345.1542,318.4781 342.4622,318.4781 Z" id="Stroke-43" stroke="#A1B3CE" stroke-width="3.283" stroke-linecap="round" stroke-linejoin="round" mask="url(#mask-2)"></path>
                    <path d="M341.8267,44.9138 L341.8267,74.7088" id="Stroke-44" stroke="#A1B3CE" stroke-width="1.04" stroke-linecap="round" stroke-linejoin="round" mask="url(#mask-2)"></path>
                    <path d="M341.8267,85.7538 L341.8267,115.5488" id="Stroke-45" stroke="#A1B3CE" stroke-width="1.04" stroke-linecap="round" stroke-linejoin="round" mask="url(#mask-2)"></path>
                    <path d="M231.3191,83.0337 L231.3191,115.6197" id="Stroke-46" stroke="#A1B3CE" stroke-width="1.088" stroke-linecap="round" stroke-linejoin="round" mask="url(#mask-2)"></path>
                    <path d="M286.7358,89.9171 L286.7358,263.2561" id="Stroke-47" stroke="#A1B3CE" stroke-width="1.088" stroke-linecap="round" stroke-linejoin="round" mask="url(#mask-2)"></path>
                    <path d="M229.3191,239.3807 L229.3191,274.8277" id="Stroke-48" stroke="#A1B3CE" stroke-width="1.135" stroke-linecap="round" stroke-linejoin="round" mask="url(#mask-2)"></path>
                    <path d="M229.3191,285.0296 L229.3191,320.4766" id="Stroke-49" stroke="#A1B3CE" stroke-width="1.135" stroke-linecap="round" stroke-linejoin="round" mask="url(#mask-2)"></path>
                    <path d="M231.3191,39.6133 L231.3191,72.1993" id="Stroke-50" stroke="#A1B3CE" stroke-width="1.088" stroke-linecap="round" stroke-linejoin="round" mask="url(#mask-2)"></path>
                    <g id="Group-53" mask="url(#mask-2)">
                        <g transform="translate(341.000000, 242.000000)">
                            <path d="M0.8267,0.5599 L0.8267,30.3549" id="Fill-51" stroke="none" fill="#2B3039" fill-rule="evenodd"></path>
                            <path d="M0.8267,0.5599 L0.8267,30.3549" id="Stroke-52" stroke="#A1B3CE" stroke-width="1.04" fill="none" stroke-linecap="round" stroke-linejoin="round"></path>
                        </g>
                    </g>
                    <path d="M341.8267,282.9599 L341.8267,312.7549" id="Stroke-54" stroke="#A1B3CE" stroke-width="1.04" stroke-linecap="round" stroke-linejoin="round" mask="url(#mask-2)"></path>
                    <path d="M341.7009,29.2865 C341.7009,31.2815 340.4529,32.8995 338.9139,32.8995 C337.3749,32.8995 336.1269,31.2815 336.1269,29.2865 C336.1269,27.2915 337.3749,25.6735 338.9139,25.6735 C340.4529,25.6735 341.7009,27.2915 341.7009,29.2865 Z" id="Stroke-55" stroke="#A1B3CE" stroke-width="1.135" stroke-linecap="round" stroke-linejoin="round" mask="url(#mask-2)"></path>
                    <path d="M380.5375,34.451 C380.5375,36.446 379.2895,38.064 377.7505,38.064 C376.2115,38.064 374.9635,36.446 374.9635,34.451 C374.9635,32.456 376.2115,30.838 377.7505,30.838 C379.2895,30.838 380.5375,32.456 380.5375,34.451 Z" id="Stroke-56" stroke="#A1B3CE" stroke-width="1.135" stroke-linecap="round" stroke-linejoin="round" mask="url(#mask-2)"></path>
                    <path d="M444.3776,98.2911 C444.3776,100.2861 443.1296,101.9041 441.5906,101.9041 C440.0516,101.9041 438.8036,100.2861 438.8036,98.2911 C438.8036,96.2961 440.0516,94.6781 441.5906,94.6781 C443.1296,94.6781 444.3776,96.2961 444.3776,98.2911 Z" id="Stroke-57" stroke="#A1B3CE" stroke-width="1.135" stroke-linecap="round" stroke-linejoin="round" mask="url(#mask-2)"></path>
                    <path d="M460.0907,150.3522 C460.0907,152.3472 458.8427,153.9652 457.3037,153.9652 C455.7647,153.9652 454.5167,152.3472 454.5167,150.3522 C454.5167,148.3572 455.7647,146.7392 457.3037,146.7392 C458.8427,146.7392 460.0907,148.3572 460.0907,150.3522 Z" id="Stroke-58" stroke="#A1B3CE" stroke-width="1.135" stroke-linecap="round" stroke-linejoin="round" mask="url(#mask-2)"></path>
                    <path d="M460.0907,206.1533 C460.0907,208.1483 458.8427,209.7663 457.3037,209.7663 C455.7647,209.7663 454.5167,208.1483 454.5167,206.1533 C454.5167,204.1583 455.7647,202.5403 457.3037,202.5403 C458.8427,202.5403 460.0907,204.1583 460.0907,206.1533 Z" id="Stroke-59" stroke="#A1B3CE" stroke-width="1.135" stroke-linecap="round" stroke-linejoin="round" mask="url(#mask-2)"></path>
                    <path d="M444.052,257.9908 C444.052,259.9858 442.804,261.6038 441.265,261.6038 C439.726,261.6038 438.478,259.9858 438.478,257.9908 C438.478,255.9958 439.726,254.3778 441.265,254.3778 C442.804,254.3778 444.052,255.9958 444.052,257.9908 Z" id="Stroke-60" stroke="#A1B3CE" stroke-width="1.135" stroke-linecap="round" stroke-linejoin="round" mask="url(#mask-2)"></path>
                    <path d="M380.536,322.5168 C380.536,324.5118 379.288,326.1298 377.749,326.1298 C376.21,326.1298 374.962,324.5118 374.962,322.5168 C374.962,320.5218 376.21,318.9038 377.749,318.9038 C379.288,318.9038 380.536,320.5218 380.536,322.5168 Z" id="Stroke-61" stroke="#A1B3CE" stroke-width="1.135" stroke-linecap="round" stroke-linejoin="round" mask="url(#mask-2)"></path>
                    <path d="M342.0349,327.1171 C342.0349,329.1121 340.7869,330.7301 339.2479,330.7301 C337.7089,330.7301 336.4609,329.1121 336.4609,327.1171 C336.4609,325.1221 337.7089,323.5041 339.2479,323.5041 C340.7869,323.5041 342.0349,325.1221 342.0349,327.1171 Z" id="Stroke-62" stroke="#A1B3CE" stroke-width="1.135" stroke-linecap="round" stroke-linejoin="round" mask="url(#mask-2)"></path>
                    <path d="M304.8645,313.7546 C304.8645,315.7496 303.6165,317.3676 302.0775,317.3676 C300.5385,317.3676 299.2905,315.7496 299.2905,313.7546 C299.2905,311.7596 300.5385,310.1416 302.0775,310.1416 C303.6165,310.1416 304.8645,311.7596 304.8645,313.7546 Z" id="Stroke-63" stroke="#A1B3CE" stroke-width="1.135" stroke-linecap="round" stroke-linejoin="round" mask="url(#mask-2)"></path>
                    <path d="M241.4007,202.3101 C241.4007,204.3051 240.1527,205.9231 238.6137,205.9231 C237.0747,205.9231 235.8267,204.3051 235.8267,202.3101 C235.8267,200.3151 237.0747,198.6971 238.6137,198.6971 C240.1527,198.6971 241.4007,200.3151 241.4007,202.3101 Z" id="Stroke-64" stroke="#A1B3CE" stroke-width="1.135" stroke-linecap="round" stroke-linejoin="round" mask="url(#mask-2)"></path>
                    <path d="M241.4007,154.3503 C241.4007,156.3453 240.1527,157.9633 238.6137,157.9633 C237.0747,157.9633 235.8267,156.3453 235.8267,154.3503 C235.8267,152.3553 237.0747,150.7373 238.6137,150.7373 C240.1527,150.7373 241.4007,152.3553 241.4007,154.3503 Z" id="Stroke-65" stroke="#A1B3CE" stroke-width="1.135" stroke-linecap="round" stroke-linejoin="round" mask="url(#mask-2)"></path>
                    <path d="M305.4481,42.1893 C305.4481,44.1843 304.2001,45.8023 302.6611,45.8023 C301.1221,45.8023 299.8741,44.1843 299.8741,42.1893 C299.8741,40.1943 301.1221,38.5763 302.6611,38.5763 C304.2001,38.5763 305.4481,40.1943 305.4481,42.1893 Z" id="Stroke-66" stroke="#A1B3CE" stroke-width="1.135" stroke-linecap="round" stroke-linejoin="round" mask="url(#mask-2)"></path>
                    <path d="M355.3434,177.2664 C355.3434,191.9174 346.6714,203.7954 335.9734,203.7954 C325.2764,203.7954 316.6034,191.9174 316.6034,177.2664 C316.6034,162.6144 325.2764,150.7374 335.9734,150.7374 C346.6714,150.7374 355.3434,162.6144 355.3434,177.2664 Z" id="Stroke-67" stroke="#A1B3CE" stroke-width="1.117" stroke-linecap="round" stroke-linejoin="round" mask="url(#mask-2)"></path>
                    <path d="M421.4156,179.5764 C421.4156,187.2884 416.1626,193.5404 409.6826,193.5404 C403.2016,193.5404 397.9486,187.2884 397.9486,179.5764 C397.9486,171.8644 403.2016,165.6124 409.6826,165.6124 C416.1626,165.6124 421.4156,171.8644 421.4156,179.5764 Z" id="Stroke-68" stroke="#A1B3CE" stroke-width="3.12" stroke-linecap="round" stroke-linejoin="round" mask="url(#mask-2)"></path>
                    <path d="M352.0301,157.3885 L421.7431,43.9135" id="Stroke-69" stroke="#A1B3CE" stroke-width="9" stroke-linecap="round" stroke-linejoin="round" mask="url(#mask-2)"></path>
                    <path d="M350.0301,198.6867 L421.7431,311.4607" id="Stroke-70" stroke="#A1B3CE" stroke-width="9" stroke-linecap="round" stroke-linejoin="round" mask="url(#mask-2)"></path>
                    <path d="M316.6038,178.1482 L224.8888,176.7542" id="Stroke-71" stroke="#A1B3CE" stroke-width="9" stroke-linecap="round" stroke-linejoin="round" mask="url(#mask-2)"></path>
                    <path d="M362.3212,178.8629 C362.3212,201.0709 348.9662,219.0749 332.4912,219.0749 C316.0162,219.0749 302.6612,201.0709 302.6612,178.8629 C302.6612,156.6549 316.0162,138.6509 332.4912,138.6509 C348.9662,138.6509 362.3212,156.6549 362.3212,178.8629 Z" id="Stroke-72" stroke="#39BDE4" stroke-width="3.059" stroke-linecap="round" stroke-linejoin="round" mask="url(#mask-2)"></path>
                    <polygon id="Fill-73" fill="#39BDE4" mask="url(#mask-2)" points="326.2239 140.3774 329.2029 143.3664 330.8619 166.3494 329.2029 167.3804 313.4439 159.9594 311.7949 150.7874 305.5079 165.0104 310.8669 164.8034 323.8589 174.8324 324.0189 181.0624 310.7639 191.7034 304.2149 191.7034 310.4549 204.0714 312.7219 197.4754 328.0789 189.5394 329.6249 190.0544 330.2439 212.3174 324.7809 217.2644 339.7259 217.2644 334.7779 212.6264 337.9419 191.9424 340.1959 190.4364 353.6599 196.3264 355.3439 203.7954 361.2199 189.7184 355.8689 191.5934 344.8249 181.2844 345.0849 177.1284 355.4489 164.4544 359.7609 164.5594 354.7959 152.1634 352.9369 158.0224 341.7739 166.5584 338.7239 165.4014 336.1989 143.7324 339.5649 140.3774"></polygon>
                    <path d="M358.3212,87.0193 C358.3212,88.6193 357.3962,89.9173 356.2562,89.9173 C355.1152,89.9173 354.1902,88.6193 354.1902,87.0193 C354.1902,85.4193 355.1152,84.1213 356.2562,84.1213 C357.3962,84.1213 358.3212,85.4193 358.3212,87.0193" id="Fill-74" fill="#A1B3CE" mask="url(#mask-2)"></path>
                    <path d="M323.7098,246.2769 C323.7098,247.7149 322.7848,248.8809 321.6448,248.8809 C320.5038,248.8809 319.5788,247.7149 319.5788,246.2769 C319.5788,244.8389 320.5038,243.6729 321.6448,243.6729 C322.7848,243.6729 323.7098,244.8389 323.7098,246.2769" id="Fill-75" fill="#A1B3CE" mask="url(#mask-2)"></path>
                    <path d="M323.7098,256.6036 C323.7098,258.0416 322.7848,259.2076 321.6448,259.2076 C320.5038,259.2076 319.5788,258.0416 319.5788,256.6036 C319.5788,255.1656 320.5038,253.9996 321.6448,253.9996 C322.7848,253.9996 323.7098,255.1656 323.7098,256.6036" id="Fill-76" fill="#A1B3CE" mask="url(#mask-2)"></path>
                    <path d="M323.7098,266.7686 C323.7098,268.2066 322.7848,269.3726 321.6448,269.3726 C320.5038,269.3726 319.5788,268.2066 319.5788,266.7686 C319.5788,265.3306 320.5038,264.1646 321.6448,264.1646 C322.7848,264.1646 323.7098,265.3306 323.7098,266.7686" id="Fill-77" fill="#A1B3CE" mask="url(#mask-2)"></path>
                    <path d="M358.038,248.2709 C358.038,249.7089 357.113,250.8749 355.973,250.8749 C354.832,250.8749 353.907,249.7089 353.907,248.2709 C353.907,246.8329 354.832,245.6669 355.973,245.6669 C357.113,245.6669 358.038,246.8329 358.038,248.2709" id="Fill-78" fill="#A1B3CE" mask="url(#mask-2)"></path>
                    <path d="M358.038,259.3966 C358.038,260.8346 357.113,262.0006 355.973,262.0006 C354.832,262.0006 353.907,260.8346 353.907,259.3966 C353.907,257.9586 354.832,256.7926 355.973,256.7926 C357.113,256.7926 358.038,257.9586 358.038,259.3966" id="Fill-79" fill="#A1B3CE" mask="url(#mask-2)"></path>
                    <path d="M358.038,269.7509 C358.038,271.1889 357.113,272.3549 355.973,272.3549 C354.832,272.3549 353.907,271.1889 353.907,269.7509 C353.907,268.3129 354.832,267.1469 355.973,267.1469 C357.113,267.1469 358.038,268.3129 358.038,269.7509" id="Fill-80" fill="#A1B3CE" mask="url(#mask-2)"></path>
                    <path d="M358.3212,108.5165 C358.3212,110.1165 357.3962,111.4145 356.2562,111.4145 C355.1152,111.4145 354.1902,110.1165 354.1902,108.5165 C354.1902,106.9165 355.1152,105.6185 356.2562,105.6185 C357.3962,105.6185 358.3212,106.9165 358.3212,108.5165" id="Fill-81" fill="#A1B3CE" mask="url(#mask-2)"></path>
                    <path d="M358.3212,97.7679 C358.3212,99.3679 357.3962,100.6659 356.2562,100.6659 C355.1152,100.6659 354.1902,99.3679 354.1902,97.7679 C354.1902,96.1679 355.1152,94.8699 356.2562,94.8699 C357.3962,94.8699 358.3212,96.1679 358.3212,97.7679" id="Fill-82" fill="#A1B3CE" mask="url(#mask-2)"></path>
                    <path d="M324.039,89.8891 C324.039,91.4891 323.114,92.7871 321.974,92.7871 C320.833,92.7871 319.908,91.4891 319.908,89.8891 C319.908,88.2891 320.833,86.9911 321.974,86.9911 C323.114,86.9911 324.039,88.2891 324.039,89.8891" id="Fill-83" fill="#A1B3CE" mask="url(#mask-2)"></path>
                    <path d="M324.039,100.7853 C324.039,102.3853 323.114,103.6833 321.974,103.6833 C320.833,103.6833 319.908,102.3853 319.908,100.7853 C319.908,99.1853 320.833,97.8873 321.974,97.8873 C323.114,97.8873 324.039,99.1853 324.039,100.7853" id="Fill-84" fill="#A1B3CE" mask="url(#mask-2)"></path>
                    <path d="M324.039,111.1254 C324.039,112.7254 323.114,114.0234 321.974,114.0234 C320.833,114.0234 319.908,112.7254 319.908,111.1254 C319.908,109.5254 320.833,108.2274 321.974,108.2274 C323.114,108.2274 324.039,109.5254 324.039,111.1254" id="Fill-85" fill="#A1B3CE" mask="url(#mask-2)"></path>
                    <path d="M208.9823,47.3852 C208.9823,46.0992 207.9393,45.0562 206.6533,45.0562 C205.3663,45.0562 204.3243,46.0992 204.3243,47.3852 C204.3243,48.6712 205.3663,49.7142 206.6533,49.7142 C207.9393,49.7142 208.9823,48.6712 208.9823,47.3852" id="Fill-86" fill="#A1B3CE" mask="url(#mask-2)"></path>
                    <path d="M208.9823,57.0129 C208.9823,55.7269 207.9393,54.6839 206.6533,54.6839 C205.3663,54.6839 204.3243,55.7269 204.3243,57.0129 C204.3243,58.2989 205.3663,59.3419 206.6533,59.3419 C207.9393,59.3419 208.9823,58.2989 208.9823,57.0129" id="Fill-87" fill="#A1B3CE" mask="url(#mask-2)"></path>
                    <path d="M208.9823,66.4942 C208.9823,65.2082 207.9393,64.1652 206.6533,64.1652 C205.3663,64.1652 204.3243,65.2082 204.3243,66.4942 C204.3243,67.7802 205.3663,68.8232 206.6533,68.8232 C207.9393,68.8232 208.9823,67.7802 208.9823,66.4942" id="Fill-88" fill="#A1B3CE" mask="url(#mask-2)"></path>
                    <path d="M250.2014,46.3852 C250.2014,45.0992 249.1584,44.0562 247.8724,44.0562 C246.5854,44.0562 245.5434,45.0992 245.5434,46.3852 C245.5434,47.6712 246.5854,48.7142 247.8724,48.7142 C249.1584,48.7142 250.2014,47.6712 250.2014,46.3852" id="Fill-89" fill="#A1B3CE" mask="url(#mask-2)"></path>
                    <path d="M250.2014,56.0129 C250.2014,54.7269 249.1584,53.6839 247.8724,53.6839 C246.5854,53.6839 245.5434,54.7269 245.5434,56.0129 C245.5434,57.2989 246.5854,58.3419 247.8724,58.3419 C249.1584,58.3419 250.2014,57.2989 250.2014,56.0129" id="Fill-90" fill="#A1B3CE" mask="url(#mask-2)"></path>
                    <path d="M250.2014,65.4942 C250.2014,64.2082 249.1584,63.1652 247.8724,63.1652 C246.5854,63.1652 245.5434,64.2082 245.5434,65.4942 C245.5434,66.7802 246.5854,67.8232 247.8724,67.8232 C249.1584,67.8232 250.2014,66.7802 250.2014,65.4942" id="Fill-91" fill="#A1B3CE" mask="url(#mask-2)"></path>
                    <path d="M409.6822,165.6124 L418.5462,165.2304 C424.1202,166.3134 428.3802,172.0544 428.3802,178.9954 C428.3802,185.9964 424.0452,191.7784 418.3982,192.7864 L409.6822,193.5404" id="Stroke-92" stroke="#A1B3CE" stroke-width="1.04" stroke-linecap="round" stroke-linejoin="round" mask="url(#mask-2)"></path>
                    <path d="M423.7434,171.4849 L430.9524,166.3269" id="Stroke-93" stroke="#39BDE4" stroke-width="6" stroke-linecap="round" stroke-linejoin="round" mask="url(#mask-2)"></path>
                    <path d="M422.5326,189.5547 L429.9236,194.7957" id="Stroke-94" stroke="#39BDE4" stroke-width="6" stroke-linecap="round" stroke-linejoin="round" mask="url(#mask-2)"></path>
                    <path d="M410.8487,196.5644 L410.8487,209.1914" id="Stroke-95" stroke="#39BDE4" stroke-width="6" stroke-linecap="round" stroke-linejoin="round" mask="url(#mask-2)"></path>
                    <path d="M392.6072,193.5405 L397.9482,189.6865" id="Stroke-96" stroke="#39BDE4" stroke-width="6" stroke-linecap="round" stroke-linejoin="round" mask="url(#mask-2)"></path>
                    <path d="M410.8487,163.1658 L410.8487,152.7678" id="Stroke-97" stroke="#39BDE4" stroke-width="6" stroke-linecap="round" stroke-linejoin="round" mask="url(#mask-2)"></path>
                    <path d="M391.9023,165.6124 L397.9483,170.3034" id="Stroke-98" stroke="#39BDE4" stroke-width="6" stroke-linecap="round" stroke-linejoin="round" mask="url(#mask-2)"></path>
                    <path d="M411.847,179.8312 C411.847,177.2202 410,175.1042 407.721,175.1042 C405.442,175.1042 403.594,177.2202 403.594,179.8312 C403.594,182.4422 405.442,184.5582 407.721,184.5582 C410,184.5582 411.847,182.4422 411.847,179.8312" id="Fill-99" fill="#39BDE4" mask="url(#mask-2)"></path>
                    <path d="M805.2396,305.5048 C816.2656,303.1748 824.5416,293.3908 824.5416,281.6708 C824.5416,268.2158 813.6336,257.3068 800.1776,257.3068 C794.9696,257.3068 790.1466,258.9468 786.1866,261.7308 C787.1086,257.7368 787.6116,253.5818 787.6116,249.3068 C787.6116,218.9098 762.9696,194.2678 732.5726,194.2678 C706.5796,194.2678 684.8106,212.2908 679.0426,236.5178 C673.3916,232.7968 666.6286,230.6238 659.3546,230.6238 C640.9766,230.6238 625.8376,244.4558 623.7566,262.2758 C619.6636,259.1598 614.5576,257.3068 609.0166,257.3068 C595.5606,257.3068 584.6526,268.2158 584.6526,281.6708 C584.6526,293.3908 592.9286,303.1748 603.9546,305.5048 C605.0786,305.7598 606.2376,305.9128 607.4216,305.9768 C607.6456,305.9918 607.8706,306.0028 608.0966,306.0118 C608.2496,306.0148 608.3986,306.0348 608.5526,306.0348 L800.6416,306.0348 C800.7956,306.0348 800.9446,306.0148 801.0976,306.0118 C801.3236,306.0028 801.5486,305.9918 801.7726,305.9768 C802.9566,305.9128 804.1156,305.7598 805.2396,305.5048 Z" id="Stroke-100" stroke="#A1B3CE" stroke-width="3.604" stroke-linecap="round" stroke-linejoin="round" mask="url(#mask-2)"></path>
                    <path d="M249.4458,292.7349 C249.4458,291.4489 248.4028,290.4059 247.1168,290.4059 C245.8298,290.4059 244.7878,291.4489 244.7878,292.7349 C244.7878,294.0209 245.8298,295.0639 247.1168,295.0639 C248.4028,295.0639 249.4458,294.0209 249.4458,292.7349" id="Fill-101" fill="#A1B3CE" mask="url(#mask-2)"></path>
                    <path d="M249.4458,302.3627 C249.4458,301.0767 248.4028,300.0337 247.1168,300.0337 C245.8298,300.0337 244.7878,301.0767 244.7878,302.3627 C244.7878,303.6487 245.8298,304.6917 247.1168,304.6917 C248.4028,304.6917 249.4458,303.6487 249.4458,302.3627" id="Fill-102" fill="#A1B3CE" mask="url(#mask-2)"></path>
                    <path d="M249.4458,311.844 C249.4458,310.558 248.4028,309.515 247.1168,309.515 C245.8298,309.515 244.7878,310.558 244.7878,311.844 C244.7878,313.13 245.8298,314.173 247.1168,314.173 C248.4028,314.173 249.4458,313.13 249.4458,311.844" id="Fill-103" fill="#A1B3CE" mask="url(#mask-2)"></path>
                    <path d="M207.8542,292.1984 C207.8542,290.9124 206.8112,289.8694 205.5252,289.8694 C204.2382,289.8694 203.1962,290.9124 203.1962,292.1984 C203.1962,293.4844 204.2382,294.5274 205.5252,294.5274 C206.8112,294.5274 207.8542,293.4844 207.8542,292.1984" id="Fill-104" fill="#A1B3CE" mask="url(#mask-2)"></path>
                    <path d="M207.8542,301.8261 C207.8542,300.5401 206.8112,299.4971 205.5252,299.4971 C204.2382,299.4971 203.1962,300.5401 203.1962,301.8261 C203.1962,303.1121 204.2382,304.1551 205.5252,304.1551 C206.8112,304.1551 207.8542,303.1121 207.8542,301.8261" id="Fill-105" fill="#A1B3CE" mask="url(#mask-2)"></path>
                    <path d="M207.8542,311.3074 C207.8542,310.0214 206.8112,308.9784 205.5252,308.9784 C204.2382,308.9784 203.1962,310.0214 203.1962,311.3074 C203.1962,312.5934 204.2382,313.6364 205.5252,313.6364 C206.8112,313.6364 207.8542,312.5934 207.8542,311.3074" id="Fill-106" fill="#A1B3CE" mask="url(#mask-2)"></path>
                    <path d="M632.9714,255.1473 C632.9714,255.1473 638.6394,240.5293 652.0644,239.0383" id="Stroke-107" stroke="#A1B3CE" stroke-width="1.04" stroke-linecap="round" stroke-linejoin="round" mask="url(#mask-2)"></path>
                    <path d="M592.6978,275.1349 C592.6978,275.1349 595.9798,265.5889 605.8238,264.3949" id="Stroke-108" stroke="#A1B3CE" stroke-width="1.04" stroke-linecap="round" stroke-linejoin="round" mask="url(#mask-2)"></path>
                    <path d="M694.4258,218.4536 C694.4258,218.4536 708.4088,200.0316 732.6108,199.9576" id="Stroke-109" stroke="#A1B3CE" stroke-width="1.04" stroke-linecap="round" stroke-linejoin="round" mask="url(#mask-2)"></path>
                    <path d="M55.9638,55.0394 C55.9638,55.0394 69.9468,36.6174 94.1488,36.5434" id="Stroke-110" stroke="#A1B3CE" stroke-width="1.04" stroke-linecap="round" stroke-linejoin="round" mask="url(#mask-2)"></path>
                    <path d="M786.9059,268.5718 C786.9059,268.5718 792.8719,262.3068 800.9269,262.6058" id="Stroke-111" stroke="#A1B3CE" stroke-width="1.04" stroke-linecap="round" stroke-linejoin="round" mask="url(#mask-2)"></path>
                    <path d="M13.0752,105.3998 C13.0752,105.3998 19.0412,99.1348 27.0962,99.4338" id="Stroke-112" stroke="#A1B3CE" stroke-width="1.04" stroke-linecap="round" stroke-linejoin="round" mask="url(#mask-2)"></path>
                    <path d="M112.0477,202.9546 L112.0477,179.2046 C112.0477,179.2046 112.6467,162.5326 130.2407,162.5256 C148.1227,162.5176 147.8307,179.2046 147.8307,179.2046 L147.8307,202.9546" id="Stroke-113" stroke="#39BDE4" stroke-width="4.072" stroke-linecap="round" stroke-linejoin="round" mask="url(#mask-2)"></path>
                    <g id="Group-116" mask="url(#mask-2)">
                        <g transform="translate(129.000000, 232.000000)">
                            <path d="M0.9392,0.7031 L0.9392,8.0641" id="Fill-114" stroke="none" fill="#FEFEFE" fill-rule="evenodd"></path>
                            <path d="M0.9392,0.7031 L0.9392,8.0641" id="Stroke-115" stroke="#39BDE4" stroke-width="4.072" fill="none" stroke-linecap="round" stroke-linejoin="round"></path>
                        </g>
                    </g>
                    <path d="M135.6694,228.9729 C135.6694,232.1379 133.1034,234.7029 129.9394,234.7029 C126.7744,234.7029 124.2094,232.1379 124.2094,228.9729 C124.2094,225.8079 126.7744,223.2429 129.9394,223.2429 C133.1034,223.2429 135.6694,225.8079 135.6694,228.9729" id="Fill-117" fill="#2B3039" mask="url(#mask-2)"></path>
                    <path d="M135.6694,228.9729 C135.6694,232.1379 133.1034,234.7029 129.9394,234.7029 C126.7744,234.7029 124.2094,232.1379 124.2094,228.9729 C124.2094,225.8079 126.7744,223.2429 129.9394,223.2429 C133.1034,223.2429 135.6694,225.8079 135.6694,228.9729 Z" id="Stroke-118" stroke="#39BDE4" stroke-width="1.598" stroke-linecap="round" stroke-linejoin="round" mask="url(#mask-2)"></path>
                </g>
                <polygon id="Stroke-120" stroke="#A1B3CE" stroke-width="1.04" stroke-linecap="round" stroke-linejoin="round" points="404.3102 60.4649 397.4432 53.2929 404.3102 44.1379 411.9392 51.1569"></polygon>
                <polygon id="Stroke-121" stroke="#A1B3CE" stroke-width="1.04" stroke-linecap="round" stroke-linejoin="round" points="412.7027 69.0099 422.1637 77.0969 428.4197 67.9419 419.2637 58.9389"></polygon>
                <g id="Group-150" transform="translate(399.000000, 47.372000)">
                    <g id="Group-125" transform="translate(6.000000, 0.000000)">
                        <path d="M0.3784,9.5833 L6.9394,0.2753 C6.9394,0.2753 15.0274,1.4963 16.2474,10.1933 L10.9074,19.0443" id="Fill-122" fill="#2B3039"></path>
                        <path d="M0.3784,9.5833 L6.9394,0.2753 C6.9394,0.2753 15.0274,1.4963 16.2474,10.1933 L10.9074,19.0443" id="Stroke-124" stroke="#A1B3CE" stroke-width="1.04" stroke-linecap="round" stroke-linejoin="round"></path>
                    </g>
                    <path d="M8.8664,10.8242 C12.0694,12.6262 14.8714,15.2532 15.8724,19.0442 C15.8724,19.0442 16.1564,21.3002 14.3134,20.4332" id="Stroke-126" stroke="#A1B3CE" stroke-width="3.12" stroke-linecap="round" stroke-linejoin="round"></path>
                    <path d="M6.3784,13.8269 C6.3784,13.8269 5.3774,8.8619 8.8664,10.8239" id="Stroke-128" stroke="#A1B3CE" stroke-width="3.12" stroke-linecap="round" stroke-linejoin="round"></path>
                    <path d="M24.1137,20.547 C24.1137,19.25 23.1517,18.198 21.9647,18.198 C20.7777,18.198 19.8157,19.25 19.8157,20.547 C19.8157,21.844 20.7777,22.896 21.9647,22.896 C23.1517,22.896 24.1137,21.844 24.1137,20.547" id="Fill-130" fill="#A1B3CE"></path>
                    <path d="M8.3941,4.5475 C8.3941,3.2505 7.4321,2.1985 6.2451,2.1985 C5.0581,2.1985 4.0961,3.2505 4.0961,4.5475 C4.0961,5.8445 5.0581,6.8965 6.2451,6.8965 C7.4321,6.8965 8.3941,5.8445 8.3941,4.5475" id="Fill-132" fill="#A1B3CE"></path>
                    <polygon id="Stroke-134" stroke="#A1B3CE" stroke-width="1.04" stroke-linecap="round" stroke-linejoin="round" points="7.2675 250.9653 0.4205 258.1553 7.3115 267.2923 14.9215 260.2533"></polygon>
                    <polygon id="Stroke-136" stroke="#A1B3CE" stroke-width="1.04" stroke-linecap="round" stroke-linejoin="round" points="15.6371 242.3979 25.0761 234.2859 31.3571 243.4239 22.2251 252.4509"></polygon>
                    <g id="Group-141" transform="translate(8.000000, 244.000000)">
                        <path d="M0.3449,10.472 L6.9309,19.762 C6.9309,19.762 15.0149,18.52 16.2129,9.819 L10.8479,0.983" id="Fill-138" fill="#2B3039"></path>
                        <path d="M0.3449,10.472 L6.9309,19.762 C6.9309,19.762 15.0149,18.52 16.2129,9.819 L10.8479,0.983" id="Stroke-140" stroke="#A1B3CE" stroke-width="1.04" stroke-linecap="round" stroke-linejoin="round"></path>
                    </g>
                    <path d="M10.8297,253.2245 C14.0277,251.4145 16.8227,248.7795 17.8137,244.9865 C17.8137,244.9865 18.0917,242.7295 16.2507,243.6015" id="Stroke-142" stroke="#A1B3CE" stroke-width="3.12" stroke-linecap="round" stroke-linejoin="round"></path>
                    <path d="M8.3336,250.2285 C8.3336,250.2285 7.3456,255.1965 10.8296,253.2245" id="Stroke-144" stroke="#A1B3CE" stroke-width="3.12" stroke-linecap="round" stroke-linejoin="round"></path>
                    <path d="M26.051,243.461 C26.054,244.758 25.095,245.812 23.908,245.816 C22.722,245.819 21.757,244.77 21.753,243.472 C21.75,242.175 22.709,241.121 23.896,241.118 C25.083,241.115 26.048,242.164 26.051,243.461" id="Fill-146" fill="#A1B3CE"></path>
                    <path d="M10.3741,259.5024 C10.3771,260.7994 9.4181,261.8534 8.2311,261.8574 C7.0451,261.8604 6.0801,260.8114 6.0761,259.5134 C6.0731,258.2164 7.0321,257.1624 8.2191,257.1594 C9.4061,257.1564 10.3711,258.2054 10.3741,259.5024" id="Fill-148" fill="#A1B3CE"></path>
                </g>
            </g>
        </g>
    </g>
</svg>