<?xml version="1.0" encoding="UTF-8"?>
<svg width="938px" height="221px" viewBox="0 0 938 221" version="1.1" xmlns="http://www.w3.org/2000/svg" xmlns:xlink="http://www.w3.org/1999/xlink">
    <!-- Generator: Sketch 46 (44423) - http://www.bohemiancoding.com/sketch -->
    <title>Bison_Machine_v2</title>
    <desc>Created with Sketch.</desc>
    <defs></defs>
    <g id="Main" stroke="none" stroke-width="1" fill="none" fill-rule="evenodd">
        <g id="Bison" transform="translate(-124.000000, -4212.000000)">
            <g id="Bison_Machine_v2" transform="translate(54.000000, 4141.000000)">
                <g transform="translate(-23.000000, -198.000000)">
                    <path d="M581.9,445.6 C582.1,447.7 582.2,449.3 582.3,450.8 C583,458.7 583.8,466.5 584.5,474.4 C584.7,476.3 585.3,477.7 586.9,478.8 C588.8,480.2 590.6,481.8 592.5,483.4 C592,486.4 589.9,486.9 587.7,487 C581,487.2 574.4,487.6 567.7,487.5 C552.9,487.4 538.1,487.2 523.3,487 C519.8,487 518.6,486.2 517.9,483.4 C519.8,481.8 521.9,480.2 523.8,478.4 C524.6,477.6 525.5,476.4 525.6,475.4 C526.6,466 527.4,456.7 528.3,447.3 C528.3,446.9 528.2,446.5 528.1,445.8 C526.9,445.7 525.7,445.6 524.5,445.6 C496,445.6 467.5,445.6 439.1,445.6 C431.1,445.6 427.2,441.7 427.2,433.6 C427.2,384.5 427.2,335.3 427.2,286.2 C427.2,278.1 431.2,274.1 439.4,274.1 C516.2,274.1 592.9,274.1 669.7,274.1 C677.9,274.1 681.9,278.1 681.9,286.2 C681.9,335.3 681.9,384.5 681.9,433.6 C681.9,441.8 678,445.6 669.7,445.6 C641.8,445.6 613.9,445.6 586,445.6 C584.6,445.6 583.5,445.6 581.9,445.6 Z" id="Shape" stroke="#A1B3CE" stroke-width="3.8894"></path>
                    <path d="M436.3,406.8 C440.5,407.9 670.8,407.4 672.4,406.5 C672.4,366.1 672.4,325.8 672.4,285.3 C593.6,285.3 515.1,285.3 436.3,285.3 C436.3,326 436.3,366.4 436.3,406.8 Z" id="Shape" stroke="#A1B3CE" stroke-width="1.2965"></path>
                    <polygon id="Shape" fill="#F05635" fill-rule="nonzero" points="577 331.7 572.8 325 532.2 337.2 530 339.4 530 344.1 529.3 345 530.7 351.4 533.5 346.1 531.8 344.2 531.8 340.3 532 339.8 532.9 338.6 535.6 351 533 352.7 533 365.5 533 365.8 533 366.7 536.1 366.7 535 365.5 535 357.7 535.9 356.5 542.2 365.8 543.3 366 542.5 366.7 546 366.7 540 357.9 542.4 349.4 546.9 352.1 558.1 350.3 560.4 359.7 562.9 359.7 563.5 364.8 564.8 365.6 564.4 366.7 568 366.7 566.8 365.9 566.8 361.8 567.1 358 578.9 351.4 580.1 355.7 585.3 350.7 586 350.7 586 331.7"></polygon>
                    <path d="M536.3,476.9 L572.8,476.9" id="Shape" stroke="#A1B3CE" stroke-width="1.2965" stroke-linecap="round" stroke-linejoin="round"></path>
                    <path d="M528,445.8 L581.9,445.6" id="Shape" stroke="#A1B3CE" stroke-width="3.8894" stroke-linecap="round" stroke-linejoin="round"></path>
                    <g id="Group" transform="translate(940.000000, 288.000000)" fill-rule="nonzero" fill="#A1B3CE">
                        <path d="M37.1,57.5 L37.1,57.5 C37.1,60.5 34.6,63 31.6,63 L6.7,63 C3.1,63 0.2,60.1 0.2,56.5 L0.2,7.4 C0.2,3.8 3.1,0.9 6.7,0.9 L7.1,0.9 C10.4,0.9 13,3.6 13,6.8 L13,52.5 L32.1,52.5 C34.9,52.5 37.1,54.7 37.1,57.5 Z" id="Shape"></path>
                        <path d="M65.9,0.9 C70.1,0.9 73.8,1.4 76.9,2.4 C80,3.4 82.5,4.8 84.5,6.6 C86.5,8.4 88,10.5 88.9,13 C89.9,15.5 90.3,18.1 90.3,21 C90.3,24.1 89.8,26.8 88.8,29.4 C87.8,32 86.3,34.1 84.3,35.9 C82.3,37.7 79.7,39.1 76.6,40.2 C73.5,41.2 69.9,41.7 65.8,41.7 L57.7,41.7 L57.7,56.9 C57.7,60.3 55,63 51.6,63 L51.6,63 C47.9,63 44.9,60 44.9,56.3 L44.9,6.5 C44.9,3.4 47.4,0.9 50.5,0.9 L65.9,0.9 Z M65.9,31.8 C69.9,31.8 72.9,30.8 74.7,28.9 C76.5,27 77.5,24.3 77.5,20.9 C77.5,19.4 77.3,18 76.8,16.7 C76.3,15.4 75.6,14.3 74.7,13.4 C73.7,12.5 72.5,11.8 71.1,11.3 C69.6,10.8 67.9,10.6 65.9,10.6 L57.8,10.6 L57.8,31.7 L65.9,31.7 L65.9,31.8 Z" id="Shape"></path>
                    </g>
                    <g id="Group" transform="translate(93.000000, 288.000000)" fill-rule="nonzero" fill="#A1B3CE">
                        <path d="M39.1,32 L50.8,32 C53.7,32 56.1,34.4 56.1,37.3 L56.1,51.9 C56.1,55.8 53.8,59.4 50.3,61.1 C48.9,61.7 47.5,62.3 46,62.7 C42.4,63.8 38.6,64.3 34.6,64.3 C29.5,64.3 24.9,63.5 20.7,61.9 C16.6,60.3 13,58.1 10.1,55.3 C7.2,52.5 4.9,49.1 3.3,45.2 C1.7,41.3 0.9,37.1 0.9,32.5 C0.9,27.9 1.7,23.6 3.2,19.7 C4.7,15.8 6.9,12.5 9.7,9.7 C12.5,6.9 15.9,4.7 19.9,3.2 C23.9,1.6 28.4,0.8 33.4,0.8 C36,0.8 38.4,1 40.6,1.4 C42.8,1.8 44.9,2.4 46.8,3.1 C48.7,3.8 50.4,4.7 52,5.7 L52.1,5.8 C54.5,7.4 55.3,10.6 53.7,13 L52.6,14.7 C52,15.6 51.3,16.2 50.4,16.4 C49.5,16.6 48.5,16.4 47.4,15.7 C46.4,15.1 45.4,14.5 44.4,14 C43.4,13.5 42.4,13.1 41.3,12.7 C40.2,12.3 39,12 37.7,11.8 C36.4,11.6 34.9,11.5 33.2,11.5 C30.3,11.5 27.7,12 25.4,13 C23.1,14 21.1,15.4 19.4,17.2 C17.8,19 16.5,21.2 15.6,23.8 C14.7,26.4 14.3,29.2 14.3,32.4 C14.3,35.8 14.8,38.9 15.8,41.6 C16.8,44.3 18.1,46.6 19.9,48.4 C21.7,50.3 23.8,51.7 26.3,52.6 C28.8,53.6 31.5,54.1 34.5,54.1 C36.6,54.1 38.4,53.9 40,53.5 C40.9,53.3 41.7,53 42.5,52.7 C43.8,52.2 44.7,51 44.7,49.6 L44.7,41.4 L37.7,41.4 C36.9,41.4 36.2,41.2 35.8,40.7 C35.3,40.3 35.1,39.7 35.1,39 L35.1,36.2 C34.7,34 36.6,32 39.1,32 Z" id="Shape"></path>
                        <path d="M87.4,1.6 C91.6,1.6 95.3,2.1 98.4,3.1 C101.5,4.1 104,5.5 106,7.3 C108,9.1 109.5,11.2 110.4,13.7 C111.4,16.2 111.8,18.8 111.8,21.7 C111.8,24.8 111.3,27.5 110.3,30.1 C109.3,32.6 107.8,34.8 105.8,36.6 C103.8,38.4 101.2,39.8 98.1,40.9 C95,41.9 91.4,42.4 87.3,42.4 L79.2,42.4 L79.2,58 C79.2,61.1 76.7,63.7 73.5,63.7 L72.6,63.7 C69.1,63.7 66.3,60.9 66.3,57.4 L66.3,7.9 C66.3,4.4 69.2,1.5 72.7,1.5 L87.4,1.5 L87.4,1.6 Z M87.4,32.5 C91.4,32.5 94.4,31.5 96.2,29.6 C98,27.7 99,25 99,21.6 C99,20.1 98.8,18.7 98.3,17.4 C97.8,16.1 97.1,15 96.2,14.1 C95.2,13.2 94,12.5 92.6,12 C91.1,11.5 89.4,11.3 87.4,11.3 L79.3,11.3 L79.3,32.4 L87.4,32.4 L87.4,32.5 Z" id="Shape"></path>
                    </g>
                    <path d="M912.2,339.7 C912.2,339.7 912.1,339.7 912.1,339.7 C910.3,339.7 908.8,338.6 908.5,337.1 L904.5,317.3 L900.7,337 C900.4,338.5 898.8,339.6 897,339.6 C897,339.6 897,339.6 897,339.6 C895.2,339.6 893.6,338.5 893.3,337 L889.7,317.6 L885.9,337.1 C885.6,338.6 884,339.7 882.2,339.7 C882.2,339.7 882.2,339.7 882.2,339.7 C880.4,339.7 878.8,338.6 878.5,337 L875.1,317.5 L870.9,337.1 C870.6,338.6 869,339.6 867.2,339.7 C865.4,339.7 863.8,338.6 863.5,337.1 L859.5,316.8 L855.4,337.1 C855.1,338.6 853.6,339.7 851.7,339.7 C849.9,339.7 848.3,338.6 848,337 L844.6,318 L840.9,337 C840.6,338.5 839,339.6 837.2,339.6 C837.2,339.6 837.2,339.6 837.2,339.6 C835.4,339.6 833.8,338.5 833.5,336.9 L829.6,315.3 L828.3,320.4 C827.9,322.1 825.9,323.2 823.9,322.8 C821.9,322.4 820.6,320.8 821,319.1 L826.6,297.3 C827,295.8 828.6,294.8 830.4,294.8 C832.2,294.8 833.7,296 834,297.4 L837.4,316 L841.1,297 C841.4,295.5 843,294.4 844.8,294.4 C844.8,294.4 844.8,294.4 844.8,294.4 C846.6,294.4 848.2,295.5 848.5,297.1 L852,316.6 L856,297 C856.3,295.5 857.9,294.4 859.7,294.4 C859.7,294.4 859.7,294.4 859.7,294.4 C861.5,294.4 863.1,295.5 863.4,297 L867.5,317.8 L871.9,297.3 C872.2,295.8 873.8,294.7 875.6,294.7 C875.6,294.7 875.6,294.7 875.7,294.7 C877.5,294.7 879.1,295.9 879.3,297.4 L882.6,315.9 L886.3,297.1 C886.6,295.6 888.2,294.5 890,294.5 C890,294.5 890,294.5 890,294.5 C891.8,294.5 893.4,295.6 893.7,297.1 L897.3,316.5 L901,297.4 C901.3,295.9 902.8,294.8 904.7,294.8 C904.7,294.8 904.7,294.8 904.7,294.8 C906.5,294.8 908.1,295.9 908.4,297.4 L913,320.6 L914.2,316.3 C914.7,314.6 916.7,313.6 918.7,314 C920.7,314.4 921.9,316.1 921.5,317.7 L916,337.1 C915.5,338.7 914,339.7 912.2,339.7 Z" id="Shape" fill="#3ABDE5" fill-rule="nonzero"></path>
                    <path d="M775.6,379.1 L740.6,379.1 C739.1,379.1 737.9,377.9 737.9,376.4 L737.9,375.1 C737.9,373.6 739.1,372.4 740.6,372.4 L775.6,372.4 C777.1,372.4 778.3,373.6 778.3,375.1 L778.3,376.4 C778.3,377.9 777.1,379.1 775.6,379.1 Z" id="Shape" stroke="#A1B3CE" stroke-width="3.8894" stroke-linecap="round" stroke-linejoin="round"></path>
                    <path d="M775.6,372.4 L740.6,372.4 C739.1,372.4 737.9,371.2 737.9,369.7 L737.9,368.4 C737.9,366.9 739.1,365.7 740.6,365.7 L775.6,365.7 C777.1,365.7 778.3,366.9 778.3,368.4 L778.3,369.7 C778.3,371.2 777.1,372.4 775.6,372.4 Z" id="Shape" stroke="#A1B3CE" stroke-width="3.8894" stroke-linecap="round" stroke-linejoin="round"></path>
                    <path d="M775.6,365.7 L740.6,365.7 C739.1,365.7 737.9,364.5 737.9,363 L737.9,361.7 C737.9,360.2 739.1,359 740.6,359 L775.6,359 C777.1,359 778.3,360.2 778.3,361.7 L778.3,363 C778.3,364.5 777.1,365.7 775.6,365.7 Z" id="Shape" stroke="#A1B3CE" stroke-width="3.8894" stroke-linecap="round" stroke-linejoin="round"></path>
                    <path d="M775.6,359 L740.6,359 C739.1,359 737.9,357.8 737.9,356.3 L737.9,355 C737.9,353.5 739.1,352.3 740.6,352.3 L775.6,352.3 C777.1,352.3 778.3,353.5 778.3,355 L778.3,356.3 C778.3,357.8 777.1,359 775.6,359 Z" id="Shape" stroke="#A1B3CE" stroke-width="3.8894" stroke-linecap="round" stroke-linejoin="round"></path>
                    <path d="M775.6,352.2 L740.6,352.2 C739.1,352.2 737.9,351 737.9,349.5 L737.9,348.2 C737.9,346.7 739.1,345.5 740.6,345.5 L775.6,345.5 C777.1,345.5 778.3,346.7 778.3,348.2 L778.3,349.5 C778.3,351 777.1,352.2 775.6,352.2 Z" id="Shape" stroke="#A1B3CE" stroke-width="3.8894" stroke-linecap="round" stroke-linejoin="round"></path>
                    <path d="M775.6,345.5 L740.6,345.5 C739.1,345.5 737.9,344.3 737.9,342.8 L737.9,341.5 C737.9,340 739.1,338.8 740.6,338.8 L775.6,338.8 C777.1,338.8 778.3,340 778.3,341.5 L778.3,342.8 C778.3,344.3 777.1,345.5 775.6,345.5 Z" id="Shape" stroke="#A1B3CE" stroke-width="3.8894" stroke-linecap="round" stroke-linejoin="round"></path>
                    <polyline id="Shape" stroke="#A1B3CE" stroke-width="3.8894" stroke-linecap="round" stroke-linejoin="round" points="745.1 379.4 745.1 387.3 733 387.3 689.1 387.3"></polyline>
                    <path d="M770.8,379.4 L770.8,389 C770.8,389 772.7,411.5 742.7,411.7 L689.1,411.7" id="Shape" stroke="#A1B3CE" stroke-width="3.8894" stroke-linecap="round" stroke-linejoin="round"></path>
                    <path d="M815.7,294.6 L815.7,339 C815.7,340.5 816.9,341.7 818.4,341.7 L819.7,341.7 C821.2,341.7 822.4,340.5 822.4,339 L822.4,294.6 C822.4,293.1 821.2,291.9 819.7,291.9 L818.4,291.9 C816.9,291.9 815.7,293.1 815.7,294.6 Z" id="Shape" stroke="#A1B3CE" stroke-width="3.8894" stroke-linecap="round" stroke-linejoin="round"></path>
                    <path d="M920,294.6 L920,339 C920,340.5 921.2,341.7 922.7,341.7 L924,341.7 C925.5,341.7 926.7,340.5 926.7,339 L926.7,294.6 C926.7,293.1 925.5,291.9 924,291.9 L922.7,291.9 C921.2,291.9 920,293.1 920,294.6 Z" id="Shape" stroke="#A1B3CE" stroke-width="3.8894" stroke-linecap="round" stroke-linejoin="round"></path>
                    <path d="M770.9,338.1 L770.9,330.1 L783.1,330.1 L815.7,330 L815.7,305.6 C802.5,305.6 779.5,305.7 773.3,305.7 C743.3,306 745.2,328.5 745.2,328.5 L745.2,338.1" id="Shape" stroke="#A1B3CE" stroke-width="3.8894" stroke-linecap="round" stroke-linejoin="round"></path>
                    <path d="M761.3,312.4 C761.3,312.4 755.1,312.8 752.6,319.7" id="Shape" stroke="#A1B3CE" stroke-width="1.2965" stroke-linecap="round" stroke-linejoin="round"></path>
                    <path d="M764.9,396.2 C764.9,396.2 763.5,402.2 756.4,403.7" id="Shape" stroke="#A1B3CE" stroke-width="1.2965" stroke-linecap="round" stroke-linejoin="round"></path>
                    <path d="M689.1,377.8 L689.1,422.2 C689.1,423.7 687.9,424.9 686.4,424.9 L685.1,424.9 C683.6,424.9 682.4,423.7 682.4,422.2 L682.4,377.8 C682.4,376.3 683.6,375.1 685.1,375.1 L686.4,375.1 C687.9,375.1 689.1,376.3 689.1,377.8 Z" id="Shape" stroke="#A1B3CE" stroke-width="3.8894" stroke-linecap="round" stroke-linejoin="round"></path>
                    <g id="Group" transform="translate(357.000000, 296.000000)" stroke="#A1B3CE" stroke-linecap="round" stroke-linejoin="round">
                        <polygon id="Shape" stroke-width="3.8894" points="10.6 50 0.2 41.2 0.2 9 10.6 0.2 20.9 8.9 20.9 41.6"></polygon>
                        <path d="M10.6,0.2 L10.6,50" id="Shape" stroke-width="1.2965"></path>
                        <polygon id="Shape" stroke-width="3.8894" points="31.9 50 21.5 41.2 21.5 9 31.9 0.2 42.2 8.9 42.2 41.6"></polygon>
                        <path d="M31.8,0.2 L31.8,50" id="Shape" stroke-width="1.2965"></path>
                        <path d="M17.2,38.7 L12.6,42.4" id="Shape" stroke-width="1.2965"></path>
                        <path d="M38.6,38.6 L34,42.3" id="Shape" stroke-width="1.2965"></path>
                        <polygon id="Shape" stroke-width="3.8894" points="52.6 50 42.2 41.2 42.2 9 52.6 0.2 62.9 8.9 62.9 41.6"></polygon>
                        <path d="M52.6,0.2 L52.6,50" id="Shape" stroke-width="1.2965"></path>
                        <path d="M59.2,38.7 L54.6,42.4" id="Shape" stroke-width="1.2965"></path>
                        <path d="M69.8,47.3 L69.8,2.9 C69.8,1.4 68.6,0.2 67.1,0.2 L65.8,0.2 C64.3,0.2 63.1,1.4 63.1,2.9 L63.1,47.3 C63.1,48.8 64.3,50 65.8,50 L67.1,50 C68.6,50 69.8,48.8 69.8,47.3 Z" id="Shape" stroke-width="3.8894"></path>
                    </g>
                    <g id="Group" transform="translate(326.000000, 296.000000)" stroke="#A1B3CE" stroke-width="3.8894" stroke-linecap="round" stroke-linejoin="round">
                        <path d="M24.5,2.8 L24.5,47.2 C24.5,48.7 25.7,49.9 27.2,49.9 L28.5,49.9 C30,49.9 31.2,48.7 31.2,47.2 L31.2,2.8 C31.2,1.3 30,0.1 28.5,0.1 L27.2,0.1 C25.7,0.1 24.5,1.3 24.5,2.8 Z" id="Shape"></path>
                        <path d="M12.4,37 L24.5,36.9 L24.5,12.6 C11.3,12.6 6.6,12.5 0.4,12.6" id="Shape"></path>
                    </g>
                    <g id="Group" transform="translate(218.000000, 296.000000)" stroke="#A1B3CE" stroke-width="3.8894" stroke-linecap="round" stroke-linejoin="round">
                        <path d="M7.4,2.8 L7.4,47.2 C7.4,48.7 6.2,49.9 4.7,49.9 L3.4,49.9 C1.9,49.9 0.7,48.7 0.7,47.2 L0.7,2.8 C0.7,1.3 1.9,0.1 3.4,0.1 L4.7,0.1 C6.2,0.1 7.4,1.3 7.4,2.8 Z" id="Shape"></path>
                        <path d="M18.3,37 L7.4,36.9 L7.4,12.6 C20.6,12.6 9.4,12.5 15.6,12.6" id="Shape"></path>
                    </g>
                    <g id="Group" transform="translate(233.000000, 271.000000)">
                        <path d="M117.1,87.5 L88.5,27.1 C78.4,8 57.4,-2.5 36.1,0.8 L36.1,0.8 C15.3,4 2.84217094e-14,22.2 0.5,43.3 L0.5,46.4 C0.9,67.8 14.7,82.9 34.3,91.6 L88.4,116.9 L88.4,116.9 C106.8,125.6 126,106.4 117.4,88 L117.1,87.5 Z" id="Shape" stroke="#A1B3CE" stroke-width="3.8894" stroke-linecap="round" stroke-linejoin="round"></path>
                        <path d="M81.5,54.4 C79.3,54.2 77.4,57.1 78.3,59.1 C78.5,59.8 79.3,60.5 79.9,61 C80.8,61.9 81.5,62.7 81.1,64 C80.4,66.2 79,67.6 76.4,66.4 C75.8,66.2 74.8,65.9 74.2,66.2 C72,66.9 70.3,69.4 72.2,71.9 C73.4,73.5 73.2,74.9 71.6,76.1 C70.1,77.2 69.1,77.2 67.6,75.9 C67.2,75.7 66.9,75.2 66.4,75 C65.8,74.8 65.2,74.5 64.5,74.6 C62.8,75 60.8,76.5 61.5,79.1 C61.5,79.3 61.5,79.7 61.6,80 C61.8,81 61.6,81.9 60.7,82.4 C58.6,83.9 56.8,84 55.6,81.4 C55.5,81.3 55.5,81 55.4,80.9 C54.7,79.7 53.4,79 51.9,79.3 C50.4,79.5 49.3,80.5 49,82 C48.9,82.5 48.9,82.9 48.8,83.2 C48.6,83.8 48.3,84.7 47.8,85.1 C46.7,85.8 45.4,85.8 44.2,85.3 C43.1,84.8 42.8,83.7 42.7,82.6 C42.6,82 42.3,81.2 42,80.7 C40.5,78.8 37.1,78.6 36,81.3 C34.8,84 32.6,83.8 30.8,82.5 C30.2,82 29.9,81.3 29.9,80.5 C29.9,80 30,79.4 30.1,78.9 C30.5,77.2 30,76 28.4,75.2 C26.9,74.3 25.7,74.5 24.4,75.6 C23.9,76 23.5,76.3 23,76.7 C22.3,77.2 21.5,77.2 20.8,76.8 C18.4,75.4 17.8,73.9 19.4,71.7 C19.4,71.6 19.5,71.5 19.6,71.3 C20,70.4 20.2,69.7 19.7,68.7 C18.7,66.3 17,65.8 14.6,66.7 C13.9,66.9 12.6,67.1 12,66.7 C10.3,65.5 8.9,63.1 11.8,61.2 L11.9,61.1 C14,59.6 13.4,57.1 12.3,55.7 C11.3,54.5 9.9,54.6 8.6,54.6 C7.2,54.6 6.5,54.1 6.1,52.7 C5.5,50.5 6,49.3 8.2,48.6 C8.4,48.5 8.7,48.5 8.9,48.4 C10.3,47.9 11,46.5 11,45.2 C11,43.7 10.3,42.6 8.8,42.1 C8.3,41.9 7.7,41.9 7.3,41.5 C6.8,41 6.1,40.4 5.9,39.8 C5.7,37.8 6.3,35.4 9.1,35.8 C9.5,35.8 9.8,35.9 10.2,35.8 C10.7,35.7 11.2,35.6 11.6,35.3 C13.7,33.8 13.7,31.1 11.7,29.4 C11.3,29.2 11.1,28.8 10.7,28.5 C10.1,27.9 9.8,27 10.1,26.1 C10.8,23.9 12.2,22.4 14.8,23.7 C17,24.9 18.9,23.2 19.7,21.5 C20.2,20.3 19.7,19.3 19.1,18.4 C18.4,17.4 18.1,16.4 18.6,15.4 C19.7,13 22,12.7 24,14.4 C24.7,15 25.6,15.6 26.5,15.6 C28.7,15.7 30.4,13.5 30,11.4 C29.9,11 29.8,10.5 29.8,10.2 C29.8,9.6 29.8,9 30.2,8.5 C31.7,6.4 34.4,6.6 35.7,8.9 C35.8,9 35.9,9.3 36.1,9.5 C36.7,10.4 37.5,11.1 38.7,11.1 C41.3,11 42.2,9.9 42.6,7.5 C43,5.4 43.8,4.8 46.2,4.9 C47.8,4.9 48.7,5.9 48.8,7.8 C48.8,9.5 49.8,10.7 51.7,11 C53.2,11.2 54.4,10.8 55.3,9.3 C55.5,8.9 55.8,8.4 56,8.1 C56.7,7.1 57.7,6.9 59.2,7.4 C60.7,8 61.3,8.6 61.3,10 C61.2,10.6 61.2,11.4 61.1,12.1 C61,13.2 61.3,14.2 62.2,14.8 C63.3,15.7 64.4,16.3 65.8,15.7 C66.3,15.5 66.8,15 67.3,14.6 C68,14 68.8,13.2 69.9,13.6 C72,14.3 73.8,16.3 71.9,18.8 C71.8,18.9 71.8,19 71.7,19.2 C71.1,20.4 71.1,21.6 71.9,22.7 C72.9,23.9 73.9,24.9 75.5,24.3 C76.1,24.1 76.7,23.8 77.4,23.7 C78.5,23.5 79.4,23.7 80.1,24.7 C81.2,26.2 81.7,27.9 79.5,29.6 C79,30.1 78.3,30.7 78.1,31.3 C77.5,33.8 79.1,36.2 81.6,36 C82.1,36 82.6,35.9 83.1,36 C83.7,36.2 84.5,36.5 84.8,37 C86.2,38.9 85.5,41.1 83.3,42 C83.1,42.1 82.8,42.2 82.6,42.4 C81.2,42.9 80.5,44.1 80.5,45.6 C80.5,47.2 81.4,48.3 82.9,48.8 C83.4,49 83.8,49.2 84.3,49.4 C85.4,50 86,50.9 85.8,52.1 C85.3,54.6 84.8,55.3 82.4,55.2 C82.3,55.2 82.3,55.2 82.2,55.2 C82.1,55.2 81.6,55.1 81.5,54.4 Z M59.8,60.5 C58.3,59.5 56.8,58.3 55.3,57.3 C52.9,55.7 50.6,55.4 48,56.8 C46.3,57.8 45.4,59.3 44.8,61 C44.1,63 43.3,65 42.8,67.1 C42.3,68.8 43.2,70.3 44.2,71.6 C45.8,73.7 47.8,74 50.2,73.5 C53.7,72.9 57.1,71.8 60.2,69.9 C61.6,69.2 62.3,67.5 62.3,64.8 C62.2,63.5 61.5,61.9 59.8,60.5 Z M59.7,21 C56.3,19.1 52.8,18 49,17.5 C47.4,17.4 46.1,17.7 45,18.7 C43.6,19.8 42.9,21.3 42.8,23.1 C42.7,23.8 43,24.6 43.3,25.2 C43.9,27.2 44.5,29.2 45.3,31.1 C46.5,34.7 51.3,36.6 55.1,34 C57,32.8 58.7,31.4 60.6,30 C61.8,29 62.1,27.5 62.2,25.9 C62,23.9 61.5,22.3 59.7,21 Z M73.1,39.9 C72.6,37.5 70.5,35.8 68,35.7 C66.5,35.7 65.1,35.9 64,36.9 C62.3,38.4 60.3,39.6 58.6,41.1 C56,43.5 56,47.7 58.6,50.1 C60.6,52 62.8,53.6 65.2,55.1 C65.9,55.6 67.2,55.5 68.2,55.5 C70.7,55.4 72.7,53.6 73.1,51.1 C73.5,49.2 73.6,47.5 73.8,45.6 C73.6,43.8 73.5,41.9 73.1,39.9 Z M25.5,49.8 C22.6,49.8 20.5,51.4 19.6,54.2 C19.2,55.3 19.4,56.3 19.8,57.4 C21.4,60.8 23.5,63.8 26.2,66.4 C27.8,68 29.6,68.4 31.6,67.8 C33.7,67.2 35.2,65.9 35.7,63.7 C36.2,61.6 36.9,59.6 37.4,57.6 C38.3,54.1 35.8,50.5 32.2,50 C30.7,49.8 29.1,49.8 27.6,49.8 C27.6,49.7 27.6,49.7 27.6,49.8 C26.9,49.7 26.3,49.7 25.5,49.8 Z M32.4,41.6 C35.9,41.1 38.5,37.5 37.8,34.1 C37.2,31.6 36.3,29.1 35.6,26.6 C35.5,26.1 35.1,25.7 34.7,25.4 C33,23.9 31.1,23.2 28.8,23.7 C28.3,23.8 27.7,24.1 27.3,24.4 C24.3,27 21.9,30.3 20.2,33.9 C18.6,37.4 21.3,41.7 25.1,41.7 C26,41.7 27,41.7 27.8,41.8 L27.8,41.8 C29.3,41.7 30.8,41.7 32.4,41.6 Z M42,45.7 C42,47.7 43.7,49.3 45.6,49.3 C47.7,49.3 49.3,47.7 49.3,45.8 C49.3,43.4 47.8,41.9 45.7,41.9 C43.5,42.1 42,43.6 42,45.7 Z" id="Shape" fill="#3ABDE5" fill-rule="nonzero"></path>
                        <path d="M112,97.7 C110.9,97.5 110,98.9 110.4,99.9 C110.6,100.3 111,100.5 111.3,100.8 C111.8,101.2 112,101.5 111.9,102.2 C111.7,103.2 110.9,103.9 109.7,103.3 C109.3,103.2 109,103.1 108.6,103.2 C107.5,103.6 106.6,104.7 107.6,105.9 C108.2,106.8 108,107.4 107.2,108 C106.5,108.5 106,108.5 105.2,107.9 C105,107.7 104.8,107.5 104.6,107.4 C104.4,107.3 104,107.2 103.7,107.2 C102.8,107.4 101.8,108.2 102.2,109.4 C102.3,109.6 102.3,109.8 102.3,109.9 C102.4,110.3 102.3,110.8 101.9,111 C100.9,111.7 100,111.7 99.4,110.5 C99.4,110.4 99.3,110.4 99.3,110.3 C98.9,109.7 98.4,109.4 97.7,109.6 C97,109.7 96.5,110.2 96.3,111 C96.3,111.2 96.3,111.5 96.2,111.6 C96.1,111.8 96,112.3 95.7,112.5 C95.2,112.9 94.6,112.9 94,112.6 C93.5,112.4 93.4,111.7 93.3,111.2 C93.2,111 93.2,110.6 92.9,110.3 C92.3,109.3 90.7,109.2 90,110.5 C89.4,111.9 88.3,111.7 87.4,111.1 C87,110.9 86.9,110.5 86.9,110.1 C86.9,109.7 87,109.5 87,109.2 C87.1,108.5 86.9,108 86.1,107.5 C85.4,107.1 84.7,107.3 84.1,107.7 C83.9,107.8 83.7,108.1 83.5,108.2 C83.1,108.6 82.8,108.6 82.4,108.3 C81.2,107.6 80.9,106.9 81.7,105.8 C81.7,105.8 81.8,105.8 81.8,105.7 C82,105.3 82.2,105 81.9,104.5 C81.4,103.4 80.5,103 79.4,103.5 C79,103.6 78.4,103.7 78.2,103.5 C77.3,102.9 76.7,101.6 78.1,100.8 C78.2,100.8 78.2,100.8 78.2,100.8 C79.3,100.1 79.1,98.8 78.4,98.2 C77.9,97.7 77.2,97.7 76.5,97.7 C75.8,97.7 75.5,97.5 75.3,96.8 C74.9,95.7 75.2,95.2 76.3,94.8 C76.4,94.8 76.5,94.7 76.7,94.7 C77.3,94.5 77.7,93.8 77.7,93.1 C77.7,92.4 77.3,91.9 76.6,91.6 C76.4,91.6 76,91.5 75.9,91.4 C75.7,91.2 75.3,90.8 75.3,90.5 C75.2,89.5 75.5,88.4 76.9,88.5 C77,88.5 77.3,88.5 77.4,88.5 C77.6,88.4 77.9,88.4 78.1,88.3 C79.2,87.6 79.2,86.2 78.2,85.4 C78.1,85.3 77.8,85.2 77.7,85 C77.5,84.8 77.3,84.3 77.5,83.9 C77.7,82.8 78.5,82.2 79.7,82.8 C80.8,83.3 81.7,82.6 82.1,81.7 C82.2,81.1 82.1,80.7 81.7,80.2 C81.3,79.8 81.2,79.3 81.5,78.8 C82.1,77.7 83.1,77.4 84.1,78.3 C84.5,78.7 85,78.9 85.3,78.9 C86.4,78.9 87.3,77.8 87,76.8 C86.9,76.6 86.9,76.4 86.9,76.2 C87,76 87,75.6 87.1,75.3 C88,74.3 89.2,74.4 89.8,75.5 C89.8,75.6 89.8,75.7 89.9,75.9 C90.1,76.3 90.5,76.6 91.1,76.6 C92.3,76.6 92.8,76 93,74.9 C93.1,73.9 93.6,73.7 94.7,73.7 C95.4,73.7 95.9,74.2 95.9,75.1 C95.9,76 96.4,76.5 97.3,76.7 C98,76.8 98.7,76.6 99,75.8 C99.1,75.6 99.2,75.4 99.4,75.2 C99.8,74.7 100.3,74.6 101,74.8 C101.7,75 102,75.4 102,76 C102,76.2 101.9,76.6 101.9,77 C101.8,77.6 101.9,78 102.4,78.4 C102.9,78.8 103.5,79.1 104.1,78.8 C104.3,78.7 104.6,78.6 104.8,78.3 C105.2,77.9 105.5,77.7 106,77.8 C107,78 107.9,79 107,80.3 C107,80.4 106.9,80.4 106.9,80.5 C106.5,81 106.7,81.6 107,82.1 C107.5,82.7 108,83.1 108.7,82.8 C108.9,82.8 109.3,82.7 109.6,82.6 C110.2,82.5 110.6,82.6 111,83.1 C111.6,83.8 111.9,84.7 110.8,85.5 C110.4,85.7 110.2,86 110.1,86.4 C109.9,87.5 110.6,88.6 111.8,88.6 C112,88.6 112.3,88.5 112.5,88.6 C112.9,88.7 113.2,88.8 113.4,89.1 C114,90.1 113.8,91.2 112.7,91.6 C112.6,91.6 112.5,91.7 112.3,91.7 C111.7,91.9 111.3,92.6 111.3,93.3 C111.3,94 111.7,94.5 112.4,94.8 C112.5,94.8 112.8,94.9 113,95 C113.6,95.4 113.9,95.7 113.7,96.4 C113.5,97.6 113.2,97.9 112,97.9 C112.1,97.9 112.1,97.9 112,97.9 C112.2,98 112.1,98 112,97.7 Z M101.6,100.7 C100.9,100.2 100.1,99.6 99.4,99.1 C98.2,98.4 97,98.2 95.8,98.9 C95.1,99.3 94.6,100 94.3,100.9 C93.9,101.9 93.6,102.9 93.3,103.9 C93.1,104.6 93.4,105.4 93.9,106 C94.6,107 95.6,107.1 96.8,106.9 C98.5,106.7 100.2,106 101.7,105.2 C102.3,104.8 102.7,104.1 102.7,102.7 C102.5,102 102.3,101.2 101.6,100.7 Z M101.3,81.4 C99.7,80.7 97.9,80 96.1,79.8 C95.2,79.8 94.6,79.9 94.1,80.4 C93.4,80.9 93.1,81.6 93,82.5 C93,82.7 93.1,83.1 93.2,83.5 C93.6,84.5 93.8,85.4 94.2,86.4 C94.8,88.1 97.2,89 99.1,87.8 C100.1,87.2 101,86.4 101.8,85.8 C102.5,85.3 102.7,84.6 102.7,83.8 C102.5,82.8 102.3,81.9 101.3,81.4 Z M107.9,90.6 C107.7,89.4 106.7,88.6 105.4,88.5 C104.8,88.5 104.2,88.6 103.5,89.1 C102.6,89.7 101.6,90.3 100.9,91.1 C99.7,92.2 99.7,94.3 100.9,95.5 C101.9,96.5 103,97.2 104.1,98 C104.3,98.1 105,98.1 105.5,98.1 C106.7,98 107.6,97.2 107.9,96 C108,95.1 108.1,94.3 108.3,93.4 C108.2,92.5 108.1,91.5 107.9,90.6 Z M84.8,95.4 C83.4,95.4 82.3,96.1 81.9,97.5 C81.8,98.1 81.8,98.6 82,99.1 C82.7,100.7 83.9,102.2 85.1,103.5 C85.8,104.2 86.7,104.4 87.7,104.1 C88.7,103.7 89.4,103.2 89.7,102.1 C89.9,101.1 90.3,100.1 90.6,99.1 C91,97.4 89.7,95.6 88,95.4 C87.3,95.3 86.5,95.3 85.8,95.3 L85.8,95.3 C85.4,95.2 85.1,95.2 84.8,95.4 Z M88.1,91.5 C89.8,91.3 91.1,89.5 90.7,87.9 C90.3,86.7 90,85.5 89.6,84.3 C89.6,84.1 89.4,83.8 89.2,83.7 C88.3,83 87.5,82.6 86.3,82.8 C86.1,82.9 85.8,83 85.6,83.2 C84.1,84.4 83,86.1 82.1,87.8 C81.4,89.4 82.6,91.5 84.5,91.5 C85,91.5 85.4,91.5 85.9,91.5 L85.9,91.5 C86.6,91.4 87.3,91.4 88.1,91.5 Z M92.8,93.4 C92.8,94.4 93.7,95.1 94.5,95.1 C95.5,95.1 96.2,94.2 96.2,93.4 C96.2,92.3 95.5,91.5 94.5,91.5 C93.4,91.6 92.8,92.4 92.8,93.4 Z" id="Shape" fill="#3ABDE5" fill-rule="nonzero"></path>
                        <path d="M106.1,64.4 L102.1,66.1" id="Shape" stroke="#A8BAD1" stroke-width="3.8868" stroke-linecap="round" stroke-linejoin="round"></path>
                        <path d="M109.6,72 L105.6,73.7" id="Shape" stroke="#A8BAD1" stroke-width="3.8868" stroke-linecap="round" stroke-linejoin="round"></path>
                        <path d="M102.4,56.4 L98.4,58.1" id="Shape" stroke="#A8BAD1" stroke-width="3.8868" stroke-linecap="round" stroke-linejoin="round"></path>
                        <path d="M98.4,48.7 L94.4,50.4" id="Shape" stroke="#A8BAD1" stroke-width="3.8868" stroke-linecap="round" stroke-linejoin="round"></path>
                        <path d="M94,39.7 L90.1,41.4" id="Shape" stroke="#A8BAD1" stroke-width="3.8868" stroke-linecap="round" stroke-linejoin="round"></path>
                        <path d="M64.6,100.4 L62.5,104.2" id="Shape" stroke="#A8BAD1" stroke-width="3.8868" stroke-linecap="round" stroke-linejoin="round"></path>
                        <path d="M56,96.5 L53.9,100.2" id="Shape" stroke="#A8BAD1" stroke-width="3.8868" stroke-linecap="round" stroke-linejoin="round"></path>
                        <path d="M47.2,92.6 L45.2,96.5" id="Shape" stroke="#A8BAD1" stroke-width="3.8868" stroke-linecap="round" stroke-linejoin="round"></path>
                        <path d="M38.6,88.9 L36.5,92.6" id="Shape" stroke="#A8BAD1" stroke-width="3.8868" stroke-linecap="round" stroke-linejoin="round"></path>
                        <path d="M73.2,104.8 L71.2,108.7" id="Shape" stroke="#A8BAD1" stroke-width="3.8868" stroke-linecap="round" stroke-linejoin="round"></path>
                        <path d="M88.8,28.6 L84.9,30.4" id="Shape" stroke="#A8BAD1" stroke-width="3.8868" stroke-linecap="round" stroke-linejoin="round"></path>
                    </g>
                </g>
            </g>
        </g>
    </g>
</svg>