<?xml version="1.0" encoding="UTF-8"?>
<svg width="488px" height="427px" viewBox="0 0 488 427" version="1.1" xmlns="http://www.w3.org/2000/svg" xmlns:xlink="http://www.w3.org/1999/xlink">
    <!-- Generator: Sketch 46 (44423) - http://www.bohemiancoding.com/sketch -->
    <title>Page 1</title>
    <desc>Created with Sketch.</desc>
    <defs>
        <polygon id="path-1" points="0 427 487.934 427 487.934 0.008 0 0.008"></polygon>
    </defs>
    <g id="Main" stroke="none" stroke-width="1" fill="none" fill-rule="evenodd">
        <g id="Page-1" transform="translate(0.000000, -1.000000)">
            <polygon id="Fill-1" fill="#FFFFFF" points="124.1073 69.7488 124.5543 69.7488 124.5543 69.2628"></polygon>
            <polygon id="Stroke-2" stroke="#006FF1" stroke-width="3" stroke-linecap="round" stroke-linejoin="round" points="124.1077 69.7491 124.5547 69.7481 124.5547 69.2631"></polygon>
            <g id="Group-82" transform="translate(0.000000, 0.992000)">
                <path d="M102.5548,83.2709 L128.0548,107.7709 L114.7168,107.7709 C105.5748,107.7709 102.5548,97.2709 102.5548,97.2709 L102.5548,83.2709 Z" id="Stroke-3" stroke="#006FF1" stroke-width="9" stroke-linecap="round" stroke-linejoin="round"></path>
                <path d="M62.8852,19.3816 L86.7392,46.1446" id="Stroke-5" stroke="#FFFFFF" stroke-width="1.04" stroke-linecap="round" stroke-linejoin="round"></path>
                <path d="M62.9447,28.074 L89.0417,52.655" id="Stroke-7" stroke="#FFFFFF" stroke-width="1.04" stroke-linecap="round" stroke-linejoin="round"></path>
                <path d="M111.2055,82.6041 L114.3095,82.6041 L114.3095,30.7391 L91.2405,30.7391 L91.2405,43.7591 C97.3365,48.3641 98.5065,63.4491 98.5065,63.4491 L91.2405,58.0501 L91.2405,82.6041 L94.3435,82.6041 L111.2055,82.6041 Z" id="Fill-9" fill="#FFFFFF"></path>
                <path d="M111.2055,82.6041 L114.3095,82.6041 L114.3095,30.7391 L91.2405,30.7391 L91.2405,43.7591 C97.3365,48.3641 98.5065,63.4491 98.5065,63.4491 L91.2405,58.0501 L91.2405,82.6041 L94.3435,82.6041 L111.2055,82.6041 Z" id="Stroke-11" stroke="#006FF1" stroke-width="3" stroke-linecap="round" stroke-linejoin="round"></path>
                <polygon id="Fill-13" fill="#FFFFFF" points="91.2404 30.7391 84.7224 30.7391 102.7744 13.4511 120.9084 30.7391 114.3094 30.7391"></polygon>
                <polygon id="Stroke-15" stroke="#006FF1" stroke-width="3" stroke-linecap="round" stroke-linejoin="round" points="91.2404 30.7391 84.7224 30.7391 102.7744 13.4511 120.9084 30.7391 114.3094 30.7391"></polygon>
                <path d="M65.907,41.4552 C63.527,43.0542 60.593,43.8512 57.522,43.4952 C53.283,43.0032 49.792,40.4392 47.934,36.9332 C46.457,37.9542 44.622,38.4702 42.698,38.2472 C38.494,37.7592 35.48,33.9552 35.968,29.7502 C36.159,28.1022 36.864,26.6422 37.899,25.4992 C32.97,23.3752 29.796,18.2132 30.447,12.6082 C31.24,5.7632 37.433,0.8582 44.277,1.6522 C48.117,2.0982 51.345,4.2432 53.3,7.2482 C54.415,3.8652 57.785,1.6152 61.461,2.0422 C65.49,2.5092 68.416,6.0222 68.226,10.0142 C69.356,9.5712 70.607,9.3892 71.897,9.5382 C76.102,10.0262 79.115,13.8302 78.627,18.0352 C78.28,21.0332 76.243,23.4162 73.582,24.3662" id="Stroke-17" stroke="#FFFFFF" stroke-width="3.12" stroke-linecap="round" stroke-linejoin="round"></path>
                <path d="M83.6625,51.6626 L72.5475,43.2256" id="Stroke-19" stroke="#FFFFFF" stroke-width="1.04" stroke-linecap="round" stroke-linejoin="round"></path>
                <path d="M109.9216,35.2229 L109.9216,70.9249" id="Stroke-21" stroke="#006FF1" stroke-width="1.04" stroke-linecap="round" stroke-linejoin="round"></path>
                <polygon id="Fill-23" fill="#FFFFFF" points="51.6208 302.1352 9.1038 302.1352 9.1038 262.5422 21.9268 250.8452 51.6208 250.8452"></polygon>
                <polygon id="Stroke-25" stroke="#006FF1" stroke-width="3" stroke-linecap="round" stroke-linejoin="round" points="51.6208 302.1352 9.1038 302.1352 9.1038 262.5422 21.9268 250.8452 51.6208 250.8452"></polygon>
                <polygon id="Fill-27" fill="#FFFFFF" points="44.017 307.2342 1.5 307.2342 1.5 267.6412 14.323 255.9442 44.017 255.9442"></polygon>
                <polygon id="Stroke-29" stroke="#006FF1" stroke-width="3" stroke-linecap="round" stroke-linejoin="round" points="44.017 307.2342 1.5 307.2342 1.5 267.6412 14.323 255.9442 44.017 255.9442"></polygon>
                <polyline id="Stroke-31" stroke="#006FF1" stroke-width="3" stroke-linecap="round" stroke-linejoin="round" points="1.5 267.6417 14.623 267.6417 14.623 255.9437"></polyline>
                <mask id="mask-2" fill="white">
                    <use xlink:href="#path-1"></use>
                </mask>
                <g id="Clip-34"></g>
                <polygon id="Stroke-33" stroke="#006FF1" stroke-width="2.887" stroke-linecap="round" stroke-linejoin="round" mask="url(#mask-2)" points="7.499 302.135 37.943 302.135 37.943 275.965 7.499 275.965"></polygon>
                <path d="M10.7233,275.9651 L10.7233,302.1351" id="Stroke-35" stroke="#006FF1" stroke-width="1.04" stroke-linecap="round" stroke-linejoin="round" mask="url(#mask-2)"></path>
                <path d="M7.4989,279.2645 L37.9429,279.2645" id="Stroke-36" stroke="#006FF1" stroke-width="1.04" stroke-linecap="round" stroke-linejoin="round" mask="url(#mask-2)"></path>
                <path d="M7.4989,283.0138 L37.9429,283.0138" id="Stroke-37" stroke="#006FF1" stroke-width="1.04" stroke-linecap="round" stroke-linejoin="round" mask="url(#mask-2)"></path>
                <path d="M7.4989,286.7631 L37.9429,286.7631" id="Stroke-38" stroke="#006FF1" stroke-width="1.04" stroke-linecap="round" stroke-linejoin="round" mask="url(#mask-2)"></path>
                <path d="M7.4989,290.4374 L37.9429,290.4374" id="Stroke-39" stroke="#006FF1" stroke-width="1.04" stroke-linecap="round" stroke-linejoin="round" mask="url(#mask-2)"></path>
                <path d="M7.4989,294.1867 L37.9429,294.1867" id="Stroke-40" stroke="#006FF1" stroke-width="1.04" stroke-linecap="round" stroke-linejoin="round" mask="url(#mask-2)"></path>
                <path d="M7.4989,297.936 L37.9429,297.936" id="Stroke-41" stroke="#006FF1" stroke-width="1.04" stroke-linecap="round" stroke-linejoin="round" mask="url(#mask-2)"></path>
                <path d="M19.6466,275.9651 L19.6466,302.1351" id="Stroke-42" stroke="#006FF1" stroke-width="1.04" stroke-linecap="round" stroke-linejoin="round" mask="url(#mask-2)"></path>
                <path d="M28.8699,275.9651 L28.8699,302.1351" id="Stroke-43" stroke="#006FF1" stroke-width="1.04" stroke-linecap="round" stroke-linejoin="round" mask="url(#mask-2)"></path>
                <path d="M45.1546,323.6915 L7.5866,323.6915 C6.8366,323.6915 6.1616,323.0915 6.1616,322.2665 L6.1616,321.7415 C6.1616,320.9925 6.7616,320.3175 7.5866,320.3175 L45.1546,320.3175 C45.9046,320.3175 46.5796,320.9175 46.5796,321.7415 L46.5796,322.2665 C46.5046,323.0915 45.9046,323.6915 45.1546,323.6915" id="Fill-44" fill="#FFFFFF" mask="url(#mask-2)"></path>
                <path d="M45.1546,323.6915 L7.5866,323.6915 C6.8366,323.6915 6.1616,323.0915 6.1616,322.2665 L6.1616,321.7415 C6.1616,320.9925 6.7616,320.3175 7.5866,320.3175 L45.1546,320.3175 C45.9046,320.3175 46.5796,320.9175 46.5796,321.7415 L46.5796,322.2665 C46.5046,323.0915 45.9046,323.6915 45.1546,323.6915 Z" id="Stroke-45" stroke="#006FF1" stroke-width="1.04" stroke-linecap="round" stroke-linejoin="round" mask="url(#mask-2)"></path>
                <polygon id="Fill-46" fill="#FFFFFF" mask="url(#mask-2)" points="10.436 371.982 42.38 371.982 42.38 324.441 10.436 324.441"></polygon>
                <polygon id="Stroke-47" stroke="#006FF1" stroke-width="2.996" stroke-linecap="round" stroke-linejoin="round" mask="url(#mask-2)" points="10.436 371.982 42.38 371.982 42.38 324.441 10.436 324.441"></polygon>
                <path d="M37.9559,336.964 L37.9559,367.708" id="Stroke-48" stroke="#006FF1" stroke-width="0.924" stroke-linecap="round" stroke-linejoin="round" mask="url(#mask-2)"></path>
                <path d="M5.4308,231.7709 L52.0058,231.7709 C52.0058,231.7709 51.2318,214.3619 35.6248,205.5859 L35.4438,205.4789 C39.9018,202.9549 42.9168,198.1259 42.9168,192.6369 C42.9168,184.5199 36.3368,177.9139 28.2198,177.9139 C20.1028,177.9139 13.5228,184.7529 13.5228,192.8689 C13.5228,198.2569 16.4308,202.7709 20.7528,205.7709 L20.7228,205.7709 C20.7228,205.7709 6.0368,213.7709 5.4308,231.7709" id="Fill-49" fill="#FFFFFF" mask="url(#mask-2)"></path>
                <path d="M5.4308,231.7709 L52.0058,231.7709 C52.0058,231.7709 51.2318,214.3619 35.6248,205.5859 L35.4438,205.4789 C39.9018,202.9549 42.9168,198.1259 42.9168,192.6369 C42.9168,184.5199 36.3368,177.9139 28.2198,177.9139 C20.1028,177.9139 13.5228,184.7529 13.5228,192.8689 C13.5228,198.2569 16.4308,202.7709 20.7528,205.7709 L20.7228,205.7709 C20.7228,205.7709 6.0368,213.7709 5.4308,231.7709 Z" id="Stroke-50" stroke="#006FF1" stroke-width="3" stroke-linecap="round" stroke-linejoin="round" mask="url(#mask-2)"></path>
                <path d="M147.976,425.5 L147.976,425.5 C145.93,425.5 144.256,423.826 144.256,421.78 L144.256,387.318 C144.256,385.272 145.93,383.598 147.976,383.598 C150.022,383.598 151.696,385.272 151.696,387.318 L151.696,421.78 C151.696,423.826 150.022,425.5 147.976,425.5" id="Fill-51" fill="#FFFFFF" mask="url(#mask-2)"></path>
                <path d="M147.976,425.5 L147.976,425.5 C145.93,425.5 144.256,423.826 144.256,421.78 L144.256,387.318 C144.256,385.272 145.93,383.598 147.976,383.598 C150.022,383.598 151.696,385.272 151.696,387.318 L151.696,421.78 C151.696,423.826 150.022,425.5 147.976,425.5 Z" id="Stroke-52" stroke="#006FF1" stroke-width="3" stroke-linecap="round" stroke-linejoin="round" mask="url(#mask-2)"></path>
                <path d="M423.0891,425.5 L423.0891,425.5 C421.0431,425.5 419.3691,423.826 419.3691,421.78 L419.3691,387.318 C419.3691,385.272 421.0431,383.598 423.0891,383.598 C425.1351,383.598 426.8091,385.272 426.8091,387.318 L426.8091,421.78 C426.8091,423.826 425.1351,425.5 423.0891,425.5" id="Fill-53" fill="#FFFFFF" mask="url(#mask-2)"></path>
                <path d="M423.0891,425.5 L423.0891,425.5 C421.0431,425.5 419.3691,423.826 419.3691,421.78 L419.3691,387.318 C419.3691,385.272 421.0431,383.598 423.0891,383.598 C425.1351,383.598 426.8091,385.272 426.8091,387.318 L426.8091,421.78 C426.8091,423.826 425.1351,425.5 423.0891,425.5 Z" id="Stroke-54" stroke="#006FF1" stroke-width="3" stroke-linecap="round" stroke-linejoin="round" mask="url(#mask-2)"></path>
                <path d="M133.0548,99.5613 C133.0548,99.5613 228.2288,110.3143 403.0548,100.0923 L402.7958,354.0903 C402.7958,354.0903 268.1968,407.0323 133.0548,348.2123 L133.0548,99.5613 Z" id="Fill-55" fill-opacity="0.4" fill="#FFFFFF" mask="url(#mask-2)"></path>
                <path d="M342.5548,352.1426 C231.5548,366.6516 158.5548,345.2706 158.5548,345.2706 L158.5548,105.2706 C250.5548,114.9716 342.5548,110.7696 342.5548,110.7696 L342.5548,352.1426 Z M443.7088,68.2666 L124.5548,68.7566 L124.5548,382.2706 L124.5548,383.2706 C124.5548,389.8886 196.1948,404.5486 284.7778,404.5486 C373.3618,404.5486 445.5548,389.8886 445.5548,383.2706 L445.5548,382.2706 L445.5548,68.2706 L443.7088,68.2666 Z" id="Fill-56" fill="#FFFFFF" mask="url(#mask-2)"></path>
                <path d="M342.5548,352.1426 C231.5548,366.6516 158.5548,345.2706 158.5548,345.2706 L158.5548,105.2706 C250.5548,114.9716 342.5548,110.7696 342.5548,110.7696 L342.5548,352.1426 Z M443.7088,68.2666 L124.5548,68.7566 L124.5548,382.2706 L124.5548,383.2706 C124.5548,389.8886 196.1948,404.5486 284.7778,404.5486 C373.3618,404.5486 445.5548,389.8886 445.5548,383.2706 L445.5548,382.2706 L445.5548,68.2706 L443.7088,68.2666 Z" id="Stroke-57" stroke="#006FF1" stroke-width="3" stroke-linecap="round" stroke-linejoin="round" mask="url(#mask-2)"></path>
                <path d="M445.5555,67.1862 C445.5555,60.5682 373.7445,55.2032 285.1615,55.2032 C196.5785,55.2032 124.7675,60.5682 124.7675,67.1862 C124.7675,73.8042 196.5785,79.1692 285.1615,79.1692 C373.7445,79.1692 445.5555,73.8042 445.5555,67.1862" id="Fill-58" fill="#FFFFFF" mask="url(#mask-2)"></path>
                <path d="M445.5555,67.1862 C445.5555,60.5682 373.7445,55.2032 285.1615,55.2032 C196.5785,55.2032 124.7675,60.5682 124.7675,67.1862 C124.7675,73.8042 196.5785,79.1692 285.1615,79.1692 C373.7445,79.1692 445.5555,73.8042 445.5555,67.1862 Z" id="Stroke-59" stroke="#006FF1" stroke-width="3" stroke-linecap="round" stroke-linejoin="round" mask="url(#mask-2)"></path>
                <path d="M444.6156,209.0249 C467.7126,209.0249 486.4356,227.7479 486.4356,250.8449 C486.4356,273.9409 467.7126,292.6649 444.6156,292.6649 C421.5196,292.6649 402.7956,273.9409 402.7956,250.8449 C402.7956,227.7479 421.5196,209.0249 444.6156,209.0249" id="Fill-60" fill="#FFFFFF" mask="url(#mask-2)"></path>
                <path d="M444.6156,209.0249 C467.7126,209.0249 486.4356,227.7479 486.4356,250.8449 C486.4356,273.9409 467.7126,292.6649 444.6156,292.6649 C421.5196,292.6649 402.7956,273.9409 402.7956,250.8449 C402.7956,227.7479 421.5196,209.0249 444.6156,209.0249 Z" id="Stroke-61" stroke="#006FF1" stroke-width="2.996" stroke-linecap="round" stroke-linejoin="round" mask="url(#mask-2)"></path>
                <path d="M444.6156,221.1135 C428.2796,221.1135 414.8846,234.3455 414.8846,250.8445 L474.3466,250.8445 C474.3466,234.3455 460.9516,221.1135 444.6156,221.1135" id="Fill-62" fill="#FFFFFF" mask="url(#mask-2)"></path>
                <path d="M444.6156,221.1135 C428.2796,221.1135 414.8846,234.3455 414.8846,250.8445 L474.3466,250.8445 C474.3466,234.3455 460.9516,221.1135 444.6156,221.1135 Z" id="Stroke-63" stroke="#006FF1" stroke-width="1.04" stroke-linecap="round" stroke-linejoin="round" mask="url(#mask-2)"></path>
                <path d="M444.6156,245.1273 C447.7736,245.1273 450.3336,247.6873 450.3336,250.8453 C450.3336,254.0023 447.7736,256.5623 444.6156,256.5623 C441.4576,256.5623 438.8976,254.0023 438.8976,250.8453 C438.8976,247.6873 441.4576,245.1273 444.6156,245.1273" id="Fill-64" fill="#F6B44B" mask="url(#mask-2)"></path>
                <path d="M426.8095,263.5869 C429.0655,263.5869 430.8935,265.4149 430.8935,267.6709 C430.8935,269.9259 429.0655,271.7549 426.8095,271.7549 C424.5535,271.7549 422.7255,269.9259 422.7255,267.6709 C422.7255,265.4149 424.5535,263.5869 426.8095,263.5869" id="Fill-65" fill="#F6B44B" mask="url(#mask-2)"></path>
                <path d="M444.6156,263.5869 C446.8716,263.5869 448.6996,265.4149 448.6996,267.6709 C448.6996,269.9259 446.8716,271.7549 444.6156,271.7549 C442.3596,271.7549 440.5316,269.9259 440.5316,267.6709 C440.5316,265.4149 442.3596,263.5869 444.6156,263.5869" id="Fill-66" fill="#F6B44B" mask="url(#mask-2)"></path>
                <path d="M462.4218,263.5869 C464.6778,263.5869 466.5058,265.4149 466.5058,267.6709 C466.5058,269.9259 464.6778,271.7549 462.4218,271.7549 C460.1658,271.7549 458.3378,269.9259 458.3378,267.6709 C458.3378,265.4149 460.1658,263.5869 462.4218,263.5869" id="Fill-67" fill="#F6B44B" mask="url(#mask-2)"></path>
                <path d="M467.0288,247.6917 L435.0438,252.3417" id="Stroke-68" stroke="#F6B44B" stroke-width="3" stroke-linecap="round" stroke-linejoin="round" mask="url(#mask-2)"></path>
                <polygon id="Fill-69" fill="#FFFFFF" mask="url(#mask-2)" points="448.6996 369.6268 424.6536 374.8088 424.6536 330.8928 448.6996 328.9388"></polygon>
                <polygon id="Stroke-70" stroke="#006FF1" stroke-width="3" stroke-linecap="round" stroke-linejoin="round" mask="url(#mask-2)" points="448.6996 369.6268 424.6536 374.8088 424.6536 330.8928 448.6996 328.9388"></polygon>
                <path d="M474.0548,378.7709 C469.9118,378.7709 466.5548,375.4139 466.5548,371.2709 L466.5548,366.4219 C466.5548,363.4969 464.5458,363.3059 464.5058,363.2989 L437.2208,358.6369 C433.1378,357.9409 430.4228,354.0659 431.1188,349.9829 C431.8168,345.8999 435.7068,343.1609 439.7888,343.8499 L469.0958,348.8879 C474.2518,349.6809 481.5548,354.3879 481.5548,364.2579 L481.5548,371.2709 C481.5548,375.4139 478.1978,378.7709 474.0548,378.7709" id="Fill-71" fill="#FFFFFF" mask="url(#mask-2)"></path>
                <path d="M474.0548,378.7709 C469.9118,378.7709 466.5548,375.4139 466.5548,371.2709 L466.5548,366.4219 C466.5548,363.4969 464.5458,363.3059 464.5058,363.2989 L437.2208,358.6369 C433.1378,357.9409 430.4228,354.0659 431.1188,349.9829 C431.8168,345.8999 435.7068,343.1609 439.7888,343.8499 L469.0958,348.8879 C474.2518,349.6809 481.5548,354.3879 481.5548,364.2579 L481.5548,371.2709 C481.5548,375.4139 478.1978,378.7709 474.0548,378.7709 Z" id="Stroke-72" stroke="#006FF1" stroke-width="3" stroke-linecap="round" stroke-linejoin="round" mask="url(#mask-2)"></path>
                <path d="M470.2988,354.0907 C470.2988,354.0907 475.7988,354.8907 475.5988,360.2907" id="Stroke-73" stroke="#006FF1" stroke-width="0.924" stroke-linecap="round" stroke-linejoin="round" mask="url(#mask-2)"></path>
                <path d="M436.5548,85.2709 L436.5548,194.2709" id="Stroke-74" stroke="#006FF1" stroke-linecap="round" stroke-linejoin="round" mask="url(#mask-2)"></path>
                <path d="M436.5548,302.2709 L436.5548,322.2709" id="Stroke-75" stroke="#006FF1" stroke-linecap="round" stroke-linejoin="round" mask="url(#mask-2)"></path>
                <path d="M418.5548,332.2709 L418.5548,372.2709" id="Stroke-76" stroke="#006FF1" stroke-linecap="round" stroke-linejoin="round" mask="url(#mask-2)"></path>
                <path d="M208.4613,221.1135 C208.4613,218.0645 205.9893,215.5925 202.9403,215.5925 C199.8913,215.5925 197.4203,218.0645 197.4203,221.1135 C197.4203,224.1625 199.8913,226.6345 202.9403,226.6345 C205.9893,226.6345 208.4613,224.1625 208.4613,221.1135 Z" id="Stroke-77" stroke="#FFFFFF" stroke-linecap="round" stroke-linejoin="round" mask="url(#mask-2)"></path>
                <path d="M247.1732,172.5178 C247.1732,170.9938 245.9372,169.7578 244.4132,169.7578 C242.8882,169.7578 241.6522,170.9938 241.6522,172.5178 C241.6522,174.0418 242.8882,175.2778 244.4132,175.2778 C245.9372,175.2778 247.1732,174.0418 247.1732,172.5178 Z" id="Stroke-78" stroke="#FFFFFF" stroke-linecap="round" stroke-linejoin="round" mask="url(#mask-2)"></path>
                <path d="M247.1732,207.6026 C247.1732,206.0786 245.9372,204.8426 244.4132,204.8426 C242.8882,204.8426 241.6522,206.0786 241.6522,207.6026 C241.6522,209.1276 242.8882,210.3626 244.4132,210.3626 C245.9372,210.3626 247.1732,209.1276 247.1732,207.6026" id="Fill-79" fill="#FFFFFF" mask="url(#mask-2)"></path>
                <path d="M216.3023,171.0458 C215.4893,169.7558 213.7843,169.3698 212.4953,170.1828 C211.2053,170.9958 210.8193,172.6998 211.6323,173.9898 C212.4453,175.2798 214.1493,175.6658 215.4393,174.8528 C216.7293,174.0398 217.1153,172.3358 216.3023,171.0458" id="Fill-80" fill="#FFFFFF" mask="url(#mask-2)"></path>
                <path d="M236.4572,136.6775 C235.9722,135.9085 234.9552,135.6775 234.1862,136.1625 C233.4172,136.6475 233.1872,137.6645 233.6712,138.4335 C234.1562,139.2025 235.1732,139.4335 235.9422,138.9485 C236.7112,138.4635 236.9422,137.4465 236.4572,136.6775" id="Fill-81" fill="#FFFFFF" mask="url(#mask-2)"></path>
            </g>
        </g>
    </g>
</svg>