<?xml version="1.0" encoding="UTF-8"?>
<svg width="504px" height="577px" viewBox="0 0 504 577" version="1.1" xmlns="http://www.w3.org/2000/svg" xmlns:xlink="http://www.w3.org/1999/xlink">
    <!-- Generator: Sketch 46 (44423) - http://www.bohemiancoding.com/sketch -->
    <title>cobalt_machine</title>
    <desc>Created with Sketch.</desc>
    <defs></defs>
    <g id="Main" stroke="none" stroke-width="1" fill="none" fill-rule="evenodd">
        <g id="Bison" transform="translate(-348.000000, -7712.000000)">
            <g id="cobalt_machine" transform="translate(349.000000, 7714.000000)">
                <g id="Group">
                    <path d="M467.1,237.2 L467.1,273.8 L467.1,273.8 C467.1,292 452.4,306.9 434.2,307 L403.6,307.2 L403,289 L430.7,289 L433.3,289 C441.7,289 448.5,282.2 448.5,273.8 L448.5,273.8 L448.5,237.2 L434.9,208.3 L480,208.3 L467.1,237.2 Z" id="Shape" stroke="#A8BBD2" stroke-width="3.3173" fill="#11304C" fill-rule="nonzero" stroke-linecap="round" stroke-linejoin="round"></path>
                    <path d="M462,240.4 L462,264" id="Shape" stroke="#A8BBD2" stroke-width="1.1515" stroke-linecap="round" stroke-linejoin="round"></path>
                    <path d="M463.8,232.3 L472.3,213.5" id="Shape" stroke="#A8BBD2" stroke-width="1.1515" stroke-linecap="round" stroke-linejoin="round"></path>
                    <g transform="translate(404.000000, 186.000000)" id="Shape" fill-rule="nonzero" fill="#F39C12">
                        <path d="M7,0.6 C8.4,0.6 9.7,0.9 10.7,1.5 C11.7,2.1 12.5,2.9 13.1,4 C13.6,5.1 13.9,6.3 13.9,7.8 C13.9,8.9 13.8,9.9 13.5,10.7 C13.2,11.6 12.8,12.3 12.2,13 C11.6,13.6 10.9,14.1 10.1,14.5 C9.3,14.8 8.3,15 7.2,15 C6.1,15 5.1,14.8 4.3,14.5 C3.5,14.2 2.7,13.7 2.1,13 C1.5,12.3 1.1,11.6 0.8,10.7 C0.5,9.8 0.4,8.8 0.4,7.8 C0.4,6.7 0.6,5.7 0.9,4.9 C1.2,4 1.7,3.2 2.2,2.6 C2.8,2 3.5,1.5 4.3,1.2 C5.1,0.9 5.9,0.6 7,0.6 Z M11,7.8 C11,6.8 10.8,5.9 10.5,5.1 C10.2,4.4 9.7,3.8 9.1,3.4 C8.5,3 7.8,2.8 7,2.8 C6.4,2.8 5.9,2.9 5.4,3.1 C4.9,3.3 4.5,3.6 4.2,4 C3.9,4.4 3.6,4.9 3.4,5.6 C3.2,6.2 3.1,6.9 3.1,7.7 C3.1,8.5 3.2,9.2 3.4,9.8 C3.6,10.4 3.9,11 4.2,11.4 C4.6,11.8 5,12.1 5.5,12.3 C6,12.5 6.5,12.6 7.1,12.6 C7.8,12.6 8.5,12.4 9.1,12.1 C9.7,11.7 10.2,11.2 10.5,10.4 C10.8,9.8 11,8.9 11,7.8 Z"></path>
                        <path d="M16.3,9 L16.3,2.3 C16.3,1.7 16.4,1.3 16.7,1 C17,0.7 17.3,0.6 17.7,0.6 C18.1,0.6 18.5,0.7 18.7,1 C19,1.3 19.1,1.7 19.1,2.3 L19.1,9.2 C19.1,10 19.2,10.6 19.4,11.2 C19.6,11.7 19.9,12.1 20.3,12.4 C20.7,12.7 21.4,12.8 22.2,12.8 C23.3,12.8 24.1,12.5 24.5,11.9 C25,11.3 25.2,10.4 25.2,9.2 L25.2,2.3 C25.2,1.7 25.3,1.3 25.6,1 C25.9,0.7 26.2,0.6 26.6,0.6 C27,0.6 27.4,0.7 27.6,1 C27.9,1.3 28,1.7 28,2.3 L28,9 C28,10.1 27.9,11 27.7,11.7 C27.5,12.4 27.1,13.1 26.5,13.6 C26,14.1 25.4,14.4 24.7,14.6 C24,14.8 23.2,14.9 22.3,14.9 C21.2,14.9 20.3,14.8 19.5,14.6 C18.7,14.4 18.1,14 17.6,13.5 C17.1,13 16.8,12.4 16.5,11.6 C16.4,11 16.3,10.1 16.3,9 Z"></path>
                        <path d="M34.9,8.8 L33.9,8.8 L33.9,13.3 C33.9,13.9 33.8,14.3 33.5,14.6 C33.2,14.9 32.9,15 32.5,15 C32.1,15 31.7,14.9 31.5,14.6 C31.3,14.3 31.1,13.9 31.1,13.3 L31.1,2.6 C31.1,2 31.2,1.6 31.5,1.3 C31.8,1 32.2,0.9 32.8,0.9 L37.4,0.9 C38,0.9 38.6,0.9 39,1 C39.5,1.1 39.9,1.2 40.2,1.3 C40.6,1.5 41,1.7 41.4,2.1 C41.7,2.4 42,2.8 42.2,3.3 C42.4,3.8 42.5,4.2 42.5,4.7 C42.5,5.7 42.2,6.6 41.6,7.2 C41,7.8 40.1,8.3 38.9,8.5 C39.4,8.8 39.9,9.2 40.3,9.7 C40.8,10.2 41.2,10.8 41.5,11.4 C41.9,12 42.1,12.5 42.3,13 C42.5,13.5 42.6,13.8 42.6,14 C42.6,14.2 42.5,14.4 42.4,14.5 C42.3,14.7 42.1,14.8 41.9,14.9 C41.7,15 41.5,15.1 41.2,15.1 C40.9,15.1 40.6,15 40.4,14.9 C40.2,14.8 40,14.6 39.8,14.3 C39.6,14.1 39.4,13.7 39.2,13.3 L38.1,11.4 C37.7,10.7 37.3,10.2 37,9.8 C36.7,9.4 36.4,9.2 36,9.1 C35.8,8.9 35.4,8.8 34.9,8.8 Z M36.5,3 L33.9,3 L33.9,6.8 L36.4,6.8 C37.1,6.8 37.6,6.7 38.1,6.6 C38.6,6.5 38.9,6.3 39.2,6 C39.4,5.7 39.6,5.3 39.6,4.8 C39.6,4.4 39.5,4.1 39.3,3.8 C39.1,3.5 38.8,3.3 38.5,3.1 C38.1,3 37.5,3 36.5,3 Z"></path>
                        <path d="M51.7,0.8 L55.4,0.8 C56.4,0.8 57.2,0.9 57.9,1.1 C58.6,1.3 59.2,1.6 59.8,2.1 C61.3,3.3 62,5.2 62,7.8 C62,8.6 61.9,9.4 61.8,10.1 C61.7,10.8 61.4,11.4 61.1,12 C60.8,12.6 60.4,13.1 59.9,13.5 C59.5,13.8 59.1,14.1 58.7,14.3 C58.3,14.5 57.8,14.6 57.3,14.7 C56.8,14.8 56.2,14.8 55.6,14.8 L51.9,14.8 C51.4,14.8 51,14.7 50.7,14.6 C50.4,14.4 50.3,14.2 50.2,13.9 C50.1,13.6 50.1,13.3 50.1,12.8 L50.1,2.6 C50.1,2 50.2,1.6 50.5,1.3 C50.6,1 51.1,0.8 51.7,0.8 Z M52.8,3.1 L52.8,12.6 L54.9,12.6 C55.4,12.6 55.7,12.6 56,12.6 C56.3,12.6 56.5,12.5 56.8,12.4 C57.1,12.3 57.3,12.2 57.5,12 C58.4,11.2 58.9,9.8 58.9,7.9 C58.9,6.5 58.7,5.5 58.3,4.8 C57.9,4.1 57.4,3.7 56.8,3.5 C56.2,3.3 55.5,3.2 54.6,3.2 L52.8,3.1 L52.8,3.1 Z"></path>
                        <path d="M72.5,13.2 L71.8,11.5 L66.1,11.5 L65.4,13.3 C65.1,14 64.9,14.5 64.7,14.7 C64.5,14.9 64.2,15.1 63.8,15.1 C63.4,15.1 63.1,15 62.9,14.7 C62.6,14.4 62.5,14.1 62.5,13.8 C62.5,13.6 62.5,13.4 62.6,13.2 C62.7,13 62.8,12.7 62.9,12.4 L66.5,3.4 C66.6,3.1 66.7,2.8 66.9,2.5 C67,2.1 67.2,1.8 67.4,1.6 C67.6,1.4 67.8,1.2 68,1 C68.3,0.9 68.6,0.8 69,0.8 C69.4,0.8 69.7,0.9 70,1 C70.3,1.1 70.5,1.3 70.6,1.6 C70.8,1.8 70.9,2.1 71,2.4 C71.1,2.7 71.3,3 71.4,3.5 L75,12.5 C75.3,13.2 75.4,13.7 75.4,14 C75.4,14.3 75.3,14.6 75,14.9 C74.7,15.2 74.4,15.3 74,15.3 C73.8,15.3 73.6,15.3 73.4,15.2 C73.2,15.1 73.1,15 73,14.9 C72.9,14.8 72.8,14.6 72.7,14.3 C72.7,13.7 72.6,13.4 72.5,13.2 Z M66.9,9.3 L71.1,9.3 L69,3.5 L66.9,9.3 Z"></path>
                        <path d="M84.9,3.2 L81.8,3.2 L81.8,13.3 C81.8,13.9 81.7,14.3 81.4,14.6 C81.1,14.9 80.8,15 80.4,15 C80,15 79.6,14.9 79.4,14.6 C79.1,14.3 79,13.9 79,13.3 L79,3.2 L76,3.2 C75.5,3.2 75.2,3.1 74.9,2.9 C74.7,2.7 74.5,2.4 74.5,2.1 C74.5,1.7 74.6,1.5 74.9,1.2 C75.1,1 75.5,0.9 76,0.9 L85,0.9 C85.5,0.9 85.9,1 86.1,1.2 C86.3,1.4 86.5,1.7 86.5,2 C86.5,2.3 86.4,2.6 86.1,2.8 C85.8,3.1 85.4,3.2 84.9,3.2 Z"></path>
                        <path d="M95.8,13.2 L95.1,11.5 L89.4,11.5 L88.7,13.3 C88.4,14 88.2,14.5 88,14.7 C87.8,14.9 87.5,15.1 87.1,15.1 C86.7,15.1 86.4,15 86.2,14.7 C85.9,14.4 85.8,14.1 85.8,13.8 C85.8,13.6 85.8,13.4 85.9,13.2 C86,13 86.1,12.7 86.2,12.4 L89.8,3.4 C89.9,3.1 90,2.8 90.2,2.5 C90.3,2.1 90.5,1.8 90.7,1.6 C90.9,1.4 91.1,1.2 91.3,1 C91.6,0.9 91.9,0.8 92.3,0.8 C92.7,0.8 93,0.9 93.3,1 C93.6,1.1 93.8,1.3 93.9,1.6 C94.1,1.8 94.2,2.1 94.3,2.4 C94.4,2.7 94.6,3 94.7,3.5 L98.3,12.5 C98.6,13.2 98.7,13.7 98.7,14 C98.7,14.3 98.6,14.6 98.3,14.9 C98,15.2 97.7,15.3 97.3,15.3 C97.1,15.3 96.9,15.3 96.7,15.2 C96.5,15.1 96.4,15 96.3,14.9 C96.2,14.8 96.1,14.6 96,14.3 C96,13.7 95.8,13.4 95.8,13.2 Z M90.2,9.3 L94.4,9.3 L92.3,3.5 L90.2,9.3 Z"></path>
                    </g>
                    <polygon id="Shape" stroke="#A8BBD2" stroke-width="3.3212" fill="#11304C" fill-rule="nonzero" stroke-linecap="round" stroke-linejoin="round" points="499.4 171 436.6 171 436.6 112.5 455.6 95.2 499.4 95.2"></polygon>
                    <polygon id="Shape" stroke="#A8BBD2" stroke-width="3.3212" fill="#11304C" fill-rule="nonzero" stroke-linecap="round" stroke-linejoin="round" points="488.2 178.5 425.4 178.5 425.4 120 444.3 102.8 488.2 102.8"></polygon>
                    <polyline id="Shape" stroke="#A8BBD2" stroke-width="3.3212" stroke-linecap="round" stroke-linejoin="round" points="425.4 120 444.8 120 444.8 102.8"></polyline>
                    <rect id="Rectangle-path" stroke="#A8BBD2" stroke-width="3.1963" stroke-linecap="round" stroke-linejoin="round" x="434.3" y="132.3" width="44.9" height="38.6"></rect>
                    <path d="M439,132.3 L439,171" id="Shape" stroke="#A8BBD2" stroke-width="1.1515" stroke-linecap="round" stroke-linejoin="round"></path>
                    <path d="M434.3,137.2 L479.2,137.2" id="Shape" stroke="#A8BBD2" stroke-width="1.1515" stroke-linecap="round" stroke-linejoin="round"></path>
                    <path d="M434.3,142.7 L479.2,142.7" id="Shape" stroke="#A8BBD2" stroke-width="1.1515" stroke-linecap="round" stroke-linejoin="round"></path>
                    <path d="M434.3,148.3 L479.2,148.3" id="Shape" stroke="#A8BBD2" stroke-width="1.1515" stroke-linecap="round" stroke-linejoin="round"></path>
                    <path d="M434.3,153.7 L479.2,153.7" id="Shape" stroke="#A8BBD2" stroke-width="1.1515" stroke-linecap="round" stroke-linejoin="round"></path>
                    <path d="M434.3,159.2 L479.2,159.2" id="Shape" stroke="#A8BBD2" stroke-width="1.1515" stroke-linecap="round" stroke-linejoin="round"></path>
                    <path d="M434.3,164.8 L479.2,164.8" id="Shape" stroke="#A8BBD2" stroke-width="1.1515" stroke-linecap="round" stroke-linejoin="round"></path>
                    <path d="M452.2,132.3 L452.2,171" id="Shape" stroke="#A8BBD2" stroke-width="1.1515" stroke-linecap="round" stroke-linejoin="round"></path>
                    <path d="M465.8,132.3 L465.8,171" id="Shape" stroke="#A8BBD2" stroke-width="1.1515" stroke-linecap="round" stroke-linejoin="round"></path>
                    <rect id="Rectangle-path" stroke="#A8BBD2" stroke-width="3.4545" fill="#11304C" fill-rule="nonzero" stroke-linecap="square" stroke-linejoin="round" x="218.3" y="384.2" width="27.2" height="28.6"></rect>
                    <polygon id="Shape" stroke="#A8BBD2" stroke-width="3.3172" fill="#11304C" fill-rule="nonzero" stroke-linecap="round" stroke-linejoin="round" points="246.8 208.3 246.8 154.8 278.4 108.4 190.1 108.4 219.7 154.7 219.7 208.3"></polygon>
                    <path d="M240.8,156.9 L240.8,202.3" id="Shape" stroke="#A8BBD2" stroke-width="1.1515" stroke-linecap="round" stroke-linejoin="round"></path>
                    <path d="M266.7,115.3 L243.9,147.8" id="Shape" stroke="#A8BBD2" stroke-width="1.1515" stroke-linecap="round" stroke-linejoin="round"></path>
                    <path d="M331.6,288.9 L326.3,288.9 C318.6,288.9 312.2,295.2 312.2,303 L312.2,316 L331,316 L331,307.3 L362,307.2 L361.4,289 L331.6,288.9 L331.6,288.9 Z" id="Shape" stroke="#A8BBD2" stroke-width="3.3172" fill="#11304C" fill-rule="nonzero" stroke-linecap="round" stroke-linejoin="round"></path>
                    <path d="M436.9,285.6 L450.4,306.6 C451.1,307.6 452.3,307.8 453.3,307.3 L454,306.9 C455,306.2 455.2,305 454.7,304 L441.2,283 C440.5,282 439.3,281.8 438.3,282.3 L437.6,282.7 C436.5,283.4 436.3,284.6 436.9,285.6 Z" id="Shape" stroke="#A8BBD2" stroke-width="1.1515" fill="#11304C" fill-rule="nonzero" stroke-linecap="round" stroke-linejoin="round"></path>
                    <circle id="Oval" stroke="#A8BBD2" stroke-width="3.3172" fill="#11304C" fill-rule="nonzero" stroke-linecap="round" stroke-linejoin="round" cx="382" cy="297.2" r="28.3"></circle>
                    <path d="M382,277 C370.9,277 361.9,286 361.9,297.1 L402.2,297.1 C402.1,286 393,277 382,277 Z" id="Shape" stroke="#A8BBD2" stroke-width="1.1515" fill="#11304C" fill-rule="nonzero" stroke-linecap="round" stroke-linejoin="round"></path>
                    <circle id="Oval" fill="#006FF1" fill-rule="nonzero" cx="382" cy="297.2" r="3.9"></circle>
                    <circle id="Oval" fill="#006FF1" fill-rule="nonzero" cx="369.9" cy="308.6" r="2.8"></circle>
                    <circle id="Oval" fill="#006FF1" fill-rule="nonzero" cx="382" cy="308.6" r="2.8"></circle>
                    <circle id="Oval" fill="#006FF1" fill-rule="nonzero" cx="394" cy="308.6" r="2.8"></circle>
                    <path d="M373.7,285.7 L386.4,303.5" id="Shape" stroke="#006FF1" stroke-width="1.1515" stroke-linecap="round" stroke-linejoin="round"></path>
                    <path d="M318.3,298.1 C318.3,298.1 320.5,293.7 326.9,293.2" id="Shape" stroke="#FFFFFF" stroke-width="1.0228" stroke-linecap="round" stroke-linejoin="round"></path>
                    <polygon id="Shape" stroke="#A8BBD2" stroke-width="3.3172" fill="#11304C" fill-rule="nonzero" stroke-linecap="round" stroke-linejoin="round" points="254.8 376.5 245.5 384.2 245.5 412.9 254.8 420.6 263.8 412.9 263.8 383.9"></polygon>
                    <path d="M254.6,420.6 L254.6,376.5" id="Shape" stroke="#A8BBD2" stroke-width="1.1515" stroke-linecap="round" stroke-linejoin="round"></path>
                    <polygon id="Shape" stroke="#A8BBD2" stroke-width="3.3172" fill="#11304C" fill-rule="nonzero" stroke-linecap="round" stroke-linejoin="round" points="273.6 376.5 264.4 384.2 264.4 412.9 273.6 420.6 282.8 412.9 282.8 383.9"></polygon>
                    <path d="M273.6,420.6 L273.6,376.5" id="Shape" stroke="#A8BBD2" stroke-width="1.1515" stroke-linecap="round" stroke-linejoin="round"></path>
                    <path d="M260.6,386.4 L256.4,383.2" id="Shape" stroke="#A8BBD2" stroke-width="1.1515" stroke-linecap="round" stroke-linejoin="round"></path>
                    <path d="M279.6,386.5 L275.5,383.2" id="Shape" stroke="#A8BBD2" stroke-width="1.1515" stroke-linecap="round" stroke-linejoin="round"></path>
                    <polygon id="Shape" stroke="#A8BBD2" stroke-width="3.3172" fill="#11304C" fill-rule="nonzero" stroke-linecap="round" stroke-linejoin="round" points="292 376.5 282.8 384.2 282.8 412.9 292 420.6 301.1 412.9 301.1 383.9"></polygon>
                    <path d="M292,420.6 L292,376.5" id="Shape" stroke="#A8BBD2" stroke-width="1.1515" stroke-linecap="round" stroke-linejoin="round"></path>
                    <path d="M297.9,386.4 L293.7,383.2" id="Shape" stroke="#A8BBD2" stroke-width="1.1515" stroke-linecap="round" stroke-linejoin="round"></path>
                    <path d="M229.8,411.3 L229.8,405" id="Shape" stroke="#A8BBD2" stroke-width="1.1515" stroke-linecap="round" stroke-linejoin="round"></path>
                    <path d="M232.6,411.3 L232.6,405" id="Shape" stroke="#A8BBD2" stroke-width="1.1515" stroke-linecap="round" stroke-linejoin="round"></path>
                    <path d="M235.6,411.3 L235.6,405" id="Shape" stroke="#A8BBD2" stroke-width="1.1515" stroke-linecap="round" stroke-linejoin="round"></path>
                    <path d="M334.9,422.8 C310.5,422.8 302.4,441.6 302.4,441.6 L403.9,441.6 C403.9,441.6 395.6,422.8 371.4,422.8" id="Shape" stroke="#A8BBD2" stroke-width="3.4545" fill="#11304C" fill-rule="nonzero" stroke-linecap="round" stroke-linejoin="round"></path>
                    <path d="M80.4,268.2 L80.4,268.2 C81.8,268.2 82.9,267.2 83.2,265.9 L86.2,248.3 L89.1,265.8 C89.3,267.1 90.4,268.1 91.9,268.1 L91.9,268.1 C93.2,268.1 94.4,267.1 94.7,265.8 L97.4,248.5 L100.2,265.8 C100.4,267.1 101.5,268.1 103,268.1 L103,268.1 C104.3,268.1 105.5,267.1 105.8,265.8 L108.3,248.5 L111.4,265.9 C111.6,267.2 112.8,268.1 114.2,268.2 C115.5,268.2 116.7,267.2 116.9,265.9 L119.9,247.9 L123,265.9 C123.2,267.2 124.3,268.2 125.8,268.2 C127.1,268.2 128.3,267.2 128.5,265.9 L131,249.1 L133.7,265.9 C133.9,267.2 135,268.2 136.5,268.2 L136.5,268.2 C137.8,268.2 139,267.2 139.3,265.9 L142.2,246.7 L143.2,251.2 C143.5,252.7 145,253.6 146.5,253.3 C147.9,253 148.9,251.5 148.6,250 L144.4,230.6 C144.1,229.3 143,228.4 141.6,228.4 C140.2,228.4 139.2,229.4 138.9,230.7 L136.4,247.3 L133.6,230.5 C133.4,229.2 132.3,228.2 130.8,228.2 L130.8,228.2 C129.5,228.2 128.3,229.2 128,230.5 L125.3,247.9 L122.3,230.5 C122.1,229.2 121,228.2 119.5,228.2 L119.5,228.2 C118.2,228.2 117,229.2 116.7,230.5 L113.7,249 L110.5,230.8 C110.3,229.5 109.1,228.5 107.7,228.5 L107.7,228.5 C106.4,228.5 105.2,229.5 105,230.8 L102.6,247.2 L99.8,230.5 C99.6,229.2 98.5,228.2 97,228.2 L97,228.2 C95.7,228.2 94.5,229.2 94.2,230.5 L91.5,247.8 L88.7,230.9 C88.5,229.6 87.4,228.6 85.9,228.6 L85.9,228.6 C84.6,228.6 83.4,229.6 83.1,230.9 L79.7,251.5 L78.8,247.6 C78.5,246.2 76.9,245.2 75.5,245.5 C74.1,245.8 73.1,247.4 73.4,248.8 L77.5,266 C78,267.3 79.1,268.2 80.4,268.2 Z" id="Shape" fill="#006FF1" fill-rule="nonzero"></path>
                    <path d="M3.8,302.6 L33.7,302.6 C35.4,302.6 36.7,301.3 36.7,299.6 L36.7,299.6 C36.7,297.9 35.4,296.6 33.7,296.6 L3.8,296.6 C2.1,296.6 0.8,297.9 0.8,299.6 L0.8,299.6 C0.8,301.3 2.2,302.6 3.8,302.6 Z" id="Shape" stroke="#A8BBD2" stroke-width="3.3172" fill="#11304C" fill-rule="nonzero" stroke-linecap="round" stroke-linejoin="round"></path>
                    <path d="M3.8,296.6 L33.7,296.6 C35.4,296.6 36.7,295.3 36.7,293.6 L36.7,293.6 C36.7,291.9 35.4,290.6 33.7,290.6 L3.8,290.6 C2.1,290.6 0.8,291.9 0.8,293.6 L0.8,293.6 C0.8,295.3 2.2,296.6 3.8,296.6 Z" id="Shape" stroke="#A8BBD2" stroke-width="3.3172" fill="#11304C" fill-rule="nonzero" stroke-linecap="round" stroke-linejoin="round"></path>
                    <path d="M3.8,290.7 L33.7,290.7 C35.4,290.7 36.7,289.4 36.7,287.7 L36.7,287.7 C36.7,286 35.4,284.7 33.7,284.7 L3.8,284.7 C2.1,284.7 0.8,286 0.8,287.7 L0.8,287.7 C0.8,289.3 2.2,290.7 3.8,290.7 Z" id="Shape" stroke="#A8BBD2" stroke-width="3.3172" fill="#11304C" fill-rule="nonzero" stroke-linecap="round" stroke-linejoin="round"></path>
                    <path d="M3.8,284.7 L33.7,284.7 C35.4,284.7 36.7,283.4 36.7,281.7 L36.7,281.7 C36.7,280 35.4,278.7 33.7,278.7 L3.8,278.7 C2.1,278.7 0.8,280 0.8,281.7 L0.8,281.7 C0.8,283.4 2.2,284.7 3.8,284.7 Z" id="Shape" stroke="#A8BBD2" stroke-width="3.3172" fill="#11304C" fill-rule="nonzero" stroke-linecap="round" stroke-linejoin="round"></path>
                    <path d="M3.8,278.7 L33.7,278.7 C35.4,278.7 36.7,277.4 36.7,275.7 L36.7,275.7 C36.7,274 35.4,272.7 33.7,272.7 L3.8,272.7 C2.1,272.7 0.8,274 0.8,275.7 L0.8,275.7 C0.8,277.4 2.2,278.7 3.8,278.7 Z" id="Shape" stroke="#A8BBD2" stroke-width="3.3172" fill="#11304C" fill-rule="nonzero" stroke-linecap="round" stroke-linejoin="round"></path>
                    <path d="M3.8,272.7 L33.7,272.7 C35.4,272.7 36.7,271.4 36.7,269.7 L36.7,269.7 C36.7,268 35.4,266.7 33.7,266.7 L3.8,266.7 C2.1,266.7 0.8,268 0.8,269.7 L0.8,269.7 C0.8,271.4 2.2,272.7 3.8,272.7 Z" id="Shape" stroke="#A8BBD2" stroke-width="3.3172" fill="#11304C" fill-rule="nonzero" stroke-linecap="round" stroke-linejoin="round"></path>
                    <path d="M146.5,228.1 L146.5,266.3 C146.5,268 147.8,269.3 149.5,269.3 L149.5,269.3 C151.2,269.3 152.5,268 152.5,266.3 L152.5,228.1 C152.5,226.4 151.2,225.1 149.5,225.1 L149.5,225.1 C147.8,225.1 146.5,226.4 146.5,228.1 Z" id="Shape" stroke="#A8BBD2" stroke-width="3.3172" fill="#11304C" fill-rule="nonzero" stroke-linecap="round" stroke-linejoin="round"></path>
                    <path d="M70.1,228.1 L70.1,266.3 C70.1,268 71.4,269.3 73.1,269.3 L73.1,269.3 C74.8,269.3 76.1,268 76.1,266.3 L76.1,228.1 C76.1,226.4 74.8,225.1 73.1,225.1 L73.1,225.1 C71.4,225.1 70.1,226.4 70.1,228.1 Z" id="Shape" stroke="#A8BBD2" stroke-width="3.3172" fill="#11304C" fill-rule="nonzero" stroke-linecap="round" stroke-linejoin="round"></path>
                    <path d="M83.9,309.9 L41.1,309.9 L30.4,309.9 L30.4,302.8 L7.6,302.8 L7.6,311.3 C7.6,311.3 5.9,331.2 32.6,331.4 C44.3,331.5 59.9,331.5 84.1,331.4" id="Shape" stroke="#A8BBD2" stroke-width="3.3172" fill="#11304C" fill-rule="nonzero" stroke-linecap="round" stroke-linejoin="round"></path>
                    <path d="M30.4,266.2 L30.4,259.1 L41.1,259.1 L70.1,259 L70.1,237.3 C58.4,237.3 37.9,237.4 32.5,237.4 C5.8,237.6 7.6,257.7 7.6,257.7 L7.6,266.2" id="Shape" stroke="#A8BBD2" stroke-width="3.3172" fill="#11304C" fill-rule="nonzero" stroke-linecap="round" stroke-linejoin="round"></path>
                    <path d="M21.8,243.3 C21.8,243.3 16.4,243.6 14.1,249.7" id="Shape" stroke="#A8BBD2" stroke-width="1.1515" stroke-linecap="round" stroke-linejoin="round"></path>
                    <path d="M12.8,317.8 C12.8,317.8 14,323.1 20.4,324.4" id="Shape" stroke="#A8BBD2" stroke-width="1.1515" stroke-linecap="round" stroke-linejoin="round"></path>
                    <g transform="translate(152.000000, 208.000000)">
                        <rect id="Rectangle-path" stroke="#A8BBD2" stroke-width="3.3172" fill="#11304C" fill-rule="nonzero" stroke-linecap="round" stroke-linejoin="round" x="0.8" y="0.6" width="167.6" height="77.4"></rect>
                        <path d="M24.6,12.2 L24.6,66.3 C24.6,67.5 23.6,68.5 22.4,68.5 L22.4,68.5 C21.2,68.5 20.2,67.5 20.2,66.3 L20.2,12.2 C20.2,11 21.2,10 22.4,10 L22.4,10 C23.6,10 24.6,11 24.6,12.2 Z" id="Shape" stroke="#A8BBD2" stroke-width="1.1515" stroke-linecap="round" stroke-linejoin="round"></path>
                        <path d="M43.1,12.2 L43.1,66.3 C43.1,67.5 42.1,68.5 40.9,68.5 L40.9,68.5 C39.7,68.5 38.7,67.5 38.7,66.3 L38.7,12.2 C38.7,11 39.7,10 40.9,10 L40.9,10 C42,10 43.1,11 43.1,12.2 Z" id="Shape" stroke="#A8BBD2" stroke-width="1.1515" stroke-linecap="round" stroke-linejoin="round"></path>
                        <path d="M61.5,12.2 L61.5,66.3 C61.5,67.5 60.5,68.5 59.3,68.5 L59.3,68.5 C58.1,68.5 57.1,67.5 57.1,66.3 L57.1,12.2 C57.1,11 58.1,10 59.3,10 L59.3,10 C60.5,10 61.5,11 61.5,12.2 Z" id="Shape" stroke="#A8BBD2" stroke-width="1.1515" stroke-linecap="round" stroke-linejoin="round"></path>
                        <path d="M91.4,19.4 L149.5,19.4" id="Shape" stroke="#A8BBD2" stroke-width="1.1515" stroke-linecap="round" stroke-linejoin="round"></path>
                        <path d="M91.4,24.3 L149.5,24.3" id="Shape" stroke="#A8BBD2" stroke-width="1.1515" stroke-linecap="round" stroke-linejoin="round"></path>
                        <path d="M91.4,29.5 L149.5,29.5" id="Shape" stroke="#A8BBD2" stroke-width="1.1515" stroke-linecap="round" stroke-linejoin="round"></path>
                        <path d="M91.4,34.4 L149.5,34.4" id="Shape" stroke="#A8BBD2" stroke-width="1.1515" stroke-linecap="round" stroke-linejoin="round"></path>
                        <path d="M91.4,39.4 L149.5,39.4" id="Shape" stroke="#A8BBD2" stroke-width="1.1515" stroke-linecap="round" stroke-linejoin="round"></path>
                        <path d="M91.4,44.5 L149.5,44.5" id="Shape" stroke="#A8BBD2" stroke-width="1.1515" stroke-linecap="round" stroke-linejoin="round"></path>
                        <path d="M91.4,49.4 L149.5,49.4" id="Shape" stroke="#A8BBD2" stroke-width="1.1515" stroke-linecap="round" stroke-linejoin="round"></path>
                        <path d="M91.4,54.4 L149.5,54.4" id="Shape" stroke="#A8BBD2" stroke-width="1.1515" stroke-linecap="round" stroke-linejoin="round"></path>
                        <path d="M91.4,59.5 L149.5,59.5" id="Shape" stroke="#A8BBD2" stroke-width="1.1515" stroke-linecap="round" stroke-linejoin="round"></path>
                        <circle id="Oval" fill="#006FF1" fill-rule="nonzero" cx="22.4" cy="25.4" r="6.8"></circle>
                        <path d="M18.2,23.5 C18.2,23.5 19,21.2 21.9,20.7" id="Shape" stroke="#A8BBD2" stroke-width="1.1515" stroke-linecap="round" stroke-linejoin="round"></path>
                        <circle id="Oval" fill="#006FF1" fill-rule="nonzero" cx="40.8" cy="56" r="6.8"></circle>
                        <path d="M36.7,54.1 C36.7,54.1 37.5,51.8 40.4,51.3" id="Shape" stroke="#A8BBD2" stroke-width="1.1515" stroke-linecap="round" stroke-linejoin="round"></path>
                        <circle id="Oval" fill="#006FF1" fill-rule="nonzero" cx="59.1" cy="18.7" r="6.8"></circle>
                        <path d="M55,16.8 C55,16.8 55.8,14.5 58.7,14" id="Shape" stroke="#A8BBD2" stroke-width="1.1515" stroke-linecap="round" stroke-linejoin="round"></path>
                    </g>
                    <g transform="translate(78.000000, 276.000000)">
                        <path d="M55.6,116.3 L54.8,116.3 C49.6,116.3 45.3,112 45.3,106.8 L45.3,93.2 C45.3,92.2 44.5,91.4 43.5,91.4 C42.4,91.4 41.5,92.3 41.5,93.4 L41.5,103.7 C41.5,108.6 37.5,112.7 32.5,112.7 C27.6,112.7 23.8,108.7 23.8,104 L23.8,78.9 C23.8,77 25.3,75.5 27.2,75.5 C29.1,75.5 30.6,77 30.6,78.9 L30.6,104 C30.6,105 31.5,105.9 32.5,105.9 C33.6,105.9 34.5,105 34.5,103.9 L34.5,93.6 C34.5,88.6 38.5,84.6 43.5,84.6 C48.3,84.6 52.1,88.5 52.1,93.2 L52.1,106.8 C52.1,108.2 53.3,109.5 54.8,109.5 L55.7,109.5 C57,109.5 58.1,108.4 58.1,107.1 L58.1,77.5 C58.1,72.5 62.1,68.5 67.1,68.5 L78.4,68.5 C80.3,68.5 81.8,70 81.8,71.9 C81.8,73.8 80.3,75.3 78.4,75.3 L67,75.3 C65.9,75.3 65,76.2 65,77.3 L65,106.9 C64.9,112.1 60.8,116.3 55.6,116.3 Z" id="Shape" fill="#006FF1" fill-rule="nonzero"></path>
                        <path d="M58.5,5.1 L3,5.1 C1.9,5.1 0.9,4.2 0.9,3 L0.9,2.2 C0.9,1.1 1.8,0.1 3,0.1 L58.5,0.1 C59.6,0.1 60.6,1 60.6,2.2 L60.6,3 C60.5,4.3 59.6,5.1 58.5,5.1 Z" id="Shape" stroke="#A8BBD2" stroke-width="1.1515" fill="#11304C" fill-rule="nonzero" stroke-linecap="round" stroke-linejoin="round"></path>
                        <rect id="Rectangle-path" stroke="#A8BBD2" stroke-width="3.3172" fill="#11304C" fill-rule="nonzero" stroke-linecap="round" stroke-linejoin="round" x="7.3" y="6.2" width="47.2" height="70.2"></rect>
                        <path d="M47.9,24.7 L47.9,70.1" id="Shape" stroke="#A8BBD2" stroke-width="1.0228" stroke-linecap="round" stroke-linejoin="round"></path>
                        <path d="M161.6,108.2 L142,108.2 L142,66.1 C142,64.7 140.9,63.6 139.5,63.6 L138,63.6 L138,69.6 C138,81.7 128.3,91.4 116.2,91.4 L103,91.4 C90,91.4 79.6,80.9 79.8,68 L79.8,68 C79.9,54.7 90.6,44 103.9,44 L118.5,44 L118.5,39.4 L54.6,39.4 L54.6,19.8 L127.4,19.8 C133.3,19.8 137.9,24.6 137.9,30.3 L137.9,43.9 L144.1,43.9 C153.7,43.9 161.6,51.8 161.6,61.4 L161.6,108.2 L161.6,108.2 Z M103.5,71.8 L113.9,71.8 C116.4,71.8 118.4,69.8 118.4,67.3 L118.4,63.5 L103.2,63.5 C101,63.5 99.2,65.3 99.2,67.5 L99.2,67.5 C99.2,69.9 101,71.8 103.5,71.8 Z" id="Shape" stroke="#A8BBD2" stroke-width="3.3172" fill="#11304C" fill-rule="nonzero" stroke-linecap="round" stroke-linejoin="round"></path>
                        <path d="M126.8,24.8 C126.8,24.8 131.9,24.9 131.9,30.1" id="Shape" stroke="#A8BBD2" stroke-width="1.0228" stroke-linecap="round" stroke-linejoin="round"></path>
                        <path d="M148.7,51.3 C148.7,51.3 154.8,52.2 154.6,58.2" id="Shape" stroke="#A8BBD2" stroke-width="1.0228" stroke-linecap="round" stroke-linejoin="round"></path>
                        <path d="M118.3,44 L118.3,63.6" id="Shape" stroke="#A8BBD2" stroke-width="3.4545" stroke-linecap="round" stroke-linejoin="round"></path>
                        <path d="M137.9,44 L137.9,63.6" id="Shape" stroke="#A8BBD2" stroke-width="3.4545" stroke-linecap="round" stroke-linejoin="round"></path>
                    </g>
                    <g transform="translate(234.000000, 262.000000)" id="Shape">
                        <path d="M2.3,78.5 L27.8,24.8 C36.8,7.9 55.5,-1.5 74.4,1.4 L74.4,1.4 C92.9,4.3 106.5,20.4 106.1,39.2 L106.1,42 C105.8,61 93.5,74.4 76.1,82.2 L28.1,104.7 L28.1,104.7 C11.7,112.4 -5.3,95.4 2.3,79 L2.3,78.5 Z" stroke="#A8BBD2" stroke-width="3.3172" fill="#11304C" fill-rule="nonzero" stroke-linecap="round" stroke-linejoin="round"></path>
                        <path d="M33.5,49.7 C33.4,49.7 33.4,49.7 33.3,49.7 C31.2,49.8 30.8,49.1 30.3,46.9 C30.1,45.8 30.6,45 31.6,44.5 C32,44.3 32.4,44.2 32.8,43.9 C34.1,43.5 34.9,42.5 34.9,41 C34.9,39.7 34.2,38.6 33,38.1 C32.8,38 32.6,37.9 32.3,37.8 C30.3,37 29.8,35 31,33.4 C31.3,33 32,32.7 32.5,32.5 C32.9,32.4 33.4,32.5 33.8,32.5 C36,32.6 37.5,30.5 36.9,28.3 C36.8,27.7 36.1,27.2 35.7,26.8 C33.7,25.4 34.2,23.8 35.1,22.5 C35.8,21.6 36.5,21.4 37.5,21.6 C38.1,21.7 38.6,21.9 39.2,22.2 C40.6,22.8 41.5,21.9 42.4,20.8 C43.2,19.8 43.2,18.8 42.6,17.7 C42.5,17.6 42.5,17.5 42.4,17.4 C40.7,15.2 42.3,13.4 44.2,12.8 C45.2,12.5 45.9,13.1 46.5,13.7 C46.9,14 47.4,14.5 47.8,14.7 C49,15.3 50,14.7 51,13.9 C51.8,13.3 52.1,12.5 52,11.5 C51.9,10.8 51.9,10.2 51.8,9.6 C51.8,8.4 52.4,7.8 53.7,7.3 C55,6.9 55.9,7.1 56.6,8 C56.8,8.3 57,8.8 57.3,9.1 C58.1,10.4 59.2,10.9 60.5,10.6 C62.2,10.3 63,9.3 63,7.7 C63.1,6 63.9,5.2 65.3,5.2 C67.4,5.1 68.2,5.6 68.5,7.5 C68.8,9.6 69.6,10.6 71.9,10.7 C73,10.7 73.7,10 74.2,9.3 C74.3,9.1 74.4,8.9 74.5,8.7 C75.6,6.7 78,6.5 79.4,8.4 C79.7,8.8 79.7,9.4 79.7,9.9 C79.7,10.2 79.6,10.7 79.5,11 C79.2,12.9 80.6,14.9 82.6,14.8 C83.4,14.8 84.1,14.2 84.8,13.7 C86.6,12.2 88.6,12.5 89.6,14.6 C90,15.5 89.8,16.4 89.2,17.3 C88.6,18.1 88.2,19 88.6,20.1 C89.3,21.6 90.9,23.2 92.9,22.1 C95.2,20.9 96.4,22.2 97.1,24.2 C97.3,25 97.1,25.7 96.5,26.3 C96.2,26.5 95.9,26.9 95.6,27.1 C93.8,28.5 93.8,31 95.7,32.3 C96,32.5 96.5,32.6 96.9,32.7 C97.2,32.8 97.6,32.7 97.9,32.7 C100.4,32.4 101,34.5 100.8,36.2 C100.7,36.8 100,37.3 99.6,37.7 C99.3,38 98.7,38 98.3,38.3 C97,38.7 96.3,39.7 96.3,41.1 C96.3,42.3 97,43.5 98.2,44 C98.4,44.1 98.6,44.1 98.9,44.2 C100.9,44.9 101.3,45.9 100.8,47.9 C100.5,49.1 99.8,49.6 98.6,49.6 C97.4,49.6 96.2,49.5 95.3,50.6 C94.3,51.8 93.8,54 95.6,55.4 L95.7,55.5 C98.2,57.2 97,59.3 95.5,60.4 C94.9,60.7 93.8,60.6 93.2,60.4 C91.1,59.6 89.5,60.1 88.7,62.2 C88.3,63.1 88.5,63.7 88.8,64.5 C88.9,64.6 89,64.7 89,64.8 C90.4,66.8 89.9,68.1 87.8,69.3 C87.1,69.6 86.5,69.6 85.8,69.2 C85.4,68.9 85,68.5 84.6,68.2 C83.5,67.2 82.4,67.1 81.1,67.9 C79.7,68.7 79.2,69.7 79.6,71.2 C79.7,71.6 79.8,72.2 79.8,72.6 C79.8,73.3 79.6,73.9 79,74.4 C77.3,75.5 75.5,75.7 74.4,73.3 C73.4,70.9 70.4,71.1 69.1,72.7 C68.8,73.1 68.5,73.8 68.4,74.4 C68.3,75.4 68.1,76.4 67.1,76.8 C66,77.2 64.9,77.2 63.9,76.6 C63.5,76.3 63.2,75.5 63,74.9 C62.9,74.6 62.9,74.2 62.8,73.8 C62.6,72.5 61.6,71.6 60.3,71.4 C59,71.2 57.9,71.7 57.2,72.8 C57.1,72.9 57.1,73.1 57,73.2 C55.9,75.5 54.3,75.4 52.5,74.1 C51.7,73.7 51.5,72.9 51.7,72 C51.8,71.8 51.8,71.4 51.8,71.2 C52.5,68.9 50.7,67.5 49.1,67.2 C48.5,67.1 48,67.3 47.4,67.5 C47,67.6 46.6,68.1 46.3,68.3 C45,69.5 44.1,69.5 42.8,68.5 C41.4,67.4 41.1,66.2 42.2,64.7 C43.9,62.5 42.4,60.3 40.4,59.6 C39.8,59.4 39,59.6 38.4,59.8 C36.1,60.9 34.9,59.7 34.2,57.7 C33.9,56.6 34.5,55.8 35.3,55 C35.9,54.6 36.5,54 36.7,53.3 C37.5,51.5 35.8,48.9 33.8,49.1 C33.8,49.7 33.6,49.7 33.5,49.7 Z M51.1,58.2 C51.1,60.6 51.8,62.1 53,62.7 C55.8,64.4 58.8,65.4 61.9,65.9 C64,66.3 65.8,66.1 67.2,64.2 C68.1,63.1 68.9,61.8 68.4,60.2 C68,58.3 67.3,56.5 66.6,54.8 C66,53.3 65.3,51.9 63.7,51 C61.4,49.8 59.3,50 57.2,51.4 C55.9,52.3 54.5,53.4 53.2,54.3 C51.6,55.7 51.1,57.1 51.1,58.2 Z M51.1,23.7 C51.2,25.1 51.4,26.5 52.5,27.4 C54.2,28.6 55.7,29.8 57.4,30.9 C60.8,33.2 65,31.6 66.1,28.4 C66.8,26.7 67.3,25 67.9,23.2 C68.1,22.6 68.5,22 68.3,21.3 C68.2,19.8 67.5,18.4 66.3,17.4 C65.3,16.5 64.2,16.2 62.8,16.3 C59.4,16.7 56.3,17.7 53.3,19.4 C51.6,20.5 51.2,21.9 51.1,23.7 Z M40.7,41.3 C40.9,43 41,44.5 41.4,46.2 C41.7,48.4 43.5,50 45.7,50.1 C46.6,50.1 47.7,50.2 48.4,49.8 C50.5,48.5 52.5,47 54.3,45.4 C56.6,43.3 56.6,39.5 54.3,37.4 C52.9,36.1 51.1,35 49.5,33.6 C48.5,32.7 47.3,32.5 46,32.5 C43.8,32.6 41.9,34.2 41.5,36.3 C41,38 40.9,39.6 40.7,41.3 Z M81.8,44.8 C81.8,44.7 81.8,44.7 81.8,44.8 C80.5,44.8 79,44.8 77.7,45 C74.5,45.4 72.3,48.7 73.1,51.8 C73.5,53.6 74.2,55.3 74.6,57.2 C75,59.2 76.4,60.3 78.3,60.9 C80.1,61.5 81.6,61.1 83.1,59.7 C85.4,57.4 87.3,54.7 88.7,51.7 C89.1,50.7 89.3,49.8 88.9,48.8 C88.1,46.4 86.2,44.9 83.7,44.9 C83,44.8 82.4,44.8 81.8,44.8 Z M81.6,37.8 L81.6,37.8 C82.4,37.7 83.3,37.7 84,37.7 C87.3,37.7 89.8,33.8 88.3,30.7 C86.8,27.5 84.6,24.6 82,22.3 C81.7,22 81.1,21.7 80.7,21.6 C78.7,21.2 77,21.8 75.5,23.1 C75.2,23.4 74.8,23.8 74.7,24.2 C74,26.4 73.3,28.6 72.7,30.8 C72,33.8 74.4,37 77.5,37.4 C79,37.7 80.3,37.7 81.6,37.8 Z M65.7,38 C63.8,38 62.5,39.3 62.5,41.4 C62.5,43.1 63.9,44.5 65.8,44.5 C67.5,44.5 69,43.1 69,41.3 C69,39.4 67.7,38.1 65.7,38 Z" fill="#006FF1" fill-rule="nonzero"></path>
                        <path d="M6.6,87.8 C6.5,87.8 6.5,87.8 6.6,87.8 C5.5,87.8 5.3,87.6 5.1,86.5 C5,85.9 5.2,85.6 5.8,85.3 C6,85.2 6.2,85.1 6.4,85.1 C7.1,84.9 7.4,84.4 7.4,83.8 C7.4,83.2 7.1,82.6 6.5,82.4 C6.4,82.4 6.3,82.3 6.2,82.3 C5.2,82 5,81 5.5,80.1 C5.6,79.9 5.9,79.8 6.3,79.7 C6.5,79.6 6.7,79.7 7,79.7 C8.1,79.7 8.8,78.7 8.5,77.7 C8.4,77.4 8.2,77.1 7.8,76.9 C6.8,76.2 7,75.5 7.6,74.8 C7.9,74.4 8.3,74.2 8.8,74.4 C9,74.5 9.4,74.6 9.6,74.6 C10.3,74.8 10.7,74.5 11.1,73.9 C11.4,73.5 11.5,72.9 11.2,72.5 C11.2,72.4 11.1,72.4 11.1,72.3 C10.3,71.2 11.1,70.3 12,70.1 C12.4,70 12.8,70.2 13.1,70.5 C13.3,70.7 13.5,70.8 13.8,70.9 C14.4,71.2 14.9,70.9 15.3,70.6 C15.7,70.3 15.9,69.9 15.7,69.4 C15.7,69.1 15.6,68.7 15.6,68.5 C15.6,67.9 15.8,67.6 16.5,67.4 C17.2,67.2 17.6,67.3 17.9,67.7 C18,67.9 18.1,68 18.2,68.3 C18.5,69 19.1,69.2 19.7,69.1 C20.5,68.9 20.9,68.4 20.9,67.7 C20.9,66.9 21.3,66.5 22,66.5 C23,66.5 23.4,66.7 23.5,67.6 C23.6,68.6 24.1,69.1 25.2,69.1 C25.8,69.1 26.1,68.8 26.3,68.4 C26.4,68.3 26.4,68.2 26.4,68.1 C27,67.1 28.1,67 28.8,67.9 C28.9,68.1 28.9,68.5 29,68.7 C29,68.9 29,69 28.9,69.3 C28.7,70.2 29.5,71.2 30.4,71.2 C30.7,71.2 31.2,71 31.5,70.6 C32.4,69.8 33.3,70 33.8,71 C34,71.4 33.9,71.9 33.6,72.2 C33.3,72.6 33.2,73 33.3,73.5 C33.6,74.3 34.4,74.9 35.4,74.5 C36.5,73.9 37.2,74.5 37.4,75.5 C37.5,75.8 37.4,76.3 37.2,76.5 C37.1,76.6 36.9,76.7 36.8,76.8 C35.9,77.5 35.9,78.7 36.9,79.3 C37.1,79.4 37.3,79.4 37.6,79.5 C37.7,79.5 37.9,79.5 38,79.5 C39.2,79.4 39.5,80.4 39.4,81.3 C39.4,81.5 39.1,81.9 38.8,82.1 C38.7,82.2 38.4,82.3 38.1,82.3 C37.4,82.5 37.1,83 37.1,83.6 C37.1,84.3 37.4,84.8 38,85 C38.1,85 38.2,85.1 38.3,85.1 C39.3,85.4 39.5,85.9 39.2,86.9 C39,87.5 38.8,87.7 38.1,87.7 C37.5,87.7 36.9,87.7 36.4,88.1 C35.8,88.7 35.6,89.8 36.6,90.4 C36.6,90.4 36.6,90.4 36.7,90.4 C37.9,91.2 37.4,92.3 36.6,92.8 C36.4,93 35.8,92.9 35.5,92.8 C34.5,92.4 33.7,92.7 33.3,93.7 C33.1,94.1 33.2,94.5 33.4,94.8 C33.4,94.9 33.5,94.9 33.5,94.9 C34.2,95.9 33.9,96.4 32.8,97.1 C32.5,97.3 32.1,97.3 31.8,97 C31.6,96.9 31.5,96.7 31.2,96.6 C30.6,96.2 30.1,96 29.4,96.4 C28.7,96.8 28.5,97.3 28.6,97.9 C28.6,98.1 28.7,98.3 28.7,98.7 C28.7,99.1 28.6,99.4 28.3,99.6 C27.5,100.2 26.5,100.3 26,99 C25.4,97.8 24,97.9 23.5,98.8 C23.3,99 23.3,99.4 23.2,99.6 C23.1,100 23,100.6 22.5,100.8 C21.9,101 21.4,101 21,100.7 C20.8,100.6 20.7,100.1 20.6,99.9 C20.5,99.8 20.5,99.6 20.5,99.3 C20.4,98.6 19.9,98.2 19.3,98.1 C18.6,98 18.2,98.2 17.9,98.8 C17.9,98.9 17.8,98.9 17.8,99 C17.2,100.1 16.5,100.1 15.6,99.4 C15.3,99.2 15.2,98.7 15.3,98.4 C15.3,98.3 15.3,98.2 15.4,98 C15.7,96.9 14.8,96.2 14.1,96 C13.9,96 13.5,96.1 13.3,96.2 C13.1,96.3 13,96.4 12.7,96.6 C12,97.2 11.6,97.2 10.9,96.7 C10.2,96.1 10,95.6 10.6,94.8 C11.5,93.7 10.7,92.7 9.7,92.4 C9.4,92.3 9,92.4 8.7,92.5 C7.6,93.1 6.9,92.4 6.7,91.5 C6.6,90.9 6.8,90.6 7.3,90.3 C7.5,90.1 7.9,89.9 8.1,89.5 C8.4,88.6 7.7,87.3 6.7,87.5 C6.7,87.8 6.6,87.8 6.6,87.8 Z M15.1,91.9 C15.1,93.1 15.4,93.8 16,94.1 C17.3,94.9 18.8,95.4 20.3,95.6 C21.3,95.8 22.2,95.7 22.8,94.8 C23.2,94.2 23.6,93.6 23.4,92.9 C23.2,92 22.8,91.1 22.5,90.2 C22.3,89.4 21.8,88.8 21.2,88.4 C20.1,87.8 19.1,88 18,88.6 C17.3,89 16.7,89.6 16,90 C15.4,90.7 15.2,91.3 15.1,91.9 Z M15.1,75.2 C15.1,75.9 15.2,76.5 15.9,77 C16.7,77.6 17.4,78.2 18.3,78.8 C20,79.9 22.1,79.1 22.6,77.6 C22.9,76.7 23.2,75.9 23.5,75.1 C23.6,74.8 23.7,74.4 23.7,74.2 C23.6,73.4 23.4,72.8 22.7,72.3 C22.3,71.9 21.7,71.7 20.9,71.7 C19.2,71.9 17.7,72.5 16.3,73.1 C15.4,73.5 15.2,74.3 15.1,75.2 Z M10.1,83.7 C10.2,84.5 10.3,85.2 10.4,86 C10.6,87.1 11.4,87.8 12.5,87.9 C12.9,87.9 13.5,87.9 13.7,87.8 C14.7,87.1 15.7,86.5 16.6,85.6 C17.7,84.6 17.7,82.7 16.6,81.7 C15.9,81 15.1,80.5 14.3,79.9 C13.7,79.5 13.2,79.3 12.6,79.3 C11.5,79.4 10.6,80.1 10.4,81.2 C10.2,82 10.1,82.9 10.1,83.7 Z M30.1,85.3 L30.1,85.3 C29.4,85.3 28.8,85.3 28.1,85.4 C26.6,85.6 25.4,87.2 25.8,88.7 C26,89.6 26.4,90.5 26.6,91.4 C26.8,92.4 27.5,92.8 28.4,93.2 C29.3,93.4 30.1,93.3 30.7,92.6 C31.8,91.5 32.8,90.2 33.5,88.7 C33.7,88.3 33.7,87.8 33.6,87.3 C33.3,86.1 32.3,85.4 31.1,85.4 C30.7,85.3 30.4,85.3 30.1,85.3 Z M30.1,82 L30.1,82 C30.5,82 30.9,82 31.3,82 C33,82 34.1,80.1 33.4,78.7 C32.6,77.2 31.6,75.7 30.3,74.6 C30.1,74.5 29.9,74.4 29.6,74.3 C28.6,74.1 27.8,74.4 27.1,75.1 C27,75.2 26.8,75.4 26.8,75.7 C26.5,76.8 26.1,77.8 25.8,78.9 C25.5,80.3 26.6,81.9 28.1,82.1 C28.7,81.9 29.4,81.9 30.1,82 Z M22.3,82 C21.4,82 20.8,82.7 20.8,83.7 C20.8,84.5 21.5,85.2 22.3,85.2 C23.1,85.2 23.8,84.5 23.8,83.7 C23.9,82.8 23.3,82.1 22.3,82 Z" fill="#006FF1" fill-rule="nonzero"></path>
                        <path d="M12,57.9 L15.6,59.4" stroke="#A8BBD2" stroke-width="3.4545" stroke-linecap="round" stroke-linejoin="round"></path>
                        <path d="M8.9,64.6 L12.5,66.2" stroke="#A8BBD2" stroke-width="3.4545" stroke-linecap="round" stroke-linejoin="round"></path>
                        <path d="M15.3,50.8 L18.9,52.3" stroke="#A8BBD2" stroke-width="3.4545" stroke-linecap="round" stroke-linejoin="round"></path>
                        <path d="M18.9,43.9 L22.4,45.5" stroke="#A8BBD2" stroke-width="3.4545" stroke-linecap="round" stroke-linejoin="round"></path>
                        <path d="M22.7,36 L26.3,37.5" stroke="#A8BBD2" stroke-width="3.4545" stroke-linecap="round" stroke-linejoin="round"></path>
                        <path d="M48.9,89.9 L50.8,93.3" stroke="#A8BBD2" stroke-width="3.4545" stroke-linecap="round" stroke-linejoin="round"></path>
                        <path d="M56.5,86.4 L58.4,89.8" stroke="#A8BBD2" stroke-width="3.4545" stroke-linecap="round" stroke-linejoin="round"></path>
                        <path d="M64.4,83 L66.1,86.4" stroke="#A8BBD2" stroke-width="3.4545" stroke-linecap="round" stroke-linejoin="round"></path>
                        <path d="M72,79.7 L73.9,83" stroke="#A8BBD2" stroke-width="3.4545" stroke-linecap="round" stroke-linejoin="round"></path>
                        <path d="M41.2,93.9 L43,97.3" stroke="#A8BBD2" stroke-width="3.4545" stroke-linecap="round" stroke-linejoin="round"></path>
                        <path d="M27.4,26.1 L30.8,27.7" stroke="#A8BBD2" stroke-width="3.4545" stroke-linecap="round" stroke-linejoin="round"></path>
                    </g>
                    <path d="M340.9,415.4 L340.9,408.3 L330.2,408.3 L301.2,408.2 L301.2,386.5 C312.9,386.5 333.4,386.6 338.8,386.6 C365.5,386.8 363.7,406.9 363.7,406.9 L363.7,415.4" id="Shape" stroke="#A8BBD2" stroke-width="3.4545" fill="#11304C" fill-rule="nonzero" stroke-linecap="round" stroke-linejoin="round"></path>
                    <path d="M349.4,392.5 C349.4,392.5 354.8,392.8 357.1,398.9" id="Shape" stroke="#A8BBD2" stroke-width="1.1515" stroke-linecap="round" stroke-linejoin="round"></path>
                    <path d="M372.1,422.8 L333.9,422.8 C332.2,422.8 330.9,421.5 330.9,419.8 L330.9,419.8 C330.9,418.1 332.2,416.8 333.9,416.8 L372.1,416.8 C373.8,416.8 375.1,418.1 375.1,419.8 L375.1,419.8 C375.1,421.5 373.8,422.8 372.1,422.8 Z" id="Shape" stroke="#A8BBD2" stroke-width="3.4545" fill="#11304C" fill-rule="nonzero" stroke-linecap="round" stroke-linejoin="round"></path>
                    <g transform="translate(181.000000, 86.000000)" id="Shape" fill-rule="nonzero" fill="#F39C12">
                        <path d="M4.6,12.9 L4.6,8.6 L1.3,3.5 C1,3.1 0.9,2.7 0.6,2.4 C0.5,2.2 0.4,2 0.4,1.7 C0.4,1.4 0.5,1.1 0.7,0.9 C0.9,0.7 1.3,0.6 1.6,0.6 C1.9,0.6 2.3,0.7 2.5,0.9 C2.7,1.1 2.9,1.6 3.4,2.1 L5.9,6.2 L8.4,2.1 C8.5,1.9 8.7,1.7 8.7,1.4 C8.7,1.1 8.9,1.1 9,1 C9.1,0.9 9.2,0.8 9.4,0.7 C9.5,0.6 9.7,0.6 10,0.6 C10.3,0.6 10.7,0.7 10.9,0.9 C11.1,1.1 11.2,1.3 11.2,1.7 C11.2,1.9 11.1,2.1 11,2.4 C10.9,2.7 10.7,3 10.4,3.4 L7.1,8.6 L7.1,12.9 C7.1,13.5 7,13.9 6.8,14.1 C6.6,14.3 6.2,14.5 5.8,14.5 C5.4,14.5 5,14.4 4.8,14.1 C4.8,13.9 4.6,13.5 4.6,12.9 Z"></path>
                        <path d="M19.1,0.6 C20.5,0.6 21.6,0.9 22.6,1.5 C23.6,2.1 24.4,2.8 24.9,3.9 C25.5,4.9 25.7,6.2 25.7,7.6 C25.7,8.6 25.6,9.6 25.3,10.5 C25,11.4 24.6,12 24.1,12.7 C23.5,13.4 22.9,13.8 22,14.1 C21.1,14.4 20.2,14.5 19.2,14.5 C18.1,14.5 17.2,14.3 16.3,13.9 C15.4,13.6 14.8,13.1 14.2,12.5 C13.6,11.8 13.2,11.2 13,10.3 C12.7,9.4 12.6,8.5 12.6,7.5 C12.6,6.5 12.7,5.5 13,4.6 C13.3,3.7 13.8,3.1 14.3,2.4 C14.9,1.8 15.5,1.3 16.4,1 C17.1,0.8 18.1,0.6 19.1,0.6 Z M22.9,7.6 C22.9,6.6 22.8,5.7 22.5,5.1 C22.2,4.3 21.7,3.9 21.2,3.4 C20.6,3.1 20,2.8 19.2,2.8 C18.6,2.8 18.2,2.9 17.7,3.1 C17.3,3.3 16.8,3.7 16.5,4 C16.2,4.3 15.9,4.9 15.7,5.5 C15.5,6.1 15.4,6.8 15.4,7.6 C15.4,8.4 15.5,9 15.7,9.7 C15.9,10.4 16.1,10.8 16.5,11.2 C16.8,11.6 17.3,11.9 17.7,12.1 C18.1,12.3 18.7,12.4 19.2,12.4 C19.9,12.4 20.5,12.2 21.1,11.8 C21.7,11.5 22.1,10.9 22.5,10.1 C22.9,9.6 22.9,8.6 22.9,7.6 Z"></path>
                        <path d="M28,8.8 L28,2.3 C28,1.7 28.1,1.3 28.3,1.1 C28.5,0.9 28.9,0.7 29.3,0.7 C29.7,0.7 30.1,0.8 30.3,1.1 C30.5,1.3 30.6,1.8 30.6,2.3 L30.6,8.9 C30.6,9.7 30.7,10.2 30.8,10.8 C31,11.4 31.2,11.7 31.7,12 C32.1,12.3 32.7,12.4 33.5,12.4 C34.6,12.4 35.3,12.1 35.7,11.5 C36.1,10.9 36.4,10.1 36.4,9 L36.4,2.4 C36.4,1.8 36.5,1.4 36.7,1.2 C36.9,1 37.3,0.8 37.7,0.8 C38.1,0.8 38.5,0.9 38.7,1.2 C38.9,1.4 39,1.9 39,2.4 L39,8.9 C39,10 38.9,10.8 38.7,11.6 C38.5,12.4 38.1,12.9 37.6,13.5 C37.2,13.9 36.5,14.3 35.9,14.5 C35.2,14.7 34.5,14.8 33.6,14.8 C32.6,14.8 31.7,14.7 30.9,14.5 C30.1,14.3 29.6,13.9 29,13.5 C28.6,13.1 28.2,12.4 28,11.7 C28.1,10.7 28,9.8 28,8.8 Z"></path>
                        <path d="M46,8.6 L45,8.6 L45,12.9 C45,13.5 44.9,13.9 44.7,14.1 C44.5,14.3 44.1,14.5 43.7,14.5 C43.3,14.5 42.9,14.4 42.7,14.1 C42.5,13.8 42.4,13.4 42.4,12.9 L42.4,2.5 C42.4,1.9 42.5,1.5 42.8,1.2 C43,1 43.5,0.8 44.1,0.8 L48.5,0.8 C49.2,0.8 49.6,0.8 50,0.9 C50.4,0.9 50.8,1 51.2,1.2 C51.6,1.4 52,1.6 52.3,2 C52.6,2.3 52.9,2.7 53.1,3.1 C53.3,3.5 53.3,4 53.3,4.5 C53.3,5.5 53,6.3 52.4,6.9 C51.8,7.6 51,7.9 49.9,8.2 C50.3,8.4 50.9,8.9 51.3,9.3 C51.7,9.7 52.2,10.3 52.5,10.8 C52.8,11.3 53.2,11.9 53.3,12.3 C53.5,12.7 53.6,13.1 53.6,13.3 C53.6,13.5 53.5,13.6 53.4,13.9 C53.3,14.1 53.2,14.2 53,14.3 C52.8,14.4 52.6,14.4 52.3,14.4 C52,14.4 51.7,14.3 51.5,14.2 C51.3,14.1 51.1,13.9 50.9,13.6 C50.8,13.4 50.6,13 50.2,12.6 L49.1,10.8 C48.7,10.1 48.3,9.6 48,9.3 C47.7,9 47.3,8.7 47,8.6 C46.9,8.7 46.5,8.6 46,8.6 Z M47.5,2.9 L45,2.9 L45,6.6 L47.4,6.6 C48.1,6.6 48.6,6.5 49.1,6.4 C49.5,6.3 49.9,6.1 50.1,5.8 C50.3,5.6 50.4,5.1 50.4,4.7 C50.4,4.4 50.3,4 50.1,3.7 C49.9,3.4 49.7,3.3 49.3,3 C49.2,2.9 48.5,2.9 47.5,2.9 Z"></path>
                        <path d="M62.2,0.8 L65.7,0.8 C66.6,0.8 67.5,0.9 68,1 C68.6,1.1 69.2,1.4 69.8,2 C71.2,3.2 71.9,5 71.9,7.4 C71.9,8.2 71.8,8.9 71.7,9.6 C71.6,10.3 71.4,10.8 71,11.4 C70.6,12 70.3,12.4 69.9,12.8 C69.6,13.1 69.1,13.4 68.7,13.6 C68.3,13.8 67.8,13.9 67.4,14 C67,14.1 66.4,14.1 65.7,14.1 L62.2,14.1 C61.8,14.1 61.3,14 61.1,13.9 C60.9,13.8 60.7,13.6 60.7,13.2 C60.6,13 60.6,12.5 60.6,12.1 L60.6,2.2 C60.6,1.6 60.7,1.2 61,0.9 C61.2,1 61.7,0.8 62.2,0.8 Z M63.4,3.1 L63.4,12.3 L65.5,12.3 C65.9,12.3 66.3,12.3 66.6,12.3 C66.9,12.3 67.2,12.2 67.4,12.1 C67.6,12 68,11.9 68.1,11.7 C69,10.9 69.4,9.6 69.4,7.7 C69.4,6.4 69.2,5.4 68.8,4.7 C68.5,4 67.9,3.6 67.4,3.5 C66.8,3.3 66.1,3.3 65.3,3.3 L63.4,3.3 L63.4,3.1 L63.4,3.1 Z"></path>
                        <path d="M82.4,12.8 L81.7,11.1 L76.3,11.1 L75.6,12.9 C75.4,13.6 75.2,14 74.9,14.2 C74.7,14.4 74.5,14.5 74,14.5 C73.7,14.5 73.3,14.4 73.1,14.2 C72.9,14 72.7,13.6 72.7,13.3 C72.7,13.1 72.7,13 72.8,12.7 C72.9,12.5 72.9,12.3 73.1,11.9 L76.5,3.2 C76.6,3 76.7,2.6 76.8,2.3 C76.9,2 77.1,1.6 77.2,1.4 C77.3,1.2 77.5,1 77.9,0.8 C78.1,0.7 78.5,0.6 78.9,0.6 C79.2,0.6 79.6,0.7 79.9,0.8 C80.1,0.9 80.3,1.1 80.6,1.4 C80.7,1.6 80.9,1.8 81,2.2 C81.1,2.4 81.2,2.8 81.4,3.2 L84.9,11.9 C85.1,12.6 85.3,13 85.3,13.3 C85.3,13.6 85.2,13.9 84.9,14.2 C84.7,14.4 84.3,14.6 83.9,14.6 C83.7,14.6 83.5,14.6 83.3,14.5 C83.1,14.4 83,14.3 83,14.2 C82.9,14.1 82.8,13.9 82.7,13.6 C82.6,13.2 82.5,13 82.4,12.8 Z M77,9 L81,9 L79,3.5 L77,9 Z"></path>
                        <path d="M94.5,3.2 L91.5,3.2 L91.5,12.9 C91.5,13.5 91.4,13.9 91.2,14.1 C91,14.3 90.6,14.5 90.2,14.5 C89.8,14.5 89.4,14.4 89.2,14.1 C89,13.8 88.9,13.4 88.9,12.9 L88.9,3.2 L85.9,3.2 C85.5,3.2 85.1,3.1 84.9,2.9 C84.7,2.7 84.6,2.5 84.6,2.1 C84.6,1.8 84.7,1.4 84.9,1.3 C85.1,1.2 85.5,1 85.9,1 L94.5,1 C94.9,1 95.3,1.1 95.6,1.3 C95.8,1.5 95.9,1.7 95.9,2.1 C95.9,2.5 95.8,2.7 95.6,2.9 C95.2,3.1 94.9,3.2 94.5,3.2 Z"></path>
                        <path d="M104.9,12.8 L104.2,11.1 L98.8,11.1 L98.1,12.9 C97.9,13.6 97.7,14 97.4,14.2 C97.2,14.4 97,14.5 96.5,14.5 C96.2,14.5 95.8,14.4 95.6,14.2 C95.4,14 95.2,13.6 95.2,13.3 C95.2,13.1 95.2,13 95.3,12.7 C95.4,12.5 95.4,12.3 95.6,11.9 L99,3.2 C99.1,3 99.2,2.6 99.3,2.3 C99.4,2 99.6,1.6 99.7,1.4 C99.8,1.2 100,1 100.4,0.8 C100.6,0.7 101,0.6 101.4,0.6 C101.7,0.6 102.1,0.7 102.4,0.8 C102.6,0.9 102.8,1.1 103.1,1.4 C103.2,1.6 103.4,1.8 103.5,2.2 C103.6,2.4 103.7,2.8 103.9,3.2 L107.4,11.9 C107.6,12.6 107.8,13 107.8,13.3 C107.8,13.6 107.7,13.9 107.4,14.2 C107.2,14.4 106.8,14.6 106.4,14.6 C106.2,14.6 106,14.6 105.8,14.5 C105.7,14.4 105.5,14.3 105.5,14.2 C105.4,14.1 105.3,13.9 105.2,13.6 C105.1,13.2 105,13 104.9,12.8 Z M99.4,9 L103.4,9 L101.4,3.5 L99.4,9 Z"></path>
                    </g>
                    <circle id="Oval" fill="#F39C12" fill-rule="nonzero" cx="354.9" cy="494.8" r="32.5"></circle>
                    <polyline id="Shape" stroke="#11304C" stroke-width="3.3212" stroke-linecap="round" stroke-linejoin="round" points="345.2 494.4 352.7 502 368.5 485.5"></polyline>
                    <g transform="translate(275.000000, 484.000000)" id="Shape" fill-rule="nonzero" fill="#F39C12">
                        <path d="M13.2,27.5 L14.3,30.8 C14.6,31.7 14.7,32.5 14.9,33.1 C14.9,33.8 14.8,34.4 14.6,35.1 C13.9,36.8 12.4,38.1 10.1,38.9 C9.3,39.1 8.7,39.3 7.9,39.5 C7.1,39.7 6.6,39.6 6,39.5 C5.4,39.4 4.8,39.2 4.2,38.8 C3.8,38.6 3.4,38.2 3.1,37.9 C2.8,37.6 2.5,37.1 2.2,36.7 C2,36.3 1.8,35.7 1.5,35.2 L0.4,31.9 C0.3,31.5 0.2,31 0.3,30.8 C0.4,30.5 0.5,30.2 0.7,30.1 C0.9,30 1.3,29.8 1.7,29.7 L11.1,26.6 C11.7,26.4 12.1,26.4 12.4,26.6 C12.7,26.7 13,27 13.2,27.5 Z M11.5,29.3 L2.9,32.2 L3.6,34.2 C3.7,34.6 3.8,35 3.9,35.2 C4,35.4 4.1,35.6 4.3,35.9 C4.5,36.1 4.6,36.3 5,36.5 C6,37.2 7.4,37.2 9.2,36.5 C10.4,36.1 11.3,35.6 11.9,35 C12.5,34.4 12.7,33.8 12.7,33.2 C12.7,32.6 12.6,31.9 12.3,31.1 L11.5,29.3 Z"></path>
                        <path d="M19.5,47 L16.5,41.6 L13.6,43.1 L16.4,48.1 C16.6,48.4 16.6,48.8 16.6,49.1 C16.5,49.3 16.4,49.5 16,49.8 C15.7,50 15.4,50 15.2,49.9 C15,49.8 14.6,49.6 14.5,49.2 L11.6,44.2 L8.3,46.1 L11.4,51.6 C11.6,51.9 11.6,52.3 11.6,52.6 C11.5,52.9 11.4,53.2 11,53.3 C10.7,53.4 10.4,53.5 10.1,53.4 C9.8,53.3 9.5,53.1 9.3,52.7 L5.8,46.2 C5.5,45.6 5.5,45.2 5.6,44.9 C5.7,44.6 6,44.2 6.5,43.9 L15.4,39 C15.7,38.8 16.1,38.7 16.3,38.7 C16.5,38.7 16.9,38.7 17.1,38.9 C17.3,39.1 17.5,39.3 17.7,39.7 L21.2,46 C21.4,46.3 21.5,46.7 21.4,47 C21.3,47.3 21.2,47.4 20.8,47.7 C20.5,47.8 20.2,47.9 20,47.8 C19.9,47.7 19.7,47.4 19.5,47 Z"></path>
                        <path d="M22.9,63.1 C22.6,63.3 22.1,63.5 21.6,63.8 C21,64 20.5,64 19.8,63.9 C19.1,63.8 18.5,63.7 17.8,63.3 C17.1,63 16.5,62.4 15.9,61.6 C15.5,61 15.1,60.5 14.8,59.9 C14.5,59.3 14.4,58.8 14.2,58.2 C14.1,57.6 14.1,57.1 14.2,56.4 C14.3,55.8 14.4,55.3 14.8,54.9 C15,54.3 15.4,53.9 15.7,53.4 C16,53 16.5,52.5 17,52.1 C17.9,51.4 18.7,50.9 19.5,50.7 C20.4,50.4 21.3,50.3 22,50.4 C22.8,50.5 23.7,50.7 24.4,51.1 C25.2,51.5 25.8,52.1 26.4,52.8 C27.1,53.7 27.5,54.6 27.7,55.5 C27.9,56.4 27.9,57.3 27.7,58 C27.5,58.8 27.1,59.3 26.7,59.7 C26.5,59.9 26.1,60 25.8,59.9 C25.5,59.8 25.2,59.8 25,59.5 C24.8,59.3 24.7,58.9 24.7,58.7 C24.7,58.5 24.8,58.1 25,57.7 C25.3,57 25.4,56.4 25.3,55.8 C25.3,55.2 25,54.7 24.5,54.1 C23.8,53.2 22.8,52.8 21.8,52.9 C20.7,52.9 19.6,53.5 18.4,54.4 C17.6,55.1 17,55.7 16.6,56.4 C16.3,57.1 16.2,57.7 16.2,58.4 C16.3,59.1 16.5,59.6 17,60.2 C17.4,60.8 18.1,61.2 18.7,61.4 C19.4,61.6 20,61.5 20.8,61.3 C21.1,61.2 21.5,61.1 21.8,61.1 C22.1,61.1 22.4,61.2 22.6,61.5 C22.8,61.7 22.9,62.1 22.8,62.4 C23.4,62.6 23.2,62.8 22.9,63.1 Z"></path>
                        <path d="M23.4,67.3 L30.6,59.6 C30.9,59.2 31.4,58.9 31.7,58.9 C32,58.9 32.4,59 32.7,59.2 C33,59.5 33.1,59.8 33.1,60.2 C33.1,60.5 32.9,61 32.5,61.4 L25.3,69.1 C25,69.5 24.5,69.8 24.2,69.8 C23.9,69.8 23.5,69.7 23.2,69.5 C22.9,69.3 22.8,68.9 22.8,68.5 C22.8,68.1 23,67.7 23.4,67.3 Z"></path>
                        <path d="M38.2,75.7 C37.8,76.4 37.1,76.8 36.4,77.1 C35.6,77.4 34.9,77.4 34,77.3 C33.1,77.1 32.2,76.7 31.3,76.1 C30.2,75.3 29.5,74.4 29.1,73.6 C28.8,72.9 28.7,72.3 28.8,71.6 C28.9,70.9 29,70.3 29.4,69.8 C29.6,69.6 29.8,69.4 30.2,69.4 C30.5,69.3 30.9,69.4 31.1,69.6 C31.3,69.8 31.4,69.9 31.5,70.3 C31.5,70.5 31.5,70.9 31.4,71.3 C31.3,71.7 31.2,72.2 31.2,72.5 C31.2,72.8 31.3,73.2 31.4,73.6 C31.6,73.9 32,74.3 32.4,74.7 C33.1,75.1 33.7,75.4 34.3,75.4 C34.9,75.4 35.4,75.2 35.7,74.7 C35.9,74.4 36,73.9 36,73.6 C35.9,73.3 35.8,72.8 35.6,72.5 C35.4,72.2 34.9,71.6 34.5,71.1 C33.8,70.3 33.4,69.7 33,69 C32.7,68.3 32.4,67.8 32.4,67.1 C32.4,66.4 32.6,65.8 33.1,65.2 C33.5,64.6 34.1,64.2 34.8,64 C35.5,63.8 36.2,63.8 37,63.9 C37.8,64.1 38.7,64.5 39.4,65.1 C40.1,65.5 40.6,66.1 40.9,66.6 C41.2,67.2 41.6,67.6 41.7,68.1 C41.8,68.6 41.8,69.1 41.8,69.4 C41.8,69.7 41.6,70.2 41.4,70.4 C41.2,70.6 41,70.8 40.6,71 C40.3,71.1 39.9,71 39.7,70.8 C39.5,70.6 39.3,70.5 39.3,70.2 C39.3,69.9 39.3,69.6 39.3,69.3 C39.4,68.7 39.4,68.3 39.3,67.9 C39.2,67.5 38.9,67 38.2,66.6 C37.6,66.2 37.1,65.9 36.5,65.9 C35.9,65.9 35.6,66.1 35.3,66.5 C35.2,66.7 35.1,66.9 35.1,67.2 C35.1,67.4 35.2,67.8 35.3,68 C35.4,68.2 35.5,68.6 35.7,68.8 C35.9,69 36.1,69.4 36.6,69.8 C37.2,70.4 37.6,70.9 37.9,71.5 C38.2,72.1 38.6,72.5 38.7,73 C38.9,73.6 38.9,74 38.8,74.5 C38.8,74.6 38.5,75.1 38.2,75.7 Z"></path>
                        <path d="M39.5,79.3 L44.6,70 C44.8,69.6 45.2,69.2 45.5,69.1 C45.8,69 46.2,69 46.6,69.2 C46.9,69.4 47.2,69.6 47.3,70.1 C47.4,70.5 47.3,70.9 47.1,71.4 L42,80.7 C41.8,81.1 41.4,81.5 41.1,81.6 C40.8,81.7 40.4,81.7 40,81.5 C39.7,81.3 39.4,81.1 39.3,80.7 C39.2,80.2 39.3,79.8 39.5,79.3 Z"></path>
                        <path d="M55.4,73.1 C56.7,73.5 57.7,74.2 58.5,75.1 C59.3,76 59.7,77 59.8,78.2 C59.9,79.3 59.7,80.6 59.2,82 C58.9,83 58.4,83.8 57.9,84.5 C57.3,85.2 56.7,85.7 55.9,86.2 C55.1,86.6 54.4,86.8 53.5,86.9 C52.6,87 51.7,86.8 50.7,86.3 C49.7,86 48.9,85.4 48.3,84.9 C47.6,84.3 47.2,83.6 46.9,82.8 C46.6,82 46.5,81.1 46.5,80.3 C46.5,79.4 46.7,78.4 47.1,77.5 C47.4,76.5 47.9,75.7 48.5,75 C49.1,74.3 49.7,73.8 50.5,73.3 C51.3,73 52,72.7 52.9,72.7 C53.5,72.6 54.4,72.7 55.4,73.1 Z M56.6,80.9 C56.9,80 57,79.1 57,78.4 C57,77.7 56.7,77 56.3,76.4 C55.9,75.8 55.3,75.4 54.5,75.2 C53.9,75 53.5,75 53,75 C52.4,75 52,75.2 51.6,75.4 C51.2,75.6 50.7,76.1 50.4,76.5 C50,77.1 49.7,77.6 49.4,78.4 C49.2,79.1 49,79.8 49,80.5 C49,81.2 49,81.7 49.2,82.3 C49.4,82.9 49.6,83.2 50,83.6 C50.3,84 50.8,84.3 51.3,84.4 C52,84.6 52.6,84.7 53.3,84.6 C54,84.5 54.6,84.2 55.2,83.6 C55.8,82.7 56.3,81.9 56.6,80.9 Z"></path>
                        <path d="M66.1,77.8 L70.1,86.4 L71.3,78.4 C71.4,77.8 71.5,77.5 71.9,77.3 C72.2,77.1 72.5,77 72.9,77.1 C73.2,77.2 73.6,77.3 73.8,77.7 C74,78 74,78.4 73.9,78.9 L72.4,89.4 C72.2,90.6 71.6,91.1 70.6,90.9 C70.4,90.9 70.2,90.8 69.9,90.7 C69.6,90.6 69.6,90.5 69.5,90.3 C69.4,90.1 69.2,90 69.1,89.7 C69,89.5 68.9,89.3 68.8,89 L64.9,80.5 L63.7,88.4 C63.6,89 63.5,89.3 63.1,89.5 C62.8,89.7 62.5,89.8 62.1,89.7 C61.8,89.6 61.4,89.5 61.2,89.1 C61,88.8 61,88.4 61,87.9 L62.5,77.6 C62.6,77.2 62.6,76.8 62.8,76.6 C62.9,76.4 63.1,76.2 63.5,76 C63.8,75.9 64.1,75.8 64.4,75.9 C64.6,75.9 64.8,76 65,76.1 C65.1,76.2 65.3,76.3 65.4,76.4 C65.5,76.5 65.6,76.7 65.7,77 C65.9,77.2 66,77.4 66.1,77.8 Z"></path>
                        <path d="M86.6,86.6 C86.6,87.4 86.5,88.1 86,88.8 C85.6,89.5 85,90 84.2,90.3 C83.4,90.7 82.4,91 81.3,91 C80,91 78.9,90.8 78,90.3 C77.3,90 76.9,89.5 76.5,88.9 C76.1,88.2 75.8,87.7 75.8,87.1 C75.8,86.8 75.9,86.4 76.1,86.2 C76.3,86 76.7,85.9 77,85.9 C77.3,85.9 77.6,86 77.8,86.1 C78,86.3 78.1,86.5 78.4,86.9 C78.6,87.3 78.7,87.7 79,88 C79.2,88.3 79.4,88.6 79.9,88.7 C80.2,88.9 80.8,88.9 81.3,88.9 C82.1,88.9 82.7,88.7 83.3,88.2 C83.7,87.8 84.1,87.3 84,86.8 C84,86.4 83.9,86 83.6,85.7 C83.3,85.5 82.9,85.3 82.5,85.1 C82.1,85 81.5,84.9 80.7,84.7 C79.7,84.5 78.9,84.3 78.3,84 C77.6,83.7 77.1,83.3 76.8,82.8 C76.4,82.2 76.1,81.7 76.1,80.9 C76.1,80.1 76.2,79.5 76.7,78.9 C77,78.3 77.7,77.9 78.4,77.5 C79.2,77.2 80.1,76.9 81.1,76.9 C81.9,76.9 82.6,76.9 83.2,77.1 C83.9,77.3 84.3,77.5 84.7,77.9 C85.1,78.2 85.4,78.6 85.6,78.9 C85.8,79.2 85.9,79.7 85.9,80 C85.9,80.3 85.8,80.7 85.6,80.9 C85.4,81.1 85,81.3 84.7,81.3 C84.4,81.3 84.1,81.2 83.9,81.1 C83.7,81 83.6,80.7 83.3,80.3 C83.1,79.7 82.7,79.4 82.4,79.2 C82.1,79 81.5,78.8 80.7,78.9 C80,78.9 79.5,79.1 79,79.5 C78.6,79.8 78.3,80.2 78.3,80.6 C78.3,80.8 78.4,81.2 78.5,81.3 C78.6,81.4 78.8,81.6 79.2,81.7 C79.4,81.8 79.8,81.9 80,82 C80.2,82.1 80.7,82.2 81.3,82.3 C82.1,82.4 82.7,82.6 83.4,82.9 C84.1,83.2 84.5,83.3 84.9,83.7 C85.3,84.1 85.7,84.4 85.9,84.8 C86.1,85.3 86.6,86 86.6,86.6 Z"></path>
                        <path d="M94.2,78.7 C94.1,78.1 94.1,77.6 94.2,77 C94.3,76.4 94.6,76 95.2,75.6 C95.6,75.2 96.3,74.8 97.1,74.6 C97.9,74.4 98.5,74.4 99.1,74.5 C99.8,74.6 100.2,74.8 100.6,75.3 C101,75.6 101.3,76.1 101.4,76.6 C101.6,77.3 101.5,77.9 101.3,78.5 C101,79.2 100.5,79.8 99.9,80.6 C100.3,80.8 100.7,81.2 101,81.4 C101.3,81.6 101.7,81.8 102,82.1 C102.3,82.3 102.6,82.4 102.9,82.5 C102.9,82.3 103,81.9 103,81.5 C103,81.1 103.1,80.6 103.2,80.4 C103.3,80.2 103.5,80 103.8,79.8 C104,79.7 104.4,79.8 104.6,79.9 C104.8,80 105,80.2 105.2,80.6 C105.3,80.8 105.3,81.3 105.2,81.8 C105.2,82.4 105.1,82.9 104.9,83.6 C105.1,83.7 105.6,83.9 106.2,84.2 C106.8,84.4 107.2,84.6 107.3,84.8 C107.4,84.9 107.5,85 107.6,85.4 C107.7,85.7 107.6,86 107.5,86.3 C107.4,86.5 107.2,86.7 106.8,86.9 C106.6,87 106.2,87 105.9,86.9 C105.6,86.8 104.9,86.6 103.9,86.1 C103.6,86.5 103.3,87 103,87.3 C102.7,87.6 102.2,88 101.8,88.2 C101.4,88.4 100.8,88.6 100.3,88.9 C99.5,89.1 98.9,89.2 98.2,89.1 C97.5,89.1 97,88.9 96.5,88.7 C96,88.5 95.6,88.1 95.3,87.7 C95,87.3 94.7,86.9 94.6,86.5 C94.5,86.1 94.4,85.6 94.5,85.2 C94.6,84.8 94.6,84.4 94.8,84 C95,83.7 95.2,83.2 95.5,82.9 C95.7,82.6 96.2,82.1 96.6,81.8 C96,81.4 95.5,81 95.2,80.6 C94.7,79.6 94.4,79.1 94.2,78.7 Z M98.2,79.6 C98.6,79 99,78.6 99.2,78.3 C99.4,78 99.4,77.6 99.3,77.2 C99.2,76.9 99,76.5 98.6,76.4 C98.3,76.2 97.9,76.2 97.5,76.3 C97.1,76.4 96.8,76.6 96.6,77 C96.4,77.3 96.4,77.7 96.5,78 C96.5,78.2 96.6,78.3 96.8,78.6 C96.9,78.8 97.1,78.9 97.4,79 C97.7,79 97.9,79.2 98.2,79.6 Z M98,82.2 C97.4,82.8 97.1,83.2 97,83.6 C96.8,84 96.8,84.5 96.9,84.9 C97,85.1 97.1,85.5 97.3,85.7 C97.5,85.9 97.7,86.1 98,86.3 C98.2,86.4 98.6,86.5 98.9,86.5 C99.2,86.5 99.6,86.5 99.8,86.4 C100.1,86.3 100.4,86.2 100.7,86 C100.9,85.8 101.1,85.6 101.4,85.3 C101.6,85.1 101.8,84.7 102,84.4 C101.3,84.1 100.7,83.7 100.1,83.4 C99.4,83.2 98.8,82.8 98,82.2 Z"></path>
                        <path d="M114.7,80.9 L109.7,71.5 C109.5,71.1 109.4,70.6 109.5,70.3 C109.6,70 109.8,69.6 110.2,69.5 C110.5,69.3 111,69.3 111.3,69.4 C111.6,69.5 112,69.8 112.2,70.3 L117.2,79.7 C117.4,80.1 117.5,80.6 117.4,81 C117.3,81.3 117.1,81.7 116.7,81.9 C116.3,82.1 116,82.1 115.6,82 C115.3,81.7 114.9,81.3 114.7,80.9 Z"></path>
                        <path d="M117.4,67 L126.3,70.3 L121.7,63.8 C121.4,63.4 121.3,63 121.3,62.7 C121.3,62.4 121.5,62 121.9,61.8 C122.2,61.6 122.6,61.5 122.9,61.6 C123.2,61.7 123.6,61.9 123.9,62.4 L130.1,71 C130.8,72 130.8,72.8 130,73.3 C129.8,73.4 129.6,73.5 129.4,73.6 C129.2,73.7 129,73.7 128.7,73.6 C128.5,73.6 128.3,73.5 128,73.5 C127.8,73.4 127.6,73.4 127.2,73.3 L118.5,70 L123.1,76.4 C123.4,76.8 123.5,77.2 123.5,77.5 C123.5,77.8 123.3,78.2 122.9,78.4 C122.5,78.6 122.2,78.7 121.9,78.6 C121.6,78.5 121.2,78.3 120.9,77.8 L114.8,69.4 C114.6,69.1 114.4,68.7 114.4,68.5 C114.3,68.2 114.4,67.9 114.5,67.6 C114.6,67.3 114.8,67 115.1,66.8 C115.3,66.7 115.5,66.6 115.7,66.6 C115.8,66.6 116,66.6 116.3,66.6 C116.6,66.6 116.7,66.7 117,66.8 C116.8,66.8 117.1,66.9 117.4,67 Z"></path>
                        <path d="M138.2,59 C138.8,59.6 139.2,60.2 139.3,61 C139.5,61.8 139.4,62.5 139.2,63.4 C138.9,64.3 138.4,65.1 137.7,65.8 C136.8,66.8 135.8,67.3 134.9,67.7 C134.2,67.9 133.6,67.9 132.8,67.8 C132.1,67.7 131.6,67.4 131.1,67 C130.9,66.8 130.8,66.4 130.8,66.1 C130.8,65.8 130.9,65.4 131.1,65.2 C131.3,65 131.5,64.9 131.8,64.9 C132,64.9 132.4,64.9 132.8,65.1 C133.2,65.3 133.6,65.4 133.9,65.4 C134.2,65.4 134.6,65.4 135,65.3 C135.3,65.2 135.8,64.9 136.2,64.4 C136.8,63.8 137.1,63.2 137.2,62.6 C137.3,62 137.1,61.5 136.6,61.1 C136.3,60.8 135.9,60.7 135.5,60.7 C135.1,60.7 134.7,60.8 134.3,61 C133.9,61.2 133.4,61.6 132.8,61.9 C131.9,62.5 131.3,62.9 130.6,63.1 C129.9,63.3 129.3,63.4 128.6,63.3 C127.9,63.2 127.4,62.9 126.8,62.4 C126.2,61.8 125.9,61.3 125.8,60.6 C125.7,59.9 125.8,59.2 126,58.4 C126.2,57.6 126.8,56.9 127.5,56.1 C128.1,55.5 128.6,55.1 129.2,54.8 C129.8,54.5 130.3,54.4 130.9,54.2 C131.5,54 131.9,54.2 132.2,54.3 C132.5,54.4 133,54.6 133.2,54.9 C133.4,55.2 133.5,55.5 133.6,55.8 C133.7,56.1 133.5,56.5 133.3,56.7 C133.1,56.9 132.9,57 132.6,57 C132.4,57 132,57 131.7,56.9 C131.1,56.7 130.7,56.7 130.3,56.7 C129.9,56.7 129.4,57 128.9,57.6 C128.5,58.2 128.1,58.6 128,59.1 C127.9,59.7 128,60 128.3,60.3 C128.5,60.5 128.7,60.6 129,60.6 C129.2,60.6 129.6,60.6 129.8,60.5 C130.1,60.4 130.4,60.3 130.6,60.2 C130.8,60.1 131.3,59.9 131.7,59.5 C132.4,59.1 132.9,58.7 133.6,58.4 C134.2,58.1 134.7,57.8 135.3,57.8 C135.9,57.7 136.3,57.7 136.8,57.9 C137.2,58.2 137.7,58.5 138.2,59 Z"></path>
                        <path d="M142.1,58.1 L133.6,51.8 C133.2,51.5 132.9,51.1 132.8,50.8 C132.7,50.5 132.8,50.1 133,49.8 C133.2,49.5 133.6,49.2 133.9,49.2 C134.2,49.2 134.7,49.3 135.1,49.6 L143.6,55.9 C144,56.2 144.3,56.6 144.4,56.9 C144.5,57.2 144.4,57.6 144.2,57.9 C144,58.2 143.6,58.3 143.3,58.5 C142.9,58.5 142.5,58.4 142.1,58.1 Z"></path>
                        <path d="M148.4,39.8 L150.7,41 C151,41.1 151.3,41.3 151.4,41.4 C151.5,41.5 151.6,41.7 151.7,42 C151.8,42.2 151.8,42.6 151.8,42.9 C151.8,43.8 151.7,44.7 151.6,45.4 C151.4,46.2 151.2,46.9 150.7,47.7 C150.3,48.6 149.6,49.4 148.9,49.9 C148.2,50.4 147.5,50.9 146.7,51.1 C145.9,51.3 145,51.4 144.2,51.3 C143.3,51.2 142.3,50.9 141.4,50.3 C140.5,49.9 139.7,49.2 139.1,48.5 C138.4,47.8 138,47.1 137.8,46.3 C137.6,45.5 137.5,44.6 137.6,43.6 C137.7,42.6 138,41.7 138.6,40.7 C139,39.9 139.5,39.3 140,38.7 C140.6,38.1 141.1,37.8 141.7,37.6 C142.3,37.4 142.7,37.3 143.1,37.3 C143.5,37.3 144,37.4 144.2,37.5 C144.5,37.6 144.8,37.9 144.8,38.3 C144.9,38.6 144.9,39 144.7,39.3 C144.6,39.5 144.5,39.6 144.3,39.7 C144.2,39.8 144,39.9 143.7,39.9 C143,39.9 142.6,40 142.3,40.1 C142,40.2 141.6,40.3 141.3,40.7 C141,40.9 140.6,41.4 140.3,41.9 C140,42.5 139.9,43 139.7,43.6 C139.7,44.2 139.7,44.7 139.9,45.1 C140.1,45.7 140.5,46.1 140.9,46.5 C141.3,46.9 141.9,47.4 142.6,47.7 C144,48.5 145.3,48.7 146.4,48.5 C147.5,48.3 148.4,47.6 148.9,46.4 C149.2,45.8 149.5,45.3 149.6,44.7 C149.7,44.1 149.8,43.5 149.8,42.9 L147.9,41.9 L146.9,43.8 C146.7,44.2 146.5,44.6 146.1,44.7 C145.9,44.8 145.5,44.8 145.2,44.7 C145,44.6 144.8,44.4 144.6,44 C144.5,43.7 144.6,43.4 144.7,43.1 L146.1,40.3 C146.3,40 146.4,39.7 146.7,39.5 C147,39.3 147.1,39.2 147.4,39.2 C147.6,39.6 147.9,39.6 148.4,39.8 Z"></path>
                        <path d="M144,32.3 L147.7,33.4 L149.4,27.8 L145.7,26.7 C145.1,26.6 144.8,26.3 144.6,26 C144.4,25.7 144.4,25.3 144.5,24.9 C144.6,24.5 144.8,24.2 145.2,24 C145.5,23.8 146,23.8 146.5,24 L156.7,27 C157.3,27.1 157.6,27.4 157.8,27.8 C158,28.1 158,28.5 157.9,28.9 C157.8,29.3 157.6,29.6 157.2,29.7 C156.9,29.8 156.4,29.8 155.9,29.7 L151.6,28.4 L149.9,34 L154.2,35.3 C154.8,35.4 155.1,35.7 155.3,36.1 C155.5,36.4 155.5,36.8 155.4,37.2 C155.3,37.6 155.1,37.9 154.7,38 C154.3,38.1 153.9,38.1 153.4,38 L143.2,35 C142.6,34.9 142.3,34.6 142.1,34.3 C141.9,34 141.9,33.6 142,33.2 C142.1,32.8 142.3,32.5 142.7,32.3 C143.1,32.2 143.5,32.2 144,32.3 Z"></path>
                        <path d="M148.6,13.1 L148.3,16.1 L158,17.2 C158.6,17.3 159,17.4 159.2,17.8 C159.4,18.1 159.5,18.5 159.5,18.8 C159.5,19.2 159.3,19.5 158.9,19.7 C158.6,19.9 158.1,20 157.6,19.9 L147.9,18.8 L147.6,21.8 C147.6,22.2 147.4,22.6 147.2,22.8 C147,23 146.6,23.1 146.3,23 C146,23 145.7,22.8 145.5,22.6 C145.3,22.4 145.3,22 145.3,21.5 L146.3,12.9 C146.3,12.5 146.5,12.1 146.7,11.9 C146.9,11.7 147.3,11.6 147.6,11.7 C147.9,11.8 148.2,11.9 148.4,12.1 C148.6,12.4 148.7,12.7 148.6,13.1 Z"></path>
                        <path d="M155.3,0 C156.1,0 156.8,0.1 157.5,0.6 C158.2,0.9 158.7,1.6 159.2,2.4 C159.7,3.2 159.9,4.2 159.9,5.3 C160,6.6 159.8,7.7 159.3,8.6 C159,9.3 158.5,9.7 158,10.1 C157.4,10.5 156.9,10.8 156.2,10.8 C155.9,10.8 155.5,10.7 155.3,10.5 C155.1,10.3 155,9.9 154.9,9.6 C154.9,9.3 155,9 155.1,8.8 C155.3,8.6 155.5,8.4 155.9,8.2 C156.3,8 156.7,7.8 156.9,7.5 C157.1,7.3 157.5,6.9 157.6,6.6 C157.8,6.3 157.8,5.7 157.8,5.2 C157.8,4.4 157.6,3.8 157.1,3.2 C156.7,2.8 156.2,2.5 155.7,2.5 C155.3,2.5 154.9,2.7 154.6,2.9 C154.4,3.2 154.2,3.6 154,4 C153.9,4.4 153.8,5 153.7,5.8 C153.5,6.8 153.3,7.6 153,8.2 C152.8,8.9 152.3,9.4 151.9,9.9 C151.3,10.3 150.8,10.6 150,10.6 C149.2,10.6 148.6,10.5 148,10.2 C147.4,9.9 146.9,9.3 146.6,8.5 C146.3,7.7 146,6.8 145.9,5.8 C145.9,5 145.9,4.3 146.1,3.6 C146.3,2.9 146.5,2.5 146.9,2.1 C147.2,1.7 147.6,1.3 147.9,1.2 C148.2,1.1 148.7,0.9 149,0.9 C149.3,0.9 149.7,1 149.9,1.2 C150.1,1.4 150.3,1.6 150.3,2.1 C150.3,2.4 150.3,2.7 150.1,2.9 C149.9,3.1 149.7,3.2 149.3,3.5 C148.9,3.7 148.4,4.1 148.2,4.5 C148,4.8 147.9,5.4 147.9,6.2 C147.9,6.9 148.1,7.4 148.5,7.9 C148.8,8.3 149.2,8.5 149.6,8.5 C149.8,8.5 150,8.4 150.3,8.3 C150.6,8.2 150.6,8 150.7,7.6 C150.8,7.4 150.9,7 151,6.8 C151.1,6.6 151.1,6.1 151.2,5.5 C151.3,4.7 151.5,4.1 151.6,3.4 C151.8,2.7 152,2.2 152.3,1.7 C152.6,1.3 153,0.9 153.4,0.6 C154,0.2 154.7,0.1 155.3,0 Z"></path>
                    </g>
                    <path d="M213.9,400.1 L191.5,385.1" id="Shape" stroke="#A8BBD2" stroke-width="3.3172" stroke-linecap="round" stroke-linejoin="round"></path>
                    <circle id="Oval" fill="#006FF1" fill-rule="nonzero" transform="translate(187.807520, 382.209120) rotate(-5.744799) translate(-187.807520, -382.209120) " cx="187.80752" cy="382.20912" r="6.80015303"></circle>
                    <path d="M183.5,380.7 C183.5,380.7 184.1,378.4 186.9,377.6" id="Shape" stroke="#A8BBD2" stroke-width="1.1515" stroke-linecap="round" stroke-linejoin="round"></path>
                    <path d="M218.4,384 C210.4,384 203.9,390.4 203.9,398.5 C203.9,406.5 210.3,413 218.4,413 L218.4,398.5 L218.4,384 Z" id="Shape" stroke="#A8BBD2" stroke-width="3.3212" fill="#11304C" fill-rule="nonzero" stroke-linecap="round" stroke-linejoin="round"></path>
                    <polygon id="Shape" stroke="#A8BBD2" stroke-width="3.3212" fill="#11304C" fill-rule="nonzero" stroke-linecap="round" stroke-linejoin="round" points="265.6 75.9 202.8 75.9 202.8 17.4 221.8 0.2 265.6 0.2"></polygon>
                    <polyline id="Shape" stroke="#A8BBD2" stroke-width="3.3212" stroke-linecap="round" stroke-linejoin="round" points="202.8 17.4 222.2 17.4 222.2 0.2"></polyline>
                    <rect id="Rectangle-path" stroke="#A8BBD2" stroke-width="3.1963" stroke-linecap="round" stroke-linejoin="round" x="211.7" y="29.7" width="44.9" height="38.6"></rect>
                    <path d="M216.5,29.7 L216.5,68.4" id="Shape" stroke="#A8BBD2" stroke-width="1.1515" stroke-linecap="round" stroke-linejoin="round"></path>
                    <path d="M211.7,34.6 L256.6,34.6" id="Shape" stroke="#A8BBD2" stroke-width="1.1515" stroke-linecap="round" stroke-linejoin="round"></path>
                    <path d="M211.7,40.1 L256.6,40.1" id="Shape" stroke="#A8BBD2" stroke-width="1.1515" stroke-linecap="round" stroke-linejoin="round"></path>
                    <path d="M211.7,45.7 L256.6,45.7" id="Shape" stroke="#A8BBD2" stroke-width="1.1515" stroke-linecap="round" stroke-linejoin="round"></path>
                    <path d="M211.7,51.1 L256.6,51.1" id="Shape" stroke="#A8BBD2" stroke-width="1.1515" stroke-linecap="round" stroke-linejoin="round"></path>
                    <path d="M211.7,56.6 L256.6,56.6" id="Shape" stroke="#A8BBD2" stroke-width="1.1515" stroke-linecap="round" stroke-linejoin="round"></path>
                    <path d="M211.7,62.2 L256.6,62.2" id="Shape" stroke="#A8BBD2" stroke-width="1.1515" stroke-linecap="round" stroke-linejoin="round"></path>
                    <path d="M229.6,29.7 L229.6,68.4" id="Shape" stroke="#A8BBD2" stroke-width="1.1515" stroke-linecap="round" stroke-linejoin="round"></path>
                    <path d="M243.2,29.7 L243.2,68.4" id="Shape" stroke="#A8BBD2" stroke-width="1.1515" stroke-linecap="round" stroke-linejoin="round"></path>
                </g>
                <path d="M390,173.9 C370.5,149.1 345.5,128.8 316.7,115.1" id="Shape" stroke="#396487" stroke-width="1.1515" stroke-linecap="round" stroke-linejoin="round"></path>
                <path d="M291.1,151.9 C326.8,167 355.9,194.6 372.9,229.2" id="Shape" stroke="#396487" stroke-width="1.1515" stroke-linecap="round" stroke-linejoin="round"></path>
                <path d="M101.2,202.2 C120.3,177.4 146.4,158.3 176.6,147.9" id="Shape" stroke="#396487" stroke-width="1.1515" stroke-linecap="round" stroke-linejoin="round"></path>
                <path d="M153.3,109.6 C107,127.9 69,162.7 46.4,206.7" id="Shape" stroke="#396487" stroke-width="1.1515" stroke-linecap="round" stroke-linejoin="round"></path>
                <path d="M382.1,347.8 C379.1,357.5 375.1,366.8 370.4,375.6" id="Shape" stroke="#396487" stroke-width="1.1515" stroke-linecap="round" stroke-linejoin="round"></path>
                <path d="M404.9,404.1 C416.5,384.5 425,362.7 429.5,339.6" id="Shape" stroke="#396487" stroke-width="1.1515" stroke-linecap="round" stroke-linejoin="round"></path>
                <path d="M273.6,454.2 C259.3,458.4 244.2,460.6 228.6,460.6 C181.1,460.6 138.4,440 109,407.2" id="Shape" stroke="#396487" stroke-width="1.1515" stroke-linecap="round" stroke-linejoin="round"></path>
                <path d="M34.9,366.1 C62.4,446.7 138.8,504.7 228.7,504.7 C234.8,504.7 240.8,504.4 246.8,503.9" id="Shape" stroke="#396487" stroke-width="1.1515" stroke-linecap="round" stroke-linejoin="round"></path>
            </g>
        </g>
    </g>
</svg>