<?xml version="1.0" encoding="UTF-8"?>
<svg width="600px" height="403px" viewBox="0 0 600 403" version="1.1" xmlns="http://www.w3.org/2000/svg" xmlns:xlink="http://www.w3.org/1999/xlink">
    <!-- Generator: Sketch 46 (44423) - http://www.bohemiancoding.com/sketch -->
    <title>Page 1</title>
    <desc>Created with Sketch.</desc>
    <defs>
        <polygon id="path-1" points="0 402.5 599.658 402.5 599.658 0 0 0"></polygon>
    </defs>
    <g id="Main" stroke="none" stroke-width="1" fill="none" fill-rule="evenodd">
        <g id="Bison" transform="translate(-300.000000, -6870.000000)">
            <g id="Page-1" transform="translate(300.000000, 6870.000000)">
                <path d="M78.927,201.1247 L78.927,66.2137 C78.927,66.2137 51.927,68.5627 24.927,63.1407 L24.927,197.2837 C24.927,197.2837 45.927,209.2347 78.927,201.1247 Z M108.487,42.4577 L108.927,42.4597 L108.927,217.9647 L108.927,218.5237 C108.927,222.2227 88.164,230.4167 62.346,230.4167 C36.529,230.4167 15.927,222.2227 15.927,218.5237 L15.927,217.9647 L15.927,42.7307 C15.927,42.7307 32.958,46.6997 62.476,46.6997 C90.377,46.6997 108.487,42.4577 108.487,42.4577 Z" id="Fill-1" fill="#FFFFFF"></path>
                <path d="M78.927,201.1247 C45.927,209.2347 24.927,197.2837 24.927,197.2837 L24.927,63.1407 C51.927,68.5627 78.927,66.2137 78.927,66.2137 L78.927,201.1247 Z M108.487,42.4577 C108.487,42.4577 90.377,46.6997 62.476,46.6997 C32.958,46.6997 15.927,42.7307 15.927,42.7307 L15.927,217.9647 L15.927,218.5237 C15.927,222.2227 36.529,230.4167 62.346,230.4167 C88.164,230.4167 108.927,222.2227 108.927,218.5237 L108.927,217.9647 L108.927,42.4597 L108.487,42.4577 Z" id="Stroke-3" stroke="#006FF1" stroke-width="3" stroke-linecap="round" stroke-linejoin="round"></path>
                <path d="M108.927,42.4064 C108.927,39.0504 88.108,36.3304 62.427,36.3304 C36.746,36.3304 15.927,39.0504 15.927,42.4064 C15.927,45.7614 36.746,48.4824 62.427,48.4824 C88.108,48.4824 108.927,45.7614 108.927,42.4064" id="Fill-5" fill="#FFFFFF"></path>
                <path d="M108.927,42.4064 C108.927,39.0504 88.108,36.3304 62.427,36.3304 C36.746,36.3304 15.927,39.0504 15.927,42.4064 C15.927,45.7614 36.746,48.4824 62.427,48.4824 C88.108,48.4824 108.927,45.7614 108.927,42.4064 Z" id="Stroke-7" stroke="#006FF1" stroke-width="3" stroke-linecap="round" stroke-linejoin="round"></path>
                <path d="M90.3313,31.0122 C90.3313,34.3502 77.6143,37.0552 61.9273,37.0552 C46.2393,37.0552 33.5223,34.3502 33.5223,31.0122 C33.5223,27.6742 46.2393,24.9692 61.9273,24.9692 C77.6143,24.9692 90.3313,27.6742 90.3313,31.0122" id="Fill-9" fill="#FFFFFF"></path>
                <path d="M90.3313,31.0122 C90.3313,34.3502 77.6143,37.0552 61.9273,37.0552 C46.2393,37.0552 33.5223,34.3502 33.5223,31.0122 C33.5223,27.6742 46.2393,24.9692 61.9273,24.9692 C77.6143,24.9692 90.3313,27.6742 90.3313,31.0122 Z" id="Stroke-11" stroke="#006FF1" stroke-width="3" stroke-linecap="round" stroke-linejoin="round"></path>
                <path d="M70.0677,12.2118 C70.0677,13.1708 66.4137,13.9478 61.9067,13.9478 C57.3987,13.9478 53.7457,13.1708 53.7457,12.2118 C53.7457,11.2528 57.3987,10.4758 61.9067,10.4758 C66.4137,10.4758 70.0677,11.2528 70.0677,12.2118" id="Fill-13" fill="#FFFFFF"></path>
                <path d="M70.0677,12.2118 C70.0677,13.1708 66.4137,13.9478 61.9067,13.9478 C57.3987,13.9478 53.7457,13.1708 53.7457,12.2118 C53.7457,11.2528 57.3987,10.4758 61.9067,10.4758 C66.4137,10.4758 70.0677,11.2528 70.0677,12.2118 Z" id="Stroke-15" stroke="#006FF1" stroke-width="3" stroke-linecap="round" stroke-linejoin="round"></path>
                <path d="M80.6913,21.5745 C80.6913,23.7795 72.2903,25.5665 61.9273,25.5665 C51.5633,25.5665 43.1623,23.7795 43.1623,21.5745 C43.1623,19.3695 51.5633,17.5825 61.9273,17.5825 C72.2903,17.5825 80.6913,19.3695 80.6913,21.5745" id="Fill-17" fill="#FFFFFF"></path>
                <path d="M80.6913,21.5745 C80.6913,23.7795 72.2903,25.5665 61.9273,25.5665 C51.5633,25.5665 43.1623,23.7795 43.1623,21.5745 C43.1623,19.3695 51.5633,17.5825 61.9273,17.5825 C72.2903,17.5825 80.6913,19.3695 80.6913,21.5745 Z" id="Stroke-19" stroke="#006FF1" stroke-width="3" stroke-linecap="round" stroke-linejoin="round"></path>
                <g id="Group-24" transform="translate(61.000000, 37.500000)">
                    <path d="M0.927,6 L0.927,0" id="Fill-21" fill="#FFFFFF"></path>
                    <path d="M0.927,6 L0.927,0" id="Stroke-23" stroke="#006FF1" stroke-width="3" stroke-linecap="round" stroke-linejoin="round"></path>
                </g>
                <g id="Group-28" transform="translate(61.000000, 25.500000)">
                    <path d="M0.927,5 L0.927,0" id="Fill-25" fill="#FFFFFF"></path>
                    <path d="M0.927,5 L0.927,0" id="Stroke-27" stroke="#006FF1" stroke-width="3" stroke-linecap="round" stroke-linejoin="round"></path>
                </g>
                <g id="Group-32" transform="translate(61.000000, 14.500000)">
                    <path d="M0.927,6 L0.927,0" id="Fill-29" fill="#FFFFFF"></path>
                    <path d="M0.927,6 L0.927,0" id="Stroke-31" stroke="#006FF1" stroke-width="3" stroke-linecap="round" stroke-linejoin="round"></path>
                </g>
                <g id="Group-36" transform="translate(61.000000, 1.500000)">
                    <path d="M0.927,8 L0.927,0" id="Fill-33" fill="#FFFFFF"></path>
                    <path d="M0.927,8 L0.927,0" id="Stroke-35" stroke="#006FF1" stroke-width="3" stroke-linecap="round" stroke-linejoin="round"></path>
                </g>
                <path d="M182.927,201.1247 C149.927,209.2347 128.927,197.2837 128.927,197.2837 L128.927,63.1407 C155.927,68.5627 182.927,66.2137 182.927,66.2137 L182.927,201.1247 Z M212.487,42.4577 C212.487,42.4577 194.377,46.6997 166.476,46.6997 C136.958,46.6997 119.927,42.7307 119.927,42.7307 L119.927,217.9647 L119.927,218.5237 C119.927,222.2227 140.529,230.4167 166.346,230.4167 C192.164,230.4167 212.927,222.2227 212.927,218.5237 L212.927,217.9647 L212.927,42.4597 L212.487,42.4577 Z" id="Fill-37" fill="#FFFFFF"></path>
                <path d="M182.927,201.1247 C149.927,209.2347 128.927,197.2837 128.927,197.2837 L128.927,63.1407 C155.927,68.5627 182.927,66.2137 182.927,66.2137 L182.927,201.1247 Z M212.487,42.4577 C212.487,42.4577 194.377,46.6997 166.476,46.6997 C136.958,46.6997 119.927,42.7307 119.927,42.7307 L119.927,217.9647 L119.927,218.5237 C119.927,222.2227 140.529,230.4167 166.346,230.4167 C192.164,230.4167 212.927,222.2227 212.927,218.5237 L212.927,217.9647 L212.927,42.4597 L212.487,42.4577 Z" id="Stroke-39" stroke="#006FF1" stroke-width="3" stroke-linecap="round" stroke-linejoin="round"></path>
                <path d="M212.927,42.4064 C212.927,39.0504 192.108,36.3304 166.427,36.3304 C140.746,36.3304 119.927,39.0504 119.927,42.4064 C119.927,45.7614 140.746,48.4824 166.427,48.4824 C192.108,48.4824 212.927,45.7614 212.927,42.4064" id="Fill-41" fill="#FFFFFF"></path>
                <path d="M212.927,42.4064 C212.927,39.0504 192.108,36.3304 166.427,36.3304 C140.746,36.3304 119.927,39.0504 119.927,42.4064 C119.927,45.7614 140.746,48.4824 166.427,48.4824 C192.108,48.4824 212.927,45.7614 212.927,42.4064 Z" id="Stroke-43" stroke="#006FF1" stroke-width="3" stroke-linecap="round" stroke-linejoin="round"></path>
                <path d="M194.3313,31.0122 C194.3313,34.3502 181.6143,37.0552 165.9273,37.0552 C150.2393,37.0552 137.5223,34.3502 137.5223,31.0122 C137.5223,27.6742 150.2393,24.9692 165.9273,24.9692 C181.6143,24.9692 194.3313,27.6742 194.3313,31.0122" id="Fill-45" fill="#FFFFFF"></path>
                <path d="M194.3313,31.0122 C194.3313,34.3502 181.6143,37.0552 165.9273,37.0552 C150.2393,37.0552 137.5223,34.3502 137.5223,31.0122 C137.5223,27.6742 150.2393,24.9692 165.9273,24.9692 C181.6143,24.9692 194.3313,27.6742 194.3313,31.0122 Z" id="Stroke-47" stroke="#006FF1" stroke-width="3" stroke-linecap="round" stroke-linejoin="round"></path>
                <path d="M174.0677,12.2118 C174.0677,13.1708 170.4137,13.9478 165.9067,13.9478 C161.3987,13.9478 157.7457,13.1708 157.7457,12.2118 C157.7457,11.2528 161.3987,10.4758 165.9067,10.4758 C170.4137,10.4758 174.0677,11.2528 174.0677,12.2118" id="Fill-49" fill="#FFFFFF"></path>
                <path d="M174.0677,12.2118 C174.0677,13.1708 170.4137,13.9478 165.9067,13.9478 C161.3987,13.9478 157.7457,13.1708 157.7457,12.2118 C157.7457,11.2528 161.3987,10.4758 165.9067,10.4758 C170.4137,10.4758 174.0677,11.2528 174.0677,12.2118 Z" id="Stroke-51" stroke="#006FF1" stroke-width="3" stroke-linecap="round" stroke-linejoin="round"></path>
                <path d="M184.6913,21.5745 C184.6913,23.7795 176.2903,25.5665 165.9273,25.5665 C155.5633,25.5665 147.1623,23.7795 147.1623,21.5745 C147.1623,19.3695 155.5633,17.5825 165.9273,17.5825 C176.2903,17.5825 184.6913,19.3695 184.6913,21.5745" id="Fill-53" fill="#FFFFFF"></path>
                <path d="M184.6913,21.5745 C184.6913,23.7795 176.2903,25.5665 165.9273,25.5665 C155.5633,25.5665 147.1623,23.7795 147.1623,21.5745 C147.1623,19.3695 155.5633,17.5825 165.9273,17.5825 C176.2903,17.5825 184.6913,19.3695 184.6913,21.5745 Z" id="Stroke-55" stroke="#006FF1" stroke-width="3" stroke-linecap="round" stroke-linejoin="round"></path>
                <g id="Group-60" transform="translate(165.000000, 37.500000)">
                    <path d="M0.927,6 L0.927,0" id="Fill-57" fill="#FFFFFF"></path>
                    <path d="M0.927,6 L0.927,0" id="Stroke-59" stroke="#006FF1" stroke-width="3" stroke-linecap="round" stroke-linejoin="round"></path>
                </g>
                <g id="Group-64" transform="translate(165.000000, 25.500000)">
                    <path d="M0.927,5 L0.927,0" id="Fill-61" fill="#FFFFFF"></path>
                    <path d="M0.927,5 L0.927,0" id="Stroke-63" stroke="#006FF1" stroke-width="3" stroke-linecap="round" stroke-linejoin="round"></path>
                </g>
                <g id="Group-68" transform="translate(165.000000, 14.500000)">
                    <path d="M0.927,6 L0.927,0" id="Fill-65" fill="#FFFFFF"></path>
                    <path d="M0.927,6 L0.927,0" id="Stroke-67" stroke="#006FF1" stroke-width="3" stroke-linecap="round" stroke-linejoin="round"></path>
                </g>
                <g id="Group-72" transform="translate(165.000000, 1.500000)">
                    <path d="M0.927,8 L0.927,0" id="Fill-69" fill="#FFFFFF"></path>
                    <path d="M0.927,8 L0.927,0" id="Stroke-71" stroke="#006FF1" stroke-width="3" stroke-linecap="round" stroke-linejoin="round"></path>
                </g>
                <polygon id="Fill-73" fill="#FFFFFF" points="73.2722 184.2938 36.9382 184.2938 36.9382 150.4588 47.8962 140.4628 73.2722 140.4628"></polygon>
                <polygon id="Stroke-75" stroke="#006FF1" stroke-width="3" stroke-linecap="round" stroke-linejoin="round" points="73.2722 184.2938 36.9382 184.2938 36.9382 150.4588 47.8962 140.4628 73.2722 140.4628"></polygon>
                <polygon id="Fill-77" fill="#FFFFFF" points="66.7742 188.6513 30.4402 188.6513 30.4402 154.8163 41.3982 144.8203 66.7742 144.8203"></polygon>
                <polygon id="Stroke-79" stroke="#006FF1" stroke-width="3" stroke-linecap="round" stroke-linejoin="round" points="66.7742 188.6513 30.4402 188.6513 30.4402 154.8163 41.3982 144.8203 66.7742 144.8203"></polygon>
                <polyline id="Stroke-81" stroke="#006FF1" stroke-width="3" stroke-linecap="round" stroke-linejoin="round" points="30.4403 154.8165 41.6543 154.8165 41.6543 144.8195"></polyline>
                <mask id="mask-2" fill="white">
                    <use xlink:href="#path-1"></use>
                </mask>
                <g id="Clip-84"></g>
                <polygon id="Stroke-83" stroke="#006FF1" stroke-width="2.887" stroke-linecap="round" stroke-linejoin="round" mask="url(#mask-2)" points="35.567 184.293 61.584 184.293 61.584 161.929 35.567 161.929"></polygon>
                <path d="M38.3223,161.9295 L38.3223,184.2935" id="Stroke-85" stroke="#006FF1" stroke-width="1.04" stroke-linecap="round" stroke-linejoin="round" mask="url(#mask-2)"></path>
                <path d="M35.5668,164.7491 L61.5838,164.7491" id="Stroke-86" stroke="#006FF1" stroke-width="1.04" stroke-linecap="round" stroke-linejoin="round" mask="url(#mask-2)"></path>
                <path d="M35.5668,167.9531 L61.5838,167.9531" id="Stroke-87" stroke="#006FF1" stroke-width="1.04" stroke-linecap="round" stroke-linejoin="round" mask="url(#mask-2)"></path>
                <path d="M35.5668,171.1572 L61.5838,171.1572" id="Stroke-88" stroke="#006FF1" stroke-width="1.04" stroke-linecap="round" stroke-linejoin="round" mask="url(#mask-2)"></path>
                <path d="M35.5668,174.2971 L61.5838,174.2971" id="Stroke-89" stroke="#006FF1" stroke-width="1.04" stroke-linecap="round" stroke-linejoin="round" mask="url(#mask-2)"></path>
                <path d="M35.5668,177.5012 L61.5838,177.5012" id="Stroke-90" stroke="#006FF1" stroke-width="1.04" stroke-linecap="round" stroke-linejoin="round" mask="url(#mask-2)"></path>
                <path d="M35.5668,180.7052 L61.5838,180.7052" id="Stroke-91" stroke="#006FF1" stroke-width="1.04" stroke-linecap="round" stroke-linejoin="round" mask="url(#mask-2)"></path>
                <path d="M45.9479,161.9295 L45.9479,184.2935" id="Stroke-92" stroke="#006FF1" stroke-width="1.04" stroke-linecap="round" stroke-linejoin="round" mask="url(#mask-2)"></path>
                <path d="M53.8299,161.9295 L53.8299,184.2935" id="Stroke-93" stroke="#006FF1" stroke-width="1.04" stroke-linecap="round" stroke-linejoin="round" mask="url(#mask-2)"></path>
                <path d="M134.6195,186 L175.4965,186 C175.4965,186 174.8175,170.813 161.1205,163.11 L160.9615,163.062 C164.8745,160.847 167.5195,156.631 167.5195,151.814 C167.5195,144.69 161.7445,138.903 154.6205,138.903 C147.4965,138.903 141.7215,144.729 141.7215,151.853 C141.7215,156.581 144.2735,161 148.0675,163 L148.0405,163 C148.0405,163 135.1505,170 134.6195,186" id="Fill-94" fill="#FFFFFF" mask="url(#mask-2)"></path>
                <path d="M134.6195,186 L175.4965,186 C175.4965,186 174.8175,170.813 161.1205,163.11 L160.9615,163.062 C164.8745,160.847 167.5195,156.631 167.5195,151.814 C167.5195,144.69 161.7445,138.903 154.6205,138.903 C147.4965,138.903 141.7215,144.729 141.7215,151.853 C141.7215,156.581 144.2735,161 148.0675,163 L148.0405,163 C148.0405,163 135.1505,170 134.6195,186 Z" id="Stroke-95" stroke="#006FF1" stroke-width="3" stroke-linecap="round" stroke-linejoin="round" mask="url(#mask-2)"></path>
                <polygon id="Fill-96" fill="#FFFFFF" mask="url(#mask-2)" points="229.487 206.953 298.331 206.953 298.331 53.246 229.487 53.246"></polygon>
                <path d="M286.927,201.1247 C253.927,209.2347 232.927,197.2837 232.927,197.2837 L232.927,63.1407 C259.927,68.5627 286.927,66.2137 286.927,66.2137 L286.927,201.1247 Z M316.487,42.4577 C316.487,42.4577 298.378,46.6997 270.476,46.6997 C240.958,46.6997 223.927,42.7307 223.927,42.7307 L223.927,217.9647 L223.927,218.5237 C223.927,222.2227 244.529,230.4167 270.346,230.4167 C296.164,230.4167 316.927,222.2227 316.927,218.5237 L316.927,217.9647 L316.927,42.4597 L316.487,42.4577 Z" id="Fill-97" fill="#FFFFFF" mask="url(#mask-2)"></path>
                <path d="M286.927,201.1247 C253.927,209.2347 232.927,197.2837 232.927,197.2837 L232.927,63.1407 C259.927,68.5627 286.927,66.2137 286.927,66.2137 L286.927,201.1247 Z M316.487,42.4577 C316.487,42.4577 298.378,46.6997 270.476,46.6997 C240.958,46.6997 223.927,42.7307 223.927,42.7307 L223.927,217.9647 L223.927,218.5237 C223.927,222.2227 244.529,230.4167 270.346,230.4167 C296.164,230.4167 316.927,222.2227 316.927,218.5237 L316.927,217.9647 L316.927,42.4597 L316.487,42.4577 Z" id="Stroke-98" stroke="#006FF1" stroke-width="3" stroke-linecap="round" stroke-linejoin="round" mask="url(#mask-2)"></path>
                <path d="M316.927,42.4064 C316.927,39.0504 296.108,36.3304 270.427,36.3304 C244.746,36.3304 223.927,39.0504 223.927,42.4064 C223.927,45.7614 244.746,48.4824 270.427,48.4824 C296.108,48.4824 316.927,45.7614 316.927,42.4064" id="Fill-99" fill="#FFFFFF" mask="url(#mask-2)"></path>
                <path d="M316.927,42.4064 C316.927,39.0504 296.108,36.3304 270.427,36.3304 C244.746,36.3304 223.927,39.0504 223.927,42.4064 C223.927,45.7614 244.746,48.4824 270.427,48.4824 C296.108,48.4824 316.927,45.7614 316.927,42.4064 Z" id="Stroke-100" stroke="#006FF1" stroke-width="3" stroke-linecap="round" stroke-linejoin="round" mask="url(#mask-2)"></path>
                <path d="M298.3313,31.0122 C298.3313,34.3502 285.6143,37.0552 269.9273,37.0552 C254.2393,37.0552 241.5223,34.3502 241.5223,31.0122 C241.5223,27.6742 254.2393,24.9692 269.9273,24.9692 C285.6143,24.9692 298.3313,27.6742 298.3313,31.0122" id="Fill-101" fill="#FFFFFF" mask="url(#mask-2)"></path>
                <path d="M298.3313,31.0122 C298.3313,34.3502 285.6143,37.0552 269.9273,37.0552 C254.2393,37.0552 241.5223,34.3502 241.5223,31.0122 C241.5223,27.6742 254.2393,24.9692 269.9273,24.9692 C285.6143,24.9692 298.3313,27.6742 298.3313,31.0122 Z" id="Stroke-102" stroke="#006FF1" stroke-width="3" stroke-linecap="round" stroke-linejoin="round" mask="url(#mask-2)"></path>
                <path d="M278.0677,12.2118 C278.0677,13.1708 274.4137,13.9478 269.9067,13.9478 C265.3987,13.9478 261.7457,13.1708 261.7457,12.2118 C261.7457,11.2528 265.3987,10.4758 269.9067,10.4758 C274.4137,10.4758 278.0677,11.2528 278.0677,12.2118" id="Fill-103" fill="#FFFFFF" mask="url(#mask-2)"></path>
                <path d="M278.0677,12.2118 C278.0677,13.1708 274.4137,13.9478 269.9067,13.9478 C265.3987,13.9478 261.7457,13.1708 261.7457,12.2118 C261.7457,11.2528 265.3987,10.4758 269.9067,10.4758 C274.4137,10.4758 278.0677,11.2528 278.0677,12.2118 Z" id="Stroke-104" stroke="#006FF1" stroke-width="3" stroke-linecap="round" stroke-linejoin="round" mask="url(#mask-2)"></path>
                <path d="M288.6913,21.5745 C288.6913,23.7795 280.2903,25.5665 269.9273,25.5665 C259.5633,25.5665 251.1623,23.7795 251.1623,21.5745 C251.1623,19.3695 259.5633,17.5825 269.9273,17.5825 C280.2903,17.5825 288.6913,19.3695 288.6913,21.5745" id="Fill-105" fill="#FFFFFF" mask="url(#mask-2)"></path>
                <path d="M288.6913,21.5745 C288.6913,23.7795 280.2903,25.5665 269.9273,25.5665 C259.5633,25.5665 251.1623,23.7795 251.1623,21.5745 C251.1623,19.3695 259.5633,17.5825 269.9273,17.5825 C280.2903,17.5825 288.6913,19.3695 288.6913,21.5745 Z" id="Stroke-106" stroke="#006FF1" stroke-width="3" stroke-linecap="round" stroke-linejoin="round" mask="url(#mask-2)"></path>
                <g id="Group-109" mask="url(#mask-2)">
                    <g transform="translate(269.000000, 37.500000)">
                        <path d="M0.927,6 L0.927,0" id="Fill-107" stroke="none" fill="#FFFFFF" fill-rule="evenodd"></path>
                        <path d="M0.927,6 L0.927,0" id="Stroke-108" stroke="#006FF1" stroke-width="3" fill="none" stroke-linecap="round" stroke-linejoin="round"></path>
                    </g>
                </g>
                <g id="Group-112" mask="url(#mask-2)">
                    <g transform="translate(269.000000, 25.500000)">
                        <path d="M0.927,5 L0.927,0" id="Fill-110" stroke="none" fill="#FFFFFF" fill-rule="evenodd"></path>
                        <path d="M0.927,5 L0.927,0" id="Stroke-111" stroke="#006FF1" stroke-width="3" fill="none" stroke-linecap="round" stroke-linejoin="round"></path>
                    </g>
                </g>
                <g id="Group-115" mask="url(#mask-2)">
                    <g transform="translate(269.000000, 14.500000)">
                        <path d="M0.927,6 L0.927,0" id="Fill-113" stroke="none" fill="#FFFFFF" fill-rule="evenodd"></path>
                        <path d="M0.927,6 L0.927,0" id="Stroke-114" stroke="#006FF1" stroke-width="3" fill="none" stroke-linecap="round" stroke-linejoin="round"></path>
                    </g>
                </g>
                <g id="Group-118" mask="url(#mask-2)">
                    <g transform="translate(269.000000, 1.500000)">
                        <path d="M0.927,8 L0.927,0" id="Fill-116" stroke="none" fill="#FFFFFF" fill-rule="evenodd"></path>
                        <path d="M0.927,8 L0.927,0" id="Stroke-117" stroke="#006FF1" stroke-width="3" fill="none" stroke-linecap="round" stroke-linejoin="round"></path>
                    </g>
                </g>
                <polygon id="Fill-119" fill="#F6B44B" mask="url(#mask-2)" points="261.7452 140.4624 253.4322 143.0624 261.7452 148.4804 265.1732 146.3734"></polygon>
                <polygon id="Stroke-120" stroke="#006FF1" stroke-linecap="round" stroke-linejoin="round" mask="url(#mask-2)" points="261.7452 140.4624 253.4322 143.0624 261.7452 148.4804 265.1732 146.3734"></polygon>
                <polyline id="Stroke-121" stroke="#006FF1" stroke-linecap="round" stroke-linejoin="round" mask="url(#mask-2)" points="261.7452 140.4624 265.1732 131.3214 262.1532 128.5974 263.4592 126.3094 261.0112 124.3924 259.3032 123.0534"></polyline>
                <path d="M264.2655,120.2377 L261.0115,124.3917" id="Stroke-122" stroke="#006FF1" stroke-linecap="round" stroke-linejoin="round" mask="url(#mask-2)"></path>
                <polyline id="Stroke-123" stroke="#006FF1" stroke-linecap="round" stroke-linejoin="round" mask="url(#mask-2)" points="265.173 146.3736 275.603 144.9866 277.939 148.4806 286.281 152.3276"></polyline>
                <polyline id="Stroke-124" stroke="#006FF1" stroke-linecap="round" stroke-linejoin="round" mask="url(#mask-2)" points="261.9334 148.4843 263.2034 153.0143 261.3184 157.1653"></polyline>
                <polyline id="Stroke-125" stroke="#006FF1" stroke-linecap="round" stroke-linejoin="round" mask="url(#mask-2)" points="263.2033 153.0146 270.3043 162.1096 274.2973 167.2246 277.8773 165.1616 278.9783 172.1566"></polyline>
                <path d="M274.9441,159.8101 L269.1561,160.2881" id="Stroke-126" stroke="#006FF1" stroke-linecap="round" stroke-linejoin="round" mask="url(#mask-2)"></path>
                <polygon id="Fill-127" fill="#FFFFFF" mask="url(#mask-2)" points="333.487 206.953 402.331 206.953 402.331 53.246 333.487 53.246"></polygon>
                <path d="M390.927,201.1247 C357.927,209.2347 336.927,197.2837 336.927,197.2837 L336.927,63.1407 C363.927,68.5627 390.927,66.2137 390.927,66.2137 L390.927,201.1247 Z M420.487,42.4577 C420.487,42.4577 402.378,46.6997 374.476,46.6997 C344.958,46.6997 327.927,42.7307 327.927,42.7307 L327.927,217.9647 L327.927,218.5237 C327.927,222.2227 348.529,230.4167 374.346,230.4167 C400.164,230.4167 420.927,222.2227 420.927,218.5237 L420.927,217.9647 L420.927,42.4597 L420.487,42.4577 Z" id="Fill-128" fill="#FFFFFF" mask="url(#mask-2)"></path>
                <path d="M390.927,201.1247 C357.927,209.2347 336.927,197.2837 336.927,197.2837 L336.927,63.1407 C363.927,68.5627 390.927,66.2137 390.927,66.2137 L390.927,201.1247 Z M420.487,42.4577 C420.487,42.4577 402.378,46.6997 374.476,46.6997 C344.958,46.6997 327.927,42.7307 327.927,42.7307 L327.927,217.9647 L327.927,218.5237 C327.927,222.2227 348.529,230.4167 374.346,230.4167 C400.164,230.4167 420.927,222.2227 420.927,218.5237 L420.927,217.9647 L420.927,42.4597 L420.487,42.4577 Z" id="Stroke-129" stroke="#006FF1" stroke-width="3" stroke-linecap="round" stroke-linejoin="round" mask="url(#mask-2)"></path>
                <path d="M420.927,42.4064 C420.927,39.0504 400.108,36.3304 374.427,36.3304 C348.746,36.3304 327.927,39.0504 327.927,42.4064 C327.927,45.7614 348.746,48.4824 374.427,48.4824 C400.108,48.4824 420.927,45.7614 420.927,42.4064" id="Fill-130" fill="#FFFFFF" mask="url(#mask-2)"></path>
                <path d="M420.927,42.4064 C420.927,39.0504 400.108,36.3304 374.427,36.3304 C348.746,36.3304 327.927,39.0504 327.927,42.4064 C327.927,45.7614 348.746,48.4824 374.427,48.4824 C400.108,48.4824 420.927,45.7614 420.927,42.4064 Z" id="Stroke-131" stroke="#006FF1" stroke-width="3" stroke-linecap="round" stroke-linejoin="round" mask="url(#mask-2)"></path>
                <path d="M402.3313,31.0122 C402.3313,34.3502 389.6143,37.0552 373.9273,37.0552 C358.2393,37.0552 345.5223,34.3502 345.5223,31.0122 C345.5223,27.6742 358.2393,24.9692 373.9273,24.9692 C389.6143,24.9692 402.3313,27.6742 402.3313,31.0122" id="Fill-132" fill="#FFFFFF" mask="url(#mask-2)"></path>
                <path d="M402.3313,31.0122 C402.3313,34.3502 389.6143,37.0552 373.9273,37.0552 C358.2393,37.0552 345.5223,34.3502 345.5223,31.0122 C345.5223,27.6742 358.2393,24.9692 373.9273,24.9692 C389.6143,24.9692 402.3313,27.6742 402.3313,31.0122 Z" id="Stroke-133" stroke="#006FF1" stroke-width="3" stroke-linecap="round" stroke-linejoin="round" mask="url(#mask-2)"></path>
                <path d="M382.0677,12.2118 C382.0677,13.1708 378.4137,13.9478 373.9067,13.9478 C369.3987,13.9478 365.7457,13.1708 365.7457,12.2118 C365.7457,11.2528 369.3987,10.4758 373.9067,10.4758 C378.4137,10.4758 382.0677,11.2528 382.0677,12.2118" id="Fill-134" fill="#FFFFFF" mask="url(#mask-2)"></path>
                <path d="M382.0677,12.2118 C382.0677,13.1708 378.4137,13.9478 373.9067,13.9478 C369.3987,13.9478 365.7457,13.1708 365.7457,12.2118 C365.7457,11.2528 369.3987,10.4758 373.9067,10.4758 C378.4137,10.4758 382.0677,11.2528 382.0677,12.2118 Z" id="Stroke-135" stroke="#006FF1" stroke-width="3" stroke-linecap="round" stroke-linejoin="round" mask="url(#mask-2)"></path>
                <path d="M392.6913,21.5745 C392.6913,23.7795 384.2903,25.5665 373.9273,25.5665 C363.5633,25.5665 355.1623,23.7795 355.1623,21.5745 C355.1623,19.3695 363.5633,17.5825 373.9273,17.5825 C384.2903,17.5825 392.6913,19.3695 392.6913,21.5745" id="Fill-136" fill="#FFFFFF" mask="url(#mask-2)"></path>
                <path d="M392.6913,21.5745 C392.6913,23.7795 384.2903,25.5665 373.9273,25.5665 C363.5633,25.5665 355.1623,23.7795 355.1623,21.5745 C355.1623,19.3695 363.5633,17.5825 373.9273,17.5825 C384.2903,17.5825 392.6913,19.3695 392.6913,21.5745 Z" id="Stroke-137" stroke="#006FF1" stroke-width="3" stroke-linecap="round" stroke-linejoin="round" mask="url(#mask-2)"></path>
                <g id="Group-140" mask="url(#mask-2)">
                    <g transform="translate(373.000000, 37.500000)">
                        <path d="M0.927,6 L0.927,0" id="Fill-138" stroke="none" fill="#FFFFFF" fill-rule="evenodd"></path>
                        <path d="M0.927,6 L0.927,0" id="Stroke-139" stroke="#006FF1" stroke-width="3" fill="none" stroke-linecap="round" stroke-linejoin="round"></path>
                    </g>
                </g>
                <g id="Group-143" mask="url(#mask-2)">
                    <g transform="translate(373.000000, 25.500000)">
                        <path d="M0.927,5 L0.927,0" id="Fill-141" stroke="none" fill="#FFFFFF" fill-rule="evenodd"></path>
                        <path d="M0.927,5 L0.927,0" id="Stroke-142" stroke="#006FF1" stroke-width="3" fill="none" stroke-linecap="round" stroke-linejoin="round"></path>
                    </g>
                </g>
                <g id="Group-146" mask="url(#mask-2)">
                    <g transform="translate(373.000000, 14.500000)">
                        <path d="M0.927,6 L0.927,0" id="Fill-144" stroke="none" fill="#FFFFFF" fill-rule="evenodd"></path>
                        <path d="M0.927,6 L0.927,0" id="Stroke-145" stroke="#006FF1" stroke-width="3" fill="none" stroke-linecap="round" stroke-linejoin="round"></path>
                    </g>
                </g>
                <g id="Group-149" mask="url(#mask-2)">
                    <g transform="translate(373.000000, 1.500000)">
                        <path d="M0.927,8 L0.927,0" id="Fill-147" stroke="none" fill="#FFFFFF" fill-rule="evenodd"></path>
                        <path d="M0.927,8 L0.927,0" id="Stroke-148" stroke="#006FF1" stroke-width="3" fill="none" stroke-linecap="round" stroke-linejoin="round"></path>
                    </g>
                </g>
                <polygon id="Fill-150" fill="#F6B44B" mask="url(#mask-2)" points="372.927 81.4624 372.927 89.4804 390.927 98.1234"></polygon>
                <polygon id="Stroke-151" stroke="#006FF1" stroke-linecap="round" stroke-linejoin="round" mask="url(#mask-2)" points="372.927 81.4624 372.927 89.4804 390.927 98.1234"></polygon>
                <polyline id="Stroke-152" stroke="#006FF1" stroke-linecap="round" stroke-linejoin="round" mask="url(#mask-2)" points="372.927 81.4624 363.927 74.1454 366.097 70.5624 363.927 66.4014"></polyline>
                <path d="M369.742,78.8729 L371.471,72.8019" id="Stroke-153" stroke="#006FF1" stroke-linecap="round" stroke-linejoin="round" mask="url(#mask-2)"></path>
                <polyline id="Stroke-154" stroke="#006FF1" stroke-linecap="round" stroke-linejoin="round" mask="url(#mask-2)" points="345.5227 120.2377 354.2317 117.8037 350.8727 100.3397 354.9027 93.1197 362.5147 96.7577 372.9267 89.4807 367.9097 97.8767"></polyline>
                <polyline id="Stroke-155" stroke="#006FF1" stroke-linecap="round" stroke-linejoin="round" mask="url(#mask-2)" points="352.2751 107.6309 359.2251 113.5499 358.2611 117.5799"></polyline>
                <polygon id="Fill-156" fill="#FFFFFF" mask="url(#mask-2)" points="598.1577 331.1476 593.3497 375.0306 394.4797 375.0306 389.4577 331.1476 409.3647 293.1966 579.9737 293.1966"></polygon>
                <polygon id="Stroke-157" stroke="#006FF1" stroke-width="3" stroke-linecap="round" stroke-linejoin="round" mask="url(#mask-2)" points="598.1577 331.1476 593.3497 375.0306 394.4797 375.0306 389.4577 331.1476 409.3647 293.1966 579.9737 293.1966"></polygon>
                <polygon id="Fill-158" fill="#FFFFFF" mask="url(#mask-2)" points="577.8409 315.6816 409.7749 315.6816 425.8059 285.1196 563.1979 285.1196"></polygon>
                <polygon id="Stroke-159" stroke="#006FF1" stroke-width="3" stroke-linecap="round" stroke-linejoin="round" mask="url(#mask-2)" points="577.8409 315.6816 409.7749 315.6816 425.8059 285.1196 563.1979 285.1196"></polygon>
                <path d="M398.427,334 L588.427,334" id="Stroke-160" stroke="#006FF1" stroke-linecap="round" stroke-linejoin="round" mask="url(#mask-2)"></path>
                <path d="M534.3596,272.1616 L551.0496,272.1616 L548.8786,254.7826 C548.8786,254.7826 537.4806,235.6266 533.5456,254.0206 C529.6106,272.4156 534.3596,272.1616 534.3596,272.1616" id="Fill-161" fill="#FFFFFF" mask="url(#mask-2)"></path>
                <g id="Group-164" mask="url(#mask-2)">
                    <g transform="translate(454.000000, 245.500000)">
                        <path d="M85.7239,0.5487 C85.7239,0.5487 78.1739,1.1897 78.1739,14.2747 L78.1739,51.8087 L1.0219,51.8087 L1.0219,17.3557 C1.0219,17.3557 -1.3031,0.5487 11.8699,0.5487 L85.7239,0.5487 C85.7239,0.5487 94.6249,-0.3113 94.6249,13.8457 C94.6249,13.8457 94.4269,26.3887 102.9319,26.1737 C111.4369,25.9597 110.4479,13.6307 110.4479,13.6307 L110.4479,8.4827 L94.0939,8.4827" id="Fill-162" stroke="none" fill="#FFFFFF" fill-rule="evenodd"></path>
                        <path d="M85.7239,0.5487 C85.7239,0.5487 78.1739,1.1897 78.1739,14.2747 L78.1739,51.8087 L1.0219,51.8087 L1.0219,17.3557 C1.0219,17.3557 -1.3031,0.5487 11.8699,0.5487 L85.7239,0.5487 C85.7239,0.5487 94.6249,-0.3113 94.6249,13.8457 C94.6249,13.8457 94.4269,26.3887 102.9319,26.1737 C111.4369,25.9597 110.4479,13.6307 110.4479,13.6307 L110.4479,8.4827 L94.0939,8.4827" id="Stroke-163" stroke="#006FF1" stroke-width="2.996" fill="none" stroke-linecap="round" stroke-linejoin="round"></path>
                    </g>
                </g>
                <path d="M532.1743,271.6739 L556.9323,271.6739" id="Stroke-165" stroke="#006FF1" stroke-width="2.996" stroke-linecap="round" stroke-linejoin="round" mask="url(#mask-2)"></path>
                <path d="M463.0786,255.6639 L477.1856,255.6639" id="Stroke-166" stroke="#006FF1" stroke-width="1.04" stroke-linecap="round" stroke-linejoin="round" mask="url(#mask-2)"></path>
                <path d="M486.0387,255.6639 L500.1457,255.6639" id="Stroke-167" stroke="#006FF1" stroke-width="1.04" stroke-linecap="round" stroke-linejoin="round" mask="url(#mask-2)"></path>
                <path d="M508.9987,255.6639 L523.1057,255.6639" id="Stroke-168" stroke="#006FF1" stroke-width="1.04" stroke-linecap="round" stroke-linejoin="round" mask="url(#mask-2)"></path>
                <path d="M463.0786,264.8767 L477.1856,264.8767" id="Stroke-169" stroke="#006FF1" stroke-width="1.04" stroke-linecap="round" stroke-linejoin="round" mask="url(#mask-2)"></path>
                <path d="M486.0387,264.8767 L500.1457,264.8767" id="Stroke-170" stroke="#006FF1" stroke-width="1.04" stroke-linecap="round" stroke-linejoin="round" mask="url(#mask-2)"></path>
                <path d="M508.9987,264.8767 L523.1057,264.8767" id="Stroke-171" stroke="#006FF1" stroke-width="1.04" stroke-linecap="round" stroke-linejoin="round" mask="url(#mask-2)"></path>
                <path d="M486.0387,274.0894 L500.1457,274.0894" id="Stroke-172" stroke="#006FF1" stroke-width="1.04" stroke-linecap="round" stroke-linejoin="round" mask="url(#mask-2)"></path>
                <path d="M508.9987,274.0894 L523.1057,274.0894" id="Stroke-173" stroke="#006FF1" stroke-width="1.04" stroke-linecap="round" stroke-linejoin="round" mask="url(#mask-2)"></path>
                <path d="M486.0387,283.3022 L500.1457,283.3022" id="Stroke-174" stroke="#006FF1" stroke-width="1.04" stroke-linecap="round" stroke-linejoin="round" mask="url(#mask-2)"></path>
                <path d="M508.9987,283.3022 L523.1057,283.3022" id="Stroke-175" stroke="#006FF1" stroke-width="1.04" stroke-linecap="round" stroke-linejoin="round" mask="url(#mask-2)"></path>
                <polygon id="Fill-176" fill="#006FF1" mask="url(#mask-2)" points="545.8821 300.4006 443.9331 300.4006 445.3181 296.3096 544.5531 296.3096"></polygon>
                <polygon id="Fill-177" fill="#FFFFFF" mask="url(#mask-2)" points="409.7746 315.6816 389.4576 331.1476 409.3646 293.1966 425.8056 285.1196"></polygon>
                <polygon id="Stroke-178" stroke="#006FF1" stroke-width="3" stroke-linecap="round" stroke-linejoin="round" mask="url(#mask-2)" points="409.7746 315.6816 389.4576 331.1476 409.3646 293.1966 425.8056 285.1196"></polygon>
                <polygon id="Fill-179" fill="#FFFFFF" mask="url(#mask-2)" points="577.8409 315.6816 598.1579 331.1476 579.9739 293.1966 563.1979 285.1196"></polygon>
                <polygon id="Stroke-180" stroke="#006FF1" stroke-width="3" stroke-linecap="round" stroke-linejoin="round" mask="url(#mask-2)" points="577.8409 315.6816 598.1579 331.1476 579.9739 293.1966 563.1979 285.1196"></polygon>
                <path d="M573.0112,375.0315 L573.0112,355.4395 C573.0112,348.8395 567.6112,343.4395 561.0112,343.4395 L424.7682,343.4395 C418.1682,343.4395 412.7682,348.8395 412.7682,355.4395 L412.7682,375.0315" id="Stroke-181" stroke="#006FF1" stroke-linecap="round" stroke-linejoin="round" mask="url(#mask-2)"></path>
                <polygon id="Fill-182" fill="#006FF1" mask="url(#mask-2)" points="536.0405 350.765 450.3005 350.765 451.4555 375.031 534.7815 375.031"></polygon>
                <path d="M538.4496,395.9202 L531.5076,374.0002 L497.8736,374.0002 L489.7766,374.0002 L456.1426,374.0002 L449.2006,395.9202 C449.2006,395.9202 448.6766,398.0562 449.7666,399.3212 C450.9686,400.7162 453.5066,401.0002 453.5066,401.0002 L489.7766,401.0002 L497.8736,401.0002 L534.1446,401.0002 C534.1446,401.0002 536.6816,400.7162 537.8836,399.3212 C538.9736,398.0562 538.4496,395.9202 538.4496,395.9202" id="Fill-183" fill="#FFFFFF" mask="url(#mask-2)"></path>
                <path d="M538.4496,395.9202 L531.5076,374.0002 L497.8736,374.0002 L489.7766,374.0002 L456.1426,374.0002 L449.2006,395.9202 C449.2006,395.9202 448.6766,398.0562 449.7666,399.3212 C450.9686,400.7162 453.5066,401.0002 453.5066,401.0002 L489.7766,401.0002 L497.8736,401.0002 L534.1446,401.0002 C534.1446,401.0002 536.6816,400.7162 537.8836,399.3212 C538.9736,398.0562 538.4496,395.9202 538.4496,395.9202 Z" id="Stroke-184" stroke="#006FF1" stroke-width="3" stroke-linecap="round" stroke-linejoin="round" mask="url(#mask-2)"></path>
                <path d="M523.8216,382.4473 L519.1546,368.0003 L496.5466,368.0003 L491.1036,368.0003 L468.4956,368.0003 L463.8286,382.4473 C463.8286,382.4473 463.4766,383.9523 464.2096,384.8023 C465.0176,385.7403 466.7226,386.0003 466.7226,386.0003 L491.1036,386.0003 L496.5466,386.0003 L520.9276,386.0003 C520.9276,386.0003 522.6336,385.7403 523.4416,384.8023 C524.1736,383.9523 523.8216,382.4473 523.8216,382.4473" id="Fill-185" fill="#FFFFFF" mask="url(#mask-2)"></path>
                <path d="M523.8216,382.4473 L519.1546,368.0003 L496.5466,368.0003 L491.1036,368.0003 L468.4956,368.0003 L463.8286,382.4473 C463.8286,382.4473 463.4766,383.9523 464.2096,384.8023 C465.0176,385.7403 466.7226,386.0003 466.7226,386.0003 L491.1036,386.0003 L496.5466,386.0003 L520.9276,386.0003 C520.9276,386.0003 522.6336,385.7403 523.4416,384.8023 C524.1736,383.9523 523.8216,382.4473 523.8216,382.4473 Z" id="Stroke-186" stroke="#006FF1" stroke-width="3" stroke-linecap="round" stroke-linejoin="round" mask="url(#mask-2)"></path>
                <polygon id="Fill-187" fill="#FFFFFF" mask="url(#mask-2)" points="129.927 329.5 129.927 352.5 320.708 397.774 335.927 376.643 335.927 355.923 320.708 376.643"></polygon>
                <polygon id="Stroke-188" stroke="#006FF1" stroke-width="3" stroke-linecap="round" stroke-linejoin="round" mask="url(#mask-2)" points="129.927 329.5 129.927 352.5 320.708 397.774 335.927 376.643 335.927 355.923 320.708 376.643"></polygon>
                <polygon id="Fill-189" fill="#FFFFFF" mask="url(#mask-2)" points="336.183 355.9234 149.319 313.2924 129.927 329.5004 320.836 376.6434"></polygon>
                <polygon id="Stroke-190" stroke="#006FF1" stroke-width="3" stroke-linecap="round" stroke-linejoin="round" mask="url(#mask-2)" points="336.183 355.9234 149.319 313.2924 129.927 329.5004 320.836 376.6434"></polygon>
                <path d="M202.8842,334.9729 L200.9422,336.4999 L204.3852,337.0919 C204.3852,337.0919 208.4452,336.5619 206.0622,335.5909 C203.6782,334.6199 202.8842,334.9729 202.8842,334.9729" id="Fill-191" fill="#006FF1" mask="url(#mask-2)"></path>
                <path d="M229.8842,340.9729 L227.9422,342.4999 L231.3852,343.0919 C231.3852,343.0919 235.4452,342.5619 233.0622,341.5909 C230.6782,340.6199 229.8842,340.9729 229.8842,340.9729" id="Fill-192" fill="#006FF1" mask="url(#mask-2)"></path>
                <path d="M257.8842,346.9729 L255.9422,348.4999 L259.3852,349.0919 C259.3852,349.0919 263.4452,348.5619 261.0622,347.5909 C258.6782,346.6199 257.8842,346.9729 257.8842,346.9729" id="Fill-193" fill="#006FF1" mask="url(#mask-2)"></path>
                <path d="M214.0663,334.9103 L221.3113,336.5003" id="Stroke-194" stroke="#006FF1" stroke-linecap="round" stroke-linejoin="round" mask="url(#mask-2)"></path>
                <path d="M208.34,339.7086 L214.577,340.8966" id="Stroke-195" stroke="#006FF1" stroke-linecap="round" stroke-linejoin="round" mask="url(#mask-2)"></path>
                <path d="M241.0663,340.9103 L248.3113,342.5003" id="Stroke-196" stroke="#006FF1" stroke-linecap="round" stroke-linejoin="round" mask="url(#mask-2)"></path>
                <path d="M235.34,345.7086 L241.577,346.8966" id="Stroke-197" stroke="#006FF1" stroke-linecap="round" stroke-linejoin="round" mask="url(#mask-2)"></path>
                <path d="M268.0663,346.9103 L275.3113,348.5003" id="Stroke-198" stroke="#006FF1" stroke-linecap="round" stroke-linejoin="round" mask="url(#mask-2)"></path>
                <path d="M262.34,351.7086 L268.577,352.8966" id="Stroke-199" stroke="#006FF1" stroke-linecap="round" stroke-linejoin="round" mask="url(#mask-2)"></path>
                <polygon id="Fill-200" fill="#FFFFFF" mask="url(#mask-2)" points="150.8177 328.6407 162.0327 331.3147 171.9267 323.1587 171.9267 294.4997 164.4457 300.9687 152.4267 298.1947"></polygon>
                <polygon id="Stroke-201" stroke="#006FF1" stroke-width="3" stroke-linecap="round" stroke-linejoin="round" mask="url(#mask-2)" points="150.8177 328.6407 162.0327 331.3147 171.9267 323.1587 171.9267 294.4997 164.4457 300.9687 152.4267 298.1947"></polygon>
                <path d="M163.8268,305.1972 L162.8608,326.3282" id="Stroke-202" stroke="#006FF1" stroke-linecap="round" stroke-linejoin="round" mask="url(#mask-2)"></path>
                <polygon id="Fill-203" fill="#FFFFFF" mask="url(#mask-2)" points="150.9648 325.8574 144.9268 323.8184 144.9268 305.5004 151.9648 306.9294"></polygon>
                <polygon id="Stroke-204" stroke="#006FF1" stroke-width="3" stroke-linecap="round" stroke-linejoin="round" mask="url(#mask-2)" points="150.9648 325.8574 144.9268 323.8184 144.9268 305.5004 151.9648 306.9294"></polygon>
                <polygon id="Fill-205" fill="#FFFFFF" mask="url(#mask-2)" points="144.927 305.5 152.369 299.281 151.965 306.93"></polygon>
                <polygon id="Stroke-206" stroke="#006FF1" stroke-width="3" stroke-linecap="round" stroke-linejoin="round" mask="url(#mask-2)" points="144.927 305.5 152.369 299.281 151.965 306.93"></polygon>
                <polygon id="Fill-207" fill="#FFFFFF" mask="url(#mask-2)" points="152.4264 298.195 160.6644 292.357 171.9274 294.5 164.4454 300.969"></polygon>
                <polygon id="Stroke-208" stroke="#006FF1" stroke-width="3" stroke-linecap="round" stroke-linejoin="round" mask="url(#mask-2)" points="152.4264 298.195 160.6644 292.357 171.9274 294.5 164.4454 300.969"></polygon>
                <path d="M155.6512,295.9094 C155.6512,295.9094 163.1962,300.5174 169.3142,295.9094 C169.3142,295.9094 170.2872,294.4484 168.8612,293.6384 C168.8612,293.6384 170.1582,291.6934 168.1162,290.8184 C168.1162,290.8184 169.1532,288.4854 167.2082,287.6104 C167.2082,287.6104 168.3752,285.6654 166.8842,284.3694 C166.8842,284.3694 168.7722,280.7964 165.1962,280.2104 C161.6192,279.6234 152.0042,279.7994 153.9972,284.0214 C153.9972,284.0214 152.7072,286.2494 154.1152,287.6564 C154.1152,287.6564 153.1762,290.3534 154.9942,291.8774 C154.9942,291.8774 153.8452,294.2544 155.6512,295.9094" id="Fill-209" fill="#FFFFFF" mask="url(#mask-2)"></path>
                <path d="M155.6512,295.9094 C155.6512,295.9094 163.1962,300.5174 169.3142,295.9094 C169.3142,295.9094 170.2872,294.4484 168.8612,293.6384 C168.8612,293.6384 170.1582,291.6934 168.1162,290.8184 C168.1162,290.8184 169.1532,288.4854 167.2082,287.6104 C167.2082,287.6104 168.3752,285.6654 166.8842,284.3694 C166.8842,284.3694 168.7722,280.7964 165.1962,280.2104 C161.6192,279.6234 152.0042,279.7994 153.9972,284.0214 C153.9972,284.0214 152.7072,286.2494 154.1152,287.6564 C154.1152,287.6564 153.1762,290.3534 154.9942,291.8774 C154.9942,291.8774 153.8452,294.2544 155.6512,295.9094 Z" id="Stroke-210" stroke="#006FF1" stroke-width="3" stroke-linecap="round" stroke-linejoin="round" mask="url(#mask-2)"></path>
                <path d="M159.3915,287.6562 C159.3915,287.6562 163.0265,287.8322 164.9025,286.9522" id="Stroke-211" stroke="#006FF1" stroke-linecap="round" stroke-linejoin="round" mask="url(#mask-2)"></path>
                <path d="M159.7433,291.1741 C159.7433,291.1741 163.2933,291.9951 165.8413,290.7051" id="Stroke-212" stroke="#006FF1" stroke-linecap="round" stroke-linejoin="round" mask="url(#mask-2)"></path>
                <path d="M159.3915,293.9069 C159.3915,293.9069 163.4675,295.1589 166.3555,293.6109" id="Stroke-213" stroke="#006FF1" stroke-linecap="round" stroke-linejoin="round" mask="url(#mask-2)"></path>
                <polygon id="Fill-214" fill="#FFFFFF" mask="url(#mask-2)" points="179.8177 336.6407 191.0327 339.3147 200.9267 331.1587 200.9267 302.4997 193.4457 308.9687 181.4267 306.1947"></polygon>
                <polygon id="Stroke-215" stroke="#006FF1" stroke-width="3" stroke-linecap="round" stroke-linejoin="round" mask="url(#mask-2)" points="179.8177 336.6407 191.0327 339.3147 200.9267 331.1587 200.9267 302.4997 193.4457 308.9687 181.4267 306.1947"></polygon>
                <path d="M192.8268,313.1972 L191.8608,334.3282" id="Stroke-216" stroke="#006FF1" stroke-linecap="round" stroke-linejoin="round" mask="url(#mask-2)"></path>
                <polygon id="Fill-217" fill="#FFFFFF" mask="url(#mask-2)" points="179.9648 333.8574 173.9268 331.8184 173.9268 313.5004 180.9648 314.9294"></polygon>
                <polygon id="Stroke-218" stroke="#006FF1" stroke-width="3" stroke-linecap="round" stroke-linejoin="round" mask="url(#mask-2)" points="179.9648 333.8574 173.9268 331.8184 173.9268 313.5004 180.9648 314.9294"></polygon>
                <polygon id="Fill-219" fill="#FFFFFF" mask="url(#mask-2)" points="173.927 313.5 181.369 307.281 180.965 314.93"></polygon>
                <polygon id="Stroke-220" stroke="#006FF1" stroke-width="3" stroke-linecap="round" stroke-linejoin="round" mask="url(#mask-2)" points="173.927 313.5 181.369 307.281 180.965 314.93"></polygon>
                <path d="M184.6512,303.9094 C184.6512,303.9094 192.1962,308.5174 198.3142,303.9094 C198.3142,303.9094 199.2872,302.4484 197.8612,301.6384 C197.8612,301.6384 199.1582,299.6934 197.1162,298.8184 C197.1162,298.8184 198.1532,296.4854 196.2082,295.6104 C196.2082,295.6104 197.3752,293.6654 195.8842,292.3694 C195.8842,292.3694 197.7722,288.7964 194.1962,288.2104 C190.6192,287.6234 181.0042,287.7994 182.9972,292.0214 C182.9972,292.0214 181.7072,294.2494 183.1152,295.6564 C183.1152,295.6564 182.1762,298.3534 183.9942,299.8774 C183.9942,299.8774 182.8452,302.2544 184.6512,303.9094" id="Fill-221" fill="#FFFFFF" mask="url(#mask-2)"></path>
                <path d="M184.6512,303.9094 C184.6512,303.9094 192.1962,308.5174 198.3142,303.9094 C198.3142,303.9094 199.2872,302.4484 197.8612,301.6384 C197.8612,301.6384 199.1582,299.6934 197.1162,298.8184 C197.1162,298.8184 198.1532,296.4854 196.2082,295.6104 C196.2082,295.6104 197.3752,293.6654 195.8842,292.3694 C195.8842,292.3694 197.7722,288.7964 194.1962,288.2104 C190.6192,287.6234 181.0042,287.7994 182.9972,292.0214 C182.9972,292.0214 181.7072,294.2494 183.1152,295.6564 C183.1152,295.6564 182.1762,298.3534 183.9942,299.8774 C183.9942,299.8774 182.8452,302.2544 184.6512,303.9094 Z" id="Stroke-222" stroke="#006FF1" stroke-width="3" stroke-linecap="round" stroke-linejoin="round" mask="url(#mask-2)"></path>
                <path d="M188.3915,295.6562 C188.3915,295.6562 192.0265,295.8322 193.9025,294.9522" id="Stroke-223" stroke="#006FF1" stroke-linecap="round" stroke-linejoin="round" mask="url(#mask-2)"></path>
                <path d="M188.7433,299.1741 C188.7433,299.1741 192.2933,299.9951 194.8413,298.7051" id="Stroke-224" stroke="#006FF1" stroke-linecap="round" stroke-linejoin="round" mask="url(#mask-2)"></path>
                <path d="M188.3915,301.9069 C188.3915,301.9069 192.4675,303.1589 195.3555,301.6109" id="Stroke-225" stroke="#006FF1" stroke-linecap="round" stroke-linejoin="round" mask="url(#mask-2)"></path>
                <polygon id="Fill-226" fill="#FFFFFF" mask="url(#mask-2)" points="296.9492 360.8046 312.0852 364.7196 322.1822 350.2246 306.8282 347.1586"></polygon>
                <polygon id="Stroke-227" stroke="#006FF1" stroke-width="3" stroke-linecap="round" stroke-linejoin="round" mask="url(#mask-2)" points="296.9492 360.8046 312.0852 364.7196 322.1822 350.2246 306.8282 347.1586"></polygon>
                <path d="M160.3724,283.0775 C160.3724,283.0775 159.0994,247.8805 130.7694,268.0545 C102.4404,288.2285 47.5754,299.9685 47.5754,299.9685 C47.5754,299.9685 2.0004,308.3225 2.0004,280.8915 C2.0004,253.4605 18.6794,239.2955 29.4404,237.5785 C40.2014,235.8615 60.6004,235.8475 61.3464,229.4165" id="Stroke-228" stroke="#006FF1" stroke-width="4" stroke-linecap="round" stroke-linejoin="round" mask="url(#mask-2)"></path>
                <path d="M190.548,291.0684 C190.548,291.0684 189.741,281.9784 186.04,277.1384 C182.34,272.2994 161.56,251.8044 132.81,277.1384 C104.06,302.4724 124.84,254.3664 124.84,254.3664 C124.84,254.3664 130.67,238.4264 119.927,234.4414 C109.184,230.4564 103.776,243.8344 103.776,243.8344 C103.776,243.8344 98.423,254.9364 108.927,258.9214 C119.432,262.9064 130.831,260.9134 146.48,248.6734 C162.129,236.4334 162.792,230.3594 162.792,230.3594" id="Stroke-229" stroke="#006FF1" stroke-width="4" stroke-linecap="round" stroke-linejoin="round" mask="url(#mask-2)"></path>
                <path d="M327.927,377 C327.927,377 374.253,380.434 367.91,364.72 C361.566,349.007 326.619,350.865 333.488,334.328 C340.356,317.791 397.528,315.763 397.528,315.763" id="Stroke-230" stroke="#006FF1" stroke-width="4" stroke-linecap="round" stroke-linejoin="round" mask="url(#mask-2)"></path>
                <polyline id="Stroke-231" stroke="#006FF1" stroke-width="2" stroke-linecap="round" stroke-linejoin="round" mask="url(#mask-2)" points="470.427 284.5 465.312 284.5 475.319 271.329"></polyline>
                <path d="M465.89,271.3293 L475.675,284.5003" id="Stroke-232" stroke="#006FF1" stroke-width="2" stroke-linecap="round" stroke-linejoin="round" mask="url(#mask-2)"></path>
                <path d="M309.927,53.5 L309.927,112.5" id="Stroke-233" stroke="#006FF1" stroke-linecap="round" stroke-linejoin="round" mask="url(#mask-2)"></path>
                <path d="M309.927,117.5 L309.927,136.5" id="Stroke-234" stroke="#006FF1" stroke-linecap="round" stroke-linejoin="round" mask="url(#mask-2)"></path>
                <path d="M412.927,53.5 L412.927,112.5" id="Stroke-235" stroke="#006FF1" stroke-linecap="round" stroke-linejoin="round" mask="url(#mask-2)"></path>
                <path d="M412.927,117.5 L412.927,136.5" id="Stroke-236" stroke="#006FF1" stroke-linecap="round" stroke-linejoin="round" mask="url(#mask-2)"></path>
                <path d="M204.927,53.5 L204.927,112.5" id="Stroke-237" stroke="#006FF1" stroke-linecap="round" stroke-linejoin="round" mask="url(#mask-2)"></path>
                <path d="M204.927,117.5 L204.927,136.5" id="Stroke-238" stroke="#006FF1" stroke-linecap="round" stroke-linejoin="round" mask="url(#mask-2)"></path>
                <path d="M101.927,53.5 L101.927,112.5" id="Stroke-239" stroke="#006FF1" stroke-linecap="round" stroke-linejoin="round" mask="url(#mask-2)"></path>
                <path d="M101.927,117.5 L101.927,136.5" id="Stroke-240" stroke="#006FF1" stroke-linecap="round" stroke-linejoin="round" mask="url(#mask-2)"></path>
                <path d="M302.927,226.5 L302.927,217.5" id="Stroke-241" stroke="#006FF1" stroke-linecap="round" stroke-linejoin="round" mask="url(#mask-2)"></path>
                <path d="M306.927,224.5 L306.927,212.5" id="Stroke-242" stroke="#006FF1" stroke-linecap="round" stroke-linejoin="round" mask="url(#mask-2)"></path>
                <path d="M310.927,222.5 L310.927,204.5" id="Stroke-243" stroke="#006FF1" stroke-linecap="round" stroke-linejoin="round" mask="url(#mask-2)"></path>
                <path d="M406.927,226.5 L406.927,217.5" id="Stroke-244" stroke="#006FF1" stroke-linecap="round" stroke-linejoin="round" mask="url(#mask-2)"></path>
                <path d="M410.927,224.5 L410.927,212.5" id="Stroke-245" stroke="#006FF1" stroke-linecap="round" stroke-linejoin="round" mask="url(#mask-2)"></path>
                <path d="M414.927,222.5 L414.927,204.5" id="Stroke-246" stroke="#006FF1" stroke-linecap="round" stroke-linejoin="round" mask="url(#mask-2)"></path>
                <path d="M198.927,226.5 L198.927,217.5" id="Stroke-247" stroke="#006FF1" stroke-linecap="round" stroke-linejoin="round" mask="url(#mask-2)"></path>
                <path d="M202.927,224.5 L202.927,212.5" id="Stroke-248" stroke="#006FF1" stroke-linecap="round" stroke-linejoin="round" mask="url(#mask-2)"></path>
                <path d="M206.927,222.5 L206.927,204.5" id="Stroke-249" stroke="#006FF1" stroke-linecap="round" stroke-linejoin="round" mask="url(#mask-2)"></path>
                <path d="M94.927,226.5 L94.927,217.5" id="Stroke-250" stroke="#006FF1" stroke-linecap="round" stroke-linejoin="round" mask="url(#mask-2)"></path>
                <path d="M98.927,224.5 L98.927,212.5" id="Stroke-251" stroke="#006FF1" stroke-linecap="round" stroke-linejoin="round" mask="url(#mask-2)"></path>
                <path d="M102.927,222.5 L102.927,204.5" id="Stroke-252" stroke="#006FF1" stroke-linecap="round" stroke-linejoin="round" mask="url(#mask-2)"></path>
                <path d="M135.6881,344.968 L235.3401,368.994 C235.3401,368.994 239.2341,369.977 243.1661,368.994 C247.0981,368.011 319.0231,385.869 319.0231,385.869" id="Stroke-253" stroke="#006FF1" stroke-linecap="round" stroke-linejoin="round" mask="url(#mask-2)"></path>
            </g>
        </g>
    </g>
</svg>