<?xml version="1.0" encoding="UTF-8"?>
<svg width="426px" height="459px" viewBox="0 0 426 459" version="1.1" xmlns="http://www.w3.org/2000/svg" xmlns:xlink="http://www.w3.org/1999/xlink">
    <!-- Generator: Sketch 46 (44423) - http://www.bohemiancoding.com/sketch -->
    <title>Page 1</title>
    <desc>Created with Sketch.</desc>
    <defs></defs>
    <g id="Main" stroke="none" stroke-width="1" fill="none" fill-rule="evenodd">
        <g id="Bison" transform="translate(-274.000000, -8401.000000)">
            <g id="Page-1" transform="translate(276.000000, 8401.000000)">
                <path d="M271.8044,400.806 L279.6604,425.702 C279.6604,425.702 284.5364,444.302 271.8044,450.262 L201.6494,456.312 L115.7654,451.345 C115.7654,451.345 114.9534,448.049 119.5584,447.778 C124.1634,447.507 194.0564,443.421 194.0564,443.421 C194.0564,443.421 209.7684,441.425 208.6844,430.047 C207.6014,418.67 204.3504,400.806 204.3504,400.806 L271.8044,400.806 Z" id="Stroke-1" stroke="#006FF1" stroke-width="5"></path>
                <path d="M214.2865,437.9451 L270.8985,440.1831" id="Stroke-3" stroke="#006FF1" stroke-width="1.974" stroke-linecap="round" stroke-linejoin="round"></path>
                <path d="M367.1529,54.386 L376.9769,60.477 C376.9769,60.477 378.4299,61.405 379.2069,63.223 C379.9839,65.041 379.7459,67.401 379.7459,67.401 L359.0639,385.725 C359.0639,385.725 359.2829,401.878 345.9039,401.878 C332.5239,401.878 297.0249,399.357 297.0249,399.357" id="Stroke-5" stroke="#006FF1" stroke-width="2.053" stroke-linecap="round" stroke-linejoin="round"></path>
                <path d="M269.9067,83.4263 C189.8907,109.4363 82.5927,144.3393 72.4767,147.7613 C58.8077,152.3863 59.6707,171.0303 59.6707,171.0303 C59.6707,171.0303 42.6867,333.5563 38.5297,378.7103" id="Stroke-7" stroke="#006FF1" stroke-width="6.16"></path>
                <polyline id="Stroke-9" stroke="#006FF1" stroke-width="2.053" stroke-linecap="round" stroke-linejoin="round" points="70.7391 163.7723 52.2071 350.8793 251.7271 335.0683"></polyline>
                <polyline id="Stroke-11" stroke="#006FF1" stroke-width="2.053" stroke-linecap="round" stroke-linejoin="round" points="253.7016 335.0688 332.2606 328.8438 352.9826 73.1588 70.7396 163.7728"></polyline>
                <path d="M38.5299,378.7101 C37.9499,385.0071 37.6179,389.0361 37.6179,390.0081 C37.6179,397.9511 44.3039,398.9771 44.3039,398.9771 C44.3039,398.9771 314.9369,399.8311 329.4509,398.9771 C343.9639,398.1241 345.6719,387.0251 345.6719,387.0251 C345.6719,387.0251 368.3709,84.7841 369.5759,66.0211 C370.5619,50.6851 357.6239,54.9231 357.6239,54.9231 C357.6239,54.9231 318.8699,67.5111 269.9069,83.4261" id="Stroke-13" stroke="#006FF1" stroke-width="5"></path>
                <path d="M283.7299,60.235 L283.3059,47.897 L281.2139,62.077 C281.0989,62.862 280.8869,63.49 280.5779,63.962 C280.2699,64.434 279.9089,64.736 279.4949,64.868 C279.0939,64.995 278.7949,64.906 278.5989,64.599 C278.4019,64.292 278.3619,63.741 278.4789,62.947 L280.8769,46.693 C281.0089,45.797 281.2649,45.139 281.6449,44.72 C282.0249,44.3 282.4989,44 283.0669,43.82 L283.9889,43.526 C284.5429,43.35 284.9349,43.292 285.1649,43.353 C285.3949,43.413 285.5429,43.606 285.6089,43.932 C285.6759,44.258 285.7249,44.808 285.7579,45.581 L286.2319,56.154 L290.0259,44.223 C290.3009,43.352 290.5249,42.715 290.6989,42.313 C290.8729,41.91 291.0949,41.599 291.3669,41.379 C291.6379,41.159 292.0499,40.961 292.6049,40.785 L293.5259,40.492 C294.0939,40.311 294.5219,40.324 294.8099,40.531 C295.0979,40.737 295.1749,41.289 295.0429,42.186 L292.6459,58.44 C292.5299,59.224 292.3179,59.853 292.0089,60.325 C291.7009,60.797 291.3369,61.1 290.9159,61.234 C290.5219,61.359 290.2269,61.266 290.0309,60.954 C289.8349,60.643 289.7949,60.095 289.9109,59.31 L292.0019,45.13 L287.7169,58.966 C287.4379,59.865 287.2209,60.529 287.0659,60.956 C286.9099,61.384 286.6779,61.803 286.3699,62.213 C286.0609,62.623 285.6759,62.901 285.2149,63.048 C284.8679,63.158 284.5899,63.147 284.3799,63.013 C284.1709,62.879 284.0229,62.67 283.9379,62.386 C283.8529,62.101 283.8009,61.773 283.7829,61.4 C283.7639,61.028 283.7469,60.639 283.7299,60.235" id="Fill-15" fill="#006FF1"></path>
                <path d="M300.0963,50.3266 L304.4843,48.9306 L303.5203,41.1576 L300.0963,50.3266 Z M305.1463,54.1546 L304.8253,51.7996 L298.8543,53.6996 L297.7643,56.5576 C297.3383,57.6716 297.0023,58.4396 296.7563,58.8616 C296.5093,59.2826 296.1653,59.5636 295.7243,59.7036 C295.3503,59.8226 295.0483,59.7366 294.8173,59.4446 C294.5863,59.1526 294.5073,58.7646 294.5793,58.2786 C294.6203,57.9986 294.6963,57.6986 294.8073,57.3776 C294.9183,57.0576 295.0893,56.6066 295.3213,56.0256 L301.0463,41.4906 C301.2093,41.0736 301.4063,40.5726 301.6353,39.9876 C301.8653,39.4026 302.0913,38.9056 302.3143,38.4966 C302.5363,38.0876 302.8023,37.7296 303.1123,37.4216 C303.4213,37.1136 303.7803,36.8956 304.1873,36.7656 C304.6013,36.6336 304.9313,36.6336 305.1763,36.7646 C305.4203,36.8966 305.6033,37.1076 305.7223,37.3986 C305.8413,37.6906 305.9303,38.0156 305.9883,38.3756 C306.0473,38.7356 306.1173,39.2186 306.2003,39.8246 L308.0823,51.8586 C308.2333,52.7716 308.2753,53.4576 308.2083,53.9156 C308.1383,54.3916 307.9313,54.8736 307.5893,55.3606 C307.2473,55.8476 306.8753,56.1556 306.4743,56.2826 C306.2403,56.3576 306.0493,56.3626 305.8993,56.2996 C305.7493,56.2356 305.6323,56.1216 305.5483,55.9566 C305.4643,55.7916 305.3883,55.5226 305.3193,55.1486 C305.2503,54.7736 305.1923,54.4426 305.1463,54.1546 L305.1463,54.1546 Z" id="Fill-17" fill="#006FF1"></path>
                <path d="M318.4324,35.5448 L315.6874,36.4178 L314.8544,42.0648 L317.5194,41.2168 C318.2344,40.9898 318.8474,40.7118 319.3614,40.3838 C319.8744,40.0558 320.2894,39.6438 320.6084,39.1458 C320.9264,38.6488 321.1394,38.0358 321.2474,37.3068 C321.3314,36.7368 321.3014,36.2678 321.1584,35.8988 C321.0154,35.5308 320.7764,35.2978 320.4404,35.1998 C320.1234,35.1048 319.4544,35.2198 318.4324,35.5448 M315.4564,44.7178 L314.4144,45.0498 L313.4404,51.6488 C313.3124,52.5178 313.0814,53.2018 312.7464,53.6998 C312.4124,54.1978 312.0244,54.5168 311.5844,54.6568 C311.1094,54.8078 310.7744,54.7098 310.5774,54.3638 C310.3794,54.0168 310.3424,53.4278 310.4654,52.5958 L312.7964,36.7908 C312.9284,35.8938 313.1684,35.1988 313.5144,34.7058 C313.8614,34.2128 314.3544,33.8638 314.9964,33.6598 L319.8354,32.1208 C320.5034,31.9078 321.0684,31.7658 321.5304,31.6948 C321.9934,31.6228 322.3964,31.6478 322.7414,31.7698 C323.1624,31.8938 323.5124,32.1518 323.7924,32.5438 C324.0724,32.9358 324.2544,33.4368 324.3394,34.0458 C324.4244,34.6548 324.4124,35.3338 324.3024,36.0808 C324.0764,37.6128 323.5864,38.9348 322.8334,40.0468 C322.0804,41.1588 321.0484,42.1058 319.7364,42.8888 C320.2064,43.1128 320.6244,43.5318 320.9924,44.1448 C321.3604,44.7578 321.6694,45.4368 321.9194,46.1808 C322.1694,46.9248 322.3484,47.6108 322.4564,48.2398 C322.5634,48.8688 322.5984,49.3138 322.5594,49.5758 C322.5194,49.8468 322.4184,50.1348 322.2554,50.4408 C322.0924,50.7458 321.8934,51.0098 321.6564,51.2318 C321.4204,51.4538 321.1614,51.6098 320.8814,51.6988 C320.5474,51.8048 320.2824,51.7848 320.0884,51.6378 C319.8934,51.4898 319.7394,51.2748 319.6254,50.9898 C319.5114,50.7058 319.3624,50.2818 319.1774,49.7168 L318.3944,47.3218 C318.1174,46.4398 317.8494,45.7858 317.5904,45.3608 C317.3324,44.9358 317.0434,44.6808 316.7254,44.5948 C316.4064,44.5088 315.9834,44.5498 315.4564,44.7178" id="Fill-19" fill="#006FF1"></path>
                <path d="M330.6253,30.757 L329.5633,37.959 L336.6603,27.581 C337.0013,27.081 337.2853,26.702 337.5113,26.443 C337.7373,26.184 338.0133,26.002 338.3413,25.898 C338.7683,25.762 339.0883,25.827 339.3003,26.094 C339.5123,26.36 339.5813,26.745 339.5073,27.25 C339.4173,27.857 339.1043,28.531 338.5693,29.271 L334.2453,35.214 L337.1813,42.239 C337.3903,42.725 337.5353,43.161 337.6183,43.549 C337.7013,43.936 337.7123,44.336 337.6523,44.747 C337.5843,45.204 337.3973,45.642 337.0903,46.061 C336.7833,46.479 336.4103,46.758 335.9693,46.898 C335.5553,47.03 335.2363,47.013 335.0123,46.849 C334.7883,46.684 334.6163,46.425 334.4963,46.071 C334.3763,45.718 334.2713,45.395 334.1813,45.103 L331.7803,38.656 L328.8643,42.695 L328.2383,46.941 C328.1113,47.8 327.8773,48.482 327.5353,48.987 C327.1933,49.492 326.8023,49.815 326.3613,49.955 C326.1073,50.036 325.8773,50.02 325.6713,49.908 C325.4653,49.795 325.3223,49.6 325.2423,49.323 C325.1873,49.091 325.1753,48.806 325.2063,48.467 C325.2373,48.127 325.3003,47.631 325.3973,46.977 L327.6493,31.704 C327.7733,30.863 327.9983,30.191 328.3243,29.686 C328.6503,29.182 329.0403,28.858 329.4943,28.713 C329.9423,28.571 330.2733,28.663 330.4893,28.991 C330.7053,29.318 330.7503,29.907 330.6253,30.757" id="Fill-21" fill="#006FF1"></path>
                <path d="M352.3428,24.8349 L345.6408,26.9679 L344.8968,32.0119 L351.0678,30.0479 C351.5218,29.9039 351.8398,29.9379 352.0218,30.1519 C352.2038,30.3659 352.2598,30.7059 352.1908,31.1729 C352.1218,31.6399 351.9558,32.0559 351.6918,32.4199 C351.4278,32.7849 351.0658,33.0399 350.6048,33.1869 L344.4338,35.1509 L343.5718,40.9939 L350.5048,38.7879 C350.9718,38.6389 351.3018,38.6789 351.4938,38.9069 C351.6868,39.1349 351.7458,39.5009 351.6708,40.0059 C351.5998,40.4909 351.4228,40.9239 351.1408,41.3029 C350.8588,41.6819 350.4838,41.9459 350.0168,42.0949 L341.9318,44.6669 C341.2838,44.8729 340.8478,44.8209 340.6228,44.5089 C340.3988,44.1979 340.3518,43.5939 340.4848,42.6969 L342.7618,27.2559 C342.8498,26.6579 342.9858,26.1499 343.1688,25.7309 C343.3508,25.3119 343.5908,24.9739 343.8868,24.7149 C344.1828,24.4559 344.5408,24.2589 344.9618,24.1259 L352.8158,21.6259 C353.2908,21.4749 353.6208,21.5099 353.8078,21.7309 C353.9948,21.9519 354.0538,22.3009 353.9828,22.7769 C353.9118,23.2629 353.7388,23.6899 353.4648,24.0569 C353.1908,24.4249 352.8168,24.6839 352.3428,24.8349" id="Fill-23" fill="#006FF1"></path>
                <path d="M365.8548,20.7492 L362.6088,21.7822 L360.4078,36.7052 C360.2808,37.5642 360.0498,38.2452 359.7148,38.7482 C359.3798,39.2512 358.9948,39.5712 358.5608,39.7092 C358.1198,39.8502 357.7918,39.7542 357.5768,39.4222 C357.3618,39.0892 357.3168,38.4982 357.4418,37.6482 L359.6428,22.7252 L356.3968,23.7582 C355.8898,23.9202 355.5358,23.8832 355.3348,23.6492 C355.1338,23.4152 355.0708,23.0412 355.1468,22.5272 C355.2248,21.9952 355.4158,21.5332 355.7188,21.1432 C356.0208,20.7532 356.4158,20.4812 356.9038,20.3252 L366.3608,17.3162 C366.8758,17.1522 367.2348,17.1902 367.4378,17.4272 C367.6418,17.6652 367.7058,18.0412 367.6298,18.5552 C367.5538,19.0692 367.3658,19.5222 367.0658,19.9162 C366.7658,20.3102 366.3628,20.5872 365.8548,20.7492" id="Fill-25" fill="#006FF1"></path>
                <path d="M377.2866,16.9781 L375.2306,30.9201 L377.4846,30.2031 C377.9786,30.0451 378.3686,29.9031 378.6546,29.7771 C378.9406,29.6501 379.2456,29.4641 379.5676,29.2191 C379.8906,28.9741 380.1816,28.6811 380.4426,28.3401 C381.6106,26.8461 382.4076,24.6611 382.8316,21.7841 C383.1306,19.7571 383.1356,18.3081 382.8476,17.4391 C382.5586,16.5691 382.1146,16.0991 381.5136,16.0271 C380.9126,15.9551 380.1586,16.0641 379.2506,16.3531 L377.2866,16.9781 Z M376.6206,14.0521 L380.4976,12.8181 C381.5056,12.4971 382.3516,12.3531 383.0346,12.3851 C383.7166,12.4171 384.2996,12.6991 384.7806,13.2311 C386.0406,14.5751 386.3946,17.1161 385.8436,20.8521 C385.6616,22.0851 385.4186,23.2361 385.1146,24.3031 C384.8106,25.3701 384.4386,26.3631 383.9976,27.2821 C383.5566,28.2021 383.0376,29.0631 382.4416,29.8671 C381.9746,30.4881 381.4856,31.0221 380.9736,31.4691 C380.4616,31.9171 379.9286,32.2871 379.3726,32.5801 C378.8176,32.8721 378.2026,33.1261 377.5276,33.3411 L373.6506,34.5741 C373.1096,34.7461 372.7186,34.7621 372.4786,34.6201 C372.2386,34.4781 372.1076,34.2131 372.0856,33.8241 C372.0636,33.4341 372.1006,32.9081 372.1986,32.2451 L374.4206,17.1821 C374.5526,16.2851 374.7926,15.5901 375.1386,15.0971 C375.4856,14.6041 375.9786,14.2561 376.6206,14.0521 L376.6206,14.0521 Z" id="Fill-27" fill="#006FF1"></path>
                <path d="M390.8443,21.4514 L395.2323,20.0554 L394.2683,12.2824 L390.8443,21.4514 Z M395.8943,25.2794 L395.5733,22.9244 L389.6023,24.8244 L388.5123,27.6824 C388.0863,28.7964 387.7503,29.5644 387.5043,29.9864 C387.2573,30.4074 386.9133,30.6884 386.4723,30.8284 C386.0983,30.9474 385.7963,30.8614 385.5653,30.5694 C385.3343,30.2774 385.2553,29.8894 385.3273,29.4034 C385.3683,29.1234 385.4443,28.8234 385.5553,28.5024 C385.6663,28.1824 385.8373,27.7314 386.0693,27.1504 L391.7943,12.6154 C391.9573,12.1984 392.1543,11.6974 392.3833,11.1124 C392.6133,10.5274 392.8393,10.0304 393.0623,9.6214 C393.2843,9.2124 393.5503,8.8544 393.8603,8.5464 C394.1693,8.2384 394.5283,8.0204 394.9353,7.8904 C395.3493,7.7584 395.6793,7.7584 395.9243,7.8894 C396.1683,8.0214 396.3513,8.2324 396.4703,8.5234 C396.5893,8.8154 396.6783,9.1404 396.7363,9.5004 C396.7953,9.8604 396.8653,10.3434 396.9483,10.9494 L398.8303,22.9834 C398.9813,23.8964 399.0233,24.5824 398.9563,25.0404 C398.8863,25.5164 398.6793,25.9984 398.3373,26.4854 C397.9953,26.9724 397.6233,27.2804 397.2223,27.4074 C396.9883,27.4824 396.7973,27.4874 396.6473,27.4244 C396.4973,27.3604 396.3803,27.2464 396.2963,27.0814 C396.2123,26.9164 396.1363,26.6474 396.0673,26.2734 C395.9983,25.8984 395.9403,25.5674 395.8943,25.2794 L395.8943,25.2794 Z" id="Fill-29" fill="#006FF1"></path>
                <path d="M411.1687,6.3307 L407.9227,7.3637 L405.7217,22.2867 C405.5947,23.1457 405.3637,23.8267 405.0287,24.3297 C404.6937,24.8327 404.3087,25.1527 403.8747,25.2907 C403.4337,25.4317 403.1057,25.3357 402.8907,25.0037 C402.6757,24.6707 402.6307,24.0797 402.7557,23.2297 L404.9577,8.3067 L401.7117,9.3397 C401.2037,9.5017 400.8497,9.4647 400.6487,9.2307 C400.4477,8.9967 400.3847,8.6227 400.4607,8.1087 C400.5387,7.5767 400.7297,7.1147 401.0327,6.7247 C401.3347,6.3347 401.7297,6.0627 402.2177,5.9067 L411.6747,2.8977 C412.1897,2.7337 412.5487,2.7717 412.7517,3.0087 C412.9557,3.2467 413.0197,3.6227 412.9437,4.1367 C412.8677,4.6507 412.6797,5.1037 412.3797,5.4977 C412.0797,5.8917 411.6767,6.1687 411.1687,6.3307" id="Fill-31" fill="#006FF1"></path>
                <path d="M415.3296,13.6603 L419.7176,12.2643 L418.7536,4.4913 L415.3296,13.6603 Z M420.3796,17.4883 L420.0586,15.1333 L414.0876,17.0333 L412.9976,19.8913 C412.5716,21.0053 412.2356,21.7733 411.9896,22.1953 C411.7426,22.6163 411.3986,22.8973 410.9576,23.0373 C410.5836,23.1563 410.2816,23.0703 410.0506,22.7783 C409.8196,22.4863 409.7406,22.0983 409.8126,21.6123 C409.8536,21.3323 409.9296,21.0323 410.0406,20.7113 C410.1516,20.3913 410.3226,19.9403 410.5546,19.3593 L416.2796,4.8243 C416.4426,4.4073 416.6396,3.9063 416.8686,3.3213 C417.0986,2.7363 417.3246,2.2393 417.5476,1.8303 C417.7696,1.4213 418.0356,1.0633 418.3456,0.7553 C418.6546,0.4473 419.0136,0.2293 419.4206,0.0993 C419.8346,-0.0327 420.1646,-0.0327 420.4096,0.0983 C420.6536,0.2303 420.8366,0.4413 420.9556,0.7323 C421.0746,1.0243 421.1636,1.3493 421.2216,1.7093 C421.2806,2.0693 421.3506,2.5523 421.4336,3.1583 L423.3156,15.1923 C423.4666,16.1053 423.5086,16.7913 423.4416,17.2493 C423.3716,17.7253 423.1646,18.2073 422.8226,18.6943 C422.4806,19.1813 422.1086,19.4893 421.7076,19.6163 C421.4736,19.6913 421.2826,19.6963 421.1326,19.6333 C420.9826,19.5693 420.8656,19.4553 420.7816,19.2903 C420.6976,19.1253 420.6216,18.8563 420.5526,18.4823 C420.4836,18.1073 420.4256,17.7763 420.3796,17.4883 L420.3796,17.4883 Z" id="Fill-33" fill="#006FF1"></path>
                <polyline id="Stroke-35" stroke="#006FF1" stroke-width="2.053" stroke-linecap="round" stroke-linejoin="round" points="77.3122 178.4069 70.2822 251.6099 179.2832 229.3409"></polyline>
                <polygon id="Fill-37" fill="#006FF1" points="137.5102 191.737 82.6112 205.749 83.3552 198.035 138.3242 183.519"></polygon>
                <polygon id="Fill-39" fill="#006FF1" points="148.2473 202.3466 81.3873 218.4396 82.1313 210.7246 149.0763 194.0166"></polygon>
                <polygon id="Fill-41" fill="#006FF1" points="96.7295 226.9759 80.2035 230.7159 80.9475 222.9989 97.4945 219.1069"></polygon>
                <polygon id="Fill-43" fill="#006FF1" points="111.988 236.167 79.003 243.158 79.748 235.44 112.775 228.145"></polygon>
                <polygon id="Fill-45" fill="#919191" points="102.5568 281.6575 93.3118 283.1525 94.6908 269.0005 103.9568 267.3515"></polygon>
                <polygon id="Fill-47" fill="#F95532" points="101.6674 290.7479 92.4364 292.1449 93.3994 282.2609 102.6454 280.7569"></polygon>
                <polygon id="Fill-49" fill="#39BEE5" points="99.7818 310.0185 90.5798 311.2085 92.4368 292.1455 101.6678 290.7475"></polygon>
                <polygon id="Fill-51" fill="#3A3A3A" points="98.6203 321.8872 89.4353 322.9492 90.5793 311.2082 99.7813 310.0182"></polygon>
                <polygon id="Fill-53" fill="#919191" points="198.3542 263.4185 189.1052 264.9485 189.9882 256.2485 199.2492 254.6325"></polygon>
                <polygon id="Fill-55" fill="#F95532" points="197.4413 272.3751 188.2043 273.8181 189.1043 264.9491 198.3543 263.4181"></polygon>
                <polygon id="Fill-57" fill="#39BEE5" points="194.8649 297.6543 185.6609 298.8523 188.2039 273.8183 197.4409 272.3753"></polygon>
                <polygon id="Fill-59" fill="#3A3A3A" points="193.2206 313.7856 184.0386 314.8276 185.6616 298.8526 194.8646 297.6546"></polygon>
                <polygon id="Fill-61" fill="#919191" points="285.2226 252.9442 275.9766 254.4472 278.0556 234.5882 287.3256 232.9072"></polygon>
                <polygon id="Fill-63" fill="#F95532" points="282.7856 276.1572 273.5686 277.4532 276.1076 253.1962 285.3546 251.6822"></polygon>
                <polygon id="Fill-65" fill="#39BEE5" points="281.0524 292.665 271.8554 293.815 273.5684 277.454 282.7854 276.157"></polygon>
                <polygon id="Fill-67" fill="#3A3A3A" points="279.3072 309.2874 270.1312 310.2894 271.8552 293.8144 281.0522 292.6654"></polygon>
                <polyline id="Stroke-69" stroke="#006FF1" stroke-width="2.053" stroke-linecap="round" stroke-linejoin="round" points="216.4226 138.1384 207.7066 223.5154 316.7276 201.1034"></polyline>
                <polygon id="Fill-71" fill="#006FF1" points="233.8216 164.6841 221.8626 167.7781 217.1476 213.8121 229.0296 211.2801"></polygon>
                <polygon id="Fill-73" fill="#006FF1" points="275.5698 128.5796 263.5688 131.9796 255.9328 205.5416 267.8148 203.0046"></polygon>
                <polygon id="Fill-75" fill="#006FF1" points="308.8711 163.5176 296.9401 166.4096 293.6761 197.4796 305.5591 194.9386"></polygon>
                <polyline id="Stroke-77" stroke="#006FF1" stroke-width="2.053" stroke-linecap="round" stroke-linejoin="round" points="261.6087 150.8624 253.1027 144.8864 232.5747 150.4974"></polyline>
                <path d="M241.1876,140.376 C240.6516,140.527 240.3376,141.037 240.2486,141.905 C240.1596,142.774 240.3826,143.133 240.9186,142.984 C241.1536,142.918 241.3586,142.765 241.5356,142.522 C241.7136,142.28 241.8256,141.922 241.8746,141.45 C241.9226,140.979 241.8796,140.665 241.7436,140.51 C241.6066,140.355 241.4226,140.31 241.1876,140.376 L241.1876,140.376 Z M241.3196,139.098 C241.9566,138.918 242.4706,138.983 242.8626,139.292 C243.2736,139.608 243.4366,140.187 243.3496,141.029 C243.2626,141.873 242.9656,142.591 242.4616,143.185 C241.9916,143.735 241.4326,144.1 240.7856,144.279 C240.1376,144.459 239.6246,144.392 239.2436,144.079 C238.8326,143.742 238.6726,143.153 238.7586,142.314 C238.8456,141.475 239.1386,140.77 239.6426,140.199 C240.1236,139.644 240.6826,139.278 241.3196,139.098 L241.3196,139.098 Z M236.2226,136.899 C236.3106,136.04 236.0806,135.689 235.5336,135.846 C234.9966,136 234.6836,136.507 234.5956,137.364 C234.5066,138.232 234.7306,138.59 235.2666,138.438 C235.8146,138.282 236.1336,137.769 236.2226,136.899 L236.2226,136.899 Z M241.4966,133.109 L243.4936,132.534 L234.9966,145.654 L232.9866,146.211 L241.4966,133.109 Z M235.6806,134.572 C235.9816,134.485 236.2676,134.455 236.5366,134.481 C236.8046,134.508 237.0346,134.599 237.2256,134.752 C237.6376,135.062 237.8006,135.635 237.7146,136.472 C237.6296,137.299 237.3336,138.009 236.8296,138.602 C236.3596,139.153 235.7956,139.521 235.1366,139.708 C234.4986,139.888 233.9906,139.825 233.6086,139.517 C233.1976,139.185 233.0356,138.608 233.1196,137.786 C233.2056,136.952 233.4986,136.25 234.0026,135.679 C234.4836,135.124 235.0426,134.755 235.6806,134.572 L235.6806,134.572 Z" id="Fill-79" fill="#006FF1"></path>
                <polyline id="Stroke-81" stroke="#006FF1" stroke-width="2.053" stroke-linecap="round" stroke-linejoin="round" points="68.7536 267.523 61.7116 340.811 123.3406 334.79"></polyline>
                <polyline id="Stroke-83" stroke="#006FF1" stroke-width="2.053" stroke-linecap="round" stroke-linejoin="round" points="159.9489 250.6098 151.7849 331.9988 213.4219 325.9228"></polyline>
                <polyline id="Stroke-85" stroke="#006FF1" stroke-width="2.053" stroke-linecap="round" stroke-linejoin="round" points="252.1299 233.4341 242.8319 323.0101 304.4759 316.8791"></polyline>
                <path d="M148.1818,186.7288 C148.4028,186.5098 148.5238,186.2868 148.5458,186.0598 C148.5888,185.6288 148.3268,185.3868 147.7608,185.3358 L147.3818,185.3008 L147.1848,187.2848 C147.6298,187.1328 147.9608,186.9478 148.1818,186.7288 L148.1818,186.7288 Z M145.7608,182.8478 C145.5458,183.0578 145.4278,183.2688 145.4068,183.4798 C145.3858,183.6908 145.4348,183.8418 145.5528,183.9318 C145.6708,184.0218 145.8678,184.0748 146.1448,184.0908 L146.4978,184.1308 L146.6788,182.3078 C146.2828,182.4568 145.9768,182.6368 145.7608,182.8478 L145.7608,182.8478 Z M148.5408,184.2038 C149.1318,184.2418 149.5648,184.3708 149.8368,184.5918 C150.1078,184.8128 150.2198,185.1698 150.1708,185.6618 C150.1178,186.1998 149.8338,186.7268 149.3228,187.2428 C148.7598,187.7928 148.0058,188.2188 147.0618,188.5188 L146.9628,189.5168 L145.9368,189.7788 L146.0378,188.7598 C145.1978,188.9018 144.5318,188.8458 144.0418,188.5898 C143.5198,188.3128 143.2968,187.8138 143.3678,187.0918 L144.7988,186.7208 C144.7628,187.0828 144.8618,187.3248 145.0958,187.4478 C145.3298,187.5718 145.6848,187.5978 146.1598,187.5268 L146.3788,185.3308 L145.7868,185.2968 C145.1228,185.2648 144.6168,185.1488 144.2708,184.9488 C143.9268,184.7498 143.7798,184.3828 143.8328,183.8488 C143.8858,183.3148 144.1648,182.8078 144.6698,182.3258 C145.1738,181.8448 145.8818,181.4538 146.7938,181.1538 L146.8788,180.2928 L147.9068,180.0208 L147.8208,180.8928 C148.6048,180.7598 149.1858,180.8268 149.5648,181.0948 C149.9438,181.3638 150.1588,181.7868 150.2138,182.3618 L148.7818,182.7378 C148.7628,182.5218 148.6628,182.3508 148.4818,182.2258 C148.2988,182.1008 148.0398,182.0488 147.7038,182.0718 L147.4978,184.1338 L148.5408,184.2038 Z" id="Fill-87" fill="#006FF1"></path>
                <path d="M158.3781,197.3229 C158.5981,197.1049 158.7201,196.8809 158.7431,196.6509 C158.7861,196.2139 158.5251,195.9639 157.9611,195.9009 L157.5831,195.8589 L157.3831,197.8679 C157.8261,197.7229 158.1581,197.5409 158.3781,197.3229 L158.3781,197.3229 Z M155.9711,193.3389 C155.7571,193.5489 155.6381,193.7609 155.6161,193.9749 C155.5951,194.1889 155.6441,194.3419 155.7611,194.4359 C155.8791,194.5299 156.0761,194.5869 156.3521,194.6079 L156.7041,194.6549 L156.8881,192.8089 C156.4931,192.9519 156.1871,193.1289 155.9711,193.3389 L155.9711,193.3389 Z M158.7411,194.7679 C159.3311,194.8169 159.7621,194.9559 160.0331,195.1849 C160.3031,195.4139 160.4141,195.7779 160.3641,196.2769 C160.3101,196.8219 160.0261,197.3509 159.5151,197.8649 C158.9521,198.4129 158.1991,198.8309 157.2581,199.1189 L157.1571,200.1289 L156.1321,200.3759 L156.2351,199.3439 C155.3971,199.4729 154.7331,199.4029 154.2451,199.1349 C153.7251,198.8439 153.5031,198.3339 153.5761,197.6019 L155.0031,197.2529 C154.9671,197.6189 155.0651,197.8669 155.2981,197.9959 C155.5311,198.1249 155.8861,198.1579 156.3601,198.0949 L156.5821,195.8709 L155.9921,195.8259 C155.3291,195.7809 154.8261,195.6539 154.4811,195.4439 C154.1381,195.2359 153.9921,194.8609 154.0461,194.3199 C154.1001,193.7789 154.3791,193.2689 154.8841,192.7899 C155.3881,192.3109 156.0951,191.9279 157.0051,191.6399 L157.0921,190.7679 L158.1181,190.5109 L158.0301,191.3949 C158.8121,191.2729 159.3921,191.3519 159.7691,191.6319 C160.1461,191.9119 160.3601,192.3449 160.4131,192.9299 L158.9841,193.2839 C158.9671,193.0649 158.8671,192.8899 158.6861,192.7589 C158.5041,192.6289 158.2461,192.5719 157.9101,192.5879 L157.7011,194.6769 L158.7411,194.7679 Z" id="Fill-89" fill="#006FF1"></path>
                <path d="M106.9834,222.3746 C107.2024,222.1686 107.3214,221.9576 107.3434,221.7396 C107.3834,221.3266 107.1204,221.0896 106.5554,221.0296 L106.1784,220.9896 L105.9924,222.8886 C106.4354,222.7516 106.7644,222.5806 106.9834,222.3746 L106.9834,222.3746 Z M104.5474,218.6036 C104.3344,218.8016 104.2164,219.0016 104.1974,219.2036 C104.1774,219.4056 104.2274,219.5506 104.3454,219.6396 C104.4634,219.7286 104.6614,219.7836 104.9374,219.8036 L105.2894,219.8486 L105.4594,218.1036 C105.0654,218.2386 104.7614,218.4056 104.5474,218.6036 L104.5474,218.6036 Z M107.3274,219.9596 C107.9174,220.0066 108.3494,220.1386 108.6214,220.3556 C108.8934,220.5736 109.0074,220.9176 108.9614,221.3896 C108.9104,221.9046 108.6314,222.4046 108.1234,222.8896 C107.5654,223.4066 106.8164,223.8006 105.8774,224.0706 L105.7834,225.0256 L104.7614,225.2576 L104.8564,224.2816 C104.0194,224.4016 103.3554,224.3336 102.8644,224.0796 C102.3434,223.8036 102.1174,223.3206 102.1844,222.6286 L103.6094,222.3016 C103.5754,222.6476 103.6754,222.8826 103.9094,223.0046 C104.1434,223.1276 104.4984,223.1596 104.9714,223.1006 L105.1774,220.9976 L104.5864,220.9546 C103.9244,220.9106 103.4194,220.7896 103.0734,220.5906 C102.7284,220.3926 102.5794,220.0386 102.6294,219.5266 C102.6794,219.0156 102.9554,218.5346 103.4554,218.0826 C103.9564,217.6306 104.6604,217.2686 105.5674,216.9986 L105.6484,216.1746 L106.6724,215.9326 L106.5904,216.7686 C107.3714,216.6546 107.9514,216.7306 108.3314,216.9956 C108.7104,217.2606 108.9274,217.6706 108.9854,218.2236 L107.5594,218.5566 C107.5394,218.3496 107.4384,218.1836 107.2574,218.0596 C107.0744,217.9366 106.8164,217.8816 106.4804,217.8966 L106.2874,219.8716 L107.3274,219.9596 Z" id="Fill-91" fill="#006FF1"></path>
                <path d="M122.2597,231.6614 C122.4787,231.4554 122.5987,231.2424 122.6197,231.0204 C122.6617,230.5994 122.4007,230.3524 121.8377,230.2794 L121.4607,230.2304 L121.2697,232.1664 C121.7117,232.0354 122.0407,231.8674 122.2597,231.6614 L122.2597,231.6614 Z M119.8417,227.7624 C119.6287,227.9604 119.5107,228.1624 119.4907,228.3684 C119.4697,228.5744 119.5197,228.7234 119.6367,228.8164 C119.7547,228.9094 119.9517,228.9694 120.2267,228.9954 L120.5777,229.0494 L120.7527,227.2704 C120.3597,227.3994 120.0557,227.5644 119.8417,227.7624 L119.8417,227.7624 Z M122.6097,229.2014 C123.1977,229.2614 123.6287,229.4044 123.8997,229.6314 C124.1707,229.8594 124.2827,230.2134 124.2347,230.6934 C124.1837,231.2194 123.9027,231.7244 123.3957,232.2094 C122.8377,232.7264 122.0887,233.1144 121.1507,233.3714 L121.0557,234.3454 L120.0347,234.5614 L120.1327,233.5674 C119.2977,233.6734 118.6357,233.5914 118.1477,233.3214 C117.6277,233.0304 117.4037,232.5324 117.4737,231.8274 L118.8947,231.5204 C118.8597,231.8734 118.9587,232.1154 119.1927,232.2444 C119.4257,232.3744 119.7787,232.4144 120.2517,232.3634 L120.4627,230.2204 L119.8737,230.1644 C119.2127,230.1064 118.7097,229.9724 118.3657,229.7634 C118.0217,229.5544 117.8747,229.1894 117.9257,228.6674 C117.9777,228.1464 118.2537,227.6604 118.7547,227.2084 C119.2547,226.7564 119.9577,226.4014 120.8637,226.1434 L120.9467,225.3034 L121.9677,225.0764 L121.8837,225.9284 C122.6637,225.8284 123.2417,225.9164 123.6197,226.1944 C123.9967,226.4734 124.2127,226.8954 124.2677,227.4624 L122.8447,227.7734 C122.8267,227.5614 122.7257,227.3904 122.5447,227.2594 C122.3637,227.1304 122.1057,227.0694 121.7707,227.0784 L121.5727,229.0914 L122.6097,229.2014 Z" id="Fill-93" fill="#006FF1"></path>
                <polygon id="Fill-95" fill="#F6B44B" points="240.3954 171.2816 228.7374 174.2026 224.8244 212.2976 236.4204 209.8266"></polygon>
                <polygon id="Fill-97" fill="#F6B44B" points="280.557 152.7074 268.884 155.7304 263.864 203.9744 275.46 201.4994"></polygon>
                <path d="M215.9661,269.5995 C216.1881,267.4345 214.6531,265.9555 212.5371,266.2945 C210.4211,266.6335 208.5281,268.6495 208.3081,270.7965 C208.0881,272.9445 209.6231,274.4245 211.7371,274.1025 C213.8501,273.7805 215.7441,271.7645 215.9661,269.5995" id="Fill-99" fill="#F6B44B"></path>
                <path d="M121.1019,264.4063 C121.2939,262.4583 119.7289,261.1923 117.6069,261.5783 C115.4839,261.9643 113.6099,263.8433 113.4199,265.7743 C113.2299,267.7053 114.7949,268.9713 116.9149,268.6023 C119.0349,268.2333 120.9099,266.3543 121.1019,264.4063" id="Fill-101" fill="#F6B44B"></path>
                <polygon id="Fill-103" fill="#F6B44B" points="174.8633 167.9288 83.9433 192.5248 84.6343 185.3578 175.6613 159.9878"></polygon>
                <path d="M185.256,162.7465 C185.478,162.5175 185.6,162.2855 185.624,162.0495 C185.669,161.6015 185.408,161.3525 184.842,161.3015 L184.463,161.2685 L184.255,163.3295 C184.701,163.1695 185.034,162.9755 185.256,162.7465 L185.256,162.7465 Z M182.854,158.7295 C182.638,158.9495 182.518,159.1695 182.496,159.3885 C182.473,159.6085 182.522,159.7645 182.64,159.8565 C182.757,159.9505 182.955,160.0035 183.231,160.0185 L183.584,160.0585 L183.775,158.1645 C183.378,158.3205 183.071,158.5095 182.854,158.7295 L182.854,158.7295 Z M185.629,160.1225 C186.22,160.1585 186.652,160.2895 186.923,160.5165 C187.194,160.7445 187.304,161.1145 187.253,161.6255 C187.196,162.1855 186.91,162.7345 186.395,163.2725 C185.829,163.8475 185.072,164.2945 184.126,164.6125 L184.021,165.6495 L182.992,165.9275 L183.099,164.8695 C182.257,165.0215 181.592,164.9675 181.102,164.7045 C180.582,164.4205 180.361,163.9025 180.436,163.1525 L181.87,162.7595 C181.832,163.1355 181.93,163.3865 182.163,163.5125 C182.397,163.6395 182.752,163.6635 183.228,163.5875 L183.459,161.3055 L182.866,161.2735 C182.202,161.2445 181.697,161.1265 181.352,160.9215 C181.008,160.7165 180.863,160.3365 180.918,159.7815 C180.974,159.2265 181.257,158.6975 181.764,158.1945 C182.272,157.6915 182.983,157.2815 183.896,156.9645 L183.987,156.0705 L185.017,155.7815 L184.926,156.6885 C185.711,156.5445 186.292,156.6105 186.67,156.8875 C187.048,157.1645 187.261,157.6025 187.313,158.1995 L185.877,158.5985 C185.86,158.3745 185.761,158.1975 185.58,158.0675 C185.398,157.9395 185.139,157.8875 184.802,157.9125 L184.586,160.0555 L185.629,160.1225 Z" id="Fill-105" fill="#F6B44B"></path>
                <polygon id="Fill-107" fill-opacity="0.4" fill="#FFFFFF" points="30.0979 116.9686 303.3809 6.8206 277.3369 369.2956 0.8279 376.4176"></polygon>
                <path d="M41.2414,140.969 L42.0514,134.335 L39.4904,127.806 C39.2684,127.215 39.1184,126.744 39.0394,126.395 C38.9594,126.046 38.9384,125.724 38.9744,125.429 C39.0334,124.944 39.2144,124.475 39.5164,124.021 C39.8184,123.567 40.1604,123.264 40.5414,123.114 C40.9424,122.956 41.2254,123.001 41.3924,123.247 C41.5594,123.494 41.7894,124.026 42.0844,124.842 L44.0084,130.128 L47.5124,122.704 C47.7244,122.249 47.9024,121.866 48.0464,121.556 C48.1904,121.246 48.3434,120.948 48.5074,120.662 C48.6704,120.376 48.8414,120.138 49.0204,119.95 C49.1994,119.762 49.4074,119.621 49.6444,119.528 C50.0114,119.383 50.2974,119.435 50.5014,119.686 C50.7054,119.936 50.7794,120.289 50.7234,120.746 C50.6784,121.116 50.5714,121.512 50.4014,121.932 C50.2304,122.352 49.9544,122.95 49.5724,123.725 L44.9764,133.182 L44.1674,139.816 C44.0614,140.682 43.8444,141.383 43.5164,141.919 C43.1884,142.456 42.8114,142.809 42.3844,142.977 C41.9504,143.148 41.6254,143.074 41.4074,142.757 C41.1904,142.44 41.1344,141.844 41.2414,140.969" id="Fill-109" fill="#F6B44B"></path>
                <path d="M61.8868,124.9439 C62.0738,123.4129 62.0648,122.1529 61.8598,121.1649 C61.6558,120.1779 61.2718,119.5209 60.7078,119.1949 C60.1448,118.8689 59.4528,118.8679 58.6318,119.1919 C58.0468,119.4219 57.4868,119.7939 56.9528,120.3079 C56.4178,120.8219 55.9338,121.4539 55.5018,122.2039 C55.0698,122.9539 54.6928,123.8419 54.3698,124.8699 C54.0478,125.8979 53.8148,127.0019 53.6708,128.1809 C53.5258,129.3699 53.4978,130.4039 53.5878,131.2829 C53.6768,132.1619 53.8718,132.8439 54.1728,133.3279 C54.4728,133.8109 54.8488,134.1139 55.2998,134.2349 C55.7508,134.3559 56.2688,134.3009 56.8528,134.0709 C57.6018,133.7759 58.3228,133.2339 59.0158,132.4439 C59.7098,131.6549 60.3108,130.6219 60.8198,129.3439 C61.3288,128.0649 61.6848,126.5989 61.8868,124.9439 M59.0418,115.8249 C60.5398,115.2349 61.7718,115.1679 62.7378,115.6249 C63.7048,116.0819 64.3648,117.0119 64.7188,118.4159 C65.0718,119.8209 65.1158,121.6169 64.8488,123.8039 C64.6508,125.4209 64.3208,126.9499 63.8578,128.3909 C63.3938,129.8319 62.8008,131.1569 62.0788,132.3649 C61.3558,133.5729 60.5228,134.6079 59.5808,135.4679 C58.6378,136.3279 57.5978,136.9819 56.4618,137.4299 C55.3328,137.8749 54.3528,138.0099 53.5248,137.8339 C52.6958,137.6579 52.0408,137.2069 51.5608,136.4819 C51.0798,135.7569 50.7698,134.7789 50.6288,133.5489 C50.4888,132.3189 50.5138,130.9189 50.7058,129.3499 C50.9018,127.7419 51.2408,126.2049 51.7228,124.7389 C52.2048,123.2719 52.8058,121.9489 53.5248,120.7689 C54.2438,119.5899 55.0678,118.5789 55.9958,117.7379 C56.9228,116.8969 57.9388,116.2599 59.0418,115.8249" id="Fill-111" fill="#F6B44B"></path>
                <path d="M67.146,124.6508 L68.373,114.5928 C68.478,113.7368 68.689,113.0418 69.007,112.5098 C69.326,111.9768 69.702,111.6248 70.135,111.4538 C70.588,111.2758 70.922,111.3478 71.135,111.6708 C71.349,111.9938 71.404,112.5838 71.299,113.4398 L70.044,123.7258 C69.901,124.8958 69.872,125.8378 69.957,126.5518 C70.042,127.2648 70.288,127.7478 70.695,127.9988 C71.102,128.2508 71.719,128.2138 72.546,127.8878 C73.689,127.4368 74.551,126.6788 75.131,125.6128 C75.711,124.5468 76.11,123.1198 76.329,121.3318 L77.594,110.9598 C77.7,110.0938 77.91,109.3978 78.224,108.8708 C78.539,108.3438 78.916,107.9938 79.356,107.8208 C79.796,107.6478 80.126,107.7188 80.347,108.0348 C80.568,108.3508 80.626,108.9408 80.52,109.8068 L79.293,119.8648 C79.093,121.5008 78.817,122.9088 78.463,124.0898 C78.11,125.2698 77.577,126.3938 76.865,127.4628 C76.254,128.3728 75.58,129.1278 74.845,129.7248 C74.109,130.3228 73.275,130.8058 72.342,131.1728 C71.233,131.6098 70.298,131.8128 69.539,131.7818 C68.78,131.7498 68.192,131.4708 67.776,130.9418 C67.359,130.4138 67.101,129.6278 67.004,128.5838 C66.906,127.5408 66.953,126.2298 67.146,124.6508" id="Fill-113" fill="#F6B44B"></path>
                <path d="M89.1695,107.3222 L86.4705,108.3862 L85.7685,114.1352 L88.3895,113.1032 C89.0915,112.8262 89.6935,112.5052 90.1945,112.1402 C90.6955,111.7752 91.0985,111.3312 91.4025,110.8082 C91.7075,110.2862 91.9045,109.6532 91.9955,108.9112 C92.0655,108.3312 92.0265,107.8602 91.8765,107.4982 C91.7275,107.1362 91.4855,106.9172 91.1505,106.8402 C90.8345,106.7652 90.1745,106.9262 89.1695,107.3222 M86.4225,116.7702 L85.3975,117.1742 L84.5775,123.8942 C84.4695,124.7782 84.2555,125.4832 83.9355,126.0072 C83.6145,126.5322 83.2385,126.8802 82.8045,127.0502 C82.3385,127.2342 82.0035,127.1582 81.8015,126.8212 C81.5985,126.4852 81.5485,125.8932 81.6515,125.0472 L83.6155,108.9532 C83.7275,108.0402 83.9495,107.3242 84.2815,106.8032 C84.6135,106.2832 85.0955,105.8992 85.7255,105.6502 L90.4835,103.7762 C91.1405,103.5172 91.6975,103.3362 92.1535,103.2332 C92.6105,103.1302 93.0105,103.1292 93.3545,103.2282 C93.7735,103.3262 94.1265,103.5632 94.4115,103.9392 C94.6975,104.3162 94.8885,104.8082 94.9865,105.4172 C95.0845,106.0262 95.0865,106.7112 94.9935,107.4722 C94.8035,109.0322 94.3475,110.3972 93.6265,111.5692 C92.9045,112.7402 91.9035,113.7642 90.6205,114.6412 C91.0905,114.8362 91.5145,115.2302 91.8925,115.8242 C92.2705,116.4172 92.5905,117.0812 92.8545,117.8142 C93.1185,118.5482 93.3105,119.2282 93.4305,119.8552 C93.5515,120.4832 93.5955,120.9292 93.5625,121.1962 C93.5285,121.4712 93.4345,121.7692 93.2805,122.0882 C93.1255,122.4072 92.9335,122.6862 92.7045,122.9262 C92.4755,123.1652 92.2225,123.3402 91.9465,123.4482 C91.6185,123.5782 91.3565,123.5752 91.1605,123.4392 C90.9645,123.3042 90.8065,123.0962 90.6875,122.8172 C90.5685,122.5382 90.4115,122.1202 90.2165,121.5632 L89.3895,119.2002 C89.0955,118.3292 88.8155,117.6882 88.5505,117.2762 C88.2845,116.8652 87.9935,116.6272 87.6765,116.5612 C87.3595,116.4962 86.9415,116.5662 86.4225,116.7702" id="Fill-115" fill="#F6B44B"></path>
                <path d="M106.0438,100.8365 L104.3118,115.0325 L106.5278,114.1585 C107.0138,113.9675 107.3968,113.7985 107.6778,113.6515 C107.9578,113.5045 108.2558,113.2965 108.5698,113.0285 C108.8838,112.7595 109.1658,112.4445 109.4168,112.0835 C110.5408,110.4995 111.2828,108.2425 111.6398,105.3135 C111.8918,103.2495 111.8648,101.7885 111.5608,100.9305 C111.2558,100.0735 110.8048,99.6285 110.2088,99.5965 C109.6128,99.5635 108.8678,99.7235 107.9748,100.0755 L106.0438,100.8365 Z M105.3198,97.9305 L109.1328,96.4275 C110.1238,96.0375 110.9588,95.8355 111.6348,95.8225 C112.3118,95.8085 112.8948,96.0545 113.3838,96.5595 C114.6598,97.8305 115.0658,100.3695 114.6018,104.1735 C114.4488,105.4295 114.2328,106.6045 113.9558,107.7015 C113.6778,108.7975 113.3308,109.8235 112.9138,110.7805 C112.4968,111.7365 112.0028,112.6405 111.4298,113.4905 C110.9808,114.1475 110.5078,114.7185 110.0108,115.2035 C109.5138,115.6895 108.9938,116.0985 108.4498,116.4305 C107.9058,116.7615 107.3028,117.0585 106.6388,117.3195 L102.8268,118.8225 C102.2948,119.0315 101.9088,119.0735 101.6678,118.9465 C101.4268,118.8195 101.2908,118.5605 101.2608,118.1695 C101.2298,117.7785 101.2558,117.2455 101.3388,116.5705 L103.2098,101.2335 C103.3218,100.3205 103.5438,99.6035 103.8758,99.0835 C104.2078,98.5625 104.6898,98.1785 105.3198,97.9305 L105.3198,97.9305 Z" id="Fill-117" fill="#F6B44B"></path>
                <path d="M119.567,104.4444 L123.882,102.7444 L122.758,94.9704 L119.567,104.4444 Z M124.651,107.9684 L124.282,105.6154 L118.41,107.9284 L117.393,110.8824 C116.996,112.0354 116.68,112.8314 116.445,113.2734 C116.21,113.7144 115.876,114.0204 115.442,114.1914 C115.075,114.3354 114.773,114.2694 114.538,113.9904 C114.304,113.7114 114.216,113.3254 114.277,112.8304 C114.312,112.5454 114.38,112.2374 114.483,111.9074 C114.586,111.5764 114.746,111.1104 114.963,110.5094 L120.315,95.4714 C120.468,95.0404 120.651,94.5214 120.866,93.9164 C121.08,93.3114 121.293,92.7954 121.505,92.3684 C121.717,91.9404 121.972,91.5614 122.272,91.2304 C122.572,90.8994 122.922,90.6554 123.323,90.4974 C123.73,90.3364 124.056,90.3144 124.301,90.4304 C124.547,90.5474 124.732,90.7484 124.856,91.0344 C124.981,91.3194 125.076,91.6424 125.141,92.0014 C125.207,92.3604 125.287,92.8424 125.382,93.4474 L127.508,105.4574 C127.678,106.3684 127.735,107.0564 127.678,107.5224 C127.619,108.0084 127.425,108.5074 127.097,109.0214 C126.768,109.5364 126.407,109.8704 126.013,110.0264 C125.783,110.1164 125.593,110.1344 125.444,110.0804 C125.294,110.0264 125.176,109.9194 125.089,109.7584 C125.002,109.5984 124.921,109.3314 124.844,108.9584 C124.768,108.5854 124.704,108.2554 124.651,107.9684 L124.651,107.9684 Z" id="Fill-119" fill="#F6B44B"></path>
                <path d="M139.3636,87.8439 L136.1716,89.1019 L134.3176,104.2959 C134.2106,105.1709 133.9966,105.8729 133.6756,106.4019 C133.3546,106.9319 132.9816,107.2809 132.5546,107.4489 C132.1206,107.6199 131.7936,107.5449 131.5736,107.2239 C131.3536,106.9029 131.2956,106.3099 131.4016,105.4449 L133.2556,90.2509 L130.0636,91.5079 C129.5646,91.7049 129.2136,91.6919 129.0086,91.4689 C128.8046,91.2459 128.7346,90.8729 128.7986,90.3499 C128.8646,89.8079 129.0436,89.3299 129.3346,88.9159 C129.6256,88.5029 130.0106,88.2019 130.4906,88.0129 L139.7906,84.3489 C140.2956,84.1489 140.6526,84.1629 140.8586,84.3889 C141.0656,84.6159 141.1376,84.9899 141.0736,85.5129 C141.0096,86.0369 140.8336,86.5069 140.5446,86.9239 C140.2566,87.3409 139.8626,87.6469 139.3636,87.8439" id="Fill-121" fill="#F6B44B"></path>
                <path d="M143.6438,94.9578 L147.9588,93.2578 L146.8348,85.4838 L143.6438,94.9578 Z M148.7278,98.4818 L148.3588,96.1288 L142.4868,98.4418 L141.4698,101.3958 C141.0728,102.5488 140.7568,103.3448 140.5218,103.7868 C140.2868,104.2278 139.9528,104.5338 139.5188,104.7048 C139.1518,104.8488 138.8498,104.7828 138.6148,104.5038 C138.3808,104.2248 138.2928,103.8388 138.3538,103.3438 C138.3888,103.0588 138.4568,102.7508 138.5598,102.4208 C138.6628,102.0898 138.8228,101.6238 139.0398,101.0228 L144.3918,85.9848 C144.5448,85.5538 144.7278,85.0348 144.9428,84.4298 C145.1568,83.8248 145.3698,83.3088 145.5818,82.8818 C145.7938,82.4538 146.0488,82.0748 146.3488,81.7438 C146.6488,81.4128 146.9988,81.1688 147.3998,81.0108 C147.8068,80.8498 148.1328,80.8278 148.3778,80.9438 C148.6238,81.0608 148.8088,81.2618 148.9328,81.5478 C149.0578,81.8328 149.1528,82.1558 149.2178,82.5148 C149.2838,82.8738 149.3638,83.3558 149.4588,83.9608 L151.5848,95.9708 C151.7548,96.8818 151.8118,97.5698 151.7548,98.0358 C151.6958,98.5218 151.5018,99.0208 151.1738,99.5348 C150.8448,100.0498 150.4838,100.3838 150.0898,100.5398 C149.8598,100.6298 149.6698,100.6478 149.5208,100.5938 C149.3708,100.5398 149.2528,100.4328 149.1658,100.2718 C149.0788,100.1118 148.9978,99.8448 148.9208,99.4718 C148.8448,99.0988 148.7808,98.7688 148.7278,98.4818 L148.7278,98.4818 Z" id="Fill-123" fill="#F6B44B"></path>
                <polygon id="Stroke-125" stroke="#F6B44B" stroke-width="5" stroke-linecap="round" stroke-linejoin="round" points="29.7701 116.9686 303.0531 6.8206 277.0091 369.2956 0.5001 376.4176"></polygon>
            </g>
        </g>
    </g>
</svg>